G04 #@! TF.GenerationSoftware,KiCad,Pcbnew,8.0.5*
G04 #@! TF.CreationDate,2025-02-16T04:26:01+09:00*
G04 #@! TF.ProjectId,usb_serial,7573625f-7365-4726-9961-6c2e6b696361,rev?*
G04 #@! TF.SameCoordinates,Original*
G04 #@! TF.FileFunction,Copper,L1,Top*
G04 #@! TF.FilePolarity,Positive*
%FSLAX46Y46*%
G04 Gerber Fmt 4.6, Leading zero omitted, Abs format (unit mm)*
G04 Created by KiCad (PCBNEW 8.0.5) date 2025-02-16 04:26:01*
%MOMM*%
%LPD*%
G01*
G04 APERTURE LIST*
G04 Aperture macros list*
%AMRoundRect*
0 Rectangle with rounded corners*
0 $1 Rounding radius*
0 $2 $3 $4 $5 $6 $7 $8 $9 X,Y pos of 4 corners*
0 Add a 4 corners polygon primitive as box body*
4,1,4,$2,$3,$4,$5,$6,$7,$8,$9,$2,$3,0*
0 Add four circle primitives for the rounded corners*
1,1,$1+$1,$2,$3*
1,1,$1+$1,$4,$5*
1,1,$1+$1,$6,$7*
1,1,$1+$1,$8,$9*
0 Add four rect primitives between the rounded corners*
20,1,$1+$1,$2,$3,$4,$5,0*
20,1,$1+$1,$4,$5,$6,$7,0*
20,1,$1+$1,$6,$7,$8,$9,0*
20,1,$1+$1,$8,$9,$2,$3,0*%
G04 Aperture macros list end*
G04 #@! TA.AperFunction,SMDPad,CuDef*
%ADD10RoundRect,0.100000X0.100000X0.575000X-0.100000X0.575000X-0.100000X-0.575000X0.100000X-0.575000X0*%
G04 #@! TD*
G04 #@! TA.AperFunction,ComponentPad*
%ADD11O,0.890000X1.550000*%
G04 #@! TD*
G04 #@! TA.AperFunction,SMDPad,CuDef*
%ADD12RoundRect,0.250000X0.475000X0.525000X-0.475000X0.525000X-0.475000X-0.525000X0.475000X-0.525000X0*%
G04 #@! TD*
G04 #@! TA.AperFunction,ComponentPad*
%ADD13O,1.250000X0.950000*%
G04 #@! TD*
G04 #@! TA.AperFunction,SMDPad,CuDef*
%ADD14RoundRect,0.250000X0.500000X0.525000X-0.500000X0.525000X-0.500000X-0.525000X0.500000X-0.525000X0*%
G04 #@! TD*
G04 #@! TA.AperFunction,SMDPad,CuDef*
%ADD15RoundRect,0.225000X-0.225000X-0.250000X0.225000X-0.250000X0.225000X0.250000X-0.225000X0.250000X0*%
G04 #@! TD*
G04 #@! TA.AperFunction,SMDPad,CuDef*
%ADD16R,1.300000X0.380000*%
G04 #@! TD*
G04 #@! TA.AperFunction,SMDPad,CuDef*
%ADD17RoundRect,0.140000X-0.140000X-0.170000X0.140000X-0.170000X0.140000X0.170000X-0.140000X0.170000X0*%
G04 #@! TD*
G04 #@! TA.AperFunction,SMDPad,CuDef*
%ADD18RoundRect,0.243750X0.456250X-0.243750X0.456250X0.243750X-0.456250X0.243750X-0.456250X-0.243750X0*%
G04 #@! TD*
G04 #@! TA.AperFunction,SMDPad,CuDef*
%ADD19RoundRect,0.140000X-0.170000X0.140000X-0.170000X-0.140000X0.170000X-0.140000X0.170000X0.140000X0*%
G04 #@! TD*
G04 #@! TA.AperFunction,SMDPad,CuDef*
%ADD20RoundRect,0.243750X-0.456250X0.243750X-0.456250X-0.243750X0.456250X-0.243750X0.456250X0.243750X0*%
G04 #@! TD*
G04 #@! TA.AperFunction,SMDPad,CuDef*
%ADD21RoundRect,0.250000X0.475000X-0.250000X0.475000X0.250000X-0.475000X0.250000X-0.475000X-0.250000X0*%
G04 #@! TD*
G04 #@! TA.AperFunction,SMDPad,CuDef*
%ADD22RoundRect,0.135000X0.135000X0.185000X-0.135000X0.185000X-0.135000X-0.185000X0.135000X-0.185000X0*%
G04 #@! TD*
G04 #@! TA.AperFunction,ComponentPad*
%ADD23R,1.700000X1.700000*%
G04 #@! TD*
G04 #@! TA.AperFunction,ComponentPad*
%ADD24O,1.700000X1.700000*%
G04 #@! TD*
G04 #@! TA.AperFunction,ViaPad*
%ADD25C,0.500000*%
G04 #@! TD*
G04 #@! TA.AperFunction,Conductor*
%ADD26C,0.200000*%
G04 #@! TD*
G04 #@! TA.AperFunction,Conductor*
%ADD27C,0.400000*%
G04 #@! TD*
G04 #@! TA.AperFunction,Conductor*
%ADD28C,0.101600*%
G04 #@! TD*
G04 APERTURE END LIST*
D10*
X140300000Y-64190000D03*
X139650000Y-64190000D03*
X139000000Y-64190000D03*
X138350000Y-64190000D03*
X137700000Y-64190000D03*
D11*
X142500000Y-61490000D03*
D12*
X142025000Y-61490000D03*
D13*
X141500000Y-64190000D03*
D14*
X140000000Y-61490000D03*
X138000000Y-61490000D03*
D13*
X136500000Y-64190000D03*
D12*
X135975000Y-61490000D03*
D11*
X135500000Y-61490000D03*
D15*
X142715000Y-66650000D03*
X144265000Y-66650000D03*
D16*
X135300000Y-70275000D03*
X135300000Y-70925000D03*
X135300000Y-71575000D03*
X135300000Y-72225000D03*
X135300000Y-72875000D03*
X135300000Y-73525000D03*
X135300000Y-74175000D03*
X135300000Y-74825000D03*
X135300000Y-75475000D03*
X135300000Y-76125000D03*
X135300000Y-76775000D03*
X135300000Y-77425000D03*
X135300000Y-78075000D03*
X135300000Y-78725000D03*
X142700000Y-78725000D03*
X142700000Y-78075000D03*
X142700000Y-77425000D03*
X142700000Y-76775000D03*
X142700000Y-76125000D03*
X142700000Y-75475000D03*
X142700000Y-74825000D03*
X142700000Y-74175000D03*
X142700000Y-73525000D03*
X142700000Y-72875000D03*
X142700000Y-72225000D03*
X142700000Y-71575000D03*
X142700000Y-70925000D03*
X142700000Y-70275000D03*
D17*
X144980000Y-75640000D03*
X145940000Y-75640000D03*
D18*
X146200000Y-63307500D03*
X146200000Y-61432500D03*
D19*
X144990000Y-78380000D03*
X144990000Y-79340000D03*
D20*
X131840000Y-79112500D03*
X131840000Y-80987500D03*
D21*
X145520000Y-74240000D03*
X145520000Y-72340000D03*
D22*
X132350000Y-77350000D03*
X131330000Y-77350000D03*
X146710000Y-66640000D03*
X145690000Y-66640000D03*
D20*
X131840000Y-68122500D03*
X131840000Y-69997500D03*
D22*
X132350000Y-66360000D03*
X131330000Y-66360000D03*
D23*
X135190000Y-87400000D03*
D24*
X137730000Y-87400000D03*
X140270000Y-87400000D03*
X142810000Y-87400000D03*
D25*
X141390000Y-74820000D03*
X144430000Y-68020000D03*
X136770000Y-74190000D03*
X146840000Y-75660000D03*
X141410000Y-76770000D03*
X146710000Y-65840000D03*
X141425000Y-72225000D03*
X144200000Y-72340000D03*
X144990000Y-80180000D03*
X144290000Y-74240000D03*
X145570000Y-69480000D03*
X140290000Y-81230000D03*
X132860000Y-78190000D03*
D26*
X141724999Y-78725000D02*
X142700000Y-78725000D01*
X140076800Y-78625000D02*
X141624999Y-78625000D01*
X139100000Y-65337501D02*
X139100000Y-77648200D01*
X139100000Y-77648200D02*
X140076800Y-78625000D01*
X139000000Y-65237501D02*
X139100000Y-65337501D01*
X141624999Y-78625000D02*
X141724999Y-78725000D01*
X139000000Y-64140000D02*
X139000000Y-65237501D01*
X141624999Y-78175000D02*
X141724999Y-78075000D01*
X140263200Y-78175000D02*
X141624999Y-78175000D01*
X139550000Y-77461800D02*
X140263200Y-78175000D01*
X139550000Y-65337501D02*
X139550000Y-77461800D01*
X139650000Y-64140000D02*
X139650000Y-65237501D01*
X139650000Y-65237501D02*
X139550000Y-65337501D01*
X141724999Y-78075000D02*
X142700000Y-78075000D01*
D27*
X140300000Y-65490000D02*
X140300000Y-64140000D01*
X141460000Y-66650000D02*
X140300000Y-65490000D01*
X142715000Y-66650000D02*
X141460000Y-66650000D01*
X144265000Y-67855000D02*
X144430000Y-68020000D01*
X144265000Y-66650000D02*
X144265000Y-67855000D01*
X144170000Y-69480000D02*
X145570000Y-69480000D01*
X142715000Y-68025000D02*
X144170000Y-69480000D01*
D28*
X145097500Y-61432500D02*
X146200000Y-61432500D01*
X144750000Y-61780000D02*
X145097500Y-61432500D01*
D27*
X142715000Y-66650000D02*
X142715000Y-68025000D01*
D28*
X142715000Y-65945000D02*
X144750000Y-63910000D01*
X144750000Y-63910000D02*
X144750000Y-61780000D01*
X142715000Y-66650000D02*
X142715000Y-65945000D01*
D27*
X141415000Y-76775000D02*
X141410000Y-76770000D01*
D28*
X146710000Y-66640000D02*
X146710000Y-65840000D01*
D27*
X145940000Y-75640000D02*
X146820000Y-75640000D01*
X145520000Y-72340000D02*
X144200000Y-72340000D01*
X144990000Y-79340000D02*
X144990000Y-80180000D01*
X142700000Y-71575000D02*
X142075000Y-71575000D01*
X142075000Y-71575000D02*
X141425000Y-72225000D01*
X142700000Y-76775000D02*
X141415000Y-76775000D01*
X136755000Y-74175000D02*
X136770000Y-74190000D01*
X146820000Y-75640000D02*
X146840000Y-75660000D01*
X135300000Y-74175000D02*
X136755000Y-74175000D01*
X141425000Y-72225000D02*
X142700000Y-72225000D01*
X142700000Y-74825000D02*
X141395000Y-74825000D01*
X141395000Y-74825000D02*
X141390000Y-74820000D01*
X145280000Y-84160000D02*
X146180000Y-83260000D01*
X144290000Y-74240000D02*
X145520000Y-74240000D01*
X135190000Y-85090000D02*
X136120000Y-84160000D01*
X145520000Y-74600000D02*
X144980000Y-75140000D01*
X142700000Y-75475000D02*
X143755000Y-75475000D01*
X145520000Y-74240000D02*
X145520000Y-74600000D01*
X144980000Y-76390000D02*
X144980000Y-75640000D01*
X146180000Y-83260000D02*
X146180000Y-77590000D01*
X143755000Y-75475000D02*
X143920000Y-75640000D01*
X144980000Y-75140000D02*
X144980000Y-75640000D01*
X135190000Y-87400000D02*
X135190000Y-85090000D01*
X146180000Y-77590000D02*
X144980000Y-76390000D01*
X143920000Y-75640000D02*
X144980000Y-75640000D01*
X136120000Y-84160000D02*
X145280000Y-84160000D01*
X136670000Y-69840000D02*
X136160000Y-69330000D01*
X136265000Y-72225000D02*
X136670000Y-71820000D01*
X135432500Y-82620000D02*
X133800000Y-80987500D01*
X142390000Y-82620000D02*
X135432500Y-82620000D01*
X134165000Y-72225000D02*
X133800000Y-72590000D01*
X136160000Y-69330000D02*
X132507500Y-69330000D01*
X144535000Y-77425000D02*
X144980000Y-77870000D01*
X135300000Y-72225000D02*
X136265000Y-72225000D01*
X144040000Y-80970000D02*
X142390000Y-82620000D01*
X133800000Y-72590000D02*
X133800000Y-80987500D01*
X144980000Y-77870000D02*
X144980000Y-78390000D01*
X144040000Y-78780000D02*
X144040000Y-80970000D01*
X136670000Y-71820000D02*
X136670000Y-69840000D01*
X144440000Y-78380000D02*
X144040000Y-78780000D01*
X133800000Y-80987500D02*
X131840000Y-80987500D01*
X142700000Y-77425000D02*
X144535000Y-77425000D01*
X135300000Y-72225000D02*
X134165000Y-72225000D01*
X144990000Y-78380000D02*
X144440000Y-78380000D01*
X132507500Y-69330000D02*
X131840000Y-69997500D01*
D28*
X131840000Y-78430000D02*
X131840000Y-79112500D01*
X131330000Y-77920000D02*
X131840000Y-78430000D01*
X131330000Y-77350000D02*
X131330000Y-77920000D01*
X131730000Y-67300000D02*
X131730000Y-67310000D01*
X131330000Y-66900000D02*
X131730000Y-67300000D01*
X131840000Y-67420000D02*
X131840000Y-68122500D01*
X131730000Y-67310000D02*
X131840000Y-67420000D01*
X131330000Y-66360000D02*
X131330000Y-66900000D01*
X145690000Y-65200000D02*
X145690000Y-66640000D01*
X146200000Y-64690000D02*
X145690000Y-65200000D01*
X146200000Y-63307500D02*
X146200000Y-64690000D01*
X136475000Y-72875000D02*
X136525000Y-72825000D01*
X137590000Y-71760000D02*
X137590000Y-69790000D01*
X136525000Y-72825000D02*
X137590000Y-71760000D01*
X137600000Y-71740000D02*
X137600000Y-71750000D01*
X137570000Y-71770000D02*
X137600000Y-71740000D01*
X140290000Y-81210000D02*
X137570000Y-78490000D01*
X134160000Y-66360000D02*
X132350000Y-66360000D01*
X137570000Y-78490000D02*
X137570000Y-71770000D01*
X135300000Y-72875000D02*
X136475000Y-72875000D01*
X137590000Y-69790000D02*
X134160000Y-66360000D01*
X137600000Y-71750000D02*
X137590000Y-71760000D01*
X140290000Y-81230000D02*
X140290000Y-81210000D01*
X134325000Y-70275000D02*
X135300000Y-70275000D01*
X132860000Y-78190000D02*
X132350000Y-77680000D01*
X132350000Y-77680000D02*
X132350000Y-77350000D01*
X132350000Y-77350000D02*
X132350000Y-72250000D01*
X132350000Y-72250000D02*
X134325000Y-70275000D01*
G04 #@! TA.AperFunction,Conductor*
G36*
X134639173Y-60520185D02*
G01*
X134684928Y-60572989D01*
X134694872Y-60642147D01*
X134675236Y-60693391D01*
X134662555Y-60712368D01*
X134662550Y-60712377D01*
X134591316Y-60884353D01*
X134591314Y-60884361D01*
X134555000Y-61066921D01*
X134555000Y-61240000D01*
X135250000Y-61240000D01*
X135250000Y-61740000D01*
X134555000Y-61740000D01*
X134555000Y-61913078D01*
X134591314Y-62095638D01*
X134591316Y-62095646D01*
X134662550Y-62267622D01*
X134662555Y-62267631D01*
X134765970Y-62422401D01*
X134765973Y-62422405D01*
X134897594Y-62554026D01*
X134897598Y-62554029D01*
X135052368Y-62657444D01*
X135052381Y-62657451D01*
X135224350Y-62728682D01*
X135224355Y-62728683D01*
X135250000Y-62733784D01*
X135250000Y-61864728D01*
X135288060Y-61956614D01*
X135358386Y-62026940D01*
X135450272Y-62065000D01*
X135549728Y-62065000D01*
X135641614Y-62026940D01*
X135711940Y-61956614D01*
X135750000Y-61864728D01*
X135750000Y-62733783D01*
X135775644Y-62728683D01*
X135775649Y-62728682D01*
X135947618Y-62657451D01*
X135947631Y-62657444D01*
X136102401Y-62554029D01*
X136102405Y-62554026D01*
X136234026Y-62422405D01*
X136234029Y-62422401D01*
X136337444Y-62267631D01*
X136337449Y-62267622D01*
X136408683Y-62095646D01*
X136408685Y-62095638D01*
X136444999Y-61913078D01*
X136445000Y-61913076D01*
X136445000Y-61740000D01*
X135750000Y-61740000D01*
X135750000Y-61240000D01*
X136445000Y-61240000D01*
X136445000Y-61066923D01*
X136444999Y-61066921D01*
X136408685Y-60884361D01*
X136408683Y-60884353D01*
X136337449Y-60712377D01*
X136337444Y-60712368D01*
X136324764Y-60693391D01*
X136303886Y-60626713D01*
X136322371Y-60559333D01*
X136374350Y-60512643D01*
X136427866Y-60500500D01*
X141572134Y-60500500D01*
X141639173Y-60520185D01*
X141684928Y-60572989D01*
X141694872Y-60642147D01*
X141675236Y-60693391D01*
X141662555Y-60712368D01*
X141662550Y-60712377D01*
X141591316Y-60884353D01*
X141591314Y-60884361D01*
X141555000Y-61066921D01*
X141555000Y-61240000D01*
X142250000Y-61240000D01*
X142250000Y-61740000D01*
X141555000Y-61740000D01*
X141555000Y-61913078D01*
X141591314Y-62095638D01*
X141591316Y-62095646D01*
X141662550Y-62267622D01*
X141662555Y-62267631D01*
X141765970Y-62422401D01*
X141765973Y-62422405D01*
X141897594Y-62554026D01*
X141897598Y-62554029D01*
X142052368Y-62657444D01*
X142052381Y-62657451D01*
X142224350Y-62728682D01*
X142224355Y-62728683D01*
X142250000Y-62733784D01*
X142250000Y-61864728D01*
X142288060Y-61956614D01*
X142358386Y-62026940D01*
X142450272Y-62065000D01*
X142549728Y-62065000D01*
X142641614Y-62026940D01*
X142711940Y-61956614D01*
X142750000Y-61864728D01*
X142750000Y-62733783D01*
X142775644Y-62728683D01*
X142775649Y-62728682D01*
X142947618Y-62657451D01*
X142947631Y-62657444D01*
X143102401Y-62554029D01*
X143102405Y-62554026D01*
X143234026Y-62422405D01*
X143234029Y-62422401D01*
X143337444Y-62267631D01*
X143337449Y-62267622D01*
X143408683Y-62095646D01*
X143408685Y-62095638D01*
X143444999Y-61913078D01*
X143445000Y-61913076D01*
X143445000Y-61740000D01*
X142750000Y-61740000D01*
X142750000Y-61240000D01*
X143445000Y-61240000D01*
X143445000Y-61066923D01*
X143444999Y-61066921D01*
X143408685Y-60884361D01*
X143408683Y-60884353D01*
X143337449Y-60712377D01*
X143337444Y-60712368D01*
X143324764Y-60693391D01*
X143303886Y-60626713D01*
X143322371Y-60559333D01*
X143374350Y-60512643D01*
X143427866Y-60500500D01*
X145487429Y-60500500D01*
X145554468Y-60520185D01*
X145600223Y-60572989D01*
X145610167Y-60642147D01*
X145581142Y-60705703D01*
X145530765Y-60740680D01*
X145507560Y-60749335D01*
X145504443Y-60750498D01*
X145390669Y-60835669D01*
X145305497Y-60949445D01*
X145267792Y-61050535D01*
X145225921Y-61106468D01*
X145160456Y-61130884D01*
X145151611Y-61131200D01*
X145057833Y-61131200D01*
X145006746Y-61144888D01*
X144981202Y-61151733D01*
X144912498Y-61191399D01*
X144912495Y-61191401D01*
X144508902Y-61594994D01*
X144508900Y-61594997D01*
X144495906Y-61617503D01*
X144495905Y-61617503D01*
X144469234Y-61663699D01*
X144469233Y-61663702D01*
X144448700Y-61740333D01*
X144448700Y-63733835D01*
X144429015Y-63800874D01*
X144412381Y-63821516D01*
X142473901Y-65759995D01*
X142473897Y-65760000D01*
X142470080Y-65766613D01*
X142434233Y-65828701D01*
X142434232Y-65828702D01*
X142434233Y-65828703D01*
X142425593Y-65860947D01*
X142389227Y-65920608D01*
X142349153Y-65945034D01*
X142259773Y-65978372D01*
X142150311Y-66060314D01*
X142083317Y-66149810D01*
X142027384Y-66191682D01*
X141984050Y-66199500D01*
X141697966Y-66199500D01*
X141630927Y-66179815D01*
X141610285Y-66163181D01*
X140786819Y-65339715D01*
X140753334Y-65278392D01*
X140750500Y-65252034D01*
X140750500Y-65182591D01*
X140770185Y-65115552D01*
X140822989Y-65069797D01*
X140892147Y-65059853D01*
X140921953Y-65068030D01*
X141065602Y-65127531D01*
X141065610Y-65127533D01*
X141249999Y-65164210D01*
X141250000Y-65164210D01*
X141250000Y-64446236D01*
X141295299Y-64465000D01*
X141704701Y-64465000D01*
X141750000Y-64446236D01*
X141750000Y-65164210D01*
X141934389Y-65127533D01*
X141934397Y-65127531D01*
X142111833Y-65054035D01*
X142111842Y-65054030D01*
X142271526Y-64947332D01*
X142271530Y-64947329D01*
X142407329Y-64811530D01*
X142407332Y-64811526D01*
X142514030Y-64651842D01*
X142514035Y-64651833D01*
X142587531Y-64474397D01*
X142587533Y-64474389D01*
X142594374Y-64440000D01*
X141765057Y-64440000D01*
X141805775Y-64423134D01*
X141883134Y-64345775D01*
X141925000Y-64244701D01*
X141925000Y-64135299D01*
X141883134Y-64034225D01*
X141805775Y-63956866D01*
X141765057Y-63940000D01*
X142594374Y-63940000D01*
X142587533Y-63905610D01*
X142587531Y-63905602D01*
X142514035Y-63728166D01*
X142514030Y-63728157D01*
X142407332Y-63568473D01*
X142407329Y-63568469D01*
X142271530Y-63432670D01*
X142271526Y-63432667D01*
X142111842Y-63325969D01*
X142111833Y-63325964D01*
X141934397Y-63252468D01*
X141934389Y-63252466D01*
X141750000Y-63215788D01*
X141750000Y-63933763D01*
X141704701Y-63915000D01*
X141295299Y-63915000D01*
X141250000Y-63933763D01*
X141250000Y-63215789D01*
X141249999Y-63215788D01*
X141065610Y-63252466D01*
X141065602Y-63252468D01*
X140888166Y-63325964D01*
X140888159Y-63325968D01*
X140804019Y-63382189D01*
X140737342Y-63403066D01*
X140669962Y-63384581D01*
X140647447Y-63366766D01*
X140606485Y-63325803D01*
X140501391Y-63274426D01*
X140433261Y-63264500D01*
X140433260Y-63264500D01*
X140166740Y-63264500D01*
X140166739Y-63264500D01*
X140098607Y-63274426D01*
X140098606Y-63274426D01*
X140029459Y-63308230D01*
X139960586Y-63319988D01*
X139920541Y-63308230D01*
X139851393Y-63274426D01*
X139783261Y-63264500D01*
X139783260Y-63264500D01*
X139516740Y-63264500D01*
X139516739Y-63264500D01*
X139448607Y-63274426D01*
X139448606Y-63274426D01*
X139379459Y-63308230D01*
X139310586Y-63319988D01*
X139270541Y-63308230D01*
X139201393Y-63274426D01*
X139133261Y-63264500D01*
X139133260Y-63264500D01*
X138866740Y-63264500D01*
X138866739Y-63264500D01*
X138798607Y-63274426D01*
X138798606Y-63274426D01*
X138729459Y-63308230D01*
X138660586Y-63319988D01*
X138620541Y-63308230D01*
X138551393Y-63274426D01*
X138483261Y-63264500D01*
X138483260Y-63264500D01*
X138216740Y-63264500D01*
X138216739Y-63264500D01*
X138148608Y-63274426D01*
X138043514Y-63325803D01*
X137960803Y-63408514D01*
X137909426Y-63513608D01*
X137899500Y-63581739D01*
X137899500Y-64798260D01*
X137909426Y-64866391D01*
X137960803Y-64971485D01*
X138043514Y-65054196D01*
X138043515Y-65054196D01*
X138043517Y-65054198D01*
X138148607Y-65105573D01*
X138182673Y-65110536D01*
X138216739Y-65115500D01*
X138216740Y-65115500D01*
X138483258Y-65115500D01*
X138483260Y-65115500D01*
X138507622Y-65111950D01*
X138576797Y-65121762D01*
X138629688Y-65167416D01*
X138649500Y-65234418D01*
X138649500Y-65283645D01*
X138654793Y-65303396D01*
X138673386Y-65372788D01*
X138673387Y-65372791D01*
X138719528Y-65452711D01*
X138723873Y-65458372D01*
X138749070Y-65523540D01*
X138749500Y-65533862D01*
X138749500Y-77694344D01*
X138767655Y-77762099D01*
X138767657Y-77762104D01*
X138773386Y-77783489D01*
X138819527Y-77863408D01*
X138819529Y-77863411D01*
X138819530Y-77863412D01*
X139861588Y-78905470D01*
X139861589Y-78905471D01*
X139861591Y-78905472D01*
X139901550Y-78928542D01*
X139941512Y-78951614D01*
X140030656Y-78975500D01*
X140122944Y-78975500D01*
X141428639Y-78975500D01*
X141495678Y-78995185D01*
X141504128Y-79001126D01*
X141509783Y-79005465D01*
X141509787Y-79005469D01*
X141509791Y-79005471D01*
X141509792Y-79005472D01*
X141589705Y-79051611D01*
X141589706Y-79051611D01*
X141589711Y-79051614D01*
X141678855Y-79075500D01*
X141801700Y-79075500D01*
X141868739Y-79095185D01*
X141870590Y-79096397D01*
X141952260Y-79150966D01*
X141952263Y-79150966D01*
X141952264Y-79150967D01*
X142025321Y-79165499D01*
X142025324Y-79165500D01*
X142025326Y-79165500D01*
X143374676Y-79165500D01*
X143374677Y-79165499D01*
X143388638Y-79162722D01*
X143441309Y-79152246D01*
X143510900Y-79158473D01*
X143566078Y-79201336D01*
X143589322Y-79267226D01*
X143589500Y-79273863D01*
X143589500Y-80732035D01*
X143569815Y-80799074D01*
X143553181Y-80819716D01*
X142239716Y-82133181D01*
X142178393Y-82166666D01*
X142152035Y-82169500D01*
X135670466Y-82169500D01*
X135603427Y-82149815D01*
X135582785Y-82133181D01*
X134286819Y-80837215D01*
X134253334Y-80775892D01*
X134250500Y-80749534D01*
X134250500Y-79176064D01*
X134270185Y-79109025D01*
X134322989Y-79063270D01*
X134392147Y-79053326D01*
X134455703Y-79082351D01*
X134462181Y-79088383D01*
X134469396Y-79095598D01*
X134469397Y-79095599D01*
X134469399Y-79095601D01*
X134552259Y-79150965D01*
X134552260Y-79150966D01*
X134552264Y-79150967D01*
X134625321Y-79165499D01*
X134625324Y-79165500D01*
X134625326Y-79165500D01*
X135974676Y-79165500D01*
X135974677Y-79165499D01*
X136047740Y-79150966D01*
X136130601Y-79095601D01*
X136185966Y-79012740D01*
X136200500Y-78939674D01*
X136200500Y-78510326D01*
X136200500Y-78510323D01*
X136200499Y-78510321D01*
X136183584Y-78425281D01*
X136187720Y-78424458D01*
X136182710Y-78378032D01*
X136183677Y-78374737D01*
X136183584Y-78374719D01*
X136200499Y-78289678D01*
X136200500Y-78289676D01*
X136200500Y-77860323D01*
X136200499Y-77860321D01*
X136183584Y-77775281D01*
X136187720Y-77774458D01*
X136182710Y-77728032D01*
X136183677Y-77724737D01*
X136183584Y-77724719D01*
X136199138Y-77646521D01*
X136200500Y-77639674D01*
X136200500Y-77210326D01*
X136200500Y-77210323D01*
X136200499Y-77210321D01*
X136183584Y-77125281D01*
X136187720Y-77124458D01*
X136182710Y-77078032D01*
X136183677Y-77074737D01*
X136183584Y-77074719D01*
X136198638Y-76999033D01*
X136200500Y-76989674D01*
X136200500Y-76560326D01*
X136200500Y-76560323D01*
X136200499Y-76560321D01*
X136183584Y-76475281D01*
X136187720Y-76474458D01*
X136182710Y-76428032D01*
X136183677Y-76424737D01*
X136183584Y-76424719D01*
X136200499Y-76339678D01*
X136200500Y-76339676D01*
X136200500Y-75910323D01*
X136200499Y-75910321D01*
X136183584Y-75825281D01*
X136187720Y-75824458D01*
X136182710Y-75778032D01*
X136183677Y-75774737D01*
X136183584Y-75774719D01*
X136200499Y-75689678D01*
X136200500Y-75689676D01*
X136200500Y-75260323D01*
X136200499Y-75260321D01*
X136183584Y-75175281D01*
X136187720Y-75174458D01*
X136182710Y-75128032D01*
X136183677Y-75124737D01*
X136183584Y-75124719D01*
X136198638Y-75049033D01*
X136200500Y-75039674D01*
X136200500Y-74610326D01*
X136200500Y-74610323D01*
X136200499Y-74610321D01*
X136185967Y-74537264D01*
X136185966Y-74537260D01*
X136154467Y-74490118D01*
X136130601Y-74454399D01*
X136047740Y-74399034D01*
X136047739Y-74399033D01*
X136047735Y-74399032D01*
X135974677Y-74384500D01*
X135974674Y-74384500D01*
X134625326Y-74384500D01*
X134625323Y-74384500D01*
X134552264Y-74399032D01*
X134552260Y-74399033D01*
X134469396Y-74454401D01*
X134462181Y-74461617D01*
X134400858Y-74495102D01*
X134331166Y-74490118D01*
X134275233Y-74448246D01*
X134250816Y-74382782D01*
X134250500Y-74373936D01*
X134250500Y-73976064D01*
X134270185Y-73909025D01*
X134322989Y-73863270D01*
X134392147Y-73853326D01*
X134455703Y-73882351D01*
X134462181Y-73888383D01*
X134469396Y-73895598D01*
X134469397Y-73895599D01*
X134469399Y-73895601D01*
X134552260Y-73950966D01*
X134552264Y-73950967D01*
X134625321Y-73965499D01*
X134625324Y-73965500D01*
X134625326Y-73965500D01*
X135974676Y-73965500D01*
X135974677Y-73965499D01*
X136047740Y-73950966D01*
X136130601Y-73895601D01*
X136185966Y-73812740D01*
X136200500Y-73739674D01*
X136200500Y-73310326D01*
X136200500Y-73304234D01*
X136202266Y-73304234D01*
X136213735Y-73243795D01*
X136261806Y-73193090D01*
X136324113Y-73176300D01*
X136514665Y-73176300D01*
X136514667Y-73176300D01*
X136591298Y-73155767D01*
X136625650Y-73135933D01*
X136660003Y-73116100D01*
X136716100Y-73060003D01*
X136716100Y-73060001D01*
X136726308Y-73049794D01*
X136726309Y-73049791D01*
X136766100Y-73010002D01*
X136766099Y-73010002D01*
X136824680Y-72951423D01*
X136824683Y-72951417D01*
X137057020Y-72719081D01*
X137118342Y-72685597D01*
X137188034Y-72690581D01*
X137243967Y-72732453D01*
X137268384Y-72797917D01*
X137268700Y-72806763D01*
X137268700Y-78450333D01*
X137268700Y-78529667D01*
X137289233Y-78606298D01*
X137294259Y-78615003D01*
X137328900Y-78675003D01*
X137328902Y-78675005D01*
X137392062Y-78738165D01*
X137392068Y-78738170D01*
X139752975Y-81099077D01*
X139786460Y-81160400D01*
X139788032Y-81204401D01*
X139784353Y-81229995D01*
X139784353Y-81229999D01*
X139804834Y-81372456D01*
X139834768Y-81438000D01*
X139864623Y-81503373D01*
X139958872Y-81612143D01*
X140079947Y-81689953D01*
X140079950Y-81689954D01*
X140079949Y-81689954D01*
X140187107Y-81721417D01*
X140201010Y-81725500D01*
X140218036Y-81730499D01*
X140218038Y-81730500D01*
X140218039Y-81730500D01*
X140361962Y-81730500D01*
X140361962Y-81730499D01*
X140500053Y-81689953D01*
X140621128Y-81612143D01*
X140715377Y-81503373D01*
X140775165Y-81372457D01*
X140795647Y-81230000D01*
X140775165Y-81087543D01*
X140715377Y-80956627D01*
X140621128Y-80847857D01*
X140500053Y-80770047D01*
X140500051Y-80770046D01*
X140500049Y-80770045D01*
X140500050Y-80770045D01*
X140361963Y-80729500D01*
X140361961Y-80729500D01*
X140286964Y-80729500D01*
X140219925Y-80709815D01*
X140199283Y-80693181D01*
X137907619Y-78401517D01*
X137874134Y-78340194D01*
X137871300Y-78313836D01*
X137871300Y-71913818D01*
X137879163Y-71874283D01*
X137878663Y-71874149D01*
X137880707Y-71866516D01*
X137880738Y-71866366D01*
X137880761Y-71866307D01*
X137880767Y-71866298D01*
X137901300Y-71789667D01*
X137901300Y-71710334D01*
X137901300Y-71700333D01*
X137895525Y-71678779D01*
X137891300Y-71646687D01*
X137891300Y-69839669D01*
X137891301Y-69839656D01*
X137891301Y-69750335D01*
X137886957Y-69734124D01*
X137870767Y-69673702D01*
X137855702Y-69647609D01*
X137841180Y-69622456D01*
X137841178Y-69622453D01*
X137831100Y-69604996D01*
X137770684Y-69544580D01*
X137770661Y-69544559D01*
X134408170Y-66182068D01*
X134408168Y-66182065D01*
X134345004Y-66118901D01*
X134345003Y-66118900D01*
X134278359Y-66080423D01*
X134278352Y-66080415D01*
X134278351Y-66080418D01*
X134276301Y-66079234D01*
X134276293Y-66079231D01*
X134199668Y-66058700D01*
X134199667Y-66058700D01*
X132934648Y-66058700D01*
X132867609Y-66039015D01*
X132823247Y-65989159D01*
X132803075Y-65947896D01*
X132712102Y-65856923D01*
X132712099Y-65856921D01*
X132596521Y-65800419D01*
X132596519Y-65800418D01*
X132596518Y-65800418D01*
X132521582Y-65789500D01*
X132178418Y-65789500D01*
X132103482Y-65800418D01*
X132103480Y-65800418D01*
X132103478Y-65800419D01*
X131987900Y-65856921D01*
X131987897Y-65856923D01*
X131927681Y-65917140D01*
X131866358Y-65950625D01*
X131796666Y-65945641D01*
X131752319Y-65917140D01*
X131692102Y-65856923D01*
X131692099Y-65856921D01*
X131576521Y-65800419D01*
X131576519Y-65800418D01*
X131576518Y-65800418D01*
X131501582Y-65789500D01*
X131158418Y-65789500D01*
X131083482Y-65800418D01*
X131083480Y-65800418D01*
X131083478Y-65800419D01*
X130967900Y-65856921D01*
X130967897Y-65856923D01*
X130876923Y-65947897D01*
X130876921Y-65947900D01*
X130820419Y-66063478D01*
X130820418Y-66063480D01*
X130820418Y-66063482D01*
X130809500Y-66138418D01*
X130809500Y-66581582D01*
X130820418Y-66656518D01*
X130820418Y-66656519D01*
X130820419Y-66656521D01*
X130876921Y-66772099D01*
X130876923Y-66772102D01*
X130967896Y-66863075D01*
X130976259Y-66869046D01*
X130974738Y-66871176D01*
X131015122Y-66908070D01*
X131028857Y-66940253D01*
X131049233Y-67016299D01*
X131049234Y-67016300D01*
X131069066Y-67050650D01*
X131088900Y-67085003D01*
X131088902Y-67085005D01*
X131152062Y-67148165D01*
X131152068Y-67148170D01*
X131226477Y-67222579D01*
X131259962Y-67283902D01*
X131254978Y-67353594D01*
X131213106Y-67409527D01*
X131182131Y-67426441D01*
X131144445Y-67440497D01*
X131030669Y-67525669D01*
X130945498Y-67639443D01*
X130895828Y-67772612D01*
X130889500Y-67831462D01*
X130889500Y-68413517D01*
X130889501Y-68413526D01*
X130895828Y-68472391D01*
X130945497Y-68605554D01*
X131030669Y-68719331D01*
X131144446Y-68804503D01*
X131277609Y-68854171D01*
X131336479Y-68860500D01*
X132040536Y-68860499D01*
X132107574Y-68880183D01*
X132153329Y-68932987D01*
X132163273Y-69002146D01*
X132134248Y-69065702D01*
X132128216Y-69072180D01*
X131977215Y-69223181D01*
X131915892Y-69256666D01*
X131889534Y-69259500D01*
X131336482Y-69259500D01*
X131336473Y-69259501D01*
X131277608Y-69265828D01*
X131144445Y-69315497D01*
X131030669Y-69400669D01*
X130945498Y-69514443D01*
X130895828Y-69647612D01*
X130889500Y-69706462D01*
X130889500Y-70288517D01*
X130889501Y-70288526D01*
X130895828Y-70347391D01*
X130945497Y-70480554D01*
X131030669Y-70594331D01*
X131144446Y-70679503D01*
X131277609Y-70729171D01*
X131336479Y-70735500D01*
X132343520Y-70735499D01*
X132402391Y-70729171D01*
X132535554Y-70679503D01*
X132649331Y-70594331D01*
X132734503Y-70480554D01*
X132784171Y-70347391D01*
X132786536Y-70325383D01*
X132790499Y-70288537D01*
X132790499Y-70288526D01*
X132790500Y-70288521D01*
X132790499Y-69904499D01*
X132810183Y-69837461D01*
X132862987Y-69791706D01*
X132914499Y-69780500D01*
X134116124Y-69780500D01*
X134183163Y-69800185D01*
X134228918Y-69852989D01*
X134238862Y-69922147D01*
X134209837Y-69985703D01*
X134178129Y-70011884D01*
X134174667Y-70013883D01*
X134174662Y-70013886D01*
X134140000Y-70033897D01*
X134139995Y-70033901D01*
X132108901Y-72064995D01*
X132108899Y-72064998D01*
X132105263Y-72071297D01*
X132105261Y-72071300D01*
X132069232Y-72133703D01*
X132069231Y-72133704D01*
X132060662Y-72165689D01*
X132060662Y-72165690D01*
X132048700Y-72210332D01*
X132048700Y-76739795D01*
X132029015Y-76806834D01*
X131994096Y-76837930D01*
X131996257Y-76840956D01*
X131987895Y-76846926D01*
X131927681Y-76907140D01*
X131866358Y-76940625D01*
X131796666Y-76935641D01*
X131752319Y-76907140D01*
X131692102Y-76846923D01*
X131692099Y-76846921D01*
X131576521Y-76790419D01*
X131576519Y-76790418D01*
X131576518Y-76790418D01*
X131501582Y-76779500D01*
X131158418Y-76779500D01*
X131083482Y-76790418D01*
X131083480Y-76790418D01*
X131083478Y-76790419D01*
X130967900Y-76846921D01*
X130967897Y-76846923D01*
X130876923Y-76937897D01*
X130876921Y-76937900D01*
X130820419Y-77053478D01*
X130820418Y-77053480D01*
X130820418Y-77053482D01*
X130809500Y-77128418D01*
X130809500Y-77571582D01*
X130820418Y-77646518D01*
X130820418Y-77646519D01*
X130820419Y-77646521D01*
X130876921Y-77762099D01*
X130876923Y-77762102D01*
X130967896Y-77853075D01*
X130976259Y-77859046D01*
X130973933Y-77862302D01*
X131010741Y-77895930D01*
X131026345Y-77951777D01*
X131027639Y-77951607D01*
X131028700Y-77959666D01*
X131044101Y-78017147D01*
X131049233Y-78036298D01*
X131065629Y-78064696D01*
X131065631Y-78064699D01*
X131088897Y-78104999D01*
X131088901Y-78105004D01*
X131152062Y-78168165D01*
X131152068Y-78168170D01*
X131204626Y-78220728D01*
X131238111Y-78282051D01*
X131233127Y-78351743D01*
X131191255Y-78407676D01*
X131160285Y-78424588D01*
X131144447Y-78430496D01*
X131144446Y-78430496D01*
X131030669Y-78515669D01*
X130945498Y-78629443D01*
X130895828Y-78762612D01*
X130889500Y-78821462D01*
X130889500Y-79403517D01*
X130889501Y-79403526D01*
X130895828Y-79462391D01*
X130945497Y-79595554D01*
X131030669Y-79709331D01*
X131144446Y-79794503D01*
X131277609Y-79844171D01*
X131336479Y-79850500D01*
X132343520Y-79850499D01*
X132402391Y-79844171D01*
X132535554Y-79794503D01*
X132649331Y-79709331D01*
X132734503Y-79595554D01*
X132784171Y-79462391D01*
X132786536Y-79440383D01*
X132790499Y-79403537D01*
X132790499Y-79403526D01*
X132790500Y-79403521D01*
X132790499Y-78821480D01*
X132790498Y-78821475D01*
X132790480Y-78821131D01*
X132790499Y-78821050D01*
X132790499Y-78818160D01*
X132791182Y-78818160D01*
X132806552Y-78753135D01*
X132856834Y-78704622D01*
X132914303Y-78690500D01*
X132931962Y-78690500D01*
X132931962Y-78690499D01*
X133070050Y-78649954D01*
X133070051Y-78649954D01*
X133076297Y-78645940D01*
X133158461Y-78593136D01*
X133225500Y-78573452D01*
X133292539Y-78593136D01*
X133338294Y-78645940D01*
X133349500Y-78697452D01*
X133349500Y-80413000D01*
X133329815Y-80480039D01*
X133277011Y-80525794D01*
X133225500Y-80537000D01*
X132820943Y-80537000D01*
X132753904Y-80517315D01*
X132721676Y-80487311D01*
X132716232Y-80480039D01*
X132649331Y-80390669D01*
X132580962Y-80339489D01*
X132535556Y-80305498D01*
X132535554Y-80305497D01*
X132402391Y-80255829D01*
X132402389Y-80255828D01*
X132402387Y-80255828D01*
X132343529Y-80249500D01*
X131336482Y-80249500D01*
X131336473Y-80249501D01*
X131277608Y-80255828D01*
X131144445Y-80305497D01*
X131030669Y-80390669D01*
X130945498Y-80504443D01*
X130895828Y-80637612D01*
X130889500Y-80696462D01*
X130889500Y-81278517D01*
X130889501Y-81278526D01*
X130895828Y-81337391D01*
X130933355Y-81438000D01*
X130945497Y-81470554D01*
X131030669Y-81584331D01*
X131144446Y-81669503D01*
X131277609Y-81719171D01*
X131336479Y-81725500D01*
X132343520Y-81725499D01*
X132402391Y-81719171D01*
X132535554Y-81669503D01*
X132649331Y-81584331D01*
X132721676Y-81487689D01*
X132777610Y-81445818D01*
X132820943Y-81438000D01*
X133562035Y-81438000D01*
X133629074Y-81457685D01*
X133649715Y-81474318D01*
X135155886Y-82980490D01*
X135258614Y-83039799D01*
X135373191Y-83070500D01*
X135373194Y-83070500D01*
X142449308Y-83070500D01*
X142449309Y-83070500D01*
X142539673Y-83046286D01*
X142563887Y-83039799D01*
X142666614Y-82980489D01*
X144400489Y-81246614D01*
X144444530Y-81170333D01*
X144459799Y-81143886D01*
X144490500Y-81029309D01*
X144490500Y-79017965D01*
X144510185Y-78950926D01*
X144526819Y-78930284D01*
X144543537Y-78913566D01*
X144604860Y-78880081D01*
X144674552Y-78885065D01*
X144687501Y-78890756D01*
X144697825Y-78896017D01*
X144697827Y-78896017D01*
X144697829Y-78896018D01*
X144725564Y-78900410D01*
X144789265Y-78910500D01*
X145190734Y-78910499D01*
X145190739Y-78910499D01*
X145190739Y-78910498D01*
X145236454Y-78903258D01*
X145282170Y-78896018D01*
X145282171Y-78896018D01*
X145282172Y-78896017D01*
X145282175Y-78896017D01*
X145392391Y-78839859D01*
X145479859Y-78752391D01*
X145495015Y-78722644D01*
X145542989Y-78671848D01*
X145610810Y-78655053D01*
X145676945Y-78677590D01*
X145720397Y-78732305D01*
X145729500Y-78778939D01*
X145729500Y-83022035D01*
X145709815Y-83089074D01*
X145693181Y-83109716D01*
X145129716Y-83673181D01*
X145068393Y-83706666D01*
X145042035Y-83709500D01*
X136060691Y-83709500D01*
X135974758Y-83732525D01*
X135946113Y-83740201D01*
X135843386Y-83799509D01*
X135843384Y-83799511D01*
X134829513Y-84813383D01*
X134829509Y-84813389D01*
X134770201Y-84916112D01*
X134770200Y-84916117D01*
X134739500Y-85030691D01*
X134739500Y-86175500D01*
X134719815Y-86242539D01*
X134667011Y-86288294D01*
X134615500Y-86299500D01*
X134315323Y-86299500D01*
X134242264Y-86314032D01*
X134242260Y-86314033D01*
X134159399Y-86369399D01*
X134104033Y-86452260D01*
X134104032Y-86452264D01*
X134089500Y-86525321D01*
X134089500Y-88274678D01*
X134104032Y-88347735D01*
X134104033Y-88347739D01*
X134104034Y-88347740D01*
X134159399Y-88430601D01*
X134242260Y-88485966D01*
X134242264Y-88485967D01*
X134315321Y-88500499D01*
X134315324Y-88500500D01*
X134315326Y-88500500D01*
X136064676Y-88500500D01*
X136064677Y-88500499D01*
X136137740Y-88485966D01*
X136220601Y-88430601D01*
X136275966Y-88347740D01*
X136290500Y-88274674D01*
X136290500Y-87399999D01*
X136624785Y-87399999D01*
X136624785Y-87400000D01*
X136643602Y-87603082D01*
X136699417Y-87799247D01*
X136699422Y-87799260D01*
X136790327Y-87981821D01*
X136913237Y-88144581D01*
X137063958Y-88281980D01*
X137063960Y-88281982D01*
X137163141Y-88343392D01*
X137237363Y-88389348D01*
X137427544Y-88463024D01*
X137628024Y-88500500D01*
X137628026Y-88500500D01*
X137831974Y-88500500D01*
X137831976Y-88500500D01*
X138032456Y-88463024D01*
X138222637Y-88389348D01*
X138396041Y-88281981D01*
X138546764Y-88144579D01*
X138669673Y-87981821D01*
X138760582Y-87799250D01*
X138816397Y-87603083D01*
X138835215Y-87400000D01*
X138835215Y-87399999D01*
X139164785Y-87399999D01*
X139164785Y-87400000D01*
X139183602Y-87603082D01*
X139239417Y-87799247D01*
X139239422Y-87799260D01*
X139330327Y-87981821D01*
X139453237Y-88144581D01*
X139603958Y-88281980D01*
X139603960Y-88281982D01*
X139703141Y-88343392D01*
X139777363Y-88389348D01*
X139967544Y-88463024D01*
X140168024Y-88500500D01*
X140168026Y-88500500D01*
X140371974Y-88500500D01*
X140371976Y-88500500D01*
X140572456Y-88463024D01*
X140762637Y-88389348D01*
X140936041Y-88281981D01*
X141086764Y-88144579D01*
X141209673Y-87981821D01*
X141296817Y-87806812D01*
X141344319Y-87755575D01*
X141411982Y-87738153D01*
X141478323Y-87760078D01*
X141522278Y-87814389D01*
X141527592Y-87829989D01*
X141536567Y-87863485D01*
X141536570Y-87863492D01*
X141636399Y-88077578D01*
X141771894Y-88271082D01*
X141938917Y-88438105D01*
X142132421Y-88573600D01*
X142346507Y-88673429D01*
X142346516Y-88673433D01*
X142560000Y-88730634D01*
X142560000Y-87833012D01*
X142617007Y-87865925D01*
X142744174Y-87900000D01*
X142875826Y-87900000D01*
X143002993Y-87865925D01*
X143060000Y-87833012D01*
X143060000Y-88730633D01*
X143273483Y-88673433D01*
X143273492Y-88673429D01*
X143487578Y-88573600D01*
X143681082Y-88438105D01*
X143848105Y-88271082D01*
X143983600Y-88077578D01*
X144083429Y-87863492D01*
X144083432Y-87863486D01*
X144140636Y-87650000D01*
X143243012Y-87650000D01*
X143275925Y-87592993D01*
X143310000Y-87465826D01*
X143310000Y-87334174D01*
X143275925Y-87207007D01*
X143243012Y-87150000D01*
X144140636Y-87150000D01*
X144140635Y-87149999D01*
X144083432Y-86936513D01*
X144083429Y-86936507D01*
X143983600Y-86722422D01*
X143983599Y-86722420D01*
X143848113Y-86528926D01*
X143848108Y-86528920D01*
X143681082Y-86361894D01*
X143487578Y-86226399D01*
X143273492Y-86126570D01*
X143273486Y-86126567D01*
X143060000Y-86069364D01*
X143060000Y-86966988D01*
X143002993Y-86934075D01*
X142875826Y-86900000D01*
X142744174Y-86900000D01*
X142617007Y-86934075D01*
X142560000Y-86966988D01*
X142560000Y-86069364D01*
X142559999Y-86069364D01*
X142346513Y-86126567D01*
X142346507Y-86126570D01*
X142132422Y-86226399D01*
X142132420Y-86226400D01*
X141938926Y-86361886D01*
X141938920Y-86361891D01*
X141771891Y-86528920D01*
X141771886Y-86528926D01*
X141636400Y-86722420D01*
X141636399Y-86722422D01*
X141536570Y-86936507D01*
X141536568Y-86936511D01*
X141527592Y-86970011D01*
X141491226Y-87029671D01*
X141428379Y-87060199D01*
X141359003Y-87051904D01*
X141305126Y-87007418D01*
X141296817Y-86993188D01*
X141250415Y-86900000D01*
X141209673Y-86818179D01*
X141086764Y-86655421D01*
X141086762Y-86655418D01*
X140936041Y-86518019D01*
X140936039Y-86518017D01*
X140762642Y-86410655D01*
X140762635Y-86410651D01*
X140636769Y-86361891D01*
X140572456Y-86336976D01*
X140371976Y-86299500D01*
X140168024Y-86299500D01*
X139967544Y-86336976D01*
X139967541Y-86336976D01*
X139967541Y-86336977D01*
X139777364Y-86410651D01*
X139777357Y-86410655D01*
X139603960Y-86518017D01*
X139603958Y-86518019D01*
X139453237Y-86655418D01*
X139330327Y-86818178D01*
X139239422Y-87000739D01*
X139239417Y-87000752D01*
X139183602Y-87196917D01*
X139164785Y-87399999D01*
X138835215Y-87399999D01*
X138829115Y-87334174D01*
X138816397Y-87196917D01*
X138803048Y-87150000D01*
X138760582Y-87000750D01*
X138760159Y-86999901D01*
X138710415Y-86900000D01*
X138669673Y-86818179D01*
X138546764Y-86655421D01*
X138546762Y-86655418D01*
X138396041Y-86518019D01*
X138396039Y-86518017D01*
X138222642Y-86410655D01*
X138222635Y-86410651D01*
X138096769Y-86361891D01*
X138032456Y-86336976D01*
X137831976Y-86299500D01*
X137628024Y-86299500D01*
X137427544Y-86336976D01*
X137427541Y-86336976D01*
X137427541Y-86336977D01*
X137237364Y-86410651D01*
X137237357Y-86410655D01*
X137063960Y-86518017D01*
X137063958Y-86518019D01*
X136913237Y-86655418D01*
X136790327Y-86818178D01*
X136699422Y-87000739D01*
X136699417Y-87000752D01*
X136643602Y-87196917D01*
X136624785Y-87399999D01*
X136290500Y-87399999D01*
X136290500Y-86525326D01*
X136290500Y-86525323D01*
X136290499Y-86525321D01*
X136275967Y-86452264D01*
X136275966Y-86452260D01*
X136220601Y-86369399D01*
X136137740Y-86314034D01*
X136137739Y-86314033D01*
X136137735Y-86314032D01*
X136064677Y-86299500D01*
X136064674Y-86299500D01*
X135764500Y-86299500D01*
X135697461Y-86279815D01*
X135651706Y-86227011D01*
X135640500Y-86175500D01*
X135640500Y-85327965D01*
X135660185Y-85260926D01*
X135676819Y-85240284D01*
X136270285Y-84646819D01*
X136331608Y-84613334D01*
X136357966Y-84610500D01*
X145339308Y-84610500D01*
X145339309Y-84610500D01*
X145429673Y-84586286D01*
X145453887Y-84579799D01*
X145556614Y-84520489D01*
X146540489Y-83536614D01*
X146599799Y-83433887D01*
X146606285Y-83409675D01*
X146606286Y-83409675D01*
X146606286Y-83409671D01*
X146630500Y-83319309D01*
X146630500Y-77530691D01*
X146599799Y-77416114D01*
X146545223Y-77321586D01*
X146540489Y-77313386D01*
X146540488Y-77313385D01*
X146540487Y-77313383D01*
X145466819Y-76239715D01*
X145433334Y-76178392D01*
X145430500Y-76152034D01*
X145430500Y-76090528D01*
X145444014Y-76034235D01*
X145496017Y-75932175D01*
X145496017Y-75932173D01*
X145496018Y-75932172D01*
X145496018Y-75932171D01*
X145499901Y-75907650D01*
X145510500Y-75840735D01*
X145510499Y-75439266D01*
X145510499Y-75439260D01*
X145494491Y-75338186D01*
X145497742Y-75337670D01*
X145496228Y-75284793D01*
X145528474Y-75228627D01*
X145730284Y-75026818D01*
X145791607Y-74993333D01*
X145817965Y-74990499D01*
X146042871Y-74990499D01*
X146042872Y-74990499D01*
X146102483Y-74984091D01*
X146237331Y-74933796D01*
X146352546Y-74847546D01*
X146438796Y-74732331D01*
X146489091Y-74597483D01*
X146495500Y-74537873D01*
X146495499Y-73942128D01*
X146489091Y-73882517D01*
X146486392Y-73875281D01*
X146438797Y-73747671D01*
X146438793Y-73747664D01*
X146352547Y-73632455D01*
X146352544Y-73632452D01*
X146237335Y-73546206D01*
X146237328Y-73546202D01*
X146102482Y-73495908D01*
X146102483Y-73495908D01*
X146042883Y-73489501D01*
X146042881Y-73489500D01*
X146042873Y-73489500D01*
X146042864Y-73489500D01*
X144997129Y-73489500D01*
X144997123Y-73489501D01*
X144937516Y-73495908D01*
X144802671Y-73546202D01*
X144802664Y-73546206D01*
X144687455Y-73632452D01*
X144614700Y-73729640D01*
X144558766Y-73771510D01*
X144489074Y-73776494D01*
X144480500Y-73774305D01*
X144361963Y-73739500D01*
X144361961Y-73739500D01*
X144218039Y-73739500D01*
X144218036Y-73739500D01*
X144079949Y-73780045D01*
X143958873Y-73857856D01*
X143864623Y-73966626D01*
X143864622Y-73966628D01*
X143837294Y-74026468D01*
X143791539Y-74079272D01*
X143724499Y-74098956D01*
X143657460Y-74079271D01*
X143611705Y-74026467D01*
X143600500Y-73974956D01*
X143600500Y-73960323D01*
X143600499Y-73960321D01*
X143583584Y-73875281D01*
X143587720Y-73874458D01*
X143582710Y-73828032D01*
X143583677Y-73824737D01*
X143583584Y-73824719D01*
X143600499Y-73739678D01*
X143600500Y-73739676D01*
X143600500Y-73310323D01*
X143600499Y-73310321D01*
X143583584Y-73225281D01*
X143587720Y-73224458D01*
X143582710Y-73178032D01*
X143583677Y-73174737D01*
X143583584Y-73174719D01*
X143600499Y-73089678D01*
X143600500Y-73089676D01*
X143600500Y-72660323D01*
X143600499Y-72660321D01*
X143585967Y-72587264D01*
X143585966Y-72587260D01*
X143548168Y-72530691D01*
X143530601Y-72504399D01*
X143447740Y-72449034D01*
X143447739Y-72449033D01*
X143447735Y-72449032D01*
X143374677Y-72434500D01*
X143374674Y-72434500D01*
X142025326Y-72434500D01*
X142025323Y-72434500D01*
X141952264Y-72449032D01*
X141952260Y-72449033D01*
X141869399Y-72504399D01*
X141814033Y-72587260D01*
X141814032Y-72587264D01*
X141799500Y-72660321D01*
X141799500Y-72660326D01*
X141799500Y-73089674D01*
X141799500Y-73089676D01*
X141799499Y-73089676D01*
X141816416Y-73174717D01*
X141812291Y-73175537D01*
X141817264Y-73222103D01*
X141816335Y-73225266D01*
X141816416Y-73225283D01*
X141799500Y-73310323D01*
X141799500Y-73310326D01*
X141799500Y-73739674D01*
X141799500Y-73739676D01*
X141799499Y-73739676D01*
X141816416Y-73824717D01*
X141812291Y-73825537D01*
X141817264Y-73872103D01*
X141816335Y-73875266D01*
X141816416Y-73875283D01*
X141799500Y-73960323D01*
X141799500Y-74389678D01*
X141814032Y-74462735D01*
X141814033Y-74462739D01*
X141814034Y-74462740D01*
X141869399Y-74545601D01*
X141947047Y-74597483D01*
X141952260Y-74600966D01*
X141952264Y-74600967D01*
X142025321Y-74615499D01*
X142025324Y-74615500D01*
X142025326Y-74615500D01*
X143374676Y-74615500D01*
X143374677Y-74615499D01*
X143447740Y-74600966D01*
X143530601Y-74545601D01*
X143585966Y-74462740D01*
X143588588Y-74449556D01*
X143620972Y-74387645D01*
X143681687Y-74353069D01*
X143751456Y-74356807D01*
X143808129Y-74397672D01*
X143823000Y-74422233D01*
X143841497Y-74462735D01*
X143864623Y-74513373D01*
X143958872Y-74622143D01*
X144079947Y-74699953D01*
X144079950Y-74699954D01*
X144079949Y-74699954D01*
X144218036Y-74740499D01*
X144218038Y-74740500D01*
X144218039Y-74740500D01*
X144361961Y-74740500D01*
X144460325Y-74711618D01*
X144530194Y-74711618D01*
X144588972Y-74749392D01*
X144617997Y-74812948D01*
X144608053Y-74882106D01*
X144602646Y-74892594D01*
X144560201Y-74966110D01*
X144560200Y-74966117D01*
X144529500Y-75080690D01*
X144529369Y-75081689D01*
X144529024Y-75082468D01*
X144527397Y-75088541D01*
X144526449Y-75088287D01*
X144501100Y-75145585D01*
X144442775Y-75184054D01*
X144406430Y-75189500D01*
X144157965Y-75189500D01*
X144090926Y-75169815D01*
X144070284Y-75153181D01*
X144031616Y-75114513D01*
X144031614Y-75114511D01*
X143973035Y-75080690D01*
X143928888Y-75055201D01*
X143916780Y-75051957D01*
X143904673Y-75048713D01*
X143904670Y-75048712D01*
X143851629Y-75034500D01*
X143814309Y-75024500D01*
X142640691Y-75024500D01*
X142619139Y-75030275D01*
X142587046Y-75034500D01*
X142025323Y-75034500D01*
X141952264Y-75049032D01*
X141952260Y-75049033D01*
X141869399Y-75104399D01*
X141814033Y-75187260D01*
X141814032Y-75187264D01*
X141799500Y-75260321D01*
X141799500Y-75260326D01*
X141799500Y-75689674D01*
X141799500Y-75689676D01*
X141799499Y-75689676D01*
X141816416Y-75774717D01*
X141812291Y-75775537D01*
X141817264Y-75822103D01*
X141816335Y-75825266D01*
X141816416Y-75825283D01*
X141799500Y-75910323D01*
X141799500Y-76339678D01*
X141814032Y-76412735D01*
X141814033Y-76412739D01*
X141832405Y-76440235D01*
X141869399Y-76495601D01*
X141952260Y-76550966D01*
X141952264Y-76550967D01*
X142025321Y-76565499D01*
X142025324Y-76565500D01*
X142025326Y-76565500D01*
X143374676Y-76565500D01*
X143374677Y-76565499D01*
X143447740Y-76550966D01*
X143530601Y-76495601D01*
X143585966Y-76412740D01*
X143600500Y-76339674D01*
X143600500Y-76182381D01*
X143620185Y-76115342D01*
X143672989Y-76069587D01*
X143742147Y-76059643D01*
X143756584Y-76062604D01*
X143770323Y-76066285D01*
X143770325Y-76066286D01*
X143782645Y-76069587D01*
X143860691Y-76090500D01*
X144405500Y-76090500D01*
X144472539Y-76110185D01*
X144518294Y-76162989D01*
X144529500Y-76214500D01*
X144529500Y-76449310D01*
X144541903Y-76495601D01*
X144541904Y-76495601D01*
X144560201Y-76563887D01*
X144619511Y-76666614D01*
X144619513Y-76666616D01*
X144722085Y-76769188D01*
X144755570Y-76830511D01*
X144750586Y-76900203D01*
X144708714Y-76956136D01*
X144643250Y-76980553D01*
X144602314Y-76976645D01*
X144594309Y-76974500D01*
X142640691Y-76974500D01*
X142619139Y-76980275D01*
X142587046Y-76984500D01*
X142025323Y-76984500D01*
X141952264Y-76999032D01*
X141952260Y-76999033D01*
X141869399Y-77054399D01*
X141814033Y-77137260D01*
X141814032Y-77137264D01*
X141799500Y-77210321D01*
X141799500Y-77600500D01*
X141779815Y-77667539D01*
X141727011Y-77713294D01*
X141686732Y-77722056D01*
X141686915Y-77723439D01*
X141678855Y-77724500D01*
X141589711Y-77748386D01*
X141589710Y-77748386D01*
X141589708Y-77748387D01*
X141589705Y-77748388D01*
X141509792Y-77794527D01*
X141504128Y-77798874D01*
X141438959Y-77824070D01*
X141428639Y-77824500D01*
X140459744Y-77824500D01*
X140392705Y-77804815D01*
X140372063Y-77788181D01*
X139936819Y-77352937D01*
X139903334Y-77291614D01*
X139900500Y-77265256D01*
X139900500Y-70489676D01*
X141799499Y-70489676D01*
X141816416Y-70574717D01*
X141812291Y-70575537D01*
X141817264Y-70622103D01*
X141816335Y-70625266D01*
X141816416Y-70625283D01*
X141799500Y-70710323D01*
X141799500Y-71139678D01*
X141814032Y-71212735D01*
X141814033Y-71212739D01*
X141832405Y-71240235D01*
X141869399Y-71295601D01*
X141952260Y-71350966D01*
X141952264Y-71350967D01*
X142025321Y-71365499D01*
X142025324Y-71365500D01*
X142025326Y-71365500D01*
X143374676Y-71365500D01*
X143374677Y-71365499D01*
X143447740Y-71350966D01*
X143530601Y-71295601D01*
X143585966Y-71212740D01*
X143600500Y-71139674D01*
X143600500Y-70710326D01*
X143600500Y-70710323D01*
X143600499Y-70710321D01*
X143583584Y-70625281D01*
X143587720Y-70624458D01*
X143582710Y-70578032D01*
X143583677Y-70574737D01*
X143583584Y-70574719D01*
X143600499Y-70489678D01*
X143600500Y-70489676D01*
X143600500Y-70060323D01*
X143600499Y-70060321D01*
X143585967Y-69987264D01*
X143585966Y-69987260D01*
X143581449Y-69980500D01*
X143530601Y-69904399D01*
X143467359Y-69862143D01*
X143447739Y-69849033D01*
X143447735Y-69849032D01*
X143374677Y-69834500D01*
X143374674Y-69834500D01*
X142025326Y-69834500D01*
X142025323Y-69834500D01*
X141952264Y-69849032D01*
X141952260Y-69849033D01*
X141869399Y-69904399D01*
X141814033Y-69987260D01*
X141814032Y-69987264D01*
X141799500Y-70060321D01*
X141799500Y-70060326D01*
X141799500Y-70489674D01*
X141799500Y-70489676D01*
X141799499Y-70489676D01*
X139900500Y-70489676D01*
X139900500Y-66026965D01*
X139920185Y-65959926D01*
X139972989Y-65914171D01*
X140042147Y-65904227D01*
X140105703Y-65933252D01*
X140112178Y-65939282D01*
X141183386Y-67010490D01*
X141286113Y-67069799D01*
X141310321Y-67076284D01*
X141310324Y-67076286D01*
X141310325Y-67076286D01*
X141340447Y-67084357D01*
X141400691Y-67100500D01*
X141984050Y-67100500D01*
X142051089Y-67120185D01*
X142083316Y-67150189D01*
X142150313Y-67239687D01*
X142214812Y-67287970D01*
X142256681Y-67343901D01*
X142264500Y-67387235D01*
X142264500Y-68084308D01*
X142285361Y-68162166D01*
X142295200Y-68198885D01*
X142295200Y-68198886D01*
X142295201Y-68198887D01*
X142354511Y-68301614D01*
X143893386Y-69840490D01*
X143893388Y-69840491D01*
X143893392Y-69840494D01*
X143996110Y-69899798D01*
X143996113Y-69899799D01*
X144013276Y-69904397D01*
X144013279Y-69904399D01*
X144013280Y-69904399D01*
X144033865Y-69909914D01*
X144110691Y-69930500D01*
X145312273Y-69930500D01*
X145351004Y-69938926D01*
X145351437Y-69937455D01*
X145498036Y-69980499D01*
X145498038Y-69980500D01*
X145498039Y-69980500D01*
X145641962Y-69980500D01*
X145641962Y-69980499D01*
X145780053Y-69939953D01*
X145901128Y-69862143D01*
X145995377Y-69753373D01*
X146055165Y-69622457D01*
X146057676Y-69604997D01*
X146061272Y-69579974D01*
X146075647Y-69480000D01*
X146055165Y-69337543D01*
X145995377Y-69206627D01*
X145901128Y-69097857D01*
X145780053Y-69020047D01*
X145780051Y-69020046D01*
X145780049Y-69020045D01*
X145780050Y-69020045D01*
X145641963Y-68979500D01*
X145641961Y-68979500D01*
X145498039Y-68979500D01*
X145498036Y-68979500D01*
X145351437Y-69022545D01*
X145351004Y-69021073D01*
X145312273Y-69029500D01*
X144407966Y-69029500D01*
X144340927Y-69009815D01*
X144320285Y-68993181D01*
X143201819Y-67874715D01*
X143168334Y-67813392D01*
X143165500Y-67787034D01*
X143165500Y-67387235D01*
X143185185Y-67320196D01*
X143215185Y-67287972D01*
X143279687Y-67239687D01*
X143361628Y-67130226D01*
X143409412Y-67002114D01*
X143411733Y-66980523D01*
X143415499Y-66945501D01*
X143415499Y-66945494D01*
X143415500Y-66945485D01*
X143415499Y-66354516D01*
X143409412Y-66297886D01*
X143361628Y-66169774D01*
X143279687Y-66060313D01*
X143249043Y-66037373D01*
X143207173Y-65981439D01*
X143202189Y-65911747D01*
X143235672Y-65850428D01*
X144935000Y-64151101D01*
X144935003Y-64151100D01*
X144991100Y-64095003D01*
X145010933Y-64060650D01*
X145030767Y-64026298D01*
X145051301Y-63949666D01*
X145051301Y-63870333D01*
X145051301Y-63862738D01*
X145051300Y-63862720D01*
X145051300Y-63796311D01*
X145070985Y-63729272D01*
X145123789Y-63683517D01*
X145192947Y-63673573D01*
X145256503Y-63702598D01*
X145291481Y-63752977D01*
X145305496Y-63790553D01*
X145313222Y-63800874D01*
X145390669Y-63904331D01*
X145504446Y-63989503D01*
X145637609Y-64039171D01*
X145696479Y-64045500D01*
X145774700Y-64045499D01*
X145841738Y-64065183D01*
X145887494Y-64117986D01*
X145898700Y-64169499D01*
X145898700Y-64513835D01*
X145879015Y-64580874D01*
X145862381Y-64601516D01*
X145448901Y-65014995D01*
X145448900Y-65014997D01*
X145444690Y-65022289D01*
X145417261Y-65069797D01*
X145409232Y-65083704D01*
X145405008Y-65099469D01*
X145405008Y-65099470D01*
X145388700Y-65160333D01*
X145388700Y-66029795D01*
X145369015Y-66096834D01*
X145334096Y-66127930D01*
X145336257Y-66130956D01*
X145327895Y-66136926D01*
X145236923Y-66227897D01*
X145236921Y-66227900D01*
X145180419Y-66343478D01*
X145180418Y-66343480D01*
X145180418Y-66343482D01*
X145169500Y-66418418D01*
X145169500Y-66861582D01*
X145180418Y-66936518D01*
X145180418Y-66936519D01*
X145180419Y-66936521D01*
X145236921Y-67052099D01*
X145236923Y-67052102D01*
X145327897Y-67143076D01*
X145327900Y-67143078D01*
X145438656Y-67197222D01*
X145443482Y-67199582D01*
X145518418Y-67210500D01*
X145518423Y-67210500D01*
X145861577Y-67210500D01*
X145861582Y-67210500D01*
X145936518Y-67199582D01*
X146037520Y-67150205D01*
X146052099Y-67143078D01*
X146052102Y-67143076D01*
X146143076Y-67052102D01*
X146143078Y-67052099D01*
X146197756Y-66940253D01*
X146199582Y-66936518D01*
X146210500Y-66861582D01*
X146210500Y-66418418D01*
X146199582Y-66343482D01*
X146197222Y-66338656D01*
X146143078Y-66227900D01*
X146143076Y-66227897D01*
X146052105Y-66136926D01*
X146043743Y-66130956D01*
X146046060Y-66127709D01*
X146009205Y-66093981D01*
X145991300Y-66029795D01*
X145991300Y-65376163D01*
X146010985Y-65309124D01*
X146027615Y-65288486D01*
X146385000Y-64931101D01*
X146385003Y-64931100D01*
X146441100Y-64875003D01*
X146460933Y-64840650D01*
X146480767Y-64806298D01*
X146501300Y-64729667D01*
X146501300Y-64650333D01*
X146501300Y-64169499D01*
X146520985Y-64102460D01*
X146573789Y-64056705D01*
X146625300Y-64045499D01*
X146703517Y-64045499D01*
X146703520Y-64045499D01*
X146762391Y-64039171D01*
X146895554Y-63989503D01*
X147009331Y-63904331D01*
X147094503Y-63790554D01*
X147144171Y-63657391D01*
X147146536Y-63635383D01*
X147150499Y-63598537D01*
X147150499Y-63598530D01*
X147150500Y-63598521D01*
X147150499Y-63016480D01*
X147144171Y-62957609D01*
X147094503Y-62824446D01*
X147009331Y-62710669D01*
X146938230Y-62657444D01*
X146895556Y-62625498D01*
X146895554Y-62625497D01*
X146762391Y-62575829D01*
X146762389Y-62575828D01*
X146762387Y-62575828D01*
X146703529Y-62569500D01*
X145696482Y-62569500D01*
X145696473Y-62569501D01*
X145637608Y-62575828D01*
X145504445Y-62625497D01*
X145390669Y-62710669D01*
X145305496Y-62824446D01*
X145291481Y-62862023D01*
X145249610Y-62917957D01*
X145184145Y-62942373D01*
X145115872Y-62927521D01*
X145066467Y-62878115D01*
X145051300Y-62818689D01*
X145051300Y-61956164D01*
X145070985Y-61889125D01*
X145087608Y-61868493D01*
X145097086Y-61859015D01*
X145158404Y-61825530D01*
X145228095Y-61830511D01*
X145284031Y-61872379D01*
X145300949Y-61903361D01*
X145305496Y-61915553D01*
X145305497Y-61915554D01*
X145390669Y-62029331D01*
X145504446Y-62114503D01*
X145637609Y-62164171D01*
X145696479Y-62170500D01*
X146703520Y-62170499D01*
X146762391Y-62164171D01*
X146895554Y-62114503D01*
X147009331Y-62029331D01*
X147094503Y-61915554D01*
X147144171Y-61782391D01*
X147148693Y-61740333D01*
X147150499Y-61723537D01*
X147150499Y-61723530D01*
X147150500Y-61723521D01*
X147150499Y-61141480D01*
X147144171Y-61082609D01*
X147138320Y-61066923D01*
X147122082Y-61023386D01*
X147094503Y-60949446D01*
X147009331Y-60835669D01*
X146940962Y-60784489D01*
X146895556Y-60750498D01*
X146895554Y-60750497D01*
X146869234Y-60740680D01*
X146813304Y-60698810D01*
X146788887Y-60633346D01*
X146803739Y-60565073D01*
X146853145Y-60515668D01*
X146912571Y-60500500D01*
X147375500Y-60500500D01*
X147442539Y-60520185D01*
X147488294Y-60572989D01*
X147499500Y-60624500D01*
X147499500Y-89375500D01*
X147479815Y-89442539D01*
X147427011Y-89488294D01*
X147375500Y-89499500D01*
X130624500Y-89499500D01*
X130557461Y-89479815D01*
X130511706Y-89427011D01*
X130500500Y-89375500D01*
X130500500Y-63940000D01*
X135405626Y-63940000D01*
X136234943Y-63940000D01*
X136194225Y-63956866D01*
X136116866Y-64034225D01*
X136075000Y-64135299D01*
X136075000Y-64244701D01*
X136116866Y-64345775D01*
X136194225Y-64423134D01*
X136234943Y-64440000D01*
X135405626Y-64440000D01*
X135412466Y-64474389D01*
X135412468Y-64474397D01*
X135485964Y-64651833D01*
X135485969Y-64651842D01*
X135592667Y-64811526D01*
X135592670Y-64811530D01*
X135728469Y-64947329D01*
X135728473Y-64947332D01*
X135888157Y-65054030D01*
X135888166Y-65054035D01*
X136065602Y-65127531D01*
X136065610Y-65127533D01*
X136249999Y-65164210D01*
X136250000Y-65164210D01*
X136250000Y-64446236D01*
X136295299Y-64465000D01*
X136704701Y-64465000D01*
X136750000Y-64446236D01*
X136750000Y-65164210D01*
X136934389Y-65127533D01*
X136934397Y-65127531D01*
X137111833Y-65054035D01*
X137111842Y-65054030D01*
X137271526Y-64947332D01*
X137271530Y-64947329D01*
X137407329Y-64811530D01*
X137407332Y-64811526D01*
X137514030Y-64651842D01*
X137514035Y-64651833D01*
X137587531Y-64474397D01*
X137587533Y-64474389D01*
X137594374Y-64440000D01*
X136765057Y-64440000D01*
X136805775Y-64423134D01*
X136883134Y-64345775D01*
X136925000Y-64244701D01*
X136925000Y-64135299D01*
X136883134Y-64034225D01*
X136805775Y-63956866D01*
X136765057Y-63940000D01*
X137594374Y-63940000D01*
X137587533Y-63905610D01*
X137587531Y-63905602D01*
X137514035Y-63728166D01*
X137514030Y-63728157D01*
X137407332Y-63568473D01*
X137407329Y-63568469D01*
X137271530Y-63432670D01*
X137271526Y-63432667D01*
X137111842Y-63325969D01*
X137111833Y-63325964D01*
X136934397Y-63252468D01*
X136934389Y-63252466D01*
X136750000Y-63215788D01*
X136750000Y-63933763D01*
X136704701Y-63915000D01*
X136295299Y-63915000D01*
X136250000Y-63933763D01*
X136250000Y-63215789D01*
X136249999Y-63215788D01*
X136065610Y-63252466D01*
X136065602Y-63252468D01*
X135888166Y-63325964D01*
X135888157Y-63325969D01*
X135728473Y-63432667D01*
X135728469Y-63432670D01*
X135592670Y-63568469D01*
X135592667Y-63568473D01*
X135485969Y-63728157D01*
X135485964Y-63728166D01*
X135412468Y-63905602D01*
X135412466Y-63905610D01*
X135405626Y-63940000D01*
X130500500Y-63940000D01*
X130500500Y-60624500D01*
X130520185Y-60557461D01*
X130572989Y-60511706D01*
X130624500Y-60500500D01*
X134572134Y-60500500D01*
X134639173Y-60520185D01*
G37*
G04 #@! TD.AperFunction*
M02*
