M48
; DRILL file {KiCad 8.0.5} date 2025-04-12T21:20:31+0900
; FORMAT={-:-/ absolute / metric / decimal}
; #@! TF.CreationDate,2025-04-12T21:20:31+09:00
; #@! TF.GenerationSoftware,Kicad,Pcbnew,8.0.5
; #@! TF.FileFunction,MixedPlating,1,2
FMAT,2
METRIC
; #@! TA.AperFunction,Plated,PTH,ViaDrill
T1C0.300
; #@! TA.AperFunction,Plated,PTH,ComponentDrill
T2C0.500
; #@! TA.AperFunction,Plated,PTH,ComponentDrill
T3C0.550
; #@! TA.AperFunction,Plated,PTH,ComponentDrill
T4C1.000
%
G90
G05
T1
X133.35Y-76.78
X133.41Y-71.78
X134.05Y-74.18
X137.15Y-65.49
X137.15Y-66.29
X137.95Y-65.49
X137.95Y-66.29
X141.37Y-71.34
X141.39Y-74.82
X141.41Y-76.77
X141.425Y-72.225
X144.2Y-72.34
X144.28Y-65.79
X144.29Y-74.24
X145.57Y-69.48
X146.71Y-65.84
X146.82Y-75.64
X146.85Y-78.53
T4
X135.19Y-87.4
X137.73Y-87.4
X140.27Y-87.4
X142.81Y-87.4
T2
G00X135.5Y-61.815
M15
G01X135.5Y-61.165
M16
G05
G00X142.5Y-61.815
M15
G01X142.5Y-61.165
M16
G05
T3
G00X136.65Y-64.19
M15
G01X136.35Y-64.19
M16
G05
G00X141.65Y-64.19
M15
G01X141.35Y-64.19
M16
G05
M30
