  0
SECTION
  2
HEADER
  9
$ANGBASE
  50
0.0
  9
$ANGDIR
  70
1
  9
$MEASUREMENT
  70
1
  0
ENDSEC
  0
SECTION
  2
TABLES
  0
TABLE
  2
LTYPE
  70
4
  0
LTYPE
  5
40F
  2
CONTINUOUS
  70
0
  3
Solid line
  72
65
  73
0
  40
0.0
  0
LTYPE
  5
410
  2
DASHDOT
 70
0
  3
Dash Dot ____ _ ____ _
 72
65
 73
4
 40
2.0
 49
1.25
 49
-0.25
 49
0.25
 49
-0.25
  0
LTYPE
  5
411
  2
DASHED
 70
0
  3
Dashed __ __ __ __ __
 72
65
 73
2
 40
0.75
 49
0.5
 49
-0.25
  0
LTYPE
  5
43B
  2
DOTTED
 70
0
  3
Dotted .  .  .  .
 72
65
 73
2
 40
0.2
 49
0.0
 49
-0.2
  0
ENDTAB
  0
TABLE
  2
STYLE
  70
4
  0
STYLE
  2
KICAD
  70
0
  40
0
  41
1
  42
1
  50
0
  71
0
  3
isocp.shx
  0
STYLE
  2
KICADB
  70
0
  40
0
  41
1
  42
1
  50
0
  71
0
  3
isocp.shx
  0
STYLE
  2
KICADI
  70
0
  40
0
  41
1
  42
1
  50
15
  71
0
  3
isocp.shx
  0
STYLE
  2
KICADBI
  70
0
  40
0
  41
1
  42
1
  50
15
  71
0
  3
isocp.shx
  0
ENDTAB
  0
TABLE
  2
LAYER
  70
1
  0
LAYER
  2
BLACK
  70
0
  62
7
  6
CONTINUOUS
  0
ENDTAB
  0
ENDSEC
  0
SECTION
  2
ENTITIES
0
LINE
8
BLACK
6
CONTINUOUS
10
130.
20
-60.
11
148.
21
-60.
0
LINE
8
BLACK
6
CONTINUOUS
10
148.
20
-60.
11
148.
21
-91.
0
LINE
8
BLACK
6
CONTINUOUS
10
148.
20
-91.
11
130.
21
-91.
0
LINE
8
BLACK
6
CONTINUOUS
10
130.
20
-91.
11
130.
21
-60.
0
LINE
8
BLACK
6
CONTINUOUS
10
133.1999999999999886
20
-76.6299999999999955
11
133.5
21
-76.9299999999999926
0
LINE
8
BLACK
6
CONTINUOUS
10
133.5
20
-76.6299999999999955
11
133.1999999999999886
21
-76.9299999999999926
0
LINE
8
BLACK
6
CONTINUOUS
10
133.2599999999999909
20
-71.6299999999999955
11
133.5600000000000023
21
-71.9299999999999926
0
LINE
8
BLACK
6
CONTINUOUS
10
133.5600000000000023
20
-71.6299999999999955
11
133.2599999999999909
21
-71.9299999999999926
0
LINE
8
BLACK
6
CONTINUOUS
10
133.9000000000000057
20
-74.0300000000000011
11
134.1999999999999886
21
-74.3299999999999983
0
LINE
8
BLACK
6
CONTINUOUS
10
134.1999999999999886
20
-74.0300000000000011
11
133.9000000000000057
21
-74.3299999999999983
0
LINE
8
BLACK
6
CONTINUOUS
10
137.
20
-65.3400000000000034
11
137.2999999999999829
21
-65.6400000000000006
0
LINE
8
BLACK
6
CONTINUOUS
10
137.2999999999999829
20
-65.3400000000000034
11
137.
21
-65.6400000000000006
0
LINE
8
BLACK
6
CONTINUOUS
10
137.
20
-66.1400000000000006
11
137.2999999999999829
21
-66.4399999999999977
0
LINE
8
BLACK
6
CONTINUOUS
10
137.2999999999999829
20
-66.1400000000000006
11
137.
21
-66.4399999999999977
0
LINE
8
BLACK
6
CONTINUOUS
10
137.7999999999999829
20
-65.3400000000000034
11
138.0999999999999943
21
-65.6400000000000006
0
LINE
8
BLACK
6
CONTINUOUS
10
138.0999999999999943
20
-65.3400000000000034
11
137.7999999999999829
21
-65.6400000000000006
0
LINE
8
BLACK
6
CONTINUOUS
10
137.7999999999999829
20
-66.1400000000000006
11
138.0999999999999943
21
-66.4399999999999977
0
LINE
8
BLACK
6
CONTINUOUS
10
138.0999999999999943
20
-66.1400000000000006
11
137.7999999999999829
21
-66.4399999999999977
0
LINE
8
BLACK
6
CONTINUOUS
10
141.2199999999999989
20
-71.1899999999999977
11
141.5199999999999818
21
-71.4899999999999949
0
LINE
8
BLACK
6
CONTINUOUS
10
141.5199999999999818
20
-71.1899999999999977
11
141.2199999999999989
21
-71.4899999999999949
0
LINE
8
BLACK
6
CONTINUOUS
10
141.2399999999999807
20
-74.6700000000000017
11
141.539999999999992
21
-74.9699999999999989
0
LINE
8
BLACK
6
CONTINUOUS
10
141.539999999999992
20
-74.6700000000000017
11
141.2399999999999807
21
-74.9699999999999989
0
LINE
8
BLACK
6
CONTINUOUS
10
141.2599999999999909
20
-76.6199999999999903
11
141.5600000000000023
21
-76.9200000000000017
0
LINE
8
BLACK
6
CONTINUOUS
10
141.5600000000000023
20
-76.6199999999999903
11
141.2599999999999909
21
-76.9200000000000017
0
LINE
8
BLACK
6
CONTINUOUS
10
141.2750000000000057
20
-72.0750000000000028
11
141.5749999999999886
21
-72.375
0
LINE
8
BLACK
6
CONTINUOUS
10
141.5749999999999886
20
-72.0750000000000028
11
141.2750000000000057
21
-72.375
0
LINE
8
BLACK
6
CONTINUOUS
10
144.0499999999999829
20
-72.1899999999999977
11
144.3499999999999943
21
-72.4899999999999949
0
LINE
8
BLACK
6
CONTINUOUS
10
144.3499999999999943
20
-72.1899999999999977
11
144.0499999999999829
21
-72.4899999999999949
0
LINE
8
BLACK
6
CONTINUOUS
10
144.1299999999999955
20
-65.6400000000000006
11
144.4300000000000068
21
-65.9399999999999977
0
LINE
8
BLACK
6
CONTINUOUS
10
144.4300000000000068
20
-65.6400000000000006
11
144.1299999999999955
21
-65.9399999999999977
0
LINE
8
BLACK
6
CONTINUOUS
10
144.1399999999999864
20
-74.0900000000000034
11
144.4399999999999977
21
-74.3900000000000006
0
LINE
8
BLACK
6
CONTINUOUS
10
144.4399999999999977
20
-74.0900000000000034
11
144.1399999999999864
21
-74.3900000000000006
0
LINE
8
BLACK
6
CONTINUOUS
10
145.4199999999999875
20
-69.3299999999999983
11
145.7199999999999989
21
-69.6299999999999955
0
LINE
8
BLACK
6
CONTINUOUS
10
145.7199999999999989
20
-69.3299999999999983
11
145.4199999999999875
21
-69.6299999999999955
0
LINE
8
BLACK
6
CONTINUOUS
10
146.5600000000000023
20
-65.6899999999999977
11
146.8599999999999852
21
-65.9899999999999949
0
LINE
8
BLACK
6
CONTINUOUS
10
146.8599999999999852
20
-65.6899999999999977
11
146.5600000000000023
21
-65.9899999999999949
0
LINE
8
BLACK
6
CONTINUOUS
10
146.6699999999999875
20
-75.4899999999999949
11
146.9699999999999989
21
-75.789999999999992
0
LINE
8
BLACK
6
CONTINUOUS
10
146.9699999999999989
20
-75.4899999999999949
11
146.6699999999999875
21
-75.789999999999992
0
LINE
8
BLACK
6
CONTINUOUS
10
146.6999999999999886
20
-78.3799999999999955
11
147.
21
-78.6799999999999926
0
LINE
8
BLACK
6
CONTINUOUS
10
147.
20
-78.3799999999999955
11
146.6999999999999886
21
-78.6799999999999926
0
CIRCLE
8
BLACK
10
135.5
20
-61.4899999999999949
40
0.25
0
LINE
8
BLACK
6
CONTINUOUS
10
135.75
20
-61.8149999999999977
11
135.75
21
-61.1649999999999991
0
ARC
8
BLACK
10
135.5
20
-61.1649999999999991
40
0.25
50
0.00000000
51
180.00000000
0
LINE
8
BLACK
6
CONTINUOUS
10
135.25
20
-61.1649999999999991
11
135.25
21
-61.8149999999999977
0
ARC
8
BLACK
10
135.5
20
-61.8149999999999977
40
0.25
50
180.00000000
51
360.00000000
0
CIRCLE
8
BLACK
10
142.5
20
-61.4899999999999949
40
0.25
0
LINE
8
BLACK
6
CONTINUOUS
10
142.75
20
-61.8149999999999977
11
142.75
21
-61.1649999999999991
0
ARC
8
BLACK
10
142.5
20
-61.1649999999999991
40
0.25
50
0.00000000
51
180.00000000
0
LINE
8
BLACK
6
CONTINUOUS
10
142.25
20
-61.1649999999999991
11
142.25
21
-61.8149999999999977
0
ARC
8
BLACK
10
142.5
20
-61.8149999999999977
40
0.25
50
180.00000000
51
360.00000000
0
LINE
8
BLACK
6
CONTINUOUS
10
136.5
20
-63.9149999999999991
11
136.5
21
-64.4650000000000034
0
LINE
8
BLACK
6
CONTINUOUS
10
136.2249999999999943
20
-64.1899999999999977
11
136.7750000000000057
21
-64.1899999999999977
0
LINE
8
BLACK
6
CONTINUOUS
10
136.6500000000000057
20
-63.9149999999999991
11
136.3499999999999943
21
-63.9149999999999991
0
ARC
8
BLACK
10
136.3499999999999943
20
-64.1899999999999977
40
0.275
50
90.00000000
51
270.00000000
0
LINE
8
BLACK
6
CONTINUOUS
10
136.3499999999999943
20
-64.4650000000000034
11
136.6500000000000057
21
-64.4650000000000034
0
ARC
8
BLACK
10
136.6500000000000057
20
-64.1899999999999977
40
0.275
50
270.00000000
51
450.00000000
0
LINE
8
BLACK
6
CONTINUOUS
10
141.5
20
-63.9149999999999991
11
141.5
21
-64.4650000000000034
0
LINE
8
BLACK
6
CONTINUOUS
10
141.2249999999999943
20
-64.1899999999999977
11
141.7750000000000057
21
-64.1899999999999977
0
LINE
8
BLACK
6
CONTINUOUS
10
141.6500000000000057
20
-63.9149999999999991
11
141.3499999999999943
21
-63.9149999999999991
0
ARC
8
BLACK
10
141.3499999999999943
20
-64.1899999999999977
40
0.275
50
90.00000000
51
270.00000000
0
LINE
8
BLACK
6
CONTINUOUS
10
141.3499999999999943
20
-64.4650000000000034
11
141.6500000000000057
21
-64.4650000000000034
0
ARC
8
BLACK
10
141.6500000000000057
20
-64.1899999999999977
40
0.275
50
270.00000000
51
450.00000000
0
LINE
8
BLACK
6
CONTINUOUS
10
135.5435569999999927
20
-87.7535570000000007
11
135.5435569999999927
21
-87.0464429999999965
0
LINE
8
BLACK
6
CONTINUOUS
10
135.5435569999999927
20
-87.0464429999999965
11
134.8364430000000027
21
-87.0464429999999965
0
LINE
8
BLACK
6
CONTINUOUS
10
134.8364430000000027
20
-87.0464429999999965
11
134.8364430000000027
21
-87.7535570000000007
0
LINE
8
BLACK
6
CONTINUOUS
10
134.8364430000000027
20
-87.7535570000000007
11
135.5435569999999927
21
-87.7535570000000007
0
LINE
8
BLACK
6
CONTINUOUS
10
138.0835569999999848
20
-87.7535570000000007
11
138.0835569999999848
21
-87.0464429999999965
0
LINE
8
BLACK
6
CONTINUOUS
10
138.0835569999999848
20
-87.0464429999999965
11
137.3764429999999948
21
-87.0464429999999965
0
LINE
8
BLACK
6
CONTINUOUS
10
137.3764429999999948
20
-87.0464429999999965
11
137.3764429999999948
21
-87.7535570000000007
0
LINE
8
BLACK
6
CONTINUOUS
10
137.3764429999999948
20
-87.7535570000000007
11
138.0835569999999848
21
-87.7535570000000007
0
LINE
8
BLACK
6
CONTINUOUS
10
140.6235570000000052
20
-87.7535570000000007
11
140.6235570000000052
21
-87.0464429999999965
0
LINE
8
BLACK
6
CONTINUOUS
10
140.6235570000000052
20
-87.0464429999999965
11
139.9164429999999868
21
-87.0464429999999965
0
LINE
8
BLACK
6
CONTINUOUS
10
139.9164429999999868
20
-87.0464429999999965
11
139.9164429999999868
21
-87.7535570000000007
0
LINE
8
BLACK
6
CONTINUOUS
10
139.9164429999999868
20
-87.7535570000000007
11
140.6235570000000052
21
-87.7535570000000007
0
LINE
8
BLACK
6
CONTINUOUS
10
143.1635569999999973
20
-87.7535570000000007
11
143.1635569999999973
21
-87.0464429999999965
0
LINE
8
BLACK
6
CONTINUOUS
10
143.1635569999999973
20
-87.0464429999999965
11
142.4564430000000073
21
-87.0464429999999965
0
LINE
8
BLACK
6
CONTINUOUS
10
142.4564430000000073
20
-87.0464429999999965
11
142.4564430000000073
21
-87.7535570000000007
0
LINE
8
BLACK
6
CONTINUOUS
10
142.4564430000000073
20
-87.7535570000000007
11
143.1635569999999973
21
-87.7535570000000007
0
LINE
8
BLACK
6
CONTINUOUS
10
132.5827679999999873
20
-94.1398379999999975
11
132.5827679999999873
21
-92.1398379999999975
0
LINE
8
BLACK
6
CONTINUOUS
10
132.5827679999999873
20
-92.1398379999999975
11
133.0589579999999899
21
-92.1398379999999975
0
LINE
8
BLACK
6
CONTINUOUS
10
133.0589579999999899
20
-92.1398379999999975
11
133.3446730000000002
21
-92.2350759999999923
0
LINE
8
BLACK
6
CONTINUOUS
10
133.3446730000000002
20
-92.2350759999999923
11
133.5351489999999899
21
-92.4255519999999962
0
LINE
8
BLACK
6
CONTINUOUS
10
133.5351489999999899
20
-92.4255519999999962
11
133.6303869999999847
21
-92.616028
0
LINE
8
BLACK
6
CONTINUOUS
10
133.6303869999999847
20
-92.616028
11
133.725625000000008
21
-92.9969799999999935
0
LINE
8
BLACK
6
CONTINUOUS
10
133.725625000000008
20
-92.9969799999999935
11
133.725625000000008
21
-93.2826949999999897
0
LINE
8
BLACK
6
CONTINUOUS
10
133.725625000000008
20
-93.2826949999999897
11
133.6303869999999847
21
-93.6636469999999974
0
LINE
8
BLACK
6
CONTINUOUS
10
133.6303869999999847
20
-93.6636469999999974
11
133.5351489999999899
21
-93.8541230000000013
0
LINE
8
BLACK
6
CONTINUOUS
10
133.5351489999999899
20
-93.8541230000000013
11
133.3446730000000002
21
-94.0446000000000026
0
LINE
8
BLACK
6
CONTINUOUS
10
133.3446730000000002
20
-94.0446000000000026
11
133.0589579999999899
21
-94.1398379999999975
0
LINE
8
BLACK
6
CONTINUOUS
10
133.0589579999999899
20
-94.1398379999999975
11
132.5827679999999873
21
-94.1398379999999975
0
LINE
8
BLACK
6
CONTINUOUS
10
134.5827679999999873
20
-94.1398379999999975
11
134.5827679999999873
21
-92.8065039999999897
0
LINE
8
BLACK
6
CONTINUOUS
10
134.5827679999999873
20
-93.1874569999999949
11
134.6780059999999821
21
-92.9969799999999935
0
LINE
8
BLACK
6
CONTINUOUS
10
134.6780059999999821
20
-92.9969799999999935
11
134.7732440000000054
21
-92.9017419999999987
0
LINE
8
BLACK
6
CONTINUOUS
10
134.7732440000000054
20
-92.9017419999999987
11
134.963719999999995
21
-92.8065039999999897
0
LINE
8
BLACK
6
CONTINUOUS
10
134.963719999999995
20
-92.8065039999999897
11
135.1541969999999822
21
-92.8065039999999897
0
LINE
8
BLACK
6
CONTINUOUS
10
135.8208630000000028
20
-94.1398379999999975
11
135.8208630000000028
21
-92.8065039999999897
0
LINE
8
BLACK
6
CONTINUOUS
10
135.8208630000000028
20
-92.1398379999999975
11
135.725625000000008
21
-92.2350759999999923
0
LINE
8
BLACK
6
CONTINUOUS
10
135.725625000000008
20
-92.2350759999999923
11
135.8208630000000028
21
-92.3303140000000013
0
LINE
8
BLACK
6
CONTINUOUS
10
135.8208630000000028
20
-92.3303140000000013
11
135.9161009999999976
21
-92.2350759999999923
0
LINE
8
BLACK
6
CONTINUOUS
10
135.9161009999999976
20
-92.2350759999999923
11
135.8208630000000028
21
-92.1398379999999975
0
LINE
8
BLACK
6
CONTINUOUS
10
135.8208630000000028
20
-92.1398379999999975
11
135.8208630000000028
21
-92.3303140000000013
0
LINE
8
BLACK
6
CONTINUOUS
10
137.0589579999999899
20
-94.1398379999999975
11
136.8684820000000002
21
-94.0446000000000026
0
LINE
8
BLACK
6
CONTINUOUS
10
136.8684820000000002
20
-94.0446000000000026
11
136.7732440000000054
21
-93.8541230000000013
0
LINE
8
BLACK
6
CONTINUOUS
10
136.7732440000000054
20
-93.8541230000000013
11
136.7732440000000054
21
-92.1398379999999975
0
LINE
8
BLACK
6
CONTINUOUS
10
138.1065769999999873
20
-94.1398379999999975
11
137.9161009999999976
21
-94.0446000000000026
0
LINE
8
BLACK
6
CONTINUOUS
10
137.9161009999999976
20
-94.0446000000000026
11
137.8208630000000028
21
-93.8541230000000013
0
LINE
8
BLACK
6
CONTINUOUS
10
137.8208630000000028
20
-93.8541230000000013
11
137.8208630000000028
21
-92.1398379999999975
0
LINE
8
BLACK
6
CONTINUOUS
10
140.3922919999999976
20
-94.1398379999999975
11
140.3922919999999976
21
-92.1398379999999975
0
LINE
8
BLACK
6
CONTINUOUS
10
140.3922919999999976
20
-92.1398379999999975
11
141.0589589999999873
21
-93.5684090000000026
0
LINE
8
BLACK
6
CONTINUOUS
10
141.0589589999999873
20
-93.5684090000000026
11
141.7256249999999795
21
-92.1398379999999975
0
LINE
8
BLACK
6
CONTINUOUS
10
141.7256249999999795
20
-92.1398379999999975
11
141.7256249999999795
21
-94.1398379999999975
0
LINE
8
BLACK
6
CONTINUOUS
10
143.5351489999999899
20
-94.1398379999999975
11
143.5351489999999899
21
-93.0922190000000001
0
LINE
8
BLACK
6
CONTINUOUS
10
143.5351489999999899
20
-93.0922190000000001
11
143.4399109999999951
21
-92.9017419999999987
0
LINE
8
BLACK
6
CONTINUOUS
10
143.4399109999999951
20
-92.9017419999999987
11
143.2494350000000054
21
-92.8065039999999897
0
LINE
8
BLACK
6
CONTINUOUS
10
143.2494350000000054
20
-92.8065039999999897
11
142.8684820000000002
21
-92.8065039999999897
0
LINE
8
BLACK
6
CONTINUOUS
10
142.8684820000000002
20
-92.8065039999999897
11
142.6780059999999821
21
-92.9017419999999987
0
LINE
8
BLACK
6
CONTINUOUS
10
143.5351489999999899
20
-94.0446000000000026
11
143.3446730000000002
21
-94.1398379999999975
0
LINE
8
BLACK
6
CONTINUOUS
10
143.3446730000000002
20
-94.1398379999999975
11
142.8684820000000002
21
-94.1398379999999975
0
LINE
8
BLACK
6
CONTINUOUS
10
142.8684820000000002
20
-94.1398379999999975
11
142.6780059999999821
21
-94.0446000000000026
0
LINE
8
BLACK
6
CONTINUOUS
10
142.6780059999999821
20
-94.0446000000000026
11
142.5827679999999873
21
-93.8541230000000013
0
LINE
8
BLACK
6
CONTINUOUS
10
142.5827679999999873
20
-93.8541230000000013
11
142.5827679999999873
21
-93.6636469999999974
0
LINE
8
BLACK
6
CONTINUOUS
10
142.5827679999999873
20
-93.6636469999999974
11
142.6780059999999821
21
-93.4731709999999936
0
LINE
8
BLACK
6
CONTINUOUS
10
142.6780059999999821
20
-93.4731709999999936
11
142.8684820000000002
21
-93.3779329999999987
0
LINE
8
BLACK
6
CONTINUOUS
10
142.8684820000000002
20
-93.3779329999999987
11
143.3446730000000002
21
-93.3779329999999987
0
LINE
8
BLACK
6
CONTINUOUS
10
143.3446730000000002
20
-93.3779329999999987
11
143.5351489999999899
21
-93.2826949999999897
0
LINE
8
BLACK
6
CONTINUOUS
10
144.4875299999999925
20
-92.8065039999999897
11
144.4875299999999925
21
-94.8065039999999897
0
LINE
8
BLACK
6
CONTINUOUS
10
144.4875299999999925
20
-92.9017419999999987
11
144.6780059999999821
21
-92.8065039999999897
0
LINE
8
BLACK
6
CONTINUOUS
10
144.6780059999999821
20
-92.8065039999999897
11
145.0589589999999873
21
-92.8065039999999897
0
LINE
8
BLACK
6
CONTINUOUS
10
145.0589589999999873
20
-92.8065039999999897
11
145.2494350000000054
21
-92.9017419999999987
0
LINE
8
BLACK
6
CONTINUOUS
10
145.2494350000000054
20
-92.9017419999999987
11
145.3446730000000002
21
-92.9969799999999935
0
LINE
8
BLACK
6
CONTINUOUS
10
145.3446730000000002
20
-92.9969799999999935
11
145.4399109999999951
21
-93.1874569999999949
0
LINE
8
BLACK
6
CONTINUOUS
10
145.4399109999999951
20
-93.1874569999999949
11
145.4399109999999951
21
-93.7588849999999923
0
LINE
8
BLACK
6
CONTINUOUS
10
145.4399109999999951
20
-93.7588849999999923
11
145.3446730000000002
21
-93.9493609999999961
0
LINE
8
BLACK
6
CONTINUOUS
10
145.3446730000000002
20
-93.9493609999999961
11
145.2494350000000054
21
-94.0446000000000026
0
LINE
8
BLACK
6
CONTINUOUS
10
145.2494350000000054
20
-94.0446000000000026
11
145.0589589999999873
21
-94.1398379999999975
0
LINE
8
BLACK
6
CONTINUOUS
10
145.0589589999999873
20
-94.1398379999999975
11
144.6780059999999821
21
-94.1398379999999975
0
LINE
8
BLACK
6
CONTINUOUS
10
144.6780059999999821
20
-94.1398379999999975
11
144.4875299999999925
21
-94.0446000000000026
0
LINE
8
BLACK
6
CONTINUOUS
10
146.2970540000000028
20
-93.9493609999999961
11
146.3922919999999976
21
-94.0446000000000026
0
LINE
8
BLACK
6
CONTINUOUS
10
146.3922919999999976
20
-94.0446000000000026
11
146.2970540000000028
21
-94.1398379999999975
0
LINE
8
BLACK
6
CONTINUOUS
10
146.2970540000000028
20
-94.1398379999999975
11
146.2018159999999796
21
-94.0446000000000026
0
LINE
8
BLACK
6
CONTINUOUS
10
146.2018159999999796
20
-94.0446000000000026
11
146.2970540000000028
21
-93.9493609999999961
0
LINE
8
BLACK
6
CONTINUOUS
10
146.2970540000000028
20
-93.9493609999999961
11
146.2970540000000028
21
-94.1398379999999975
0
LINE
8
BLACK
6
CONTINUOUS
10
146.2970540000000028
20
-92.9017419999999987
11
146.3922919999999976
21
-92.9969799999999935
0
LINE
8
BLACK
6
CONTINUOUS
10
146.3922919999999976
20
-92.9969799999999935
11
146.2970540000000028
21
-93.0922190000000001
0
LINE
8
BLACK
6
CONTINUOUS
10
146.2970540000000028
20
-93.0922190000000001
11
146.2018159999999796
21
-92.9969799999999935
0
LINE
8
BLACK
6
CONTINUOUS
10
146.2018159999999796
20
-92.9969799999999935
11
146.2970540000000028
21
-92.9017419999999987
0
LINE
8
BLACK
6
CONTINUOUS
10
146.2970540000000028
20
-92.9017419999999987
11
146.2970540000000028
21
-93.0922190000000001
0
LINE
8
BLACK
6
CONTINUOUS
10
129.6749999999999829
20
-97.2749999999999915
11
129.9749999999999943
21
-97.5749999999999886
0
LINE
8
BLACK
6
CONTINUOUS
10
129.9749999999999943
20
-97.2749999999999915
11
129.6749999999999829
21
-97.5749999999999886
0
LINE
8
BLACK
6
CONTINUOUS
10
132.963719999999995
20
-96.3398380000000003
11
133.1541969999999822
21
-96.3398380000000003
0
LINE
8
BLACK
6
CONTINUOUS
10
133.1541969999999822
20
-96.3398380000000003
11
133.3446730000000002
21
-96.4350759999999951
0
LINE
8
BLACK
6
CONTINUOUS
10
133.3446730000000002
20
-96.4350759999999951
11
133.4399109999999951
21
-96.53031399999999
0
LINE
8
BLACK
6
CONTINUOUS
10
133.4399109999999951
20
-96.53031399999999
11
133.5351489999999899
21
-96.7207899999999938
0
LINE
8
BLACK
6
CONTINUOUS
10
133.5351489999999899
20
-96.7207899999999938
11
133.6303869999999847
21
-97.1017420000000016
0
LINE
8
BLACK
6
CONTINUOUS
10
133.6303869999999847
20
-97.1017420000000016
11
133.6303869999999847
21
-97.5779330000000016
0
LINE
8
BLACK
6
CONTINUOUS
10
133.6303869999999847
20
-97.5779330000000016
11
133.5351489999999899
21
-97.9588849999999951
0
LINE
8
BLACK
6
CONTINUOUS
10
133.5351489999999899
20
-97.9588849999999951
11
133.4399109999999951
21
-98.149360999999999
0
LINE
8
BLACK
6
CONTINUOUS
10
133.4399109999999951
20
-98.149360999999999
11
133.3446730000000002
21
-98.2445999999999913
0
LINE
8
BLACK
6
CONTINUOUS
10
133.3446730000000002
20
-98.2445999999999913
11
133.1541969999999822
21
-98.3398380000000003
0
LINE
8
BLACK
6
CONTINUOUS
10
133.1541969999999822
20
-98.3398380000000003
11
132.963719999999995
21
-98.3398380000000003
0
LINE
8
BLACK
6
CONTINUOUS
10
132.963719999999995
20
-98.3398380000000003
11
132.7732440000000054
21
-98.2445999999999913
0
LINE
8
BLACK
6
CONTINUOUS
10
132.7732440000000054
20
-98.2445999999999913
11
132.6780059999999821
21
-98.149360999999999
0
LINE
8
BLACK
6
CONTINUOUS
10
132.6780059999999821
20
-98.149360999999999
11
132.5827679999999873
21
-97.9588849999999951
0
LINE
8
BLACK
6
CONTINUOUS
10
132.5827679999999873
20
-97.9588849999999951
11
132.4875299999999925
21
-97.5779330000000016
0
LINE
8
BLACK
6
CONTINUOUS
10
132.4875299999999925
20
-97.5779330000000016
11
132.4875299999999925
21
-97.1017420000000016
0
LINE
8
BLACK
6
CONTINUOUS
10
132.4875299999999925
20
-97.1017420000000016
11
132.5827679999999873
21
-96.7207899999999938
0
LINE
8
BLACK
6
CONTINUOUS
10
132.5827679999999873
20
-96.7207899999999938
11
132.6780059999999821
21
-96.53031399999999
0
LINE
8
BLACK
6
CONTINUOUS
10
132.6780059999999821
20
-96.53031399999999
11
132.7732440000000054
21
-96.4350759999999951
0
LINE
8
BLACK
6
CONTINUOUS
10
132.7732440000000054
20
-96.4350759999999951
11
132.963719999999995
21
-96.3398380000000003
0
LINE
8
BLACK
6
CONTINUOUS
10
134.4875299999999925
20
-98.149360999999999
11
134.5827679999999873
21
-98.2445999999999913
0
LINE
8
BLACK
6
CONTINUOUS
10
134.5827679999999873
20
-98.2445999999999913
11
134.4875299999999925
21
-98.3398380000000003
0
LINE
8
BLACK
6
CONTINUOUS
10
134.4875299999999925
20
-98.3398380000000003
11
134.3922919999999976
21
-98.2445999999999913
0
LINE
8
BLACK
6
CONTINUOUS
10
134.3922919999999976
20
-98.2445999999999913
11
134.4875299999999925
21
-98.149360999999999
0
LINE
8
BLACK
6
CONTINUOUS
10
134.4875299999999925
20
-98.149360999999999
11
134.4875299999999925
21
-98.3398380000000003
0
LINE
8
BLACK
6
CONTINUOUS
10
135.2494350000000054
20
-96.3398380000000003
11
136.4875299999999925
21
-96.3398380000000003
0
LINE
8
BLACK
6
CONTINUOUS
10
136.4875299999999925
20
-96.3398380000000003
11
135.8208630000000028
21
-97.1017420000000016
0
LINE
8
BLACK
6
CONTINUOUS
10
135.8208630000000028
20
-97.1017420000000016
11
136.1065779999999847
21
-97.1017420000000016
0
LINE
8
BLACK
6
CONTINUOUS
10
136.1065779999999847
20
-97.1017420000000016
11
136.2970540000000028
21
-97.1969799999999964
0
LINE
8
BLACK
6
CONTINUOUS
10
136.2970540000000028
20
-97.1969799999999964
11
136.3922919999999976
21
-97.2922189999999887
0
LINE
8
BLACK
6
CONTINUOUS
10
136.3922919999999976
20
-97.2922189999999887
11
136.4875299999999925
21
-97.4826949999999925
0
LINE
8
BLACK
6
CONTINUOUS
10
136.4875299999999925
20
-97.4826949999999925
11
136.4875299999999925
21
-97.9588849999999951
0
LINE
8
BLACK
6
CONTINUOUS
10
136.4875299999999925
20
-97.9588849999999951
11
136.3922919999999976
21
-98.149360999999999
0
LINE
8
BLACK
6
CONTINUOUS
10
136.3922919999999976
20
-98.149360999999999
11
136.2970540000000028
21
-98.2445999999999913
0
LINE
8
BLACK
6
CONTINUOUS
10
136.2970540000000028
20
-98.2445999999999913
11
136.1065779999999847
21
-98.3398380000000003
0
LINE
8
BLACK
6
CONTINUOUS
10
136.1065779999999847
20
-98.3398380000000003
11
135.5351489999999899
21
-98.3398380000000003
0
LINE
8
BLACK
6
CONTINUOUS
10
135.5351489999999899
20
-98.3398380000000003
11
135.3446730000000002
21
-98.2445999999999913
0
LINE
8
BLACK
6
CONTINUOUS
10
135.3446730000000002
20
-98.2445999999999913
11
135.2494350000000054
21
-98.149360999999999
0
LINE
8
BLACK
6
CONTINUOUS
10
137.725625000000008
20
-96.3398380000000003
11
137.9161019999999951
21
-96.3398380000000003
0
LINE
8
BLACK
6
CONTINUOUS
10
137.9161019999999951
20
-96.3398380000000003
11
138.1065779999999847
21
-96.4350759999999951
0
LINE
8
BLACK
6
CONTINUOUS
10
138.1065779999999847
20
-96.4350759999999951
11
138.2018159999999796
21
-96.53031399999999
0
LINE
8
BLACK
6
CONTINUOUS
10
138.2018159999999796
20
-96.53031399999999
11
138.2970540000000028
21
-96.7207899999999938
0
LINE
8
BLACK
6
CONTINUOUS
10
138.2970540000000028
20
-96.7207899999999938
11
138.3922919999999976
21
-97.1017420000000016
0
LINE
8
BLACK
6
CONTINUOUS
10
138.3922919999999976
20
-97.1017420000000016
11
138.3922919999999976
21
-97.5779330000000016
0
LINE
8
BLACK
6
CONTINUOUS
10
138.3922919999999976
20
-97.5779330000000016
11
138.2970540000000028
21
-97.9588849999999951
0
LINE
8
BLACK
6
CONTINUOUS
10
138.2970540000000028
20
-97.9588849999999951
11
138.2018159999999796
21
-98.149360999999999
0
LINE
8
BLACK
6
CONTINUOUS
10
138.2018159999999796
20
-98.149360999999999
11
138.1065779999999847
21
-98.2445999999999913
0
LINE
8
BLACK
6
CONTINUOUS
10
138.1065779999999847
20
-98.2445999999999913
11
137.9161019999999951
21
-98.3398380000000003
0
LINE
8
BLACK
6
CONTINUOUS
10
137.9161019999999951
20
-98.3398380000000003
11
137.725625000000008
21
-98.3398380000000003
0
LINE
8
BLACK
6
CONTINUOUS
10
137.725625000000008
20
-98.3398380000000003
11
137.5351489999999899
21
-98.2445999999999913
0
LINE
8
BLACK
6
CONTINUOUS
10
137.5351489999999899
20
-98.2445999999999913
11
137.4399109999999951
21
-98.149360999999999
0
LINE
8
BLACK
6
CONTINUOUS
10
137.4399109999999951
20
-98.149360999999999
11
137.3446730000000002
21
-97.9588849999999951
0
LINE
8
BLACK
6
CONTINUOUS
10
137.3446730000000002
20
-97.9588849999999951
11
137.2494350000000054
21
-97.5779330000000016
0
LINE
8
BLACK
6
CONTINUOUS
10
137.2494350000000054
20
-97.5779330000000016
11
137.2494350000000054
21
-97.1017420000000016
0
LINE
8
BLACK
6
CONTINUOUS
10
137.2494350000000054
20
-97.1017420000000016
11
137.3446730000000002
21
-96.7207899999999938
0
LINE
8
BLACK
6
CONTINUOUS
10
137.3446730000000002
20
-96.7207899999999938
11
137.4399109999999951
21
-96.53031399999999
0
LINE
8
BLACK
6
CONTINUOUS
10
137.4399109999999951
20
-96.53031399999999
11
137.5351489999999899
21
-96.4350759999999951
0
LINE
8
BLACK
6
CONTINUOUS
10
137.5351489999999899
20
-96.4350759999999951
11
137.725625000000008
21
-96.3398380000000003
0
LINE
8
BLACK
6
CONTINUOUS
10
139.6303869999999847
20
-96.3398380000000003
11
139.8208640000000003
21
-96.3398380000000003
0
LINE
8
BLACK
6
CONTINUOUS
10
139.8208640000000003
20
-96.3398380000000003
11
140.0113399999999899
21
-96.4350759999999951
0
LINE
8
BLACK
6
CONTINUOUS
10
140.0113399999999899
20
-96.4350759999999951
11
140.1065779999999847
21
-96.53031399999999
0
LINE
8
BLACK
6
CONTINUOUS
10
140.1065779999999847
20
-96.53031399999999
11
140.2018159999999796
21
-96.7207899999999938
0
LINE
8
BLACK
6
CONTINUOUS
10
140.2018159999999796
20
-96.7207899999999938
11
140.2970540000000028
21
-97.1017420000000016
0
LINE
8
BLACK
6
CONTINUOUS
10
140.2970540000000028
20
-97.1017420000000016
11
140.2970540000000028
21
-97.5779330000000016
0
LINE
8
BLACK
6
CONTINUOUS
10
140.2970540000000028
20
-97.5779330000000016
11
140.2018159999999796
21
-97.9588849999999951
0
LINE
8
BLACK
6
CONTINUOUS
10
140.2018159999999796
20
-97.9588849999999951
11
140.1065779999999847
21
-98.149360999999999
0
LINE
8
BLACK
6
CONTINUOUS
10
140.1065779999999847
20
-98.149360999999999
11
140.0113399999999899
21
-98.2445999999999913
0
LINE
8
BLACK
6
CONTINUOUS
10
140.0113399999999899
20
-98.2445999999999913
11
139.8208640000000003
21
-98.3398380000000003
0
LINE
8
BLACK
6
CONTINUOUS
10
139.8208640000000003
20
-98.3398380000000003
11
139.6303869999999847
21
-98.3398380000000003
0
LINE
8
BLACK
6
CONTINUOUS
10
139.6303869999999847
20
-98.3398380000000003
11
139.4399109999999951
21
-98.2445999999999913
0
LINE
8
BLACK
6
CONTINUOUS
10
139.4399109999999951
20
-98.2445999999999913
11
139.3446730000000002
21
-98.149360999999999
0
LINE
8
BLACK
6
CONTINUOUS
10
139.3446730000000002
20
-98.149360999999999
11
139.2494350000000054
21
-97.9588849999999951
0
LINE
8
BLACK
6
CONTINUOUS
10
139.2494350000000054
20
-97.9588849999999951
11
139.1541969999999822
21
-97.5779330000000016
0
LINE
8
BLACK
6
CONTINUOUS
10
139.1541969999999822
20
-97.5779330000000016
11
139.1541969999999822
21
-97.1017420000000016
0
LINE
8
BLACK
6
CONTINUOUS
10
139.1541969999999822
20
-97.1017420000000016
11
139.2494350000000054
21
-96.7207899999999938
0
LINE
8
BLACK
6
CONTINUOUS
10
139.2494350000000054
20
-96.7207899999999938
11
139.3446730000000002
21
-96.53031399999999
0
LINE
8
BLACK
6
CONTINUOUS
10
139.3446730000000002
20
-96.53031399999999
11
139.4399109999999951
21
-96.4350759999999951
0
LINE
8
BLACK
6
CONTINUOUS
10
139.4399109999999951
20
-96.4350759999999951
11
139.6303869999999847
21
-96.3398380000000003
0
LINE
8
BLACK
6
CONTINUOUS
10
141.1541969999999822
20
-98.3398380000000003
11
141.1541969999999822
21
-97.0065039999999925
0
LINE
8
BLACK
6
CONTINUOUS
10
141.1541969999999822
20
-97.1969799999999964
11
141.2494350000000054
21
-97.1017420000000016
0
LINE
8
BLACK
6
CONTINUOUS
10
141.2494350000000054
20
-97.1017420000000016
11
141.4399109999999951
21
-97.0065039999999925
0
LINE
8
BLACK
6
CONTINUOUS
10
141.4399109999999951
20
-97.0065039999999925
11
141.7256260000000054
21
-97.0065039999999925
0
LINE
8
BLACK
6
CONTINUOUS
10
141.7256260000000054
20
-97.0065039999999925
11
141.9161019999999951
21
-97.1017420000000016
0
LINE
8
BLACK
6
CONTINUOUS
10
141.9161019999999951
20
-97.1017420000000016
11
142.0113399999999899
21
-97.2922189999999887
0
LINE
8
BLACK
6
CONTINUOUS
10
142.0113399999999899
20
-97.2922189999999887
11
142.0113399999999899
21
-98.3398380000000003
0
LINE
8
BLACK
6
CONTINUOUS
10
142.0113399999999899
20
-97.2922189999999887
11
142.1065779999999847
21
-97.1017420000000016
0
LINE
8
BLACK
6
CONTINUOUS
10
142.1065779999999847
20
-97.1017420000000016
11
142.2970540000000028
21
-97.0065039999999925
0
LINE
8
BLACK
6
CONTINUOUS
10
142.2970540000000028
20
-97.0065039999999925
11
142.5827679999999873
21
-97.0065039999999925
0
LINE
8
BLACK
6
CONTINUOUS
10
142.5827679999999873
20
-97.0065039999999925
11
142.7732450000000028
21
-97.1017420000000016
0
LINE
8
BLACK
6
CONTINUOUS
10
142.7732450000000028
20
-97.1017420000000016
11
142.8684829999999977
21
-97.2922189999999887
0
LINE
8
BLACK
6
CONTINUOUS
10
142.8684829999999977
20
-97.2922189999999887
11
142.8684829999999977
21
-98.3398380000000003
0
LINE
8
BLACK
6
CONTINUOUS
10
143.8208640000000003
20
-98.3398380000000003
11
143.8208640000000003
21
-97.0065039999999925
0
LINE
8
BLACK
6
CONTINUOUS
10
143.8208640000000003
20
-97.1969799999999964
11
143.9161019999999951
21
-97.1017420000000016
0
LINE
8
BLACK
6
CONTINUOUS
10
143.9161019999999951
20
-97.1017420000000016
11
144.1065779999999847
21
-97.0065039999999925
0
LINE
8
BLACK
6
CONTINUOUS
10
144.1065779999999847
20
-97.0065039999999925
11
144.3922929999999951
21
-97.0065039999999925
0
LINE
8
BLACK
6
CONTINUOUS
10
144.3922929999999951
20
-97.0065039999999925
11
144.5827689999999848
21
-97.1017420000000016
0
LINE
8
BLACK
6
CONTINUOUS
10
144.5827689999999848
20
-97.1017420000000016
11
144.6780069999999796
21
-97.2922189999999887
0
LINE
8
BLACK
6
CONTINUOUS
10
144.6780069999999796
20
-97.2922189999999887
11
144.6780069999999796
21
-98.3398380000000003
0
LINE
8
BLACK
6
CONTINUOUS
10
144.6780069999999796
20
-97.2922189999999887
11
144.7732450000000028
21
-97.1017420000000016
0
LINE
8
BLACK
6
CONTINUOUS
10
144.7732450000000028
20
-97.1017420000000016
11
144.9637209999999925
21
-97.0065039999999925
0
LINE
8
BLACK
6
CONTINUOUS
10
144.9637209999999925
20
-97.0065039999999925
11
145.2494350000000054
21
-97.0065039999999925
0
LINE
8
BLACK
6
CONTINUOUS
10
145.2494350000000054
20
-97.0065039999999925
11
145.4399119999999925
21
-97.1017420000000016
0
LINE
8
BLACK
6
CONTINUOUS
10
145.4399119999999925
20
-97.1017420000000016
11
145.5351499999999874
21
-97.2922189999999887
0
LINE
8
BLACK
6
CONTINUOUS
10
145.5351499999999874
20
-97.2922189999999887
11
145.5351499999999874
21
-98.3398380000000003
0
LINE
8
BLACK
6
CONTINUOUS
10
149.4399119999999925
20
-96.2445999999999913
11
147.7256270000000029
21
-98.8160279999999887
0
LINE
8
BLACK
6
CONTINUOUS
10
152.0113409999999874
20
-96.3398380000000003
11
152.2018180000000029
21
-96.3398380000000003
0
LINE
8
BLACK
6
CONTINUOUS
10
152.2018180000000029
20
-96.3398380000000003
11
152.3922939999999926
21
-96.4350759999999951
0
LINE
8
BLACK
6
CONTINUOUS
10
152.3922939999999926
20
-96.4350759999999951
11
152.4875319999999874
21
-96.53031399999999
0
LINE
8
BLACK
6
CONTINUOUS
10
152.4875319999999874
20
-96.53031399999999
11
152.5827699999999822
21
-96.7207899999999938
0
LINE
8
BLACK
6
CONTINUOUS
10
152.5827699999999822
20
-96.7207899999999938
11
152.6780080000000055
21
-97.1017420000000016
0
LINE
8
BLACK
6
CONTINUOUS
10
152.6780080000000055
20
-97.1017420000000016
11
152.6780080000000055
21
-97.5779330000000016
0
LINE
8
BLACK
6
CONTINUOUS
10
152.6780080000000055
20
-97.5779330000000016
11
152.5827699999999822
21
-97.9588849999999951
0
LINE
8
BLACK
6
CONTINUOUS
10
152.5827699999999822
20
-97.9588849999999951
11
152.4875319999999874
21
-98.149360999999999
0
LINE
8
BLACK
6
CONTINUOUS
10
152.4875319999999874
20
-98.149360999999999
11
152.3922939999999926
21
-98.2445999999999913
0
LINE
8
BLACK
6
CONTINUOUS
10
152.3922939999999926
20
-98.2445999999999913
11
152.2018180000000029
21
-98.3398380000000003
0
LINE
8
BLACK
6
CONTINUOUS
10
152.2018180000000029
20
-98.3398380000000003
11
152.0113409999999874
21
-98.3398380000000003
0
LINE
8
BLACK
6
CONTINUOUS
10
152.0113409999999874
20
-98.3398380000000003
11
151.8208649999999977
21
-98.2445999999999913
0
LINE
8
BLACK
6
CONTINUOUS
10
151.8208649999999977
20
-98.2445999999999913
11
151.7256270000000029
21
-98.149360999999999
0
LINE
8
BLACK
6
CONTINUOUS
10
151.7256270000000029
20
-98.149360999999999
11
151.6303889999999797
21
-97.9588849999999951
0
LINE
8
BLACK
6
CONTINUOUS
10
151.6303889999999797
20
-97.9588849999999951
11
151.5351509999999848
21
-97.5779330000000016
0
LINE
8
BLACK
6
CONTINUOUS
10
151.5351509999999848
20
-97.5779330000000016
11
151.5351509999999848
21
-97.1017420000000016
0
LINE
8
BLACK
6
CONTINUOUS
10
151.5351509999999848
20
-97.1017420000000016
11
151.6303889999999797
21
-96.7207899999999938
0
LINE
8
BLACK
6
CONTINUOUS
10
151.6303889999999797
20
-96.7207899999999938
11
151.7256270000000029
21
-96.53031399999999
0
LINE
8
BLACK
6
CONTINUOUS
10
151.7256270000000029
20
-96.53031399999999
11
151.8208649999999977
21
-96.4350759999999951
0
LINE
8
BLACK
6
CONTINUOUS
10
151.8208649999999977
20
-96.4350759999999951
11
152.0113409999999874
21
-96.3398380000000003
0
LINE
8
BLACK
6
CONTINUOUS
10
153.5351509999999848
20
-98.149360999999999
11
153.6303889999999797
21
-98.2445999999999913
0
LINE
8
BLACK
6
CONTINUOUS
10
153.6303889999999797
20
-98.2445999999999913
11
153.5351509999999848
21
-98.3398380000000003
0
LINE
8
BLACK
6
CONTINUOUS
10
153.5351509999999848
20
-98.3398380000000003
11
153.43991299999999
21
-98.2445999999999913
0
LINE
8
BLACK
6
CONTINUOUS
10
153.43991299999999
20
-98.2445999999999913
11
153.5351509999999848
21
-98.149360999999999
0
LINE
8
BLACK
6
CONTINUOUS
10
153.5351509999999848
20
-98.149360999999999
11
153.5351509999999848
21
-98.3398380000000003
0
LINE
8
BLACK
6
CONTINUOUS
10
154.8684839999999951
20
-96.3398380000000003
11
155.0589609999999823
21
-96.3398380000000003
0
LINE
8
BLACK
6
CONTINUOUS
10
155.0589609999999823
20
-96.3398380000000003
11
155.2494370000000004
21
-96.4350759999999951
0
LINE
8
BLACK
6
CONTINUOUS
10
155.2494370000000004
20
-96.4350759999999951
11
155.3446749999999952
21
-96.53031399999999
0
LINE
8
BLACK
6
CONTINUOUS
10
155.3446749999999952
20
-96.53031399999999
11
155.43991299999999
21
-96.7207899999999938
0
LINE
8
BLACK
6
CONTINUOUS
10
155.43991299999999
20
-96.7207899999999938
11
155.5351509999999848
21
-97.1017420000000016
0
LINE
8
BLACK
6
CONTINUOUS
10
155.5351509999999848
20
-97.1017420000000016
11
155.5351509999999848
21
-97.5779330000000016
0
LINE
8
BLACK
6
CONTINUOUS
10
155.5351509999999848
20
-97.5779330000000016
11
155.43991299999999
21
-97.9588849999999951
0
LINE
8
BLACK
6
CONTINUOUS
10
155.43991299999999
20
-97.9588849999999951
11
155.3446749999999952
21
-98.149360999999999
0
LINE
8
BLACK
6
CONTINUOUS
10
155.3446749999999952
20
-98.149360999999999
11
155.2494370000000004
21
-98.2445999999999913
0
LINE
8
BLACK
6
CONTINUOUS
10
155.2494370000000004
20
-98.2445999999999913
11
155.0589609999999823
21
-98.3398380000000003
0
LINE
8
BLACK
6
CONTINUOUS
10
155.0589609999999823
20
-98.3398380000000003
11
154.8684839999999951
21
-98.3398380000000003
0
LINE
8
BLACK
6
CONTINUOUS
10
154.8684839999999951
20
-98.3398380000000003
11
154.6780080000000055
21
-98.2445999999999913
0
LINE
8
BLACK
6
CONTINUOUS
10
154.6780080000000055
20
-98.2445999999999913
11
154.5827699999999822
21
-98.149360999999999
0
LINE
8
BLACK
6
CONTINUOUS
10
154.5827699999999822
20
-98.149360999999999
11
154.4875319999999874
21
-97.9588849999999951
0
LINE
8
BLACK
6
CONTINUOUS
10
154.4875319999999874
20
-97.9588849999999951
11
154.3922939999999926
21
-97.5779330000000016
0
LINE
8
BLACK
6
CONTINUOUS
10
154.3922939999999926
20
-97.5779330000000016
11
154.3922939999999926
21
-97.1017420000000016
0
LINE
8
BLACK
6
CONTINUOUS
10
154.3922939999999926
20
-97.1017420000000016
11
154.4875319999999874
21
-96.7207899999999938
0
LINE
8
BLACK
6
CONTINUOUS
10
154.4875319999999874
20
-96.7207899999999938
11
154.5827699999999822
21
-96.53031399999999
0
LINE
8
BLACK
6
CONTINUOUS
10
154.5827699999999822
20
-96.53031399999999
11
154.6780080000000055
21
-96.4350759999999951
0
LINE
8
BLACK
6
CONTINUOUS
10
154.6780080000000055
20
-96.4350759999999951
11
154.8684839999999951
21
-96.3398380000000003
0
LINE
8
BLACK
6
CONTINUOUS
10
157.43991299999999
20
-98.3398380000000003
11
156.2970559999999978
21
-98.3398380000000003
0
LINE
8
BLACK
6
CONTINUOUS
10
156.8684839999999951
20
-98.3398380000000003
11
156.8684839999999951
21
-96.3398380000000003
0
LINE
8
BLACK
6
CONTINUOUS
10
156.8684839999999951
20
-96.3398380000000003
11
156.6780080000000055
21
-96.625551999999999
0
LINE
8
BLACK
6
CONTINUOUS
10
156.6780080000000055
20
-96.625551999999999
11
156.4875319999999874
21
-96.8160279999999887
0
LINE
8
BLACK
6
CONTINUOUS
10
156.4875319999999874
20
-96.8160279999999887
11
156.2970559999999978
21
-96.9112659999999977
0
LINE
8
BLACK
6
CONTINUOUS
10
159.3446749999999952
20
-98.3398380000000003
11
158.2018180000000029
21
-98.3398380000000003
0
LINE
8
BLACK
6
CONTINUOUS
10
158.7732460000000003
20
-98.3398380000000003
11
158.7732460000000003
21
-96.3398380000000003
0
LINE
8
BLACK
6
CONTINUOUS
10
158.7732460000000003
20
-96.3398380000000003
11
158.5827699999999822
21
-96.625551999999999
0
LINE
8
BLACK
6
CONTINUOUS
10
158.5827699999999822
20
-96.625551999999999
11
158.3922939999999926
21
-96.8160279999999887
0
LINE
8
BLACK
6
CONTINUOUS
10
158.3922939999999926
20
-96.8160279999999887
11
158.2018180000000029
21
-96.9112659999999977
0
LINE
8
BLACK
6
CONTINUOUS
10
160.4875319999999874
20
-97.1969799999999964
11
160.2970559999999978
21
-97.1017420000000016
0
LINE
8
BLACK
6
CONTINUOUS
10
160.2970559999999978
20
-97.1017420000000016
11
160.2018180000000029
21
-97.0065039999999925
0
LINE
8
BLACK
6
CONTINUOUS
10
160.2018180000000029
20
-97.0065039999999925
11
160.1065799999999797
21
-96.8160279999999887
0
LINE
8
BLACK
6
CONTINUOUS
10
160.1065799999999797
20
-96.8160279999999887
11
160.1065799999999797
21
-96.7207899999999938
0
LINE
8
BLACK
6
CONTINUOUS
10
160.1065799999999797
20
-96.7207899999999938
11
160.2018180000000029
21
-96.53031399999999
0
LINE
8
BLACK
6
CONTINUOUS
10
160.2018180000000029
20
-96.53031399999999
11
160.2970559999999978
21
-96.4350759999999951
0
LINE
8
BLACK
6
CONTINUOUS
10
160.2970559999999978
20
-96.4350759999999951
11
160.4875319999999874
21
-96.3398380000000003
0
LINE
8
BLACK
6
CONTINUOUS
10
160.4875319999999874
20
-96.3398380000000003
11
160.8684849999999926
21
-96.3398380000000003
0
LINE
8
BLACK
6
CONTINUOUS
10
160.8684849999999926
20
-96.3398380000000003
11
161.0589609999999823
21
-96.4350759999999951
0
LINE
8
BLACK
6
CONTINUOUS
10
161.0589609999999823
20
-96.4350759999999951
11
161.1541990000000055
21
-96.53031399999999
0
LINE
8
BLACK
6
CONTINUOUS
10
161.1541990000000055
20
-96.53031399999999
11
161.2494370000000004
21
-96.7207899999999938
0
LINE
8
BLACK
6
CONTINUOUS
10
161.2494370000000004
20
-96.7207899999999938
11
161.2494370000000004
21
-96.8160279999999887
0
LINE
8
BLACK
6
CONTINUOUS
10
161.2494370000000004
20
-96.8160279999999887
11
161.1541990000000055
21
-97.0065039999999925
0
LINE
8
BLACK
6
CONTINUOUS
10
161.1541990000000055
20
-97.0065039999999925
11
161.0589609999999823
21
-97.1017420000000016
0
LINE
8
BLACK
6
CONTINUOUS
10
161.0589609999999823
20
-97.1017420000000016
11
160.8684849999999926
21
-97.1969799999999964
0
LINE
8
BLACK
6
CONTINUOUS
10
160.8684849999999926
20
-97.1969799999999964
11
160.4875319999999874
21
-97.1969799999999964
0
LINE
8
BLACK
6
CONTINUOUS
10
160.4875319999999874
20
-97.1969799999999964
11
160.2970559999999978
21
-97.2922189999999887
0
LINE
8
BLACK
6
CONTINUOUS
10
160.2970559999999978
20
-97.2922189999999887
11
160.2018180000000029
21
-97.3874569999999977
0
LINE
8
BLACK
6
CONTINUOUS
10
160.2018180000000029
20
-97.3874569999999977
11
160.1065799999999797
21
-97.5779330000000016
0
LINE
8
BLACK
6
CONTINUOUS
10
160.1065799999999797
20
-97.5779330000000016
11
160.1065799999999797
21
-97.9588849999999951
0
LINE
8
BLACK
6
CONTINUOUS
10
160.1065799999999797
20
-97.9588849999999951
11
160.2018180000000029
21
-98.149360999999999
0
LINE
8
BLACK
6
CONTINUOUS
10
160.2018180000000029
20
-98.149360999999999
11
160.2970559999999978
21
-98.2445999999999913
0
LINE
8
BLACK
6
CONTINUOUS
10
160.2970559999999978
20
-98.2445999999999913
11
160.4875319999999874
21
-98.3398380000000003
0
LINE
8
BLACK
6
CONTINUOUS
10
160.4875319999999874
20
-98.3398380000000003
11
160.8684849999999926
21
-98.3398380000000003
0
LINE
8
BLACK
6
CONTINUOUS
10
160.8684849999999926
20
-98.3398380000000003
11
161.0589609999999823
21
-98.2445999999999913
0
LINE
8
BLACK
6
CONTINUOUS
10
161.0589609999999823
20
-98.2445999999999913
11
161.1541990000000055
21
-98.149360999999999
0
LINE
8
BLACK
6
CONTINUOUS
10
161.1541990000000055
20
-98.149360999999999
11
161.2494370000000004
21
-97.9588849999999951
0
LINE
8
BLACK
6
CONTINUOUS
10
161.2494370000000004
20
-97.9588849999999951
11
161.2494370000000004
21
-97.5779330000000016
0
LINE
8
BLACK
6
CONTINUOUS
10
161.2494370000000004
20
-97.5779330000000016
11
161.1541990000000055
21
-97.3874569999999977
0
LINE
8
BLACK
6
CONTINUOUS
10
161.1541990000000055
20
-97.3874569999999977
11
161.0589609999999823
21
-97.2922189999999887
0
LINE
8
BLACK
6
CONTINUOUS
10
161.0589609999999823
20
-97.2922189999999887
11
160.8684849999999926
21
-97.1969799999999964
0
LINE
8
BLACK
6
CONTINUOUS
10
162.0113419999999849
20
-96.3398380000000003
11
162.0113419999999849
21
-96.7207899999999938
0
LINE
8
BLACK
6
CONTINUOUS
10
162.7732469999999978
20
-96.3398380000000003
11
162.7732469999999978
21
-96.7207899999999938
0
LINE
8
BLACK
6
CONTINUOUS
10
165.7256289999999979
20
-99.1017420000000016
11
165.6303900000000056
21
-99.0065039999999925
0
LINE
8
BLACK
6
CONTINUOUS
10
165.6303900000000056
20
-99.0065039999999925
11
165.4399139999999875
21
-98.7207899999999938
0
LINE
8
BLACK
6
CONTINUOUS
10
165.4399139999999875
20
-98.7207899999999938
11
165.3446759999999927
21
-98.53031399999999
0
LINE
8
BLACK
6
CONTINUOUS
10
165.3446759999999927
20
-98.53031399999999
11
165.2494379999999978
21
-98.2445999999999913
0
LINE
8
BLACK
6
CONTINUOUS
10
165.2494379999999978
20
-98.2445999999999913
11
165.154200000000003
21
-97.7684089999999912
0
LINE
8
BLACK
6
CONTINUOUS
10
165.154200000000003
20
-97.7684089999999912
11
165.154200000000003
21
-97.3874569999999977
0
LINE
8
BLACK
6
CONTINUOUS
10
165.154200000000003
20
-97.3874569999999977
11
165.2494379999999978
21
-96.9112659999999977
0
LINE
8
BLACK
6
CONTINUOUS
10
165.2494379999999978
20
-96.9112659999999977
11
165.3446759999999927
21
-96.625551999999999
0
LINE
8
BLACK
6
CONTINUOUS
10
165.3446759999999927
20
-96.625551999999999
11
165.4399139999999875
21
-96.4350759999999951
0
LINE
8
BLACK
6
CONTINUOUS
10
165.4399139999999875
20
-96.4350759999999951
11
165.6303900000000056
21
-96.149360999999999
0
LINE
8
BLACK
6
CONTINUOUS
10
165.6303900000000056
20
-96.149360999999999
11
165.7256289999999979
21
-96.0541229999999899
0
LINE
8
BLACK
6
CONTINUOUS
10
167.5351519999999823
20
-98.3398380000000003
11
166.3922949999999901
21
-98.3398380000000003
0
LINE
8
BLACK
6
CONTINUOUS
10
166.9637229999999875
20
-98.3398380000000003
11
166.9637229999999875
21
-96.3398380000000003
0
LINE
8
BLACK
6
CONTINUOUS
10
166.9637229999999875
20
-96.3398380000000003
11
166.7732469999999978
21
-96.625551999999999
0
LINE
8
BLACK
6
CONTINUOUS
10
166.7732469999999978
20
-96.625551999999999
11
166.5827709999999797
21
-96.8160279999999887
0
LINE
8
BLACK
6
CONTINUOUS
10
166.5827709999999797
20
-96.8160279999999887
11
166.3922949999999901
21
-96.9112659999999977
0
LINE
8
BLACK
6
CONTINUOUS
10
168.678009000000003
20
-97.1969799999999964
11
168.4875329999999849
21
-97.1017420000000016
0
LINE
8
BLACK
6
CONTINUOUS
10
168.4875329999999849
20
-97.1017420000000016
11
168.3922949999999901
21
-97.0065039999999925
0
LINE
8
BLACK
6
CONTINUOUS
10
168.3922949999999901
20
-97.0065039999999925
11
168.2970569999999952
21
-96.8160279999999887
0
LINE
8
BLACK
6
CONTINUOUS
10
168.2970569999999952
20
-96.8160279999999887
11
168.2970569999999952
21
-96.7207899999999938
0
LINE
8
BLACK
6
CONTINUOUS
10
168.2970569999999952
20
-96.7207899999999938
11
168.3922949999999901
21
-96.53031399999999
0
LINE
8
BLACK
6
CONTINUOUS
10
168.3922949999999901
20
-96.53031399999999
11
168.4875329999999849
21
-96.4350759999999951
0
LINE
8
BLACK
6
CONTINUOUS
10
168.4875329999999849
20
-96.4350759999999951
11
168.678009000000003
21
-96.3398380000000003
0
LINE
8
BLACK
6
CONTINUOUS
10
168.678009000000003
20
-96.3398380000000003
11
169.0589619999999798
21
-96.3398380000000003
0
LINE
8
BLACK
6
CONTINUOUS
10
169.0589619999999798
20
-96.3398380000000003
11
169.2494379999999978
21
-96.4350759999999951
0
LINE
8
BLACK
6
CONTINUOUS
10
169.2494379999999978
20
-96.4350759999999951
11
169.3446759999999927
21
-96.53031399999999
0
LINE
8
BLACK
6
CONTINUOUS
10
169.3446759999999927
20
-96.53031399999999
11
169.4399139999999875
21
-96.7207899999999938
0
LINE
8
BLACK
6
CONTINUOUS
10
169.4399139999999875
20
-96.7207899999999938
11
169.4399139999999875
21
-96.8160279999999887
0
LINE
8
BLACK
6
CONTINUOUS
10
169.4399139999999875
20
-96.8160279999999887
11
169.3446759999999927
21
-97.0065039999999925
0
LINE
8
BLACK
6
CONTINUOUS
10
169.3446759999999927
20
-97.0065039999999925
11
169.2494379999999978
21
-97.1017420000000016
0
LINE
8
BLACK
6
CONTINUOUS
10
169.2494379999999978
20
-97.1017420000000016
11
169.0589619999999798
21
-97.1969799999999964
0
LINE
8
BLACK
6
CONTINUOUS
10
169.0589619999999798
20
-97.1969799999999964
11
168.678009000000003
21
-97.1969799999999964
0
LINE
8
BLACK
6
CONTINUOUS
10
168.678009000000003
20
-97.1969799999999964
11
168.4875329999999849
21
-97.2922189999999887
0
LINE
8
BLACK
6
CONTINUOUS
10
168.4875329999999849
20
-97.2922189999999887
11
168.3922949999999901
21
-97.3874569999999977
0
LINE
8
BLACK
6
CONTINUOUS
10
168.3922949999999901
20
-97.3874569999999977
11
168.2970569999999952
21
-97.5779330000000016
0
LINE
8
BLACK
6
CONTINUOUS
10
168.2970569999999952
20
-97.5779330000000016
11
168.2970569999999952
21
-97.9588849999999951
0
LINE
8
BLACK
6
CONTINUOUS
10
168.2970569999999952
20
-97.9588849999999951
11
168.3922949999999901
21
-98.149360999999999
0
LINE
8
BLACK
6
CONTINUOUS
10
168.3922949999999901
20
-98.149360999999999
11
168.4875329999999849
21
-98.2445999999999913
0
LINE
8
BLACK
6
CONTINUOUS
10
168.4875329999999849
20
-98.2445999999999913
11
168.678009000000003
21
-98.3398380000000003
0
LINE
8
BLACK
6
CONTINUOUS
10
168.678009000000003
20
-98.3398380000000003
11
169.0589619999999798
21
-98.3398380000000003
0
LINE
8
BLACK
6
CONTINUOUS
10
169.0589619999999798
20
-98.3398380000000003
11
169.2494379999999978
21
-98.2445999999999913
0
LINE
8
BLACK
6
CONTINUOUS
10
169.2494379999999978
20
-98.2445999999999913
11
169.3446759999999927
21
-98.149360999999999
0
LINE
8
BLACK
6
CONTINUOUS
10
169.3446759999999927
20
-98.149360999999999
11
169.4399139999999875
21
-97.9588849999999951
0
LINE
8
BLACK
6
CONTINUOUS
10
169.4399139999999875
20
-97.9588849999999951
11
169.4399139999999875
21
-97.5779330000000016
0
LINE
8
BLACK
6
CONTINUOUS
10
169.4399139999999875
20
-97.5779330000000016
11
169.3446759999999927
21
-97.3874569999999977
0
LINE
8
BLACK
6
CONTINUOUS
10
169.3446759999999927
20
-97.3874569999999977
11
169.2494379999999978
21
-97.2922189999999887
0
LINE
8
BLACK
6
CONTINUOUS
10
169.2494379999999978
20
-97.2922189999999887
11
169.0589619999999798
21
-97.1969799999999964
0
LINE
8
BLACK
6
CONTINUOUS
10
171.8208669999999927
20
-98.3398380000000003
11
171.8208669999999927
21
-96.3398380000000003
0
LINE
8
BLACK
6
CONTINUOUS
10
172.6780100000000004
20
-98.3398380000000003
11
172.6780100000000004
21
-97.2922189999999887
0
LINE
8
BLACK
6
CONTINUOUS
10
172.6780100000000004
20
-97.2922189999999887
11
172.5827720000000056
21
-97.1017420000000016
0
LINE
8
BLACK
6
CONTINUOUS
10
172.5827720000000056
20
-97.1017420000000016
11
172.3922959999999875
21
-97.0065039999999925
0
LINE
8
BLACK
6
CONTINUOUS
10
172.3922959999999875
20
-97.0065039999999925
11
172.1065810000000056
21
-97.0065039999999925
0
LINE
8
BLACK
6
CONTINUOUS
10
172.1065810000000056
20
-97.0065039999999925
11
171.9161049999999875
21
-97.1017420000000016
0
LINE
8
BLACK
6
CONTINUOUS
10
171.9161049999999875
20
-97.1017420000000016
11
171.8208669999999927
21
-97.1969799999999964
0
LINE
8
BLACK
6
CONTINUOUS
10
173.9161049999999875
20
-98.3398380000000003
11
173.7256289999999979
21
-98.2445999999999913
0
LINE
8
BLACK
6
CONTINUOUS
10
173.7256289999999979
20
-98.2445999999999913
11
173.630391000000003
21
-98.149360999999999
0
LINE
8
BLACK
6
CONTINUOUS
10
173.630391000000003
20
-98.149360999999999
11
173.5351529999999798
21
-97.9588849999999951
0
LINE
8
BLACK
6
CONTINUOUS
10
173.5351529999999798
20
-97.9588849999999951
11
173.5351529999999798
21
-97.3874569999999977
0
LINE
8
BLACK
6
CONTINUOUS
10
173.5351529999999798
20
-97.3874569999999977
11
173.630391000000003
21
-97.1969799999999964
0
LINE
8
BLACK
6
CONTINUOUS
10
173.630391000000003
20
-97.1969799999999964
11
173.7256289999999979
21
-97.1017420000000016
0
LINE
8
BLACK
6
CONTINUOUS
10
173.7256289999999979
20
-97.1017420000000016
11
173.9161049999999875
21
-97.0065039999999925
0
LINE
8
BLACK
6
CONTINUOUS
10
173.9161049999999875
20
-97.0065039999999925
11
174.2018199999999979
21
-97.0065039999999925
0
LINE
8
BLACK
6
CONTINUOUS
10
174.2018199999999979
20
-97.0065039999999925
11
174.3922959999999875
21
-97.1017420000000016
0
LINE
8
BLACK
6
CONTINUOUS
10
174.3922959999999875
20
-97.1017420000000016
11
174.4875339999999824
21
-97.1969799999999964
0
LINE
8
BLACK
6
CONTINUOUS
10
174.4875339999999824
20
-97.1969799999999964
11
174.5827720000000056
21
-97.3874569999999977
0
LINE
8
BLACK
6
CONTINUOUS
10
174.5827720000000056
20
-97.3874569999999977
11
174.5827720000000056
21
-97.9588849999999951
0
LINE
8
BLACK
6
CONTINUOUS
10
174.5827720000000056
20
-97.9588849999999951
11
174.4875339999999824
21
-98.149360999999999
0
LINE
8
BLACK
6
CONTINUOUS
10
174.4875339999999824
20
-98.149360999999999
11
174.3922959999999875
21
-98.2445999999999913
0
LINE
8
BLACK
6
CONTINUOUS
10
174.3922959999999875
20
-98.2445999999999913
11
174.2018199999999979
21
-98.3398380000000003
0
LINE
8
BLACK
6
CONTINUOUS
10
174.2018199999999979
20
-98.3398380000000003
11
173.9161049999999875
21
-98.3398380000000003
0
LINE
8
BLACK
6
CONTINUOUS
10
175.7256289999999979
20
-98.3398380000000003
11
175.5351529999999798
21
-98.2445999999999913
0
LINE
8
BLACK
6
CONTINUOUS
10
175.5351529999999798
20
-98.2445999999999913
11
175.439914999999985
21
-98.0541229999999899
0
LINE
8
BLACK
6
CONTINUOUS
10
175.439914999999985
20
-98.0541229999999899
11
175.439914999999985
21
-96.3398380000000003
0
LINE
8
BLACK
6
CONTINUOUS
10
177.2494389999999953
20
-98.2445999999999913
11
177.0589630000000056
21
-98.3398380000000003
0
LINE
8
BLACK
6
CONTINUOUS
10
177.0589630000000056
20
-98.3398380000000003
11
176.6780100000000004
21
-98.3398380000000003
0
LINE
8
BLACK
6
CONTINUOUS
10
176.6780100000000004
20
-98.3398380000000003
11
176.4875339999999824
21
-98.2445999999999913
0
LINE
8
BLACK
6
CONTINUOUS
10
176.4875339999999824
20
-98.2445999999999913
11
176.3922959999999875
21
-98.0541229999999899
0
LINE
8
BLACK
6
CONTINUOUS
10
176.3922959999999875
20
-98.0541229999999899
11
176.3922959999999875
21
-97.2922189999999887
0
LINE
8
BLACK
6
CONTINUOUS
10
176.3922959999999875
20
-97.2922189999999887
11
176.4875339999999824
21
-97.1017420000000016
0
LINE
8
BLACK
6
CONTINUOUS
10
176.4875339999999824
20
-97.1017420000000016
11
176.6780100000000004
21
-97.0065039999999925
0
LINE
8
BLACK
6
CONTINUOUS
10
176.6780100000000004
20
-97.0065039999999925
11
177.0589630000000056
21
-97.0065039999999925
0
LINE
8
BLACK
6
CONTINUOUS
10
177.0589630000000056
20
-97.0065039999999925
11
177.2494389999999953
21
-97.1017420000000016
0
LINE
8
BLACK
6
CONTINUOUS
10
177.2494389999999953
20
-97.1017420000000016
11
177.3446769999999901
21
-97.2922189999999887
0
LINE
8
BLACK
6
CONTINUOUS
10
177.3446769999999901
20
-97.2922189999999887
11
177.3446769999999901
21
-97.4826949999999925
0
LINE
8
BLACK
6
CONTINUOUS
10
177.3446769999999901
20
-97.4826949999999925
11
176.3922959999999875
21
-97.6731709999999964
0
LINE
8
BLACK
6
CONTINUOUS
10
178.1065820000000031
20
-98.2445999999999913
11
178.2970579999999927
21
-98.3398380000000003
0
LINE
8
BLACK
6
CONTINUOUS
10
178.2970579999999927
20
-98.3398380000000003
11
178.6780100000000004
21
-98.3398380000000003
0
LINE
8
BLACK
6
CONTINUOUS
10
178.6780100000000004
20
-98.3398380000000003
11
178.8684869999999876
21
-98.2445999999999913
0
LINE
8
BLACK
6
CONTINUOUS
10
178.8684869999999876
20
-98.2445999999999913
11
178.9637249999999824
21
-98.0541229999999899
0
LINE
8
BLACK
6
CONTINUOUS
10
178.9637249999999824
20
-98.0541229999999899
11
178.9637249999999824
21
-97.9588849999999951
0
LINE
8
BLACK
6
CONTINUOUS
10
178.9637249999999824
20
-97.9588849999999951
11
178.8684869999999876
21
-97.7684089999999912
0
LINE
8
BLACK
6
CONTINUOUS
10
178.8684869999999876
20
-97.7684089999999912
11
178.6780100000000004
21
-97.6731709999999964
0
LINE
8
BLACK
6
CONTINUOUS
10
178.6780100000000004
20
-97.6731709999999964
11
178.3922959999999875
21
-97.6731709999999964
0
LINE
8
BLACK
6
CONTINUOUS
10
178.3922959999999875
20
-97.6731709999999964
11
178.2018199999999979
21
-97.5779330000000016
0
LINE
8
BLACK
6
CONTINUOUS
10
178.2018199999999979
20
-97.5779330000000016
11
178.1065820000000031
21
-97.3874569999999977
0
LINE
8
BLACK
6
CONTINUOUS
10
178.1065820000000031
20
-97.3874569999999977
11
178.1065820000000031
21
-97.2922189999999887
0
LINE
8
BLACK
6
CONTINUOUS
10
178.1065820000000031
20
-97.2922189999999887
11
178.2018199999999979
21
-97.1017420000000016
0
LINE
8
BLACK
6
CONTINUOUS
10
178.2018199999999979
20
-97.1017420000000016
11
178.3922959999999875
21
-97.0065039999999925
0
LINE
8
BLACK
6
CONTINUOUS
10
178.3922959999999875
20
-97.0065039999999925
11
178.6780100000000004
21
-97.0065039999999925
0
LINE
8
BLACK
6
CONTINUOUS
10
178.6780100000000004
20
-97.0065039999999925
11
178.8684869999999876
21
-97.1017420000000016
0
LINE
8
BLACK
6
CONTINUOUS
10
179.6303920000000005
20
-99.1017420000000016
11
179.7256299999999953
21
-99.0065039999999925
0
LINE
8
BLACK
6
CONTINUOUS
10
179.7256299999999953
20
-99.0065039999999925
11
179.916105999999985
21
-98.7207899999999938
0
LINE
8
BLACK
6
CONTINUOUS
10
179.916105999999985
20
-98.7207899999999938
11
180.0113439999999798
21
-98.53031399999999
0
LINE
8
BLACK
6
CONTINUOUS
10
180.0113439999999798
20
-98.53031399999999
11
180.1065820000000031
21
-98.2445999999999913
0
LINE
8
BLACK
6
CONTINUOUS
10
180.1065820000000031
20
-98.2445999999999913
11
180.2018199999999979
21
-97.7684089999999912
0
LINE
8
BLACK
6
CONTINUOUS
10
180.2018199999999979
20
-97.7684089999999912
11
180.2018199999999979
21
-97.3874569999999977
0
LINE
8
BLACK
6
CONTINUOUS
10
180.2018199999999979
20
-97.3874569999999977
11
180.1065820000000031
21
-96.9112659999999977
0
LINE
8
BLACK
6
CONTINUOUS
10
180.1065820000000031
20
-96.9112659999999977
11
180.0113439999999798
21
-96.625551999999999
0
LINE
8
BLACK
6
CONTINUOUS
10
180.0113439999999798
20
-96.625551999999999
11
179.916105999999985
21
-96.4350759999999951
0
LINE
8
BLACK
6
CONTINUOUS
10
179.916105999999985
20
-96.4350759999999951
11
179.7256299999999953
21
-96.149360999999999
0
LINE
8
BLACK
6
CONTINUOUS
10
179.7256299999999953
20
-96.149360999999999
11
179.6303920000000005
21
-96.0541229999999899
0
CIRCLE
8
BLACK
10
129.7249999999999943
20
-100.0649999999999977
40
0.25
0
LINE
8
BLACK
6
CONTINUOUS
10
132.963719999999995
20
-98.9798380000000009
11
133.1541969999999822
21
-98.9798380000000009
0
LINE
8
BLACK
6
CONTINUOUS
10
133.1541969999999822
20
-98.9798380000000009
11
133.3446730000000002
21
-99.0750759999999957
0
LINE
8
BLACK
6
CONTINUOUS
10
133.3446730000000002
20
-99.0750759999999957
11
133.4399109999999951
21
-99.1703139999999905
0
LINE
8
BLACK
6
CONTINUOUS
10
133.4399109999999951
20
-99.1703139999999905
11
133.5351489999999899
21
-99.3607899999999944
0
LINE
8
BLACK
6
CONTINUOUS
10
133.5351489999999899
20
-99.3607899999999944
11
133.6303869999999847
21
-99.7417420000000021
0
LINE
8
BLACK
6
CONTINUOUS
10
133.6303869999999847
20
-99.7417420000000021
11
133.6303869999999847
21
-100.2179330000000022
0
LINE
8
BLACK
6
CONTINUOUS
10
133.6303869999999847
20
-100.2179330000000022
11
133.5351489999999899
21
-100.5988849999999957
0
LINE
8
BLACK
6
CONTINUOUS
10
133.5351489999999899
20
-100.5988849999999957
11
133.4399109999999951
21
-100.7893609999999995
0
LINE
8
BLACK
6
CONTINUOUS
10
133.4399109999999951
20
-100.7893609999999995
11
133.3446730000000002
21
-100.8845999999999918
0
LINE
8
BLACK
6
CONTINUOUS
10
133.3446730000000002
20
-100.8845999999999918
11
133.1541969999999822
21
-100.9798380000000009
0
LINE
8
BLACK
6
CONTINUOUS
10
133.1541969999999822
20
-100.9798380000000009
11
132.963719999999995
21
-100.9798380000000009
0
LINE
8
BLACK
6
CONTINUOUS
10
132.963719999999995
20
-100.9798380000000009
11
132.7732440000000054
21
-100.8845999999999918
0
LINE
8
BLACK
6
CONTINUOUS
10
132.7732440000000054
20
-100.8845999999999918
11
132.6780059999999821
21
-100.7893609999999995
0
LINE
8
BLACK
6
CONTINUOUS
10
132.6780059999999821
20
-100.7893609999999995
11
132.5827679999999873
21
-100.5988849999999957
0
LINE
8
BLACK
6
CONTINUOUS
10
132.5827679999999873
20
-100.5988849999999957
11
132.4875299999999925
21
-100.2179330000000022
0
LINE
8
BLACK
6
CONTINUOUS
10
132.4875299999999925
20
-100.2179330000000022
11
132.4875299999999925
21
-99.7417420000000021
0
LINE
8
BLACK
6
CONTINUOUS
10
132.4875299999999925
20
-99.7417420000000021
11
132.5827679999999873
21
-99.3607899999999944
0
LINE
8
BLACK
6
CONTINUOUS
10
132.5827679999999873
20
-99.3607899999999944
11
132.6780059999999821
21
-99.1703139999999905
0
LINE
8
BLACK
6
CONTINUOUS
10
132.6780059999999821
20
-99.1703139999999905
11
132.7732440000000054
21
-99.0750759999999957
0
LINE
8
BLACK
6
CONTINUOUS
10
132.7732440000000054
20
-99.0750759999999957
11
132.963719999999995
21
-98.9798380000000009
0
LINE
8
BLACK
6
CONTINUOUS
10
134.4875299999999925
20
-100.7893609999999995
11
134.5827679999999873
21
-100.8845999999999918
0
LINE
8
BLACK
6
CONTINUOUS
10
134.5827679999999873
20
-100.8845999999999918
11
134.4875299999999925
21
-100.9798380000000009
0
LINE
8
BLACK
6
CONTINUOUS
10
134.4875299999999925
20
-100.9798380000000009
11
134.3922919999999976
21
-100.8845999999999918
0
LINE
8
BLACK
6
CONTINUOUS
10
134.3922919999999976
20
-100.8845999999999918
11
134.4875299999999925
21
-100.7893609999999995
0
LINE
8
BLACK
6
CONTINUOUS
10
134.4875299999999925
20
-100.7893609999999995
11
134.4875299999999925
21
-100.9798380000000009
0
LINE
8
BLACK
6
CONTINUOUS
10
136.3922919999999976
20
-98.9798380000000009
11
135.4399109999999951
21
-98.9798380000000009
0
LINE
8
BLACK
6
CONTINUOUS
10
135.4399109999999951
20
-98.9798380000000009
11
135.3446730000000002
21
-99.9322189999999893
0
LINE
8
BLACK
6
CONTINUOUS
10
135.3446730000000002
20
-99.9322189999999893
11
135.4399109999999951
21
-99.8369799999999969
0
LINE
8
BLACK
6
CONTINUOUS
10
135.4399109999999951
20
-99.8369799999999969
11
135.6303869999999847
21
-99.7417420000000021
0
LINE
8
BLACK
6
CONTINUOUS
10
135.6303869999999847
20
-99.7417420000000021
11
136.1065779999999847
21
-99.7417420000000021
0
LINE
8
BLACK
6
CONTINUOUS
10
136.1065779999999847
20
-99.7417420000000021
11
136.2970540000000028
21
-99.8369799999999969
0
LINE
8
BLACK
6
CONTINUOUS
10
136.2970540000000028
20
-99.8369799999999969
11
136.3922919999999976
21
-99.9322189999999893
0
LINE
8
BLACK
6
CONTINUOUS
10
136.3922919999999976
20
-99.9322189999999893
11
136.4875299999999925
21
-100.1226949999999931
0
LINE
8
BLACK
6
CONTINUOUS
10
136.4875299999999925
20
-100.1226949999999931
11
136.4875299999999925
21
-100.5988849999999957
0
LINE
8
BLACK
6
CONTINUOUS
10
136.4875299999999925
20
-100.5988849999999957
11
136.3922919999999976
21
-100.7893609999999995
0
LINE
8
BLACK
6
CONTINUOUS
10
136.3922919999999976
20
-100.7893609999999995
11
136.2970540000000028
21
-100.8845999999999918
0
LINE
8
BLACK
6
CONTINUOUS
10
136.2970540000000028
20
-100.8845999999999918
11
136.1065779999999847
21
-100.9798380000000009
0
LINE
8
BLACK
6
CONTINUOUS
10
136.1065779999999847
20
-100.9798380000000009
11
135.6303869999999847
21
-100.9798380000000009
0
LINE
8
BLACK
6
CONTINUOUS
10
135.6303869999999847
20
-100.9798380000000009
11
135.4399109999999951
21
-100.8845999999999918
0
LINE
8
BLACK
6
CONTINUOUS
10
135.4399109999999951
20
-100.8845999999999918
11
135.3446730000000002
21
-100.7893609999999995
0
LINE
8
BLACK
6
CONTINUOUS
10
137.725625000000008
20
-98.9798380000000009
11
137.9161019999999951
21
-98.9798380000000009
0
LINE
8
BLACK
6
CONTINUOUS
10
137.9161019999999951
20
-98.9798380000000009
11
138.1065779999999847
21
-99.0750759999999957
0
LINE
8
BLACK
6
CONTINUOUS
10
138.1065779999999847
20
-99.0750759999999957
11
138.2018159999999796
21
-99.1703139999999905
0
LINE
8
BLACK
6
CONTINUOUS
10
138.2018159999999796
20
-99.1703139999999905
11
138.2970540000000028
21
-99.3607899999999944
0
LINE
8
BLACK
6
CONTINUOUS
10
138.2970540000000028
20
-99.3607899999999944
11
138.3922919999999976
21
-99.7417420000000021
0
LINE
8
BLACK
6
CONTINUOUS
10
138.3922919999999976
20
-99.7417420000000021
11
138.3922919999999976
21
-100.2179330000000022
0
LINE
8
BLACK
6
CONTINUOUS
10
138.3922919999999976
20
-100.2179330000000022
11
138.2970540000000028
21
-100.5988849999999957
0
LINE
8
BLACK
6
CONTINUOUS
10
138.2970540000000028
20
-100.5988849999999957
11
138.2018159999999796
21
-100.7893609999999995
0
LINE
8
BLACK
6
CONTINUOUS
10
138.2018159999999796
20
-100.7893609999999995
11
138.1065779999999847
21
-100.8845999999999918
0
LINE
8
BLACK
6
CONTINUOUS
10
138.1065779999999847
20
-100.8845999999999918
11
137.9161019999999951
21
-100.9798380000000009
0
LINE
8
BLACK
6
CONTINUOUS
10
137.9161019999999951
20
-100.9798380000000009
11
137.725625000000008
21
-100.9798380000000009
0
LINE
8
BLACK
6
CONTINUOUS
10
137.725625000000008
20
-100.9798380000000009
11
137.5351489999999899
21
-100.8845999999999918
0
LINE
8
BLACK
6
CONTINUOUS
10
137.5351489999999899
20
-100.8845999999999918
11
137.4399109999999951
21
-100.7893609999999995
0
LINE
8
BLACK
6
CONTINUOUS
10
137.4399109999999951
20
-100.7893609999999995
11
137.3446730000000002
21
-100.5988849999999957
0
LINE
8
BLACK
6
CONTINUOUS
10
137.3446730000000002
20
-100.5988849999999957
11
137.2494350000000054
21
-100.2179330000000022
0
LINE
8
BLACK
6
CONTINUOUS
10
137.2494350000000054
20
-100.2179330000000022
11
137.2494350000000054
21
-99.7417420000000021
0
LINE
8
BLACK
6
CONTINUOUS
10
137.2494350000000054
20
-99.7417420000000021
11
137.3446730000000002
21
-99.3607899999999944
0
LINE
8
BLACK
6
CONTINUOUS
10
137.3446730000000002
20
-99.3607899999999944
11
137.4399109999999951
21
-99.1703139999999905
0
LINE
8
BLACK
6
CONTINUOUS
10
137.4399109999999951
20
-99.1703139999999905
11
137.5351489999999899
21
-99.0750759999999957
0
LINE
8
BLACK
6
CONTINUOUS
10
137.5351489999999899
20
-99.0750759999999957
11
137.725625000000008
21
-98.9798380000000009
0
LINE
8
BLACK
6
CONTINUOUS
10
139.6303869999999847
20
-98.9798380000000009
11
139.8208640000000003
21
-98.9798380000000009
0
LINE
8
BLACK
6
CONTINUOUS
10
139.8208640000000003
20
-98.9798380000000009
11
140.0113399999999899
21
-99.0750759999999957
0
LINE
8
BLACK
6
CONTINUOUS
10
140.0113399999999899
20
-99.0750759999999957
11
140.1065779999999847
21
-99.1703139999999905
0
LINE
8
BLACK
6
CONTINUOUS
10
140.1065779999999847
20
-99.1703139999999905
11
140.2018159999999796
21
-99.3607899999999944
0
LINE
8
BLACK
6
CONTINUOUS
10
140.2018159999999796
20
-99.3607899999999944
11
140.2970540000000028
21
-99.7417420000000021
0
LINE
8
BLACK
6
CONTINUOUS
10
140.2970540000000028
20
-99.7417420000000021
11
140.2970540000000028
21
-100.2179330000000022
0
LINE
8
BLACK
6
CONTINUOUS
10
140.2970540000000028
20
-100.2179330000000022
11
140.2018159999999796
21
-100.5988849999999957
0
LINE
8
BLACK
6
CONTINUOUS
10
140.2018159999999796
20
-100.5988849999999957
11
140.1065779999999847
21
-100.7893609999999995
0
LINE
8
BLACK
6
CONTINUOUS
10
140.1065779999999847
20
-100.7893609999999995
11
140.0113399999999899
21
-100.8845999999999918
0
LINE
8
BLACK
6
CONTINUOUS
10
140.0113399999999899
20
-100.8845999999999918
11
139.8208640000000003
21
-100.9798380000000009
0
LINE
8
BLACK
6
CONTINUOUS
10
139.8208640000000003
20
-100.9798380000000009
11
139.6303869999999847
21
-100.9798380000000009
0
LINE
8
BLACK
6
CONTINUOUS
10
139.6303869999999847
20
-100.9798380000000009
11
139.4399109999999951
21
-100.8845999999999918
0
LINE
8
BLACK
6
CONTINUOUS
10
139.4399109999999951
20
-100.8845999999999918
11
139.3446730000000002
21
-100.7893609999999995
0
LINE
8
BLACK
6
CONTINUOUS
10
139.3446730000000002
20
-100.7893609999999995
11
139.2494350000000054
21
-100.5988849999999957
0
LINE
8
BLACK
6
CONTINUOUS
10
139.2494350000000054
20
-100.5988849999999957
11
139.1541969999999822
21
-100.2179330000000022
0
LINE
8
BLACK
6
CONTINUOUS
10
139.1541969999999822
20
-100.2179330000000022
11
139.1541969999999822
21
-99.7417420000000021
0
LINE
8
BLACK
6
CONTINUOUS
10
139.1541969999999822
20
-99.7417420000000021
11
139.2494350000000054
21
-99.3607899999999944
0
LINE
8
BLACK
6
CONTINUOUS
10
139.2494350000000054
20
-99.3607899999999944
11
139.3446730000000002
21
-99.1703139999999905
0
LINE
8
BLACK
6
CONTINUOUS
10
139.3446730000000002
20
-99.1703139999999905
11
139.4399109999999951
21
-99.0750759999999957
0
LINE
8
BLACK
6
CONTINUOUS
10
139.4399109999999951
20
-99.0750759999999957
11
139.6303869999999847
21
-98.9798380000000009
0
LINE
8
BLACK
6
CONTINUOUS
10
141.1541969999999822
20
-100.9798380000000009
11
141.1541969999999822
21
-99.6465039999999931
0
LINE
8
BLACK
6
CONTINUOUS
10
141.1541969999999822
20
-99.8369799999999969
11
141.2494350000000054
21
-99.7417420000000021
0
LINE
8
BLACK
6
CONTINUOUS
10
141.2494350000000054
20
-99.7417420000000021
11
141.4399109999999951
21
-99.6465039999999931
0
LINE
8
BLACK
6
CONTINUOUS
10
141.4399109999999951
20
-99.6465039999999931
11
141.7256260000000054
21
-99.6465039999999931
0
LINE
8
BLACK
6
CONTINUOUS
10
141.7256260000000054
20
-99.6465039999999931
11
141.9161019999999951
21
-99.7417420000000021
0
LINE
8
BLACK
6
CONTINUOUS
10
141.9161019999999951
20
-99.7417420000000021
11
142.0113399999999899
21
-99.9322189999999893
0
LINE
8
BLACK
6
CONTINUOUS
10
142.0113399999999899
20
-99.9322189999999893
11
142.0113399999999899
21
-100.9798380000000009
0
LINE
8
BLACK
6
CONTINUOUS
10
142.0113399999999899
20
-99.9322189999999893
11
142.1065779999999847
21
-99.7417420000000021
0
LINE
8
BLACK
6
CONTINUOUS
10
142.1065779999999847
20
-99.7417420000000021
11
142.2970540000000028
21
-99.6465039999999931
0
LINE
8
BLACK
6
CONTINUOUS
10
142.2970540000000028
20
-99.6465039999999931
11
142.5827679999999873
21
-99.6465039999999931
0
LINE
8
BLACK
6
CONTINUOUS
10
142.5827679999999873
20
-99.6465039999999931
11
142.7732450000000028
21
-99.7417420000000021
0
LINE
8
BLACK
6
CONTINUOUS
10
142.7732450000000028
20
-99.7417420000000021
11
142.8684829999999977
21
-99.9322189999999893
0
LINE
8
BLACK
6
CONTINUOUS
10
142.8684829999999977
20
-99.9322189999999893
11
142.8684829999999977
21
-100.9798380000000009
0
LINE
8
BLACK
6
CONTINUOUS
10
143.8208640000000003
20
-100.9798380000000009
11
143.8208640000000003
21
-99.6465039999999931
0
LINE
8
BLACK
6
CONTINUOUS
10
143.8208640000000003
20
-99.8369799999999969
11
143.9161019999999951
21
-99.7417420000000021
0
LINE
8
BLACK
6
CONTINUOUS
10
143.9161019999999951
20
-99.7417420000000021
11
144.1065779999999847
21
-99.6465039999999931
0
LINE
8
BLACK
6
CONTINUOUS
10
144.1065779999999847
20
-99.6465039999999931
11
144.3922929999999951
21
-99.6465039999999931
0
LINE
8
BLACK
6
CONTINUOUS
10
144.3922929999999951
20
-99.6465039999999931
11
144.5827689999999848
21
-99.7417420000000021
0
LINE
8
BLACK
6
CONTINUOUS
10
144.5827689999999848
20
-99.7417420000000021
11
144.6780069999999796
21
-99.9322189999999893
0
LINE
8
BLACK
6
CONTINUOUS
10
144.6780069999999796
20
-99.9322189999999893
11
144.6780069999999796
21
-100.9798380000000009
0
LINE
8
BLACK
6
CONTINUOUS
10
144.6780069999999796
20
-99.9322189999999893
11
144.7732450000000028
21
-99.7417420000000021
0
LINE
8
BLACK
6
CONTINUOUS
10
144.7732450000000028
20
-99.7417420000000021
11
144.9637209999999925
21
-99.6465039999999931
0
LINE
8
BLACK
6
CONTINUOUS
10
144.9637209999999925
20
-99.6465039999999931
11
145.2494350000000054
21
-99.6465039999999931
0
LINE
8
BLACK
6
CONTINUOUS
10
145.2494350000000054
20
-99.6465039999999931
11
145.4399119999999925
21
-99.7417420000000021
0
LINE
8
BLACK
6
CONTINUOUS
10
145.4399119999999925
20
-99.7417420000000021
11
145.5351499999999874
21
-99.9322189999999893
0
LINE
8
BLACK
6
CONTINUOUS
10
145.5351499999999874
20
-99.9322189999999893
11
145.5351499999999874
21
-100.9798380000000009
0
LINE
8
BLACK
6
CONTINUOUS
10
149.4399119999999925
20
-98.8845999999999918
11
147.7256270000000029
21
-101.4560279999999892
0
LINE
8
BLACK
6
CONTINUOUS
10
152.0113409999999874
20
-98.9798380000000009
11
152.2018180000000029
21
-98.9798380000000009
0
LINE
8
BLACK
6
CONTINUOUS
10
152.2018180000000029
20
-98.9798380000000009
11
152.3922939999999926
21
-99.0750759999999957
0
LINE
8
BLACK
6
CONTINUOUS
10
152.3922939999999926
20
-99.0750759999999957
11
152.4875319999999874
21
-99.1703139999999905
0
LINE
8
BLACK
6
CONTINUOUS
10
152.4875319999999874
20
-99.1703139999999905
11
152.5827699999999822
21
-99.3607899999999944
0
LINE
8
BLACK
6
CONTINUOUS
10
152.5827699999999822
20
-99.3607899999999944
11
152.6780080000000055
21
-99.7417420000000021
0
LINE
8
BLACK
6
CONTINUOUS
10
152.6780080000000055
20
-99.7417420000000021
11
152.6780080000000055
21
-100.2179330000000022
0
LINE
8
BLACK
6
CONTINUOUS
10
152.6780080000000055
20
-100.2179330000000022
11
152.5827699999999822
21
-100.5988849999999957
0
LINE
8
BLACK
6
CONTINUOUS
10
152.5827699999999822
20
-100.5988849999999957
11
152.4875319999999874
21
-100.7893609999999995
0
LINE
8
BLACK
6
CONTINUOUS
10
152.4875319999999874
20
-100.7893609999999995
11
152.3922939999999926
21
-100.8845999999999918
0
LINE
8
BLACK
6
CONTINUOUS
10
152.3922939999999926
20
-100.8845999999999918
11
152.2018180000000029
21
-100.9798380000000009
0
LINE
8
BLACK
6
CONTINUOUS
10
152.2018180000000029
20
-100.9798380000000009
11
152.0113409999999874
21
-100.9798380000000009
0
LINE
8
BLACK
6
CONTINUOUS
10
152.0113409999999874
20
-100.9798380000000009
11
151.8208649999999977
21
-100.8845999999999918
0
LINE
8
BLACK
6
CONTINUOUS
10
151.8208649999999977
20
-100.8845999999999918
11
151.7256270000000029
21
-100.7893609999999995
0
LINE
8
BLACK
6
CONTINUOUS
10
151.7256270000000029
20
-100.7893609999999995
11
151.6303889999999797
21
-100.5988849999999957
0
LINE
8
BLACK
6
CONTINUOUS
10
151.6303889999999797
20
-100.5988849999999957
11
151.5351509999999848
21
-100.2179330000000022
0
LINE
8
BLACK
6
CONTINUOUS
10
151.5351509999999848
20
-100.2179330000000022
11
151.5351509999999848
21
-99.7417420000000021
0
LINE
8
BLACK
6
CONTINUOUS
10
151.5351509999999848
20
-99.7417420000000021
11
151.6303889999999797
21
-99.3607899999999944
0
LINE
8
BLACK
6
CONTINUOUS
10
151.6303889999999797
20
-99.3607899999999944
11
151.7256270000000029
21
-99.1703139999999905
0
LINE
8
BLACK
6
CONTINUOUS
10
151.7256270000000029
20
-99.1703139999999905
11
151.8208649999999977
21
-99.0750759999999957
0
LINE
8
BLACK
6
CONTINUOUS
10
151.8208649999999977
20
-99.0750759999999957
11
152.0113409999999874
21
-98.9798380000000009
0
LINE
8
BLACK
6
CONTINUOUS
10
153.5351509999999848
20
-100.7893609999999995
11
153.6303889999999797
21
-100.8845999999999918
0
LINE
8
BLACK
6
CONTINUOUS
10
153.6303889999999797
20
-100.8845999999999918
11
153.5351509999999848
21
-100.9798380000000009
0
LINE
8
BLACK
6
CONTINUOUS
10
153.5351509999999848
20
-100.9798380000000009
11
153.43991299999999
21
-100.8845999999999918
0
LINE
8
BLACK
6
CONTINUOUS
10
153.43991299999999
20
-100.8845999999999918
11
153.5351509999999848
21
-100.7893609999999995
0
LINE
8
BLACK
6
CONTINUOUS
10
153.5351509999999848
20
-100.7893609999999995
11
153.5351509999999848
21
-100.9798380000000009
0
LINE
8
BLACK
6
CONTINUOUS
10
154.8684839999999951
20
-98.9798380000000009
11
155.0589609999999823
21
-98.9798380000000009
0
LINE
8
BLACK
6
CONTINUOUS
10
155.0589609999999823
20
-98.9798380000000009
11
155.2494370000000004
21
-99.0750759999999957
0
LINE
8
BLACK
6
CONTINUOUS
10
155.2494370000000004
20
-99.0750759999999957
11
155.3446749999999952
21
-99.1703139999999905
0
LINE
8
BLACK
6
CONTINUOUS
10
155.3446749999999952
20
-99.1703139999999905
11
155.43991299999999
21
-99.3607899999999944
0
LINE
8
BLACK
6
CONTINUOUS
10
155.43991299999999
20
-99.3607899999999944
11
155.5351509999999848
21
-99.7417420000000021
0
LINE
8
BLACK
6
CONTINUOUS
10
155.5351509999999848
20
-99.7417420000000021
11
155.5351509999999848
21
-100.2179330000000022
0
LINE
8
BLACK
6
CONTINUOUS
10
155.5351509999999848
20
-100.2179330000000022
11
155.43991299999999
21
-100.5988849999999957
0
LINE
8
BLACK
6
CONTINUOUS
10
155.43991299999999
20
-100.5988849999999957
11
155.3446749999999952
21
-100.7893609999999995
0
LINE
8
BLACK
6
CONTINUOUS
10
155.3446749999999952
20
-100.7893609999999995
11
155.2494370000000004
21
-100.8845999999999918
0
LINE
8
BLACK
6
CONTINUOUS
10
155.2494370000000004
20
-100.8845999999999918
11
155.0589609999999823
21
-100.9798380000000009
0
LINE
8
BLACK
6
CONTINUOUS
10
155.0589609999999823
20
-100.9798380000000009
11
154.8684839999999951
21
-100.9798380000000009
0
LINE
8
BLACK
6
CONTINUOUS
10
154.8684839999999951
20
-100.9798380000000009
11
154.6780080000000055
21
-100.8845999999999918
0
LINE
8
BLACK
6
CONTINUOUS
10
154.6780080000000055
20
-100.8845999999999918
11
154.5827699999999822
21
-100.7893609999999995
0
LINE
8
BLACK
6
CONTINUOUS
10
154.5827699999999822
20
-100.7893609999999995
11
154.4875319999999874
21
-100.5988849999999957
0
LINE
8
BLACK
6
CONTINUOUS
10
154.4875319999999874
20
-100.5988849999999957
11
154.3922939999999926
21
-100.2179330000000022
0
LINE
8
BLACK
6
CONTINUOUS
10
154.3922939999999926
20
-100.2179330000000022
11
154.3922939999999926
21
-99.7417420000000021
0
LINE
8
BLACK
6
CONTINUOUS
10
154.3922939999999926
20
-99.7417420000000021
11
154.4875319999999874
21
-99.3607899999999944
0
LINE
8
BLACK
6
CONTINUOUS
10
154.4875319999999874
20
-99.3607899999999944
11
154.5827699999999822
21
-99.1703139999999905
0
LINE
8
BLACK
6
CONTINUOUS
10
154.5827699999999822
20
-99.1703139999999905
11
154.6780080000000055
21
-99.0750759999999957
0
LINE
8
BLACK
6
CONTINUOUS
10
154.6780080000000055
20
-99.0750759999999957
11
154.8684839999999951
21
-98.9798380000000009
0
LINE
8
BLACK
6
CONTINUOUS
10
157.43991299999999
20
-100.9798380000000009
11
156.2970559999999978
21
-100.9798380000000009
0
LINE
8
BLACK
6
CONTINUOUS
10
156.8684839999999951
20
-100.9798380000000009
11
156.8684839999999951
21
-98.9798380000000009
0
LINE
8
BLACK
6
CONTINUOUS
10
156.8684839999999951
20
-98.9798380000000009
11
156.6780080000000055
21
-99.2655519999999996
0
LINE
8
BLACK
6
CONTINUOUS
10
156.6780080000000055
20
-99.2655519999999996
11
156.4875319999999874
21
-99.4560279999999892
0
LINE
8
BLACK
6
CONTINUOUS
10
156.4875319999999874
20
-99.4560279999999892
11
156.2970559999999978
21
-99.5512659999999983
0
LINE
8
BLACK
6
CONTINUOUS
10
158.3922939999999926
20
-100.9798380000000009
11
158.7732460000000003
21
-100.9798380000000009
0
LINE
8
BLACK
6
CONTINUOUS
10
158.7732460000000003
20
-100.9798380000000009
11
158.9637229999999875
21
-100.8845999999999918
0
LINE
8
BLACK
6
CONTINUOUS
10
158.9637229999999875
20
-100.8845999999999918
11
159.0589609999999823
21
-100.7893609999999995
0
LINE
8
BLACK
6
CONTINUOUS
10
159.0589609999999823
20
-100.7893609999999995
11
159.2494370000000004
21
-100.5036470000000008
0
LINE
8
BLACK
6
CONTINUOUS
10
159.2494370000000004
20
-100.5036470000000008
11
159.3446749999999952
21
-100.1226949999999931
0
LINE
8
BLACK
6
CONTINUOUS
10
159.3446749999999952
20
-100.1226949999999931
11
159.3446749999999952
21
-99.3607899999999944
0
LINE
8
BLACK
6
CONTINUOUS
10
159.3446749999999952
20
-99.3607899999999944
11
159.2494370000000004
21
-99.1703139999999905
0
LINE
8
BLACK
6
CONTINUOUS
10
159.2494370000000004
20
-99.1703139999999905
11
159.1541990000000055
21
-99.0750759999999957
0
LINE
8
BLACK
6
CONTINUOUS
10
159.1541990000000055
20
-99.0750759999999957
11
158.9637229999999875
21
-98.9798380000000009
0
LINE
8
BLACK
6
CONTINUOUS
10
158.9637229999999875
20
-98.9798380000000009
11
158.5827699999999822
21
-98.9798380000000009
0
LINE
8
BLACK
6
CONTINUOUS
10
158.5827699999999822
20
-98.9798380000000009
11
158.3922939999999926
21
-99.0750759999999957
0
LINE
8
BLACK
6
CONTINUOUS
10
158.3922939999999926
20
-99.0750759999999957
11
158.2970559999999978
21
-99.1703139999999905
0
LINE
8
BLACK
6
CONTINUOUS
10
158.2970559999999978
20
-99.1703139999999905
11
158.2018180000000029
21
-99.3607899999999944
0
LINE
8
BLACK
6
CONTINUOUS
10
158.2018180000000029
20
-99.3607899999999944
11
158.2018180000000029
21
-99.8369799999999969
0
LINE
8
BLACK
6
CONTINUOUS
10
158.2018180000000029
20
-99.8369799999999969
11
158.2970559999999978
21
-100.0274569999999983
0
LINE
8
BLACK
6
CONTINUOUS
10
158.2970559999999978
20
-100.0274569999999983
11
158.3922939999999926
21
-100.1226949999999931
0
LINE
8
BLACK
6
CONTINUOUS
10
158.3922939999999926
20
-100.1226949999999931
11
158.5827699999999822
21
-100.2179330000000022
0
LINE
8
BLACK
6
CONTINUOUS
10
158.5827699999999822
20
-100.2179330000000022
11
158.9637229999999875
21
-100.2179330000000022
0
LINE
8
BLACK
6
CONTINUOUS
10
158.9637229999999875
20
-100.2179330000000022
11
159.1541990000000055
21
-100.1226949999999931
0
LINE
8
BLACK
6
CONTINUOUS
10
159.1541990000000055
20
-100.1226949999999931
11
159.2494370000000004
21
-100.0274569999999983
0
LINE
8
BLACK
6
CONTINUOUS
10
159.2494370000000004
20
-100.0274569999999983
11
159.3446749999999952
21
-99.8369799999999969
0
LINE
8
BLACK
6
CONTINUOUS
10
160.0113419999999849
20
-98.9798380000000009
11
161.3446749999999952
21
-98.9798380000000009
0
LINE
8
BLACK
6
CONTINUOUS
10
161.3446749999999952
20
-98.9798380000000009
11
160.4875319999999874
21
-100.9798380000000009
0
LINE
8
BLACK
6
CONTINUOUS
10
162.0113419999999849
20
-98.9798380000000009
11
162.0113419999999849
21
-99.3607899999999944
0
LINE
8
BLACK
6
CONTINUOUS
10
162.7732469999999978
20
-98.9798380000000009
11
162.7732469999999978
21
-99.3607899999999944
0
LINE
8
BLACK
6
CONTINUOUS
10
165.7256289999999979
20
-101.7417420000000021
11
165.6303900000000056
21
-101.6465039999999931
0
LINE
8
BLACK
6
CONTINUOUS
10
165.6303900000000056
20
-101.6465039999999931
11
165.4399139999999875
21
-101.3607899999999944
0
LINE
8
BLACK
6
CONTINUOUS
10
165.4399139999999875
20
-101.3607899999999944
11
165.3446759999999927
21
-101.1703139999999905
0
LINE
8
BLACK
6
CONTINUOUS
10
165.3446759999999927
20
-101.1703139999999905
11
165.2494379999999978
21
-100.8845999999999918
0
LINE
8
BLACK
6
CONTINUOUS
10
165.2494379999999978
20
-100.8845999999999918
11
165.154200000000003
21
-100.4084089999999918
0
LINE
8
BLACK
6
CONTINUOUS
10
165.154200000000003
20
-100.4084089999999918
11
165.154200000000003
21
-100.0274569999999983
0
LINE
8
BLACK
6
CONTINUOUS
10
165.154200000000003
20
-100.0274569999999983
11
165.2494379999999978
21
-99.5512659999999983
0
LINE
8
BLACK
6
CONTINUOUS
10
165.2494379999999978
20
-99.5512659999999983
11
165.3446759999999927
21
-99.2655519999999996
0
LINE
8
BLACK
6
CONTINUOUS
10
165.3446759999999927
20
-99.2655519999999996
11
165.4399139999999875
21
-99.0750759999999957
0
LINE
8
BLACK
6
CONTINUOUS
10
165.4399139999999875
20
-99.0750759999999957
11
165.6303900000000056
21
-98.7893609999999995
0
LINE
8
BLACK
6
CONTINUOUS
10
165.6303900000000056
20
-98.7893609999999995
11
165.7256289999999979
21
-98.6941229999999905
0
LINE
8
BLACK
6
CONTINUOUS
10
166.8684849999999926
20
-98.9798380000000009
11
167.0589619999999798
21
-98.9798380000000009
0
LINE
8
BLACK
6
CONTINUOUS
10
167.0589619999999798
20
-98.9798380000000009
11
167.2494379999999978
21
-99.0750759999999957
0
LINE
8
BLACK
6
CONTINUOUS
10
167.2494379999999978
20
-99.0750759999999957
11
167.3446759999999927
21
-99.1703139999999905
0
LINE
8
BLACK
6
CONTINUOUS
10
167.3446759999999927
20
-99.1703139999999905
11
167.4399139999999875
21
-99.3607899999999944
0
LINE
8
BLACK
6
CONTINUOUS
10
167.4399139999999875
20
-99.3607899999999944
11
167.5351519999999823
21
-99.7417420000000021
0
LINE
8
BLACK
6
CONTINUOUS
10
167.5351519999999823
20
-99.7417420000000021
11
167.5351519999999823
21
-100.2179330000000022
0
LINE
8
BLACK
6
CONTINUOUS
10
167.5351519999999823
20
-100.2179330000000022
11
167.4399139999999875
21
-100.5988849999999957
0
LINE
8
BLACK
6
CONTINUOUS
10
167.4399139999999875
20
-100.5988849999999957
11
167.3446759999999927
21
-100.7893609999999995
0
LINE
8
BLACK
6
CONTINUOUS
10
167.3446759999999927
20
-100.7893609999999995
11
167.2494379999999978
21
-100.8845999999999918
0
LINE
8
BLACK
6
CONTINUOUS
10
167.2494379999999978
20
-100.8845999999999918
11
167.0589619999999798
21
-100.9798380000000009
0
LINE
8
BLACK
6
CONTINUOUS
10
167.0589619999999798
20
-100.9798380000000009
11
166.8684849999999926
21
-100.9798380000000009
0
LINE
8
BLACK
6
CONTINUOUS
10
166.8684849999999926
20
-100.9798380000000009
11
166.678009000000003
21
-100.8845999999999918
0
LINE
8
BLACK
6
CONTINUOUS
10
166.678009000000003
20
-100.8845999999999918
11
166.5827709999999797
21
-100.7893609999999995
0
LINE
8
BLACK
6
CONTINUOUS
10
166.5827709999999797
20
-100.7893609999999995
11
166.4875329999999849
21
-100.5988849999999957
0
LINE
8
BLACK
6
CONTINUOUS
10
166.4875329999999849
20
-100.5988849999999957
11
166.3922949999999901
21
-100.2179330000000022
0
LINE
8
BLACK
6
CONTINUOUS
10
166.3922949999999901
20
-100.2179330000000022
11
166.3922949999999901
21
-99.7417420000000021
0
LINE
8
BLACK
6
CONTINUOUS
10
166.3922949999999901
20
-99.7417420000000021
11
166.4875329999999849
21
-99.3607899999999944
0
LINE
8
BLACK
6
CONTINUOUS
10
166.4875329999999849
20
-99.3607899999999944
11
166.5827709999999797
21
-99.1703139999999905
0
LINE
8
BLACK
6
CONTINUOUS
10
166.5827709999999797
20
-99.1703139999999905
11
166.678009000000003
21
-99.0750759999999957
0
LINE
8
BLACK
6
CONTINUOUS
10
166.678009000000003
20
-99.0750759999999957
11
166.8684849999999926
21
-98.9798380000000009
0
LINE
8
BLACK
6
CONTINUOUS
10
169.9161049999999875
20
-100.9798380000000009
11
169.9161049999999875
21
-98.9798380000000009
0
LINE
8
BLACK
6
CONTINUOUS
10
170.7732479999999953
20
-100.9798380000000009
11
170.7732479999999953
21
-99.9322189999999893
0
LINE
8
BLACK
6
CONTINUOUS
10
170.7732479999999953
20
-99.9322189999999893
11
170.6780100000000004
21
-99.7417420000000021
0
LINE
8
BLACK
6
CONTINUOUS
10
170.6780100000000004
20
-99.7417420000000021
11
170.4875339999999824
21
-99.6465039999999931
0
LINE
8
BLACK
6
CONTINUOUS
10
170.4875339999999824
20
-99.6465039999999931
11
170.2018190000000004
21
-99.6465039999999931
0
LINE
8
BLACK
6
CONTINUOUS
10
170.2018190000000004
20
-99.6465039999999931
11
170.0113429999999823
21
-99.7417420000000021
0
LINE
8
BLACK
6
CONTINUOUS
10
170.0113429999999823
20
-99.7417420000000021
11
169.9161049999999875
21
-99.8369799999999969
0
LINE
8
BLACK
6
CONTINUOUS
10
172.0113429999999823
20
-100.9798380000000009
11
171.8208669999999927
21
-100.8845999999999918
0
LINE
8
BLACK
6
CONTINUOUS
10
171.8208669999999927
20
-100.8845999999999918
11
171.7256289999999979
21
-100.7893609999999995
0
LINE
8
BLACK
6
CONTINUOUS
10
171.7256289999999979
20
-100.7893609999999995
11
171.630391000000003
21
-100.5988849999999957
0
LINE
8
BLACK
6
CONTINUOUS
10
171.630391000000003
20
-100.5988849999999957
11
171.630391000000003
21
-100.0274569999999983
0
LINE
8
BLACK
6
CONTINUOUS
10
171.630391000000003
20
-100.0274569999999983
11
171.7256289999999979
21
-99.8369799999999969
0
LINE
8
BLACK
6
CONTINUOUS
10
171.7256289999999979
20
-99.8369799999999969
11
171.8208669999999927
21
-99.7417420000000021
0
LINE
8
BLACK
6
CONTINUOUS
10
171.8208669999999927
20
-99.7417420000000021
11
172.0113429999999823
21
-99.6465039999999931
0
LINE
8
BLACK
6
CONTINUOUS
10
172.0113429999999823
20
-99.6465039999999931
11
172.2970579999999927
21
-99.6465039999999931
0
LINE
8
BLACK
6
CONTINUOUS
10
172.2970579999999927
20
-99.6465039999999931
11
172.4875339999999824
21
-99.7417420000000021
0
LINE
8
BLACK
6
CONTINUOUS
10
172.4875339999999824
20
-99.7417420000000021
11
172.5827720000000056
21
-99.8369799999999969
0
LINE
8
BLACK
6
CONTINUOUS
10
172.5827720000000056
20
-99.8369799999999969
11
172.6780100000000004
21
-100.0274569999999983
0
LINE
8
BLACK
6
CONTINUOUS
10
172.6780100000000004
20
-100.0274569999999983
11
172.6780100000000004
21
-100.5988849999999957
0
LINE
8
BLACK
6
CONTINUOUS
10
172.6780100000000004
20
-100.5988849999999957
11
172.5827720000000056
21
-100.7893609999999995
0
LINE
8
BLACK
6
CONTINUOUS
10
172.5827720000000056
20
-100.7893609999999995
11
172.4875339999999824
21
-100.8845999999999918
0
LINE
8
BLACK
6
CONTINUOUS
10
172.4875339999999824
20
-100.8845999999999918
11
172.2970579999999927
21
-100.9798380000000009
0
LINE
8
BLACK
6
CONTINUOUS
10
172.2970579999999927
20
-100.9798380000000009
11
172.0113429999999823
21
-100.9798380000000009
0
LINE
8
BLACK
6
CONTINUOUS
10
173.8208669999999927
20
-100.9798380000000009
11
173.630391000000003
21
-100.8845999999999918
0
LINE
8
BLACK
6
CONTINUOUS
10
173.630391000000003
20
-100.8845999999999918
11
173.5351529999999798
21
-100.6941229999999905
0
LINE
8
BLACK
6
CONTINUOUS
10
173.5351529999999798
20
-100.6941229999999905
11
173.5351529999999798
21
-98.9798380000000009
0
LINE
8
BLACK
6
CONTINUOUS
10
175.3446769999999901
20
-100.8845999999999918
11
175.1542010000000005
21
-100.9798380000000009
0
LINE
8
BLACK
6
CONTINUOUS
10
175.1542010000000005
20
-100.9798380000000009
11
174.7732479999999953
21
-100.9798380000000009
0
LINE
8
BLACK
6
CONTINUOUS
10
174.7732479999999953
20
-100.9798380000000009
11
174.5827720000000056
21
-100.8845999999999918
0
LINE
8
BLACK
6
CONTINUOUS
10
174.5827720000000056
20
-100.8845999999999918
11
174.4875339999999824
21
-100.6941229999999905
0
LINE
8
BLACK
6
CONTINUOUS
10
174.4875339999999824
20
-100.6941229999999905
11
174.4875339999999824
21
-99.9322189999999893
0
LINE
8
BLACK
6
CONTINUOUS
10
174.4875339999999824
20
-99.9322189999999893
11
174.5827720000000056
21
-99.7417420000000021
0
LINE
8
BLACK
6
CONTINUOUS
10
174.5827720000000056
20
-99.7417420000000021
11
174.7732479999999953
21
-99.6465039999999931
0
LINE
8
BLACK
6
CONTINUOUS
10
174.7732479999999953
20
-99.6465039999999931
11
175.1542010000000005
21
-99.6465039999999931
0
LINE
8
BLACK
6
CONTINUOUS
10
175.1542010000000005
20
-99.6465039999999931
11
175.3446769999999901
21
-99.7417420000000021
0
LINE
8
BLACK
6
CONTINUOUS
10
175.3446769999999901
20
-99.7417420000000021
11
175.439914999999985
21
-99.9322189999999893
0
LINE
8
BLACK
6
CONTINUOUS
10
175.439914999999985
20
-99.9322189999999893
11
175.439914999999985
21
-100.1226949999999931
0
LINE
8
BLACK
6
CONTINUOUS
10
175.439914999999985
20
-100.1226949999999931
11
174.4875339999999824
21
-100.313170999999997
0
LINE
8
BLACK
6
CONTINUOUS
10
176.2018199999999979
20
-100.8845999999999918
11
176.3922959999999875
21
-100.9798380000000009
0
LINE
8
BLACK
6
CONTINUOUS
10
176.3922959999999875
20
-100.9798380000000009
11
176.7732479999999953
21
-100.9798380000000009
0
LINE
8
BLACK
6
CONTINUOUS
10
176.7732479999999953
20
-100.9798380000000009
11
176.9637249999999824
21
-100.8845999999999918
0
LINE
8
BLACK
6
CONTINUOUS
10
176.9637249999999824
20
-100.8845999999999918
11
177.0589630000000056
21
-100.6941229999999905
0
LINE
8
BLACK
6
CONTINUOUS
10
177.0589630000000056
20
-100.6941229999999905
11
177.0589630000000056
21
-100.5988849999999957
0
LINE
8
BLACK
6
CONTINUOUS
10
177.0589630000000056
20
-100.5988849999999957
11
176.9637249999999824
21
-100.4084089999999918
0
LINE
8
BLACK
6
CONTINUOUS
10
176.9637249999999824
20
-100.4084089999999918
11
176.7732479999999953
21
-100.313170999999997
0
LINE
8
BLACK
6
CONTINUOUS
10
176.7732479999999953
20
-100.313170999999997
11
176.4875339999999824
21
-100.313170999999997
0
LINE
8
BLACK
6
CONTINUOUS
10
176.4875339999999824
20
-100.313170999999997
11
176.2970579999999927
21
-100.2179330000000022
0
LINE
8
BLACK
6
CONTINUOUS
10
176.2970579999999927
20
-100.2179330000000022
11
176.2018199999999979
21
-100.0274569999999983
0
LINE
8
BLACK
6
CONTINUOUS
10
176.2018199999999979
20
-100.0274569999999983
11
176.2018199999999979
21
-99.9322189999999893
0
LINE
8
BLACK
6
CONTINUOUS
10
176.2018199999999979
20
-99.9322189999999893
11
176.2970579999999927
21
-99.7417420000000021
0
LINE
8
BLACK
6
CONTINUOUS
10
176.2970579999999927
20
-99.7417420000000021
11
176.4875339999999824
21
-99.6465039999999931
0
LINE
8
BLACK
6
CONTINUOUS
10
176.4875339999999824
20
-99.6465039999999931
11
176.7732479999999953
21
-99.6465039999999931
0
LINE
8
BLACK
6
CONTINUOUS
10
176.7732479999999953
20
-99.6465039999999931
11
176.9637249999999824
21
-99.7417420000000021
0
LINE
8
BLACK
6
CONTINUOUS
10
179.4399159999999824
20
-100.2179330000000022
11
180.9637259999999799
21
-100.2179330000000022
0
LINE
8
BLACK
6
CONTINUOUS
10
180.2018209999999954
20
-100.9798380000000009
11
180.2018209999999954
21
-99.4560279999999892
0
LINE
8
BLACK
6
CONTINUOUS
10
183.3446779999999876
20
-99.1703139999999905
11
183.4399159999999824
21
-99.0750759999999957
0
LINE
8
BLACK
6
CONTINUOUS
10
183.4399159999999824
20
-99.0750759999999957
11
183.6303920000000005
21
-98.9798380000000009
0
LINE
8
BLACK
6
CONTINUOUS
10
183.6303920000000005
20
-98.9798380000000009
11
184.1065830000000005
21
-98.9798380000000009
0
LINE
8
BLACK
6
CONTINUOUS
10
184.1065830000000005
20
-98.9798380000000009
11
184.2970589999999902
21
-99.0750759999999957
0
LINE
8
BLACK
6
CONTINUOUS
10
184.2970589999999902
20
-99.0750759999999957
11
184.392296999999985
21
-99.1703139999999905
0
LINE
8
BLACK
6
CONTINUOUS
10
184.392296999999985
20
-99.1703139999999905
11
184.4875349999999798
21
-99.3607899999999944
0
LINE
8
BLACK
6
CONTINUOUS
10
184.4875349999999798
20
-99.3607899999999944
11
184.4875349999999798
21
-99.5512659999999983
0
LINE
8
BLACK
6
CONTINUOUS
10
184.4875349999999798
20
-99.5512659999999983
11
184.392296999999985
21
-99.8369799999999969
0
LINE
8
BLACK
6
CONTINUOUS
10
184.392296999999985
20
-99.8369799999999969
11
183.2494399999999928
21
-100.9798380000000009
0
LINE
8
BLACK
6
CONTINUOUS
10
183.2494399999999928
20
-100.9798380000000009
11
184.4875349999999798
21
-100.9798380000000009
0
LINE
8
BLACK
6
CONTINUOUS
10
186.7732499999999902
20
-100.8845999999999918
11
186.9637259999999799
21
-100.9798380000000009
0
LINE
8
BLACK
6
CONTINUOUS
10
186.9637259999999799
20
-100.9798380000000009
11
187.3446779999999876
21
-100.9798380000000009
0
LINE
8
BLACK
6
CONTINUOUS
10
187.3446779999999876
20
-100.9798380000000009
11
187.5351550000000032
21
-100.8845999999999918
0
LINE
8
BLACK
6
CONTINUOUS
10
187.5351550000000032
20
-100.8845999999999918
11
187.630392999999998
21
-100.6941229999999905
0
LINE
8
BLACK
6
CONTINUOUS
10
187.630392999999998
20
-100.6941229999999905
11
187.630392999999998
21
-100.5988849999999957
0
LINE
8
BLACK
6
CONTINUOUS
10
187.630392999999998
20
-100.5988849999999957
11
187.5351550000000032
21
-100.4084089999999918
0
LINE
8
BLACK
6
CONTINUOUS
10
187.5351550000000032
20
-100.4084089999999918
11
187.3446779999999876
21
-100.313170999999997
0
LINE
8
BLACK
6
CONTINUOUS
10
187.3446779999999876
20
-100.313170999999997
11
187.0589640000000031
21
-100.313170999999997
0
LINE
8
BLACK
6
CONTINUOUS
10
187.0589640000000031
20
-100.313170999999997
11
186.868487999999985
21
-100.2179330000000022
0
LINE
8
BLACK
6
CONTINUOUS
10
186.868487999999985
20
-100.2179330000000022
11
186.7732499999999902
21
-100.0274569999999983
0
LINE
8
BLACK
6
CONTINUOUS
10
186.7732499999999902
20
-100.0274569999999983
11
186.7732499999999902
21
-99.9322189999999893
0
LINE
8
BLACK
6
CONTINUOUS
10
186.7732499999999902
20
-99.9322189999999893
11
186.868487999999985
21
-99.7417420000000021
0
LINE
8
BLACK
6
CONTINUOUS
10
186.868487999999985
20
-99.7417420000000021
11
187.0589640000000031
21
-99.6465039999999931
0
LINE
8
BLACK
6
CONTINUOUS
10
187.0589640000000031
20
-99.6465039999999931
11
187.3446779999999876
21
-99.6465039999999931
0
LINE
8
BLACK
6
CONTINUOUS
10
187.3446779999999876
20
-99.6465039999999931
11
187.5351550000000032
21
-99.7417420000000021
0
LINE
8
BLACK
6
CONTINUOUS
10
188.7732499999999902
20
-100.9798380000000009
11
188.5827740000000006
21
-100.8845999999999918
0
LINE
8
BLACK
6
CONTINUOUS
10
188.5827740000000006
20
-100.8845999999999918
11
188.4875359999999773
21
-100.6941229999999905
0
LINE
8
BLACK
6
CONTINUOUS
10
188.4875359999999773
20
-100.6941229999999905
11
188.4875359999999773
21
-98.9798380000000009
0
LINE
8
BLACK
6
CONTINUOUS
10
189.8208689999999876
20
-100.9798380000000009
11
189.630392999999998
21
-100.8845999999999918
0
LINE
8
BLACK
6
CONTINUOUS
10
189.630392999999998
20
-100.8845999999999918
11
189.5351550000000032
21
-100.7893609999999995
0
LINE
8
BLACK
6
CONTINUOUS
10
189.5351550000000032
20
-100.7893609999999995
11
189.4399169999999799
21
-100.5988849999999957
0
LINE
8
BLACK
6
CONTINUOUS
10
189.4399169999999799
20
-100.5988849999999957
11
189.4399169999999799
21
-100.0274569999999983
0
LINE
8
BLACK
6
CONTINUOUS
10
189.4399169999999799
20
-100.0274569999999983
11
189.5351550000000032
21
-99.8369799999999969
0
LINE
8
BLACK
6
CONTINUOUS
10
189.5351550000000032
20
-99.8369799999999969
11
189.630392999999998
21
-99.7417420000000021
0
LINE
8
BLACK
6
CONTINUOUS
10
189.630392999999998
20
-99.7417420000000021
11
189.8208689999999876
21
-99.6465039999999931
0
LINE
8
BLACK
6
CONTINUOUS
10
189.8208689999999876
20
-99.6465039999999931
11
190.106583999999998
21
-99.6465039999999931
0
LINE
8
BLACK
6
CONTINUOUS
10
190.106583999999998
20
-99.6465039999999931
11
190.2970599999999877
21
-99.7417420000000021
0
LINE
8
BLACK
6
CONTINUOUS
10
190.2970599999999877
20
-99.7417420000000021
11
190.3922979999999825
21
-99.8369799999999969
0
LINE
8
BLACK
6
CONTINUOUS
10
190.3922979999999825
20
-99.8369799999999969
11
190.4875359999999773
21
-100.0274569999999983
0
LINE
8
BLACK
6
CONTINUOUS
10
190.4875359999999773
20
-100.0274569999999983
11
190.4875359999999773
21
-100.5988849999999957
0
LINE
8
BLACK
6
CONTINUOUS
10
190.4875359999999773
20
-100.5988849999999957
11
190.3922979999999825
21
-100.7893609999999995
0
LINE
8
BLACK
6
CONTINUOUS
10
190.3922979999999825
20
-100.7893609999999995
11
190.2970599999999877
21
-100.8845999999999918
0
LINE
8
BLACK
6
CONTINUOUS
10
190.2970599999999877
20
-100.8845999999999918
11
190.106583999999998
21
-100.9798380000000009
0
LINE
8
BLACK
6
CONTINUOUS
10
190.106583999999998
20
-100.9798380000000009
11
189.8208689999999876
21
-100.9798380000000009
0
LINE
8
BLACK
6
CONTINUOUS
10
191.0589650000000006
20
-99.6465039999999931
11
191.8208689999999876
21
-99.6465039999999931
0
LINE
8
BLACK
6
CONTINUOUS
10
191.3446789999999851
20
-98.9798380000000009
11
191.3446789999999851
21
-100.6941229999999905
0
LINE
8
BLACK
6
CONTINUOUS
10
191.3446789999999851
20
-100.6941229999999905
11
191.4399169999999799
21
-100.8845999999999918
0
LINE
8
BLACK
6
CONTINUOUS
10
191.4399169999999799
20
-100.8845999999999918
11
191.630392999999998
21
-100.9798380000000009
0
LINE
8
BLACK
6
CONTINUOUS
10
191.630392999999998
20
-100.9798380000000009
11
191.8208689999999876
21
-100.9798380000000009
0
LINE
8
BLACK
6
CONTINUOUS
10
192.3922979999999825
20
-100.8845999999999918
11
192.5827740000000006
21
-100.9798380000000009
0
LINE
8
BLACK
6
CONTINUOUS
10
192.5827740000000006
20
-100.9798380000000009
11
192.9637259999999799
21
-100.9798380000000009
0
LINE
8
BLACK
6
CONTINUOUS
10
192.9637259999999799
20
-100.9798380000000009
11
193.1542029999999954
21
-100.8845999999999918
0
LINE
8
BLACK
6
CONTINUOUS
10
193.1542029999999954
20
-100.8845999999999918
11
193.2494409999999903
21
-100.6941229999999905
0
LINE
8
BLACK
6
CONTINUOUS
10
193.2494409999999903
20
-100.6941229999999905
11
193.2494409999999903
21
-100.5988849999999957
0
LINE
8
BLACK
6
CONTINUOUS
10
193.2494409999999903
20
-100.5988849999999957
11
193.1542029999999954
21
-100.4084089999999918
0
LINE
8
BLACK
6
CONTINUOUS
10
193.1542029999999954
20
-100.4084089999999918
11
192.9637259999999799
21
-100.313170999999997
0
LINE
8
BLACK
6
CONTINUOUS
10
192.9637259999999799
20
-100.313170999999997
11
192.6780119999999954
21
-100.313170999999997
0
LINE
8
BLACK
6
CONTINUOUS
10
192.6780119999999954
20
-100.313170999999997
11
192.4875359999999773
21
-100.2179330000000022
0
LINE
8
BLACK
6
CONTINUOUS
10
192.4875359999999773
20
-100.2179330000000022
11
192.3922979999999825
21
-100.0274569999999983
0
LINE
8
BLACK
6
CONTINUOUS
10
192.3922979999999825
20
-100.0274569999999983
11
192.3922979999999825
21
-99.9322189999999893
0
LINE
8
BLACK
6
CONTINUOUS
10
192.3922979999999825
20
-99.9322189999999893
11
192.4875359999999773
21
-99.7417420000000021
0
LINE
8
BLACK
6
CONTINUOUS
10
192.4875359999999773
20
-99.7417420000000021
11
192.6780119999999954
21
-99.6465039999999931
0
LINE
8
BLACK
6
CONTINUOUS
10
192.6780119999999954
20
-99.6465039999999931
11
192.9637259999999799
21
-99.6465039999999931
0
LINE
8
BLACK
6
CONTINUOUS
10
192.9637259999999799
20
-99.6465039999999931
11
193.1542029999999954
21
-99.7417420000000021
0
LINE
8
BLACK
6
CONTINUOUS
10
193.9161079999999799
20
-101.7417420000000021
11
194.0113460000000032
21
-101.6465039999999931
0
LINE
8
BLACK
6
CONTINUOUS
10
194.0113460000000032
20
-101.6465039999999931
11
194.2018219999999928
21
-101.3607899999999944
0
LINE
8
BLACK
6
CONTINUOUS
10
194.2018219999999928
20
-101.3607899999999944
11
194.2970599999999877
21
-101.1703139999999905
0
LINE
8
BLACK
6
CONTINUOUS
10
194.2970599999999877
20
-101.1703139999999905
11
194.3922979999999825
21
-100.8845999999999918
0
LINE
8
BLACK
6
CONTINUOUS
10
194.3922979999999825
20
-100.8845999999999918
11
194.4875359999999773
21
-100.4084089999999918
0
LINE
8
BLACK
6
CONTINUOUS
10
194.4875359999999773
20
-100.4084089999999918
11
194.4875359999999773
21
-100.0274569999999983
0
LINE
8
BLACK
6
CONTINUOUS
10
194.4875359999999773
20
-100.0274569999999983
11
194.3922979999999825
21
-99.5512659999999983
0
LINE
8
BLACK
6
CONTINUOUS
10
194.3922979999999825
20
-99.5512659999999983
11
194.2970599999999877
21
-99.2655519999999996
0
LINE
8
BLACK
6
CONTINUOUS
10
194.2970599999999877
20
-99.2655519999999996
11
194.2018219999999928
21
-99.0750759999999957
0
LINE
8
BLACK
6
CONTINUOUS
10
194.2018219999999928
20
-99.0750759999999957
11
194.0113460000000032
21
-98.7893609999999995
0
LINE
8
BLACK
6
CONTINUOUS
10
194.0113460000000032
20
-98.7893609999999995
11
193.9161079999999799
21
-98.6941229999999905
0
LINE
8
BLACK
6
CONTINUOUS
10
129.6999999999999886
20
-102.4299999999999926
11
129.6999999999999886
21
-102.9799999999999898
0
LINE
8
BLACK
6
CONTINUOUS
10
129.4249999999999829
20
-102.7049999999999983
11
129.9749999999999943
21
-102.7049999999999983
0
LINE
8
BLACK
6
CONTINUOUS
10
132.963719999999995
20
-101.6198380000000014
11
133.1541969999999822
21
-101.6198380000000014
0
LINE
8
BLACK
6
CONTINUOUS
10
133.1541969999999822
20
-101.6198380000000014
11
133.3446730000000002
21
-101.7150759999999963
0
LINE
8
BLACK
6
CONTINUOUS
10
133.3446730000000002
20
-101.7150759999999963
11
133.4399109999999951
21
-101.8103139999999911
0
LINE
8
BLACK
6
CONTINUOUS
10
133.4399109999999951
20
-101.8103139999999911
11
133.5351489999999899
21
-102.000789999999995
0
LINE
8
BLACK
6
CONTINUOUS
10
133.5351489999999899
20
-102.000789999999995
11
133.6303869999999847
21
-102.3817419999999885
0
LINE
8
BLACK
6
CONTINUOUS
10
133.6303869999999847
20
-102.3817419999999885
11
133.6303869999999847
21
-102.8579329999999885
0
LINE
8
BLACK
6
CONTINUOUS
10
133.6303869999999847
20
-102.8579329999999885
11
133.5351489999999899
21
-103.2388849999999962
0
LINE
8
BLACK
6
CONTINUOUS
10
133.5351489999999899
20
-103.2388849999999962
11
133.4399109999999951
21
-103.4293610000000001
0
LINE
8
BLACK
6
CONTINUOUS
10
133.4399109999999951
20
-103.4293610000000001
11
133.3446730000000002
21
-103.5245999999999924
0
LINE
8
BLACK
6
CONTINUOUS
10
133.3446730000000002
20
-103.5245999999999924
11
133.1541969999999822
21
-103.6198380000000014
0
LINE
8
BLACK
6
CONTINUOUS
10
133.1541969999999822
20
-103.6198380000000014
11
132.963719999999995
21
-103.6198380000000014
0
LINE
8
BLACK
6
CONTINUOUS
10
132.963719999999995
20
-103.6198380000000014
11
132.7732440000000054
21
-103.5245999999999924
0
LINE
8
BLACK
6
CONTINUOUS
10
132.7732440000000054
20
-103.5245999999999924
11
132.6780059999999821
21
-103.4293610000000001
0
LINE
8
BLACK
6
CONTINUOUS
10
132.6780059999999821
20
-103.4293610000000001
11
132.5827679999999873
21
-103.2388849999999962
0
LINE
8
BLACK
6
CONTINUOUS
10
132.5827679999999873
20
-103.2388849999999962
11
132.4875299999999925
21
-102.8579329999999885
0
LINE
8
BLACK
6
CONTINUOUS
10
132.4875299999999925
20
-102.8579329999999885
11
132.4875299999999925
21
-102.3817419999999885
0
LINE
8
BLACK
6
CONTINUOUS
10
132.4875299999999925
20
-102.3817419999999885
11
132.5827679999999873
21
-102.000789999999995
0
LINE
8
BLACK
6
CONTINUOUS
10
132.5827679999999873
20
-102.000789999999995
11
132.6780059999999821
21
-101.8103139999999911
0
LINE
8
BLACK
6
CONTINUOUS
10
132.6780059999999821
20
-101.8103139999999911
11
132.7732440000000054
21
-101.7150759999999963
0
LINE
8
BLACK
6
CONTINUOUS
10
132.7732440000000054
20
-101.7150759999999963
11
132.963719999999995
21
-101.6198380000000014
0
LINE
8
BLACK
6
CONTINUOUS
10
134.4875299999999925
20
-103.4293610000000001
11
134.5827679999999873
21
-103.5245999999999924
0
LINE
8
BLACK
6
CONTINUOUS
10
134.5827679999999873
20
-103.5245999999999924
11
134.4875299999999925
21
-103.6198380000000014
0
LINE
8
BLACK
6
CONTINUOUS
10
134.4875299999999925
20
-103.6198380000000014
11
134.3922919999999976
21
-103.5245999999999924
0
LINE
8
BLACK
6
CONTINUOUS
10
134.3922919999999976
20
-103.5245999999999924
11
134.4875299999999925
21
-103.4293610000000001
0
LINE
8
BLACK
6
CONTINUOUS
10
134.4875299999999925
20
-103.4293610000000001
11
134.4875299999999925
21
-103.6198380000000014
0
LINE
8
BLACK
6
CONTINUOUS
10
136.3922919999999976
20
-101.6198380000000014
11
135.4399109999999951
21
-101.6198380000000014
0
LINE
8
BLACK
6
CONTINUOUS
10
135.4399109999999951
20
-101.6198380000000014
11
135.3446730000000002
21
-102.5722189999999898
0
LINE
8
BLACK
6
CONTINUOUS
10
135.3446730000000002
20
-102.5722189999999898
11
135.4399109999999951
21
-102.4769799999999975
0
LINE
8
BLACK
6
CONTINUOUS
10
135.4399109999999951
20
-102.4769799999999975
11
135.6303869999999847
21
-102.3817419999999885
0
LINE
8
BLACK
6
CONTINUOUS
10
135.6303869999999847
20
-102.3817419999999885
11
136.1065779999999847
21
-102.3817419999999885
0
LINE
8
BLACK
6
CONTINUOUS
10
136.1065779999999847
20
-102.3817419999999885
11
136.2970540000000028
21
-102.4769799999999975
0
LINE
8
BLACK
6
CONTINUOUS
10
136.2970540000000028
20
-102.4769799999999975
11
136.3922919999999976
21
-102.5722189999999898
0
LINE
8
BLACK
6
CONTINUOUS
10
136.3922919999999976
20
-102.5722189999999898
11
136.4875299999999925
21
-102.7626949999999937
0
LINE
8
BLACK
6
CONTINUOUS
10
136.4875299999999925
20
-102.7626949999999937
11
136.4875299999999925
21
-103.2388849999999962
0
LINE
8
BLACK
6
CONTINUOUS
10
136.4875299999999925
20
-103.2388849999999962
11
136.3922919999999976
21
-103.4293610000000001
0
LINE
8
BLACK
6
CONTINUOUS
10
136.3922919999999976
20
-103.4293610000000001
11
136.2970540000000028
21
-103.5245999999999924
0
LINE
8
BLACK
6
CONTINUOUS
10
136.2970540000000028
20
-103.5245999999999924
11
136.1065779999999847
21
-103.6198380000000014
0
LINE
8
BLACK
6
CONTINUOUS
10
136.1065779999999847
20
-103.6198380000000014
11
135.6303869999999847
21
-103.6198380000000014
0
LINE
8
BLACK
6
CONTINUOUS
10
135.6303869999999847
20
-103.6198380000000014
11
135.4399109999999951
21
-103.5245999999999924
0
LINE
8
BLACK
6
CONTINUOUS
10
135.4399109999999951
20
-103.5245999999999924
11
135.3446730000000002
21
-103.4293610000000001
0
LINE
8
BLACK
6
CONTINUOUS
10
138.2970540000000028
20
-101.6198380000000014
11
137.3446730000000002
21
-101.6198380000000014
0
LINE
8
BLACK
6
CONTINUOUS
10
137.3446730000000002
20
-101.6198380000000014
11
137.2494350000000054
21
-102.5722189999999898
0
LINE
8
BLACK
6
CONTINUOUS
10
137.2494350000000054
20
-102.5722189999999898
11
137.3446730000000002
21
-102.4769799999999975
0
LINE
8
BLACK
6
CONTINUOUS
10
137.3446730000000002
20
-102.4769799999999975
11
137.5351489999999899
21
-102.3817419999999885
0
LINE
8
BLACK
6
CONTINUOUS
10
137.5351489999999899
20
-102.3817419999999885
11
138.0113399999999899
21
-102.3817419999999885
0
LINE
8
BLACK
6
CONTINUOUS
10
138.0113399999999899
20
-102.3817419999999885
11
138.2018159999999796
21
-102.4769799999999975
0
LINE
8
BLACK
6
CONTINUOUS
10
138.2018159999999796
20
-102.4769799999999975
11
138.2970540000000028
21
-102.5722189999999898
0
LINE
8
BLACK
6
CONTINUOUS
10
138.2970540000000028
20
-102.5722189999999898
11
138.3922919999999976
21
-102.7626949999999937
0
LINE
8
BLACK
6
CONTINUOUS
10
138.3922919999999976
20
-102.7626949999999937
11
138.3922919999999976
21
-103.2388849999999962
0
LINE
8
BLACK
6
CONTINUOUS
10
138.3922919999999976
20
-103.2388849999999962
11
138.2970540000000028
21
-103.4293610000000001
0
LINE
8
BLACK
6
CONTINUOUS
10
138.2970540000000028
20
-103.4293610000000001
11
138.2018159999999796
21
-103.5245999999999924
0
LINE
8
BLACK
6
CONTINUOUS
10
138.2018159999999796
20
-103.5245999999999924
11
138.0113399999999899
21
-103.6198380000000014
0
LINE
8
BLACK
6
CONTINUOUS
10
138.0113399999999899
20
-103.6198380000000014
11
137.5351489999999899
21
-103.6198380000000014
0
LINE
8
BLACK
6
CONTINUOUS
10
137.5351489999999899
20
-103.6198380000000014
11
137.3446730000000002
21
-103.5245999999999924
0
LINE
8
BLACK
6
CONTINUOUS
10
137.3446730000000002
20
-103.5245999999999924
11
137.2494350000000054
21
-103.4293610000000001
0
LINE
8
BLACK
6
CONTINUOUS
10
139.6303869999999847
20
-101.6198380000000014
11
139.8208640000000003
21
-101.6198380000000014
0
LINE
8
BLACK
6
CONTINUOUS
10
139.8208640000000003
20
-101.6198380000000014
11
140.0113399999999899
21
-101.7150759999999963
0
LINE
8
BLACK
6
CONTINUOUS
10
140.0113399999999899
20
-101.7150759999999963
11
140.1065779999999847
21
-101.8103139999999911
0
LINE
8
BLACK
6
CONTINUOUS
10
140.1065779999999847
20
-101.8103139999999911
11
140.2018159999999796
21
-102.000789999999995
0
LINE
8
BLACK
6
CONTINUOUS
10
140.2018159999999796
20
-102.000789999999995
11
140.2970540000000028
21
-102.3817419999999885
0
LINE
8
BLACK
6
CONTINUOUS
10
140.2970540000000028
20
-102.3817419999999885
11
140.2970540000000028
21
-102.8579329999999885
0
LINE
8
BLACK
6
CONTINUOUS
10
140.2970540000000028
20
-102.8579329999999885
11
140.2018159999999796
21
-103.2388849999999962
0
LINE
8
BLACK
6
CONTINUOUS
10
140.2018159999999796
20
-103.2388849999999962
11
140.1065779999999847
21
-103.4293610000000001
0
LINE
8
BLACK
6
CONTINUOUS
10
140.1065779999999847
20
-103.4293610000000001
11
140.0113399999999899
21
-103.5245999999999924
0
LINE
8
BLACK
6
CONTINUOUS
10
140.0113399999999899
20
-103.5245999999999924
11
139.8208640000000003
21
-103.6198380000000014
0
LINE
8
BLACK
6
CONTINUOUS
10
139.8208640000000003
20
-103.6198380000000014
11
139.6303869999999847
21
-103.6198380000000014
0
LINE
8
BLACK
6
CONTINUOUS
10
139.6303869999999847
20
-103.6198380000000014
11
139.4399109999999951
21
-103.5245999999999924
0
LINE
8
BLACK
6
CONTINUOUS
10
139.4399109999999951
20
-103.5245999999999924
11
139.3446730000000002
21
-103.4293610000000001
0
LINE
8
BLACK
6
CONTINUOUS
10
139.3446730000000002
20
-103.4293610000000001
11
139.2494350000000054
21
-103.2388849999999962
0
LINE
8
BLACK
6
CONTINUOUS
10
139.2494350000000054
20
-103.2388849999999962
11
139.1541969999999822
21
-102.8579329999999885
0
LINE
8
BLACK
6
CONTINUOUS
10
139.1541969999999822
20
-102.8579329999999885
11
139.1541969999999822
21
-102.3817419999999885
0
LINE
8
BLACK
6
CONTINUOUS
10
139.1541969999999822
20
-102.3817419999999885
11
139.2494350000000054
21
-102.000789999999995
0
LINE
8
BLACK
6
CONTINUOUS
10
139.2494350000000054
20
-102.000789999999995
11
139.3446730000000002
21
-101.8103139999999911
0
LINE
8
BLACK
6
CONTINUOUS
10
139.3446730000000002
20
-101.8103139999999911
11
139.4399109999999951
21
-101.7150759999999963
0
LINE
8
BLACK
6
CONTINUOUS
10
139.4399109999999951
20
-101.7150759999999963
11
139.6303869999999847
21
-101.6198380000000014
0
LINE
8
BLACK
6
CONTINUOUS
10
141.1541969999999822
20
-103.6198380000000014
11
141.1541969999999822
21
-102.2865039999999937
0
LINE
8
BLACK
6
CONTINUOUS
10
141.1541969999999822
20
-102.4769799999999975
11
141.2494350000000054
21
-102.3817419999999885
0
LINE
8
BLACK
6
CONTINUOUS
10
141.2494350000000054
20
-102.3817419999999885
11
141.4399109999999951
21
-102.2865039999999937
0
LINE
8
BLACK
6
CONTINUOUS
10
141.4399109999999951
20
-102.2865039999999937
11
141.7256260000000054
21
-102.2865039999999937
0
LINE
8
BLACK
6
CONTINUOUS
10
141.7256260000000054
20
-102.2865039999999937
11
141.9161019999999951
21
-102.3817419999999885
0
LINE
8
BLACK
6
CONTINUOUS
10
141.9161019999999951
20
-102.3817419999999885
11
142.0113399999999899
21
-102.5722189999999898
0
LINE
8
BLACK
6
CONTINUOUS
10
142.0113399999999899
20
-102.5722189999999898
11
142.0113399999999899
21
-103.6198380000000014
0
LINE
8
BLACK
6
CONTINUOUS
10
142.0113399999999899
20
-102.5722189999999898
11
142.1065779999999847
21
-102.3817419999999885
0
LINE
8
BLACK
6
CONTINUOUS
10
142.1065779999999847
20
-102.3817419999999885
11
142.2970540000000028
21
-102.2865039999999937
0
LINE
8
BLACK
6
CONTINUOUS
10
142.2970540000000028
20
-102.2865039999999937
11
142.5827679999999873
21
-102.2865039999999937
0
LINE
8
BLACK
6
CONTINUOUS
10
142.5827679999999873
20
-102.2865039999999937
11
142.7732450000000028
21
-102.3817419999999885
0
LINE
8
BLACK
6
CONTINUOUS
10
142.7732450000000028
20
-102.3817419999999885
11
142.8684829999999977
21
-102.5722189999999898
0
LINE
8
BLACK
6
CONTINUOUS
10
142.8684829999999977
20
-102.5722189999999898
11
142.8684829999999977
21
-103.6198380000000014
0
LINE
8
BLACK
6
CONTINUOUS
10
143.8208640000000003
20
-103.6198380000000014
11
143.8208640000000003
21
-102.2865039999999937
0
LINE
8
BLACK
6
CONTINUOUS
10
143.8208640000000003
20
-102.4769799999999975
11
143.9161019999999951
21
-102.3817419999999885
0
LINE
8
BLACK
6
CONTINUOUS
10
143.9161019999999951
20
-102.3817419999999885
11
144.1065779999999847
21
-102.2865039999999937
0
LINE
8
BLACK
6
CONTINUOUS
10
144.1065779999999847
20
-102.2865039999999937
11
144.3922929999999951
21
-102.2865039999999937
0
LINE
8
BLACK
6
CONTINUOUS
10
144.3922929999999951
20
-102.2865039999999937
11
144.5827689999999848
21
-102.3817419999999885
0
LINE
8
BLACK
6
CONTINUOUS
10
144.5827689999999848
20
-102.3817419999999885
11
144.6780069999999796
21
-102.5722189999999898
0
LINE
8
BLACK
6
CONTINUOUS
10
144.6780069999999796
20
-102.5722189999999898
11
144.6780069999999796
21
-103.6198380000000014
0
LINE
8
BLACK
6
CONTINUOUS
10
144.6780069999999796
20
-102.5722189999999898
11
144.7732450000000028
21
-102.3817419999999885
0
LINE
8
BLACK
6
CONTINUOUS
10
144.7732450000000028
20
-102.3817419999999885
11
144.9637209999999925
21
-102.2865039999999937
0
LINE
8
BLACK
6
CONTINUOUS
10
144.9637209999999925
20
-102.2865039999999937
11
145.2494350000000054
21
-102.2865039999999937
0
LINE
8
BLACK
6
CONTINUOUS
10
145.2494350000000054
20
-102.2865039999999937
11
145.4399119999999925
21
-102.3817419999999885
0
LINE
8
BLACK
6
CONTINUOUS
10
145.4399119999999925
20
-102.3817419999999885
11
145.5351499999999874
21
-102.5722189999999898
0
LINE
8
BLACK
6
CONTINUOUS
10
145.5351499999999874
20
-102.5722189999999898
11
145.5351499999999874
21
-103.6198380000000014
0
LINE
8
BLACK
6
CONTINUOUS
10
149.4399119999999925
20
-101.5245999999999924
11
147.7256270000000029
21
-104.0960279999999898
0
LINE
8
BLACK
6
CONTINUOUS
10
152.0113409999999874
20
-101.6198380000000014
11
152.2018180000000029
21
-101.6198380000000014
0
LINE
8
BLACK
6
CONTINUOUS
10
152.2018180000000029
20
-101.6198380000000014
11
152.3922939999999926
21
-101.7150759999999963
0
LINE
8
BLACK
6
CONTINUOUS
10
152.3922939999999926
20
-101.7150759999999963
11
152.4875319999999874
21
-101.8103139999999911
0
LINE
8
BLACK
6
CONTINUOUS
10
152.4875319999999874
20
-101.8103139999999911
11
152.5827699999999822
21
-102.000789999999995
0
LINE
8
BLACK
6
CONTINUOUS
10
152.5827699999999822
20
-102.000789999999995
11
152.6780080000000055
21
-102.3817419999999885
0
LINE
8
BLACK
6
CONTINUOUS
10
152.6780080000000055
20
-102.3817419999999885
11
152.6780080000000055
21
-102.8579329999999885
0
LINE
8
BLACK
6
CONTINUOUS
10
152.6780080000000055
20
-102.8579329999999885
11
152.5827699999999822
21
-103.2388849999999962
0
LINE
8
BLACK
6
CONTINUOUS
10
152.5827699999999822
20
-103.2388849999999962
11
152.4875319999999874
21
-103.4293610000000001
0
LINE
8
BLACK
6
CONTINUOUS
10
152.4875319999999874
20
-103.4293610000000001
11
152.3922939999999926
21
-103.5245999999999924
0
LINE
8
BLACK
6
CONTINUOUS
10
152.3922939999999926
20
-103.5245999999999924
11
152.2018180000000029
21
-103.6198380000000014
0
LINE
8
BLACK
6
CONTINUOUS
10
152.2018180000000029
20
-103.6198380000000014
11
152.0113409999999874
21
-103.6198380000000014
0
LINE
8
BLACK
6
CONTINUOUS
10
152.0113409999999874
20
-103.6198380000000014
11
151.8208649999999977
21
-103.5245999999999924
0
LINE
8
BLACK
6
CONTINUOUS
10
151.8208649999999977
20
-103.5245999999999924
11
151.7256270000000029
21
-103.4293610000000001
0
LINE
8
BLACK
6
CONTINUOUS
10
151.7256270000000029
20
-103.4293610000000001
11
151.6303889999999797
21
-103.2388849999999962
0
LINE
8
BLACK
6
CONTINUOUS
10
151.6303889999999797
20
-103.2388849999999962
11
151.5351509999999848
21
-102.8579329999999885
0
LINE
8
BLACK
6
CONTINUOUS
10
151.5351509999999848
20
-102.8579329999999885
11
151.5351509999999848
21
-102.3817419999999885
0
LINE
8
BLACK
6
CONTINUOUS
10
151.5351509999999848
20
-102.3817419999999885
11
151.6303889999999797
21
-102.000789999999995
0
LINE
8
BLACK
6
CONTINUOUS
10
151.6303889999999797
20
-102.000789999999995
11
151.7256270000000029
21
-101.8103139999999911
0
LINE
8
BLACK
6
CONTINUOUS
10
151.7256270000000029
20
-101.8103139999999911
11
151.8208649999999977
21
-101.7150759999999963
0
LINE
8
BLACK
6
CONTINUOUS
10
151.8208649999999977
20
-101.7150759999999963
11
152.0113409999999874
21
-101.6198380000000014
0
LINE
8
BLACK
6
CONTINUOUS
10
153.5351509999999848
20
-103.4293610000000001
11
153.6303889999999797
21
-103.5245999999999924
0
LINE
8
BLACK
6
CONTINUOUS
10
153.6303889999999797
20
-103.5245999999999924
11
153.5351509999999848
21
-103.6198380000000014
0
LINE
8
BLACK
6
CONTINUOUS
10
153.5351509999999848
20
-103.6198380000000014
11
153.43991299999999
21
-103.5245999999999924
0
LINE
8
BLACK
6
CONTINUOUS
10
153.43991299999999
20
-103.5245999999999924
11
153.5351509999999848
21
-103.4293610000000001
0
LINE
8
BLACK
6
CONTINUOUS
10
153.5351509999999848
20
-103.4293610000000001
11
153.5351509999999848
21
-103.6198380000000014
0
LINE
8
BLACK
6
CONTINUOUS
10
154.8684839999999951
20
-101.6198380000000014
11
155.0589609999999823
21
-101.6198380000000014
0
LINE
8
BLACK
6
CONTINUOUS
10
155.0589609999999823
20
-101.6198380000000014
11
155.2494370000000004
21
-101.7150759999999963
0
LINE
8
BLACK
6
CONTINUOUS
10
155.2494370000000004
20
-101.7150759999999963
11
155.3446749999999952
21
-101.8103139999999911
0
LINE
8
BLACK
6
CONTINUOUS
10
155.3446749999999952
20
-101.8103139999999911
11
155.43991299999999
21
-102.000789999999995
0
LINE
8
BLACK
6
CONTINUOUS
10
155.43991299999999
20
-102.000789999999995
11
155.5351509999999848
21
-102.3817419999999885
0
LINE
8
BLACK
6
CONTINUOUS
10
155.5351509999999848
20
-102.3817419999999885
11
155.5351509999999848
21
-102.8579329999999885
0
LINE
8
BLACK
6
CONTINUOUS
10
155.5351509999999848
20
-102.8579329999999885
11
155.43991299999999
21
-103.2388849999999962
0
LINE
8
BLACK
6
CONTINUOUS
10
155.43991299999999
20
-103.2388849999999962
11
155.3446749999999952
21
-103.4293610000000001
0
LINE
8
BLACK
6
CONTINUOUS
10
155.3446749999999952
20
-103.4293610000000001
11
155.2494370000000004
21
-103.5245999999999924
0
LINE
8
BLACK
6
CONTINUOUS
10
155.2494370000000004
20
-103.5245999999999924
11
155.0589609999999823
21
-103.6198380000000014
0
LINE
8
BLACK
6
CONTINUOUS
10
155.0589609999999823
20
-103.6198380000000014
11
154.8684839999999951
21
-103.6198380000000014
0
LINE
8
BLACK
6
CONTINUOUS
10
154.8684839999999951
20
-103.6198380000000014
11
154.6780080000000055
21
-103.5245999999999924
0
LINE
8
BLACK
6
CONTINUOUS
10
154.6780080000000055
20
-103.5245999999999924
11
154.5827699999999822
21
-103.4293610000000001
0
LINE
8
BLACK
6
CONTINUOUS
10
154.5827699999999822
20
-103.4293610000000001
11
154.4875319999999874
21
-103.2388849999999962
0
LINE
8
BLACK
6
CONTINUOUS
10
154.4875319999999874
20
-103.2388849999999962
11
154.3922939999999926
21
-102.8579329999999885
0
LINE
8
BLACK
6
CONTINUOUS
10
154.3922939999999926
20
-102.8579329999999885
11
154.3922939999999926
21
-102.3817419999999885
0
LINE
8
BLACK
6
CONTINUOUS
10
154.3922939999999926
20
-102.3817419999999885
11
154.4875319999999874
21
-102.000789999999995
0
LINE
8
BLACK
6
CONTINUOUS
10
154.4875319999999874
20
-102.000789999999995
11
154.5827699999999822
21
-101.8103139999999911
0
LINE
8
BLACK
6
CONTINUOUS
10
154.5827699999999822
20
-101.8103139999999911
11
154.6780080000000055
21
-101.7150759999999963
0
LINE
8
BLACK
6
CONTINUOUS
10
154.6780080000000055
20
-101.7150759999999963
11
154.8684839999999951
21
-101.6198380000000014
0
LINE
8
BLACK
6
CONTINUOUS
10
156.2970559999999978
20
-101.8103139999999911
11
156.3922939999999926
21
-101.7150759999999963
0
LINE
8
BLACK
6
CONTINUOUS
10
156.3922939999999926
20
-101.7150759999999963
11
156.5827699999999822
21
-101.6198380000000014
0
LINE
8
BLACK
6
CONTINUOUS
10
156.5827699999999822
20
-101.6198380000000014
11
157.0589609999999823
21
-101.6198380000000014
0
LINE
8
BLACK
6
CONTINUOUS
10
157.0589609999999823
20
-101.6198380000000014
11
157.2494370000000004
21
-101.7150759999999963
0
LINE
8
BLACK
6
CONTINUOUS
10
157.2494370000000004
20
-101.7150759999999963
11
157.3446749999999952
21
-101.8103139999999911
0
LINE
8
BLACK
6
CONTINUOUS
10
157.3446749999999952
20
-101.8103139999999911
11
157.43991299999999
21
-102.000789999999995
0
LINE
8
BLACK
6
CONTINUOUS
10
157.43991299999999
20
-102.000789999999995
11
157.43991299999999
21
-102.1912659999999988
0
LINE
8
BLACK
6
CONTINUOUS
10
157.43991299999999
20
-102.1912659999999988
11
157.3446749999999952
21
-102.4769799999999975
0
LINE
8
BLACK
6
CONTINUOUS
10
157.3446749999999952
20
-102.4769799999999975
11
156.2018180000000029
21
-103.6198380000000014
0
LINE
8
BLACK
6
CONTINUOUS
10
156.2018180000000029
20
-103.6198380000000014
11
157.43991299999999
21
-103.6198380000000014
0
LINE
8
BLACK
6
CONTINUOUS
10
159.3446749999999952
20
-103.6198380000000014
11
158.2018180000000029
21
-103.6198380000000014
0
LINE
8
BLACK
6
CONTINUOUS
10
158.7732460000000003
20
-103.6198380000000014
11
158.7732460000000003
21
-101.6198380000000014
0
LINE
8
BLACK
6
CONTINUOUS
10
158.7732460000000003
20
-101.6198380000000014
11
158.5827699999999822
21
-101.9055520000000001
0
LINE
8
BLACK
6
CONTINUOUS
10
158.5827699999999822
20
-101.9055520000000001
11
158.3922939999999926
21
-102.0960279999999898
0
LINE
8
BLACK
6
CONTINUOUS
10
158.3922939999999926
20
-102.0960279999999898
11
158.2018180000000029
21
-102.1912659999999988
0
LINE
8
BLACK
6
CONTINUOUS
10
160.0113419999999849
20
-101.6198380000000014
11
161.3446749999999952
21
-101.6198380000000014
0
LINE
8
BLACK
6
CONTINUOUS
10
161.3446749999999952
20
-101.6198380000000014
11
160.4875319999999874
21
-103.6198380000000014
0
LINE
8
BLACK
6
CONTINUOUS
10
162.0113419999999849
20
-101.6198380000000014
11
162.0113419999999849
21
-102.000789999999995
0
LINE
8
BLACK
6
CONTINUOUS
10
162.7732469999999978
20
-101.6198380000000014
11
162.7732469999999978
21
-102.000789999999995
0
LINE
8
BLACK
6
CONTINUOUS
10
165.7256289999999979
20
-104.3817419999999885
11
165.6303900000000056
21
-104.2865039999999937
0
LINE
8
BLACK
6
CONTINUOUS
10
165.6303900000000056
20
-104.2865039999999937
11
165.4399139999999875
21
-104.000789999999995
0
LINE
8
BLACK
6
CONTINUOUS
10
165.4399139999999875
20
-104.000789999999995
11
165.3446759999999927
21
-103.8103139999999911
0
LINE
8
BLACK
6
CONTINUOUS
10
165.3446759999999927
20
-103.8103139999999911
11
165.2494379999999978
21
-103.5245999999999924
0
LINE
8
BLACK
6
CONTINUOUS
10
165.2494379999999978
20
-103.5245999999999924
11
165.154200000000003
21
-103.0484089999999924
0
LINE
8
BLACK
6
CONTINUOUS
10
165.154200000000003
20
-103.0484089999999924
11
165.154200000000003
21
-102.6674569999999989
0
LINE
8
BLACK
6
CONTINUOUS
10
165.154200000000003
20
-102.6674569999999989
11
165.2494379999999978
21
-102.1912659999999988
0
LINE
8
BLACK
6
CONTINUOUS
10
165.2494379999999978
20
-102.1912659999999988
11
165.3446759999999927
21
-101.9055520000000001
0
LINE
8
BLACK
6
CONTINUOUS
10
165.3446759999999927
20
-101.9055520000000001
11
165.4399139999999875
21
-101.7150759999999963
0
LINE
8
BLACK
6
CONTINUOUS
10
165.4399139999999875
20
-101.7150759999999963
11
165.6303900000000056
21
-101.4293610000000001
0
LINE
8
BLACK
6
CONTINUOUS
10
165.6303900000000056
20
-101.4293610000000001
11
165.7256289999999979
21
-101.3341229999999911
0
LINE
8
BLACK
6
CONTINUOUS
10
166.8684849999999926
20
-101.6198380000000014
11
167.0589619999999798
21
-101.6198380000000014
0
LINE
8
BLACK
6
CONTINUOUS
10
167.0589619999999798
20
-101.6198380000000014
11
167.2494379999999978
21
-101.7150759999999963
0
LINE
8
BLACK
6
CONTINUOUS
10
167.2494379999999978
20
-101.7150759999999963
11
167.3446759999999927
21
-101.8103139999999911
0
LINE
8
BLACK
6
CONTINUOUS
10
167.3446759999999927
20
-101.8103139999999911
11
167.4399139999999875
21
-102.000789999999995
0
LINE
8
BLACK
6
CONTINUOUS
10
167.4399139999999875
20
-102.000789999999995
11
167.5351519999999823
21
-102.3817419999999885
0
LINE
8
BLACK
6
CONTINUOUS
10
167.5351519999999823
20
-102.3817419999999885
11
167.5351519999999823
21
-102.8579329999999885
0
LINE
8
BLACK
6
CONTINUOUS
10
167.5351519999999823
20
-102.8579329999999885
11
167.4399139999999875
21
-103.2388849999999962
0
LINE
8
BLACK
6
CONTINUOUS
10
167.4399139999999875
20
-103.2388849999999962
11
167.3446759999999927
21
-103.4293610000000001
0
LINE
8
BLACK
6
CONTINUOUS
10
167.3446759999999927
20
-103.4293610000000001
11
167.2494379999999978
21
-103.5245999999999924
0
LINE
8
BLACK
6
CONTINUOUS
10
167.2494379999999978
20
-103.5245999999999924
11
167.0589619999999798
21
-103.6198380000000014
0
LINE
8
BLACK
6
CONTINUOUS
10
167.0589619999999798
20
-103.6198380000000014
11
166.8684849999999926
21
-103.6198380000000014
0
LINE
8
BLACK
6
CONTINUOUS
10
166.8684849999999926
20
-103.6198380000000014
11
166.678009000000003
21
-103.5245999999999924
0
LINE
8
BLACK
6
CONTINUOUS
10
166.678009000000003
20
-103.5245999999999924
11
166.5827709999999797
21
-103.4293610000000001
0
LINE
8
BLACK
6
CONTINUOUS
10
166.5827709999999797
20
-103.4293610000000001
11
166.4875329999999849
21
-103.2388849999999962
0
LINE
8
BLACK
6
CONTINUOUS
10
166.4875329999999849
20
-103.2388849999999962
11
166.3922949999999901
21
-102.8579329999999885
0
LINE
8
BLACK
6
CONTINUOUS
10
166.3922949999999901
20
-102.8579329999999885
11
166.3922949999999901
21
-102.3817419999999885
0
LINE
8
BLACK
6
CONTINUOUS
10
166.3922949999999901
20
-102.3817419999999885
11
166.4875329999999849
21
-102.000789999999995
0
LINE
8
BLACK
6
CONTINUOUS
10
166.4875329999999849
20
-102.000789999999995
11
166.5827709999999797
21
-101.8103139999999911
0
LINE
8
BLACK
6
CONTINUOUS
10
166.5827709999999797
20
-101.8103139999999911
11
166.678009000000003
21
-101.7150759999999963
0
LINE
8
BLACK
6
CONTINUOUS
10
166.678009000000003
20
-101.7150759999999963
11
166.8684849999999926
21
-101.6198380000000014
0
LINE
8
BLACK
6
CONTINUOUS
10
169.9161049999999875
20
-103.6198380000000014
11
169.9161049999999875
21
-101.6198380000000014
0
LINE
8
BLACK
6
CONTINUOUS
10
170.7732479999999953
20
-103.6198380000000014
11
170.7732479999999953
21
-102.5722189999999898
0
LINE
8
BLACK
6
CONTINUOUS
10
170.7732479999999953
20
-102.5722189999999898
11
170.6780100000000004
21
-102.3817419999999885
0
LINE
8
BLACK
6
CONTINUOUS
10
170.6780100000000004
20
-102.3817419999999885
11
170.4875339999999824
21
-102.2865039999999937
0
LINE
8
BLACK
6
CONTINUOUS
10
170.4875339999999824
20
-102.2865039999999937
11
170.2018190000000004
21
-102.2865039999999937
0
LINE
8
BLACK
6
CONTINUOUS
10
170.2018190000000004
20
-102.2865039999999937
11
170.0113429999999823
21
-102.3817419999999885
0
LINE
8
BLACK
6
CONTINUOUS
10
170.0113429999999823
20
-102.3817419999999885
11
169.9161049999999875
21
-102.4769799999999975
0
LINE
8
BLACK
6
CONTINUOUS
10
172.0113429999999823
20
-103.6198380000000014
11
171.8208669999999927
21
-103.5245999999999924
0
LINE
8
BLACK
6
CONTINUOUS
10
171.8208669999999927
20
-103.5245999999999924
11
171.7256289999999979
21
-103.4293610000000001
0
LINE
8
BLACK
6
CONTINUOUS
10
171.7256289999999979
20
-103.4293610000000001
11
171.630391000000003
21
-103.2388849999999962
0
LINE
8
BLACK
6
CONTINUOUS
10
171.630391000000003
20
-103.2388849999999962
11
171.630391000000003
21
-102.6674569999999989
0
LINE
8
BLACK
6
CONTINUOUS
10
171.630391000000003
20
-102.6674569999999989
11
171.7256289999999979
21
-102.4769799999999975
0
LINE
8
BLACK
6
CONTINUOUS
10
171.7256289999999979
20
-102.4769799999999975
11
171.8208669999999927
21
-102.3817419999999885
0
LINE
8
BLACK
6
CONTINUOUS
10
171.8208669999999927
20
-102.3817419999999885
11
172.0113429999999823
21
-102.2865039999999937
0
LINE
8
BLACK
6
CONTINUOUS
10
172.0113429999999823
20
-102.2865039999999937
11
172.2970579999999927
21
-102.2865039999999937
0
LINE
8
BLACK
6
CONTINUOUS
10
172.2970579999999927
20
-102.2865039999999937
11
172.4875339999999824
21
-102.3817419999999885
0
LINE
8
BLACK
6
CONTINUOUS
10
172.4875339999999824
20
-102.3817419999999885
11
172.5827720000000056
21
-102.4769799999999975
0
LINE
8
BLACK
6
CONTINUOUS
10
172.5827720000000056
20
-102.4769799999999975
11
172.6780100000000004
21
-102.6674569999999989
0
LINE
8
BLACK
6
CONTINUOUS
10
172.6780100000000004
20
-102.6674569999999989
11
172.6780100000000004
21
-103.2388849999999962
0
LINE
8
BLACK
6
CONTINUOUS
10
172.6780100000000004
20
-103.2388849999999962
11
172.5827720000000056
21
-103.4293610000000001
0
LINE
8
BLACK
6
CONTINUOUS
10
172.5827720000000056
20
-103.4293610000000001
11
172.4875339999999824
21
-103.5245999999999924
0
LINE
8
BLACK
6
CONTINUOUS
10
172.4875339999999824
20
-103.5245999999999924
11
172.2970579999999927
21
-103.6198380000000014
0
LINE
8
BLACK
6
CONTINUOUS
10
172.2970579999999927
20
-103.6198380000000014
11
172.0113429999999823
21
-103.6198380000000014
0
LINE
8
BLACK
6
CONTINUOUS
10
173.8208669999999927
20
-103.6198380000000014
11
173.630391000000003
21
-103.5245999999999924
0
LINE
8
BLACK
6
CONTINUOUS
10
173.630391000000003
20
-103.5245999999999924
11
173.5351529999999798
21
-103.3341229999999911
0
LINE
8
BLACK
6
CONTINUOUS
10
173.5351529999999798
20
-103.3341229999999911
11
173.5351529999999798
21
-101.6198380000000014
0
LINE
8
BLACK
6
CONTINUOUS
10
175.3446769999999901
20
-103.5245999999999924
11
175.1542010000000005
21
-103.6198380000000014
0
LINE
8
BLACK
6
CONTINUOUS
10
175.1542010000000005
20
-103.6198380000000014
11
174.7732479999999953
21
-103.6198380000000014
0
LINE
8
BLACK
6
CONTINUOUS
10
174.7732479999999953
20
-103.6198380000000014
11
174.5827720000000056
21
-103.5245999999999924
0
LINE
8
BLACK
6
CONTINUOUS
10
174.5827720000000056
20
-103.5245999999999924
11
174.4875339999999824
21
-103.3341229999999911
0
LINE
8
BLACK
6
CONTINUOUS
10
174.4875339999999824
20
-103.3341229999999911
11
174.4875339999999824
21
-102.5722189999999898
0
LINE
8
BLACK
6
CONTINUOUS
10
174.4875339999999824
20
-102.5722189999999898
11
174.5827720000000056
21
-102.3817419999999885
0
LINE
8
BLACK
6
CONTINUOUS
10
174.5827720000000056
20
-102.3817419999999885
11
174.7732479999999953
21
-102.2865039999999937
0
LINE
8
BLACK
6
CONTINUOUS
10
174.7732479999999953
20
-102.2865039999999937
11
175.1542010000000005
21
-102.2865039999999937
0
LINE
8
BLACK
6
CONTINUOUS
10
175.1542010000000005
20
-102.2865039999999937
11
175.3446769999999901
21
-102.3817419999999885
0
LINE
8
BLACK
6
CONTINUOUS
10
175.3446769999999901
20
-102.3817419999999885
11
175.439914999999985
21
-102.5722189999999898
0
LINE
8
BLACK
6
CONTINUOUS
10
175.439914999999985
20
-102.5722189999999898
11
175.439914999999985
21
-102.7626949999999937
0
LINE
8
BLACK
6
CONTINUOUS
10
175.439914999999985
20
-102.7626949999999937
11
174.4875339999999824
21
-102.9531709999999975
0
LINE
8
BLACK
6
CONTINUOUS
10
176.2018199999999979
20
-103.5245999999999924
11
176.3922959999999875
21
-103.6198380000000014
0
LINE
8
BLACK
6
CONTINUOUS
10
176.3922959999999875
20
-103.6198380000000014
11
176.7732479999999953
21
-103.6198380000000014
0
LINE
8
BLACK
6
CONTINUOUS
10
176.7732479999999953
20
-103.6198380000000014
11
176.9637249999999824
21
-103.5245999999999924
0
LINE
8
BLACK
6
CONTINUOUS
10
176.9637249999999824
20
-103.5245999999999924
11
177.0589630000000056
21
-103.3341229999999911
0
LINE
8
BLACK
6
CONTINUOUS
10
177.0589630000000056
20
-103.3341229999999911
11
177.0589630000000056
21
-103.2388849999999962
0
LINE
8
BLACK
6
CONTINUOUS
10
177.0589630000000056
20
-103.2388849999999962
11
176.9637249999999824
21
-103.0484089999999924
0
LINE
8
BLACK
6
CONTINUOUS
10
176.9637249999999824
20
-103.0484089999999924
11
176.7732479999999953
21
-102.9531709999999975
0
LINE
8
BLACK
6
CONTINUOUS
10
176.7732479999999953
20
-102.9531709999999975
11
176.4875339999999824
21
-102.9531709999999975
0
LINE
8
BLACK
6
CONTINUOUS
10
176.4875339999999824
20
-102.9531709999999975
11
176.2970579999999927
21
-102.8579329999999885
0
LINE
8
BLACK
6
CONTINUOUS
10
176.2970579999999927
20
-102.8579329999999885
11
176.2018199999999979
21
-102.6674569999999989
0
LINE
8
BLACK
6
CONTINUOUS
10
176.2018199999999979
20
-102.6674569999999989
11
176.2018199999999979
21
-102.5722189999999898
0
LINE
8
BLACK
6
CONTINUOUS
10
176.2018199999999979
20
-102.5722189999999898
11
176.2970579999999927
21
-102.3817419999999885
0
LINE
8
BLACK
6
CONTINUOUS
10
176.2970579999999927
20
-102.3817419999999885
11
176.4875339999999824
21
-102.2865039999999937
0
LINE
8
BLACK
6
CONTINUOUS
10
176.4875339999999824
20
-102.2865039999999937
11
176.7732479999999953
21
-102.2865039999999937
0
LINE
8
BLACK
6
CONTINUOUS
10
176.7732479999999953
20
-102.2865039999999937
11
176.9637249999999824
21
-102.3817419999999885
0
LINE
8
BLACK
6
CONTINUOUS
10
179.4399159999999824
20
-102.8579329999999885
11
180.9637259999999799
21
-102.8579329999999885
0
LINE
8
BLACK
6
CONTINUOUS
10
180.2018209999999954
20
-103.6198380000000014
11
180.2018209999999954
21
-102.0960279999999898
0
LINE
8
BLACK
6
CONTINUOUS
10
183.3446779999999876
20
-101.8103139999999911
11
183.4399159999999824
21
-101.7150759999999963
0
LINE
8
BLACK
6
CONTINUOUS
10
183.4399159999999824
20
-101.7150759999999963
11
183.6303920000000005
21
-101.6198380000000014
0
LINE
8
BLACK
6
CONTINUOUS
10
183.6303920000000005
20
-101.6198380000000014
11
184.1065830000000005
21
-101.6198380000000014
0
LINE
8
BLACK
6
CONTINUOUS
10
184.1065830000000005
20
-101.6198380000000014
11
184.2970589999999902
21
-101.7150759999999963
0
LINE
8
BLACK
6
CONTINUOUS
10
184.2970589999999902
20
-101.7150759999999963
11
184.392296999999985
21
-101.8103139999999911
0
LINE
8
BLACK
6
CONTINUOUS
10
184.392296999999985
20
-101.8103139999999911
11
184.4875349999999798
21
-102.000789999999995
0
LINE
8
BLACK
6
CONTINUOUS
10
184.4875349999999798
20
-102.000789999999995
11
184.4875349999999798
21
-102.1912659999999988
0
LINE
8
BLACK
6
CONTINUOUS
10
184.4875349999999798
20
-102.1912659999999988
11
184.392296999999985
21
-102.4769799999999975
0
LINE
8
BLACK
6
CONTINUOUS
10
184.392296999999985
20
-102.4769799999999975
11
183.2494399999999928
21
-103.6198380000000014
0
LINE
8
BLACK
6
CONTINUOUS
10
183.2494399999999928
20
-103.6198380000000014
11
184.4875349999999798
21
-103.6198380000000014
0
LINE
8
BLACK
6
CONTINUOUS
10
186.7732499999999902
20
-103.5245999999999924
11
186.9637259999999799
21
-103.6198380000000014
0
LINE
8
BLACK
6
CONTINUOUS
10
186.9637259999999799
20
-103.6198380000000014
11
187.3446779999999876
21
-103.6198380000000014
0
LINE
8
BLACK
6
CONTINUOUS
10
187.3446779999999876
20
-103.6198380000000014
11
187.5351550000000032
21
-103.5245999999999924
0
LINE
8
BLACK
6
CONTINUOUS
10
187.5351550000000032
20
-103.5245999999999924
11
187.630392999999998
21
-103.3341229999999911
0
LINE
8
BLACK
6
CONTINUOUS
10
187.630392999999998
20
-103.3341229999999911
11
187.630392999999998
21
-103.2388849999999962
0
LINE
8
BLACK
6
CONTINUOUS
10
187.630392999999998
20
-103.2388849999999962
11
187.5351550000000032
21
-103.0484089999999924
0
LINE
8
BLACK
6
CONTINUOUS
10
187.5351550000000032
20
-103.0484089999999924
11
187.3446779999999876
21
-102.9531709999999975
0
LINE
8
BLACK
6
CONTINUOUS
10
187.3446779999999876
20
-102.9531709999999975
11
187.0589640000000031
21
-102.9531709999999975
0
LINE
8
BLACK
6
CONTINUOUS
10
187.0589640000000031
20
-102.9531709999999975
11
186.868487999999985
21
-102.8579329999999885
0
LINE
8
BLACK
6
CONTINUOUS
10
186.868487999999985
20
-102.8579329999999885
11
186.7732499999999902
21
-102.6674569999999989
0
LINE
8
BLACK
6
CONTINUOUS
10
186.7732499999999902
20
-102.6674569999999989
11
186.7732499999999902
21
-102.5722189999999898
0
LINE
8
BLACK
6
CONTINUOUS
10
186.7732499999999902
20
-102.5722189999999898
11
186.868487999999985
21
-102.3817419999999885
0
LINE
8
BLACK
6
CONTINUOUS
10
186.868487999999985
20
-102.3817419999999885
11
187.0589640000000031
21
-102.2865039999999937
0
LINE
8
BLACK
6
CONTINUOUS
10
187.0589640000000031
20
-102.2865039999999937
11
187.3446779999999876
21
-102.2865039999999937
0
LINE
8
BLACK
6
CONTINUOUS
10
187.3446779999999876
20
-102.2865039999999937
11
187.5351550000000032
21
-102.3817419999999885
0
LINE
8
BLACK
6
CONTINUOUS
10
188.7732499999999902
20
-103.6198380000000014
11
188.5827740000000006
21
-103.5245999999999924
0
LINE
8
BLACK
6
CONTINUOUS
10
188.5827740000000006
20
-103.5245999999999924
11
188.4875359999999773
21
-103.3341229999999911
0
LINE
8
BLACK
6
CONTINUOUS
10
188.4875359999999773
20
-103.3341229999999911
11
188.4875359999999773
21
-101.6198380000000014
0
LINE
8
BLACK
6
CONTINUOUS
10
189.8208689999999876
20
-103.6198380000000014
11
189.630392999999998
21
-103.5245999999999924
0
LINE
8
BLACK
6
CONTINUOUS
10
189.630392999999998
20
-103.5245999999999924
11
189.5351550000000032
21
-103.4293610000000001
0
LINE
8
BLACK
6
CONTINUOUS
10
189.5351550000000032
20
-103.4293610000000001
11
189.4399169999999799
21
-103.2388849999999962
0
LINE
8
BLACK
6
CONTINUOUS
10
189.4399169999999799
20
-103.2388849999999962
11
189.4399169999999799
21
-102.6674569999999989
0
LINE
8
BLACK
6
CONTINUOUS
10
189.4399169999999799
20
-102.6674569999999989
11
189.5351550000000032
21
-102.4769799999999975
0
LINE
8
BLACK
6
CONTINUOUS
10
189.5351550000000032
20
-102.4769799999999975
11
189.630392999999998
21
-102.3817419999999885
0
LINE
8
BLACK
6
CONTINUOUS
10
189.630392999999998
20
-102.3817419999999885
11
189.8208689999999876
21
-102.2865039999999937
0
LINE
8
BLACK
6
CONTINUOUS
10
189.8208689999999876
20
-102.2865039999999937
11
190.106583999999998
21
-102.2865039999999937
0
LINE
8
BLACK
6
CONTINUOUS
10
190.106583999999998
20
-102.2865039999999937
11
190.2970599999999877
21
-102.3817419999999885
0
LINE
8
BLACK
6
CONTINUOUS
10
190.2970599999999877
20
-102.3817419999999885
11
190.3922979999999825
21
-102.4769799999999975
0
LINE
8
BLACK
6
CONTINUOUS
10
190.3922979999999825
20
-102.4769799999999975
11
190.4875359999999773
21
-102.6674569999999989
0
LINE
8
BLACK
6
CONTINUOUS
10
190.4875359999999773
20
-102.6674569999999989
11
190.4875359999999773
21
-103.2388849999999962
0
LINE
8
BLACK
6
CONTINUOUS
10
190.4875359999999773
20
-103.2388849999999962
11
190.3922979999999825
21
-103.4293610000000001
0
LINE
8
BLACK
6
CONTINUOUS
10
190.3922979999999825
20
-103.4293610000000001
11
190.2970599999999877
21
-103.5245999999999924
0
LINE
8
BLACK
6
CONTINUOUS
10
190.2970599999999877
20
-103.5245999999999924
11
190.106583999999998
21
-103.6198380000000014
0
LINE
8
BLACK
6
CONTINUOUS
10
190.106583999999998
20
-103.6198380000000014
11
189.8208689999999876
21
-103.6198380000000014
0
LINE
8
BLACK
6
CONTINUOUS
10
191.0589650000000006
20
-102.2865039999999937
11
191.8208689999999876
21
-102.2865039999999937
0
LINE
8
BLACK
6
CONTINUOUS
10
191.3446789999999851
20
-101.6198380000000014
11
191.3446789999999851
21
-103.3341229999999911
0
LINE
8
BLACK
6
CONTINUOUS
10
191.3446789999999851
20
-103.3341229999999911
11
191.4399169999999799
21
-103.5245999999999924
0
LINE
8
BLACK
6
CONTINUOUS
10
191.4399169999999799
20
-103.5245999999999924
11
191.630392999999998
21
-103.6198380000000014
0
LINE
8
BLACK
6
CONTINUOUS
10
191.630392999999998
20
-103.6198380000000014
11
191.8208689999999876
21
-103.6198380000000014
0
LINE
8
BLACK
6
CONTINUOUS
10
192.3922979999999825
20
-103.5245999999999924
11
192.5827740000000006
21
-103.6198380000000014
0
LINE
8
BLACK
6
CONTINUOUS
10
192.5827740000000006
20
-103.6198380000000014
11
192.9637259999999799
21
-103.6198380000000014
0
LINE
8
BLACK
6
CONTINUOUS
10
192.9637259999999799
20
-103.6198380000000014
11
193.1542029999999954
21
-103.5245999999999924
0
LINE
8
BLACK
6
CONTINUOUS
10
193.1542029999999954
20
-103.5245999999999924
11
193.2494409999999903
21
-103.3341229999999911
0
LINE
8
BLACK
6
CONTINUOUS
10
193.2494409999999903
20
-103.3341229999999911
11
193.2494409999999903
21
-103.2388849999999962
0
LINE
8
BLACK
6
CONTINUOUS
10
193.2494409999999903
20
-103.2388849999999962
11
193.1542029999999954
21
-103.0484089999999924
0
LINE
8
BLACK
6
CONTINUOUS
10
193.1542029999999954
20
-103.0484089999999924
11
192.9637259999999799
21
-102.9531709999999975
0
LINE
8
BLACK
6
CONTINUOUS
10
192.9637259999999799
20
-102.9531709999999975
11
192.6780119999999954
21
-102.9531709999999975
0
LINE
8
BLACK
6
CONTINUOUS
10
192.6780119999999954
20
-102.9531709999999975
11
192.4875359999999773
21
-102.8579329999999885
0
LINE
8
BLACK
6
CONTINUOUS
10
192.4875359999999773
20
-102.8579329999999885
11
192.3922979999999825
21
-102.6674569999999989
0
LINE
8
BLACK
6
CONTINUOUS
10
192.3922979999999825
20
-102.6674569999999989
11
192.3922979999999825
21
-102.5722189999999898
0
LINE
8
BLACK
6
CONTINUOUS
10
192.3922979999999825
20
-102.5722189999999898
11
192.4875359999999773
21
-102.3817419999999885
0
LINE
8
BLACK
6
CONTINUOUS
10
192.4875359999999773
20
-102.3817419999999885
11
192.6780119999999954
21
-102.2865039999999937
0
LINE
8
BLACK
6
CONTINUOUS
10
192.6780119999999954
20
-102.2865039999999937
11
192.9637259999999799
21
-102.2865039999999937
0
LINE
8
BLACK
6
CONTINUOUS
10
192.9637259999999799
20
-102.2865039999999937
11
193.1542029999999954
21
-102.3817419999999885
0
LINE
8
BLACK
6
CONTINUOUS
10
193.9161079999999799
20
-104.3817419999999885
11
194.0113460000000032
21
-104.2865039999999937
0
LINE
8
BLACK
6
CONTINUOUS
10
194.0113460000000032
20
-104.2865039999999937
11
194.2018219999999928
21
-104.000789999999995
0
LINE
8
BLACK
6
CONTINUOUS
10
194.2018219999999928
20
-104.000789999999995
11
194.2970599999999877
21
-103.8103139999999911
0
LINE
8
BLACK
6
CONTINUOUS
10
194.2970599999999877
20
-103.8103139999999911
11
194.3922979999999825
21
-103.5245999999999924
0
LINE
8
BLACK
6
CONTINUOUS
10
194.3922979999999825
20
-103.5245999999999924
11
194.4875359999999773
21
-103.0484089999999924
0
LINE
8
BLACK
6
CONTINUOUS
10
194.4875359999999773
20
-103.0484089999999924
11
194.4875359999999773
21
-102.6674569999999989
0
LINE
8
BLACK
6
CONTINUOUS
10
194.4875359999999773
20
-102.6674569999999989
11
194.3922979999999825
21
-102.1912659999999988
0
LINE
8
BLACK
6
CONTINUOUS
10
194.3922979999999825
20
-102.1912659999999988
11
194.2970599999999877
21
-101.9055520000000001
0
LINE
8
BLACK
6
CONTINUOUS
10
194.2970599999999877
20
-101.9055520000000001
11
194.2018219999999928
21
-101.7150759999999963
0
LINE
8
BLACK
6
CONTINUOUS
10
194.2018219999999928
20
-101.7150759999999963
11
194.0113460000000032
21
-101.4293610000000001
0
LINE
8
BLACK
6
CONTINUOUS
10
194.0113460000000032
20
-101.4293610000000001
11
193.9161079999999799
21
-101.3341229999999911
0
LINE
8
BLACK
6
CONTINUOUS
10
129.8285569999999893
20
-105.6985569999999939
11
129.8285569999999893
21
-104.9914429999999896
0
LINE
8
BLACK
6
CONTINUOUS
10
129.8285569999999893
20
-104.9914429999999896
11
129.1214429999999993
21
-104.9914429999999896
0
LINE
8
BLACK
6
CONTINUOUS
10
129.1214429999999993
20
-104.9914429999999896
11
129.1214429999999993
21
-105.6985569999999939
0
LINE
8
BLACK
6
CONTINUOUS
10
129.1214429999999993
20
-105.6985569999999939
11
129.8285569999999893
21
-105.6985569999999939
0
LINE
8
BLACK
6
CONTINUOUS
10
133.6303869999999847
20
-106.259838000000002
11
132.4875299999999925
21
-106.259838000000002
0
LINE
8
BLACK
6
CONTINUOUS
10
133.0589579999999899
20
-106.259838000000002
11
133.0589579999999899
21
-104.259838000000002
0
LINE
8
BLACK
6
CONTINUOUS
10
133.0589579999999899
20
-104.259838000000002
11
132.8684820000000002
21
-104.5455520000000007
0
LINE
8
BLACK
6
CONTINUOUS
10
132.8684820000000002
20
-104.5455520000000007
11
132.6780059999999821
21
-104.7360279999999904
0
LINE
8
BLACK
6
CONTINUOUS
10
132.6780059999999821
20
-104.7360279999999904
11
132.4875299999999925
21
-104.8312659999999994
0
LINE
8
BLACK
6
CONTINUOUS
10
134.4875299999999925
20
-106.0693610000000007
11
134.5827679999999873
21
-106.164599999999993
0
LINE
8
BLACK
6
CONTINUOUS
10
134.5827679999999873
20
-106.164599999999993
11
134.4875299999999925
21
-106.259838000000002
0
LINE
8
BLACK
6
CONTINUOUS
10
134.4875299999999925
20
-106.259838000000002
11
134.3922919999999976
21
-106.164599999999993
0
LINE
8
BLACK
6
CONTINUOUS
10
134.3922919999999976
20
-106.164599999999993
11
134.4875299999999925
21
-106.0693610000000007
0
LINE
8
BLACK
6
CONTINUOUS
10
134.4875299999999925
20
-106.0693610000000007
11
134.4875299999999925
21
-106.259838000000002
0
LINE
8
BLACK
6
CONTINUOUS
10
135.8208630000000028
20
-104.259838000000002
11
136.0113399999999899
21
-104.259838000000002
0
LINE
8
BLACK
6
CONTINUOUS
10
136.0113399999999899
20
-104.259838000000002
11
136.201816000000008
21
-104.3550759999999968
0
LINE
8
BLACK
6
CONTINUOUS
10
136.201816000000008
20
-104.3550759999999968
11
136.2970540000000028
21
-104.4503139999999917
0
LINE
8
BLACK
6
CONTINUOUS
10
136.2970540000000028
20
-104.4503139999999917
11
136.3922919999999976
21
-104.6407899999999955
0
LINE
8
BLACK
6
CONTINUOUS
10
136.3922919999999976
20
-104.6407899999999955
11
136.4875299999999925
21
-105.021741999999989
0
LINE
8
BLACK
6
CONTINUOUS
10
136.4875299999999925
20
-105.021741999999989
11
136.4875299999999925
21
-105.4979329999999891
0
LINE
8
BLACK
6
CONTINUOUS
10
136.4875299999999925
20
-105.4979329999999891
11
136.3922919999999976
21
-105.8788849999999968
0
LINE
8
BLACK
6
CONTINUOUS
10
136.3922919999999976
20
-105.8788849999999968
11
136.2970540000000028
21
-106.0693610000000007
0
LINE
8
BLACK
6
CONTINUOUS
10
136.2970540000000028
20
-106.0693610000000007
11
136.201816000000008
21
-106.164599999999993
0
LINE
8
BLACK
6
CONTINUOUS
10
136.201816000000008
20
-106.164599999999993
11
136.0113399999999899
21
-106.259838000000002
0
LINE
8
BLACK
6
CONTINUOUS
10
136.0113399999999899
20
-106.259838000000002
11
135.8208630000000028
21
-106.259838000000002
0
LINE
8
BLACK
6
CONTINUOUS
10
135.8208630000000028
20
-106.259838000000002
11
135.6303869999999847
21
-106.164599999999993
0
LINE
8
BLACK
6
CONTINUOUS
10
135.6303869999999847
20
-106.164599999999993
11
135.5351489999999899
21
-106.0693610000000007
0
LINE
8
BLACK
6
CONTINUOUS
10
135.5351489999999899
20
-106.0693610000000007
11
135.4399109999999951
21
-105.8788849999999968
0
LINE
8
BLACK
6
CONTINUOUS
10
135.4399109999999951
20
-105.8788849999999968
11
135.3446730000000002
21
-105.4979329999999891
0
LINE
8
BLACK
6
CONTINUOUS
10
135.3446730000000002
20
-105.4979329999999891
11
135.3446730000000002
21
-105.021741999999989
0
LINE
8
BLACK
6
CONTINUOUS
10
135.3446730000000002
20
-105.021741999999989
11
135.4399109999999951
21
-104.6407899999999955
0
LINE
8
BLACK
6
CONTINUOUS
10
135.4399109999999951
20
-104.6407899999999955
11
135.5351489999999899
21
-104.4503139999999917
0
LINE
8
BLACK
6
CONTINUOUS
10
135.5351489999999899
20
-104.4503139999999917
11
135.6303869999999847
21
-104.3550759999999968
0
LINE
8
BLACK
6
CONTINUOUS
10
135.6303869999999847
20
-104.3550759999999968
11
135.8208630000000028
21
-104.259838000000002
0
LINE
8
BLACK
6
CONTINUOUS
10
137.725625000000008
20
-104.259838000000002
11
137.9161019999999951
21
-104.259838000000002
0
LINE
8
BLACK
6
CONTINUOUS
10
137.9161019999999951
20
-104.259838000000002
11
138.1065779999999847
21
-104.3550759999999968
0
LINE
8
BLACK
6
CONTINUOUS
10
138.1065779999999847
20
-104.3550759999999968
11
138.2018159999999796
21
-104.4503139999999917
0
LINE
8
BLACK
6
CONTINUOUS
10
138.2018159999999796
20
-104.4503139999999917
11
138.2970540000000028
21
-104.6407899999999955
0
LINE
8
BLACK
6
CONTINUOUS
10
138.2970540000000028
20
-104.6407899999999955
11
138.3922919999999976
21
-105.021741999999989
0
LINE
8
BLACK
6
CONTINUOUS
10
138.3922919999999976
20
-105.021741999999989
11
138.3922919999999976
21
-105.4979329999999891
0
LINE
8
BLACK
6
CONTINUOUS
10
138.3922919999999976
20
-105.4979329999999891
11
138.2970540000000028
21
-105.8788849999999968
0
LINE
8
BLACK
6
CONTINUOUS
10
138.2970540000000028
20
-105.8788849999999968
11
138.2018159999999796
21
-106.0693610000000007
0
LINE
8
BLACK
6
CONTINUOUS
10
138.2018159999999796
20
-106.0693610000000007
11
138.1065779999999847
21
-106.164599999999993
0
LINE
8
BLACK
6
CONTINUOUS
10
138.1065779999999847
20
-106.164599999999993
11
137.9161019999999951
21
-106.259838000000002
0
LINE
8
BLACK
6
CONTINUOUS
10
137.9161019999999951
20
-106.259838000000002
11
137.725625000000008
21
-106.259838000000002
0
LINE
8
BLACK
6
CONTINUOUS
10
137.725625000000008
20
-106.259838000000002
11
137.5351489999999899
21
-106.164599999999993
0
LINE
8
BLACK
6
CONTINUOUS
10
137.5351489999999899
20
-106.164599999999993
11
137.4399109999999951
21
-106.0693610000000007
0
LINE
8
BLACK
6
CONTINUOUS
10
137.4399109999999951
20
-106.0693610000000007
11
137.3446730000000002
21
-105.8788849999999968
0
LINE
8
BLACK
6
CONTINUOUS
10
137.3446730000000002
20
-105.8788849999999968
11
137.2494350000000054
21
-105.4979329999999891
0
LINE
8
BLACK
6
CONTINUOUS
10
137.2494350000000054
20
-105.4979329999999891
11
137.2494350000000054
21
-105.021741999999989
0
LINE
8
BLACK
6
CONTINUOUS
10
137.2494350000000054
20
-105.021741999999989
11
137.3446730000000002
21
-104.6407899999999955
0
LINE
8
BLACK
6
CONTINUOUS
10
137.3446730000000002
20
-104.6407899999999955
11
137.4399109999999951
21
-104.4503139999999917
0
LINE
8
BLACK
6
CONTINUOUS
10
137.4399109999999951
20
-104.4503139999999917
11
137.5351489999999899
21
-104.3550759999999968
0
LINE
8
BLACK
6
CONTINUOUS
10
137.5351489999999899
20
-104.3550759999999968
11
137.725625000000008
21
-104.259838000000002
0
LINE
8
BLACK
6
CONTINUOUS
10
139.6303869999999847
20
-104.259838000000002
11
139.8208640000000003
21
-104.259838000000002
0
LINE
8
BLACK
6
CONTINUOUS
10
139.8208640000000003
20
-104.259838000000002
11
140.0113399999999899
21
-104.3550759999999968
0
LINE
8
BLACK
6
CONTINUOUS
10
140.0113399999999899
20
-104.3550759999999968
11
140.1065779999999847
21
-104.4503139999999917
0
LINE
8
BLACK
6
CONTINUOUS
10
140.1065779999999847
20
-104.4503139999999917
11
140.2018159999999796
21
-104.6407899999999955
0
LINE
8
BLACK
6
CONTINUOUS
10
140.2018159999999796
20
-104.6407899999999955
11
140.2970540000000028
21
-105.021741999999989
0
LINE
8
BLACK
6
CONTINUOUS
10
140.2970540000000028
20
-105.021741999999989
11
140.2970540000000028
21
-105.4979329999999891
0
LINE
8
BLACK
6
CONTINUOUS
10
140.2970540000000028
20
-105.4979329999999891
11
140.2018159999999796
21
-105.8788849999999968
0
LINE
8
BLACK
6
CONTINUOUS
10
140.2018159999999796
20
-105.8788849999999968
11
140.1065779999999847
21
-106.0693610000000007
0
LINE
8
BLACK
6
CONTINUOUS
10
140.1065779999999847
20
-106.0693610000000007
11
140.0113399999999899
21
-106.164599999999993
0
LINE
8
BLACK
6
CONTINUOUS
10
140.0113399999999899
20
-106.164599999999993
11
139.8208640000000003
21
-106.259838000000002
0
LINE
8
BLACK
6
CONTINUOUS
10
139.8208640000000003
20
-106.259838000000002
11
139.6303869999999847
21
-106.259838000000002
0
LINE
8
BLACK
6
CONTINUOUS
10
139.6303869999999847
20
-106.259838000000002
11
139.4399109999999951
21
-106.164599999999993
0
LINE
8
BLACK
6
CONTINUOUS
10
139.4399109999999951
20
-106.164599999999993
11
139.3446730000000002
21
-106.0693610000000007
0
LINE
8
BLACK
6
CONTINUOUS
10
139.3446730000000002
20
-106.0693610000000007
11
139.2494350000000054
21
-105.8788849999999968
0
LINE
8
BLACK
6
CONTINUOUS
10
139.2494350000000054
20
-105.8788849999999968
11
139.1541969999999822
21
-105.4979329999999891
0
LINE
8
BLACK
6
CONTINUOUS
10
139.1541969999999822
20
-105.4979329999999891
11
139.1541969999999822
21
-105.021741999999989
0
LINE
8
BLACK
6
CONTINUOUS
10
139.1541969999999822
20
-105.021741999999989
11
139.2494350000000054
21
-104.6407899999999955
0
LINE
8
BLACK
6
CONTINUOUS
10
139.2494350000000054
20
-104.6407899999999955
11
139.3446730000000002
21
-104.4503139999999917
0
LINE
8
BLACK
6
CONTINUOUS
10
139.3446730000000002
20
-104.4503139999999917
11
139.4399109999999951
21
-104.3550759999999968
0
LINE
8
BLACK
6
CONTINUOUS
10
139.4399109999999951
20
-104.3550759999999968
11
139.6303869999999847
21
-104.259838000000002
0
LINE
8
BLACK
6
CONTINUOUS
10
141.1541969999999822
20
-106.259838000000002
11
141.1541969999999822
21
-104.9265039999999942
0
LINE
8
BLACK
6
CONTINUOUS
10
141.1541969999999822
20
-105.1169799999999981
11
141.2494350000000054
21
-105.021741999999989
0
LINE
8
BLACK
6
CONTINUOUS
10
141.2494350000000054
20
-105.021741999999989
11
141.4399109999999951
21
-104.9265039999999942
0
LINE
8
BLACK
6
CONTINUOUS
10
141.4399109999999951
20
-104.9265039999999942
11
141.7256260000000054
21
-104.9265039999999942
0
LINE
8
BLACK
6
CONTINUOUS
10
141.7256260000000054
20
-104.9265039999999942
11
141.9161019999999951
21
-105.021741999999989
0
LINE
8
BLACK
6
CONTINUOUS
10
141.9161019999999951
20
-105.021741999999989
11
142.0113399999999899
21
-105.2122189999999904
0
LINE
8
BLACK
6
CONTINUOUS
10
142.0113399999999899
20
-105.2122189999999904
11
142.0113399999999899
21
-106.259838000000002
0
LINE
8
BLACK
6
CONTINUOUS
10
142.0113399999999899
20
-105.2122189999999904
11
142.1065779999999847
21
-105.021741999999989
0
LINE
8
BLACK
6
CONTINUOUS
10
142.1065779999999847
20
-105.021741999999989
11
142.2970540000000028
21
-104.9265039999999942
0
LINE
8
BLACK
6
CONTINUOUS
10
142.2970540000000028
20
-104.9265039999999942
11
142.5827679999999873
21
-104.9265039999999942
0
LINE
8
BLACK
6
CONTINUOUS
10
142.5827679999999873
20
-104.9265039999999942
11
142.7732450000000028
21
-105.021741999999989
0
LINE
8
BLACK
6
CONTINUOUS
10
142.7732450000000028
20
-105.021741999999989
11
142.8684829999999977
21
-105.2122189999999904
0
LINE
8
BLACK
6
CONTINUOUS
10
142.8684829999999977
20
-105.2122189999999904
11
142.8684829999999977
21
-106.259838000000002
0
LINE
8
BLACK
6
CONTINUOUS
10
143.8208640000000003
20
-106.259838000000002
11
143.8208640000000003
21
-104.9265039999999942
0
LINE
8
BLACK
6
CONTINUOUS
10
143.8208640000000003
20
-105.1169799999999981
11
143.9161019999999951
21
-105.021741999999989
0
LINE
8
BLACK
6
CONTINUOUS
10
143.9161019999999951
20
-105.021741999999989
11
144.1065779999999847
21
-104.9265039999999942
0
LINE
8
BLACK
6
CONTINUOUS
10
144.1065779999999847
20
-104.9265039999999942
11
144.3922929999999951
21
-104.9265039999999942
0
LINE
8
BLACK
6
CONTINUOUS
10
144.3922929999999951
20
-104.9265039999999942
11
144.5827689999999848
21
-105.021741999999989
0
LINE
8
BLACK
6
CONTINUOUS
10
144.5827689999999848
20
-105.021741999999989
11
144.6780069999999796
21
-105.2122189999999904
0
LINE
8
BLACK
6
CONTINUOUS
10
144.6780069999999796
20
-105.2122189999999904
11
144.6780069999999796
21
-106.259838000000002
0
LINE
8
BLACK
6
CONTINUOUS
10
144.6780069999999796
20
-105.2122189999999904
11
144.7732450000000028
21
-105.021741999999989
0
LINE
8
BLACK
6
CONTINUOUS
10
144.7732450000000028
20
-105.021741999999989
11
144.9637209999999925
21
-104.9265039999999942
0
LINE
8
BLACK
6
CONTINUOUS
10
144.9637209999999925
20
-104.9265039999999942
11
145.2494350000000054
21
-104.9265039999999942
0
LINE
8
BLACK
6
CONTINUOUS
10
145.2494350000000054
20
-104.9265039999999942
11
145.4399119999999925
21
-105.021741999999989
0
LINE
8
BLACK
6
CONTINUOUS
10
145.4399119999999925
20
-105.021741999999989
11
145.5351499999999874
21
-105.2122189999999904
0
LINE
8
BLACK
6
CONTINUOUS
10
145.5351499999999874
20
-105.2122189999999904
11
145.5351499999999874
21
-106.259838000000002
0
LINE
8
BLACK
6
CONTINUOUS
10
149.4399119999999925
20
-104.164599999999993
11
147.7256270000000029
21
-106.7360279999999904
0
LINE
8
BLACK
6
CONTINUOUS
10
152.0113409999999874
20
-104.259838000000002
11
152.2018180000000029
21
-104.259838000000002
0
LINE
8
BLACK
6
CONTINUOUS
10
152.2018180000000029
20
-104.259838000000002
11
152.3922939999999926
21
-104.3550759999999968
0
LINE
8
BLACK
6
CONTINUOUS
10
152.3922939999999926
20
-104.3550759999999968
11
152.4875319999999874
21
-104.4503139999999917
0
LINE
8
BLACK
6
CONTINUOUS
10
152.4875319999999874
20
-104.4503139999999917
11
152.5827699999999822
21
-104.6407899999999955
0
LINE
8
BLACK
6
CONTINUOUS
10
152.5827699999999822
20
-104.6407899999999955
11
152.6780080000000055
21
-105.021741999999989
0
LINE
8
BLACK
6
CONTINUOUS
10
152.6780080000000055
20
-105.021741999999989
11
152.6780080000000055
21
-105.4979329999999891
0
LINE
8
BLACK
6
CONTINUOUS
10
152.6780080000000055
20
-105.4979329999999891
11
152.5827699999999822
21
-105.8788849999999968
0
LINE
8
BLACK
6
CONTINUOUS
10
152.5827699999999822
20
-105.8788849999999968
11
152.4875319999999874
21
-106.0693610000000007
0
LINE
8
BLACK
6
CONTINUOUS
10
152.4875319999999874
20
-106.0693610000000007
11
152.3922939999999926
21
-106.164599999999993
0
LINE
8
BLACK
6
CONTINUOUS
10
152.3922939999999926
20
-106.164599999999993
11
152.2018180000000029
21
-106.259838000000002
0
LINE
8
BLACK
6
CONTINUOUS
10
152.2018180000000029
20
-106.259838000000002
11
152.0113409999999874
21
-106.259838000000002
0
LINE
8
BLACK
6
CONTINUOUS
10
152.0113409999999874
20
-106.259838000000002
11
151.8208649999999977
21
-106.164599999999993
0
LINE
8
BLACK
6
CONTINUOUS
10
151.8208649999999977
20
-106.164599999999993
11
151.7256270000000029
21
-106.0693610000000007
0
LINE
8
BLACK
6
CONTINUOUS
10
151.7256270000000029
20
-106.0693610000000007
11
151.6303889999999797
21
-105.8788849999999968
0
LINE
8
BLACK
6
CONTINUOUS
10
151.6303889999999797
20
-105.8788849999999968
11
151.5351509999999848
21
-105.4979329999999891
0
LINE
8
BLACK
6
CONTINUOUS
10
151.5351509999999848
20
-105.4979329999999891
11
151.5351509999999848
21
-105.021741999999989
0
LINE
8
BLACK
6
CONTINUOUS
10
151.5351509999999848
20
-105.021741999999989
11
151.6303889999999797
21
-104.6407899999999955
0
LINE
8
BLACK
6
CONTINUOUS
10
151.6303889999999797
20
-104.6407899999999955
11
151.7256270000000029
21
-104.4503139999999917
0
LINE
8
BLACK
6
CONTINUOUS
10
151.7256270000000029
20
-104.4503139999999917
11
151.8208649999999977
21
-104.3550759999999968
0
LINE
8
BLACK
6
CONTINUOUS
10
151.8208649999999977
20
-104.3550759999999968
11
152.0113409999999874
21
-104.259838000000002
0
LINE
8
BLACK
6
CONTINUOUS
10
153.5351509999999848
20
-106.0693610000000007
11
153.6303889999999797
21
-106.164599999999993
0
LINE
8
BLACK
6
CONTINUOUS
10
153.6303889999999797
20
-106.164599999999993
11
153.5351509999999848
21
-106.259838000000002
0
LINE
8
BLACK
6
CONTINUOUS
10
153.5351509999999848
20
-106.259838000000002
11
153.43991299999999
21
-106.164599999999993
0
LINE
8
BLACK
6
CONTINUOUS
10
153.43991299999999
20
-106.164599999999993
11
153.5351509999999848
21
-106.0693610000000007
0
LINE
8
BLACK
6
CONTINUOUS
10
153.5351509999999848
20
-106.0693610000000007
11
153.5351509999999848
21
-106.259838000000002
0
LINE
8
BLACK
6
CONTINUOUS
10
154.8684839999999951
20
-104.259838000000002
11
155.0589609999999823
21
-104.259838000000002
0
LINE
8
BLACK
6
CONTINUOUS
10
155.0589609999999823
20
-104.259838000000002
11
155.2494370000000004
21
-104.3550759999999968
0
LINE
8
BLACK
6
CONTINUOUS
10
155.2494370000000004
20
-104.3550759999999968
11
155.3446749999999952
21
-104.4503139999999917
0
LINE
8
BLACK
6
CONTINUOUS
10
155.3446749999999952
20
-104.4503139999999917
11
155.43991299999999
21
-104.6407899999999955
0
LINE
8
BLACK
6
CONTINUOUS
10
155.43991299999999
20
-104.6407899999999955
11
155.5351509999999848
21
-105.021741999999989
0
LINE
8
BLACK
6
CONTINUOUS
10
155.5351509999999848
20
-105.021741999999989
11
155.5351509999999848
21
-105.4979329999999891
0
LINE
8
BLACK
6
CONTINUOUS
10
155.5351509999999848
20
-105.4979329999999891
11
155.43991299999999
21
-105.8788849999999968
0
LINE
8
BLACK
6
CONTINUOUS
10
155.43991299999999
20
-105.8788849999999968
11
155.3446749999999952
21
-106.0693610000000007
0
LINE
8
BLACK
6
CONTINUOUS
10
155.3446749999999952
20
-106.0693610000000007
11
155.2494370000000004
21
-106.164599999999993
0
LINE
8
BLACK
6
CONTINUOUS
10
155.2494370000000004
20
-106.164599999999993
11
155.0589609999999823
21
-106.259838000000002
0
LINE
8
BLACK
6
CONTINUOUS
10
155.0589609999999823
20
-106.259838000000002
11
154.8684839999999951
21
-106.259838000000002
0
LINE
8
BLACK
6
CONTINUOUS
10
154.8684839999999951
20
-106.259838000000002
11
154.6780080000000055
21
-106.164599999999993
0
LINE
8
BLACK
6
CONTINUOUS
10
154.6780080000000055
20
-106.164599999999993
11
154.5827699999999822
21
-106.0693610000000007
0
LINE
8
BLACK
6
CONTINUOUS
10
154.5827699999999822
20
-106.0693610000000007
11
154.4875319999999874
21
-105.8788849999999968
0
LINE
8
BLACK
6
CONTINUOUS
10
154.4875319999999874
20
-105.8788849999999968
11
154.3922939999999926
21
-105.4979329999999891
0
LINE
8
BLACK
6
CONTINUOUS
10
154.3922939999999926
20
-105.4979329999999891
11
154.3922939999999926
21
-105.021741999999989
0
LINE
8
BLACK
6
CONTINUOUS
10
154.3922939999999926
20
-105.021741999999989
11
154.4875319999999874
21
-104.6407899999999955
0
LINE
8
BLACK
6
CONTINUOUS
10
154.4875319999999874
20
-104.6407899999999955
11
154.5827699999999822
21
-104.4503139999999917
0
LINE
8
BLACK
6
CONTINUOUS
10
154.5827699999999822
20
-104.4503139999999917
11
154.6780080000000055
21
-104.3550759999999968
0
LINE
8
BLACK
6
CONTINUOUS
10
154.6780080000000055
20
-104.3550759999999968
11
154.8684839999999951
21
-104.259838000000002
0
LINE
8
BLACK
6
CONTINUOUS
10
156.2018180000000029
20
-104.259838000000002
11
157.43991299999999
21
-104.259838000000002
0
LINE
8
BLACK
6
CONTINUOUS
10
157.43991299999999
20
-104.259838000000002
11
156.7732460000000003
21
-105.021741999999989
0
LINE
8
BLACK
6
CONTINUOUS
10
156.7732460000000003
20
-105.021741999999989
11
157.0589609999999823
21
-105.021741999999989
0
LINE
8
BLACK
6
CONTINUOUS
10
157.0589609999999823
20
-105.021741999999989
11
157.2494370000000004
21
-105.1169799999999981
0
LINE
8
BLACK
6
CONTINUOUS
10
157.2494370000000004
20
-105.1169799999999981
11
157.3446749999999952
21
-105.2122189999999904
0
LINE
8
BLACK
6
CONTINUOUS
10
157.3446749999999952
20
-105.2122189999999904
11
157.43991299999999
21
-105.4026949999999943
0
LINE
8
BLACK
6
CONTINUOUS
10
157.43991299999999
20
-105.4026949999999943
11
157.43991299999999
21
-105.8788849999999968
0
LINE
8
BLACK
6
CONTINUOUS
10
157.43991299999999
20
-105.8788849999999968
11
157.3446749999999952
21
-106.0693610000000007
0
LINE
8
BLACK
6
CONTINUOUS
10
157.3446749999999952
20
-106.0693610000000007
11
157.2494370000000004
21
-106.164599999999993
0
LINE
8
BLACK
6
CONTINUOUS
10
157.2494370000000004
20
-106.164599999999993
11
157.0589609999999823
21
-106.259838000000002
0
LINE
8
BLACK
6
CONTINUOUS
10
157.0589609999999823
20
-106.259838000000002
11
156.4875319999999874
21
-106.259838000000002
0
LINE
8
BLACK
6
CONTINUOUS
10
156.4875319999999874
20
-106.259838000000002
11
156.2970559999999978
21
-106.164599999999993
0
LINE
8
BLACK
6
CONTINUOUS
10
156.2970559999999978
20
-106.164599999999993
11
156.2018180000000029
21
-106.0693610000000007
0
LINE
8
BLACK
6
CONTINUOUS
10
158.3922939999999926
20
-106.259838000000002
11
158.7732460000000003
21
-106.259838000000002
0
LINE
8
BLACK
6
CONTINUOUS
10
158.7732460000000003
20
-106.259838000000002
11
158.9637229999999875
21
-106.164599999999993
0
LINE
8
BLACK
6
CONTINUOUS
10
158.9637229999999875
20
-106.164599999999993
11
159.0589609999999823
21
-106.0693610000000007
0
LINE
8
BLACK
6
CONTINUOUS
10
159.0589609999999823
20
-106.0693610000000007
11
159.2494370000000004
21
-105.783647000000002
0
LINE
8
BLACK
6
CONTINUOUS
10
159.2494370000000004
20
-105.783647000000002
11
159.3446749999999952
21
-105.4026949999999943
0
LINE
8
BLACK
6
CONTINUOUS
10
159.3446749999999952
20
-105.4026949999999943
11
159.3446749999999952
21
-104.6407899999999955
0
LINE
8
BLACK
6
CONTINUOUS
10
159.3446749999999952
20
-104.6407899999999955
11
159.2494370000000004
21
-104.4503139999999917
0
LINE
8
BLACK
6
CONTINUOUS
10
159.2494370000000004
20
-104.4503139999999917
11
159.1541990000000055
21
-104.3550759999999968
0
LINE
8
BLACK
6
CONTINUOUS
10
159.1541990000000055
20
-104.3550759999999968
11
158.9637229999999875
21
-104.259838000000002
0
LINE
8
BLACK
6
CONTINUOUS
10
158.9637229999999875
20
-104.259838000000002
11
158.5827699999999822
21
-104.259838000000002
0
LINE
8
BLACK
6
CONTINUOUS
10
158.5827699999999822
20
-104.259838000000002
11
158.3922939999999926
21
-104.3550759999999968
0
LINE
8
BLACK
6
CONTINUOUS
10
158.3922939999999926
20
-104.3550759999999968
11
158.2970559999999978
21
-104.4503139999999917
0
LINE
8
BLACK
6
CONTINUOUS
10
158.2970559999999978
20
-104.4503139999999917
11
158.2018180000000029
21
-104.6407899999999955
0
LINE
8
BLACK
6
CONTINUOUS
10
158.2018180000000029
20
-104.6407899999999955
11
158.2018180000000029
21
-105.1169799999999981
0
LINE
8
BLACK
6
CONTINUOUS
10
158.2018180000000029
20
-105.1169799999999981
11
158.2970559999999978
21
-105.3074569999999994
0
LINE
8
BLACK
6
CONTINUOUS
10
158.2970559999999978
20
-105.3074569999999994
11
158.3922939999999926
21
-105.4026949999999943
0
LINE
8
BLACK
6
CONTINUOUS
10
158.3922939999999926
20
-105.4026949999999943
11
158.5827699999999822
21
-105.4979329999999891
0
LINE
8
BLACK
6
CONTINUOUS
10
158.5827699999999822
20
-105.4979329999999891
11
158.9637229999999875
21
-105.4979329999999891
0
LINE
8
BLACK
6
CONTINUOUS
10
158.9637229999999875
20
-105.4979329999999891
11
159.1541990000000055
21
-105.4026949999999943
0
LINE
8
BLACK
6
CONTINUOUS
10
159.1541990000000055
20
-105.4026949999999943
11
159.2494370000000004
21
-105.3074569999999994
0
LINE
8
BLACK
6
CONTINUOUS
10
159.2494370000000004
20
-105.3074569999999994
11
159.3446749999999952
21
-105.1169799999999981
0
LINE
8
BLACK
6
CONTINUOUS
10
161.0589609999999823
20
-104.9265039999999942
11
161.0589609999999823
21
-106.259838000000002
0
LINE
8
BLACK
6
CONTINUOUS
10
160.5827699999999822
20
-104.164599999999993
11
160.1065799999999797
21
-105.5931709999999981
0
LINE
8
BLACK
6
CONTINUOUS
10
160.1065799999999797
20
-105.5931709999999981
11
161.3446749999999952
21
-105.5931709999999981
0
LINE
8
BLACK
6
CONTINUOUS
10
162.0113419999999849
20
-104.259838000000002
11
162.0113419999999849
21
-104.6407899999999955
0
LINE
8
BLACK
6
CONTINUOUS
10
162.7732469999999978
20
-104.259838000000002
11
162.7732469999999978
21
-104.6407899999999955
0
LINE
8
BLACK
6
CONTINUOUS
10
165.7256289999999979
20
-107.021741999999989
11
165.6303900000000056
21
-106.9265039999999942
0
LINE
8
BLACK
6
CONTINUOUS
10
165.6303900000000056
20
-106.9265039999999942
11
165.4399139999999875
21
-106.6407899999999955
0
LINE
8
BLACK
6
CONTINUOUS
10
165.4399139999999875
20
-106.6407899999999955
11
165.3446759999999927
21
-106.4503139999999917
0
LINE
8
BLACK
6
CONTINUOUS
10
165.3446759999999927
20
-106.4503139999999917
11
165.2494379999999978
21
-106.164599999999993
0
LINE
8
BLACK
6
CONTINUOUS
10
165.2494379999999978
20
-106.164599999999993
11
165.154200000000003
21
-105.6884089999999929
0
LINE
8
BLACK
6
CONTINUOUS
10
165.154200000000003
20
-105.6884089999999929
11
165.154200000000003
21
-105.3074569999999994
0
LINE
8
BLACK
6
CONTINUOUS
10
165.154200000000003
20
-105.3074569999999994
11
165.2494379999999978
21
-104.8312659999999994
0
LINE
8
BLACK
6
CONTINUOUS
10
165.2494379999999978
20
-104.8312659999999994
11
165.3446759999999927
21
-104.5455520000000007
0
LINE
8
BLACK
6
CONTINUOUS
10
165.3446759999999927
20
-104.5455520000000007
11
165.4399139999999875
21
-104.3550759999999968
0
LINE
8
BLACK
6
CONTINUOUS
10
165.4399139999999875
20
-104.3550759999999968
11
165.6303900000000056
21
-104.0693610000000007
0
LINE
8
BLACK
6
CONTINUOUS
10
165.6303900000000056
20
-104.0693610000000007
11
165.7256289999999979
21
-103.9741229999999916
0
LINE
8
BLACK
6
CONTINUOUS
10
167.3446759999999927
20
-104.9265039999999942
11
167.3446759999999927
21
-106.259838000000002
0
LINE
8
BLACK
6
CONTINUOUS
10
166.8684849999999926
20
-104.164599999999993
11
166.3922949999999901
21
-105.5931709999999981
0
LINE
8
BLACK
6
CONTINUOUS
10
166.3922949999999901
20
-105.5931709999999981
11
167.6303900000000056
21
-105.5931709999999981
0
LINE
8
BLACK
6
CONTINUOUS
10
169.9161049999999875
20
-106.259838000000002
11
169.9161049999999875
21
-104.259838000000002
0
LINE
8
BLACK
6
CONTINUOUS
10
170.7732479999999953
20
-106.259838000000002
11
170.7732479999999953
21
-105.2122189999999904
0
LINE
8
BLACK
6
CONTINUOUS
10
170.7732479999999953
20
-105.2122189999999904
11
170.6780100000000004
21
-105.021741999999989
0
LINE
8
BLACK
6
CONTINUOUS
10
170.6780100000000004
20
-105.021741999999989
11
170.4875339999999824
21
-104.9265039999999942
0
LINE
8
BLACK
6
CONTINUOUS
10
170.4875339999999824
20
-104.9265039999999942
11
170.2018190000000004
21
-104.9265039999999942
0
LINE
8
BLACK
6
CONTINUOUS
10
170.2018190000000004
20
-104.9265039999999942
11
170.0113429999999823
21
-105.021741999999989
0
LINE
8
BLACK
6
CONTINUOUS
10
170.0113429999999823
20
-105.021741999999989
11
169.9161049999999875
21
-105.1169799999999981
0
LINE
8
BLACK
6
CONTINUOUS
10
172.0113429999999823
20
-106.259838000000002
11
171.8208669999999927
21
-106.164599999999993
0
LINE
8
BLACK
6
CONTINUOUS
10
171.8208669999999927
20
-106.164599999999993
11
171.7256289999999979
21
-106.0693610000000007
0
LINE
8
BLACK
6
CONTINUOUS
10
171.7256289999999979
20
-106.0693610000000007
11
171.630391000000003
21
-105.8788849999999968
0
LINE
8
BLACK
6
CONTINUOUS
10
171.630391000000003
20
-105.8788849999999968
11
171.630391000000003
21
-105.3074569999999994
0
LINE
8
BLACK
6
CONTINUOUS
10
171.630391000000003
20
-105.3074569999999994
11
171.7256289999999979
21
-105.1169799999999981
0
LINE
8
BLACK
6
CONTINUOUS
10
171.7256289999999979
20
-105.1169799999999981
11
171.8208669999999927
21
-105.021741999999989
0
LINE
8
BLACK
6
CONTINUOUS
10
171.8208669999999927
20
-105.021741999999989
11
172.0113429999999823
21
-104.9265039999999942
0
LINE
8
BLACK
6
CONTINUOUS
10
172.0113429999999823
20
-104.9265039999999942
11
172.2970579999999927
21
-104.9265039999999942
0
LINE
8
BLACK
6
CONTINUOUS
10
172.2970579999999927
20
-104.9265039999999942
11
172.4875339999999824
21
-105.021741999999989
0
LINE
8
BLACK
6
CONTINUOUS
10
172.4875339999999824
20
-105.021741999999989
11
172.5827720000000056
21
-105.1169799999999981
0
LINE
8
BLACK
6
CONTINUOUS
10
172.5827720000000056
20
-105.1169799999999981
11
172.6780100000000004
21
-105.3074569999999994
0
LINE
8
BLACK
6
CONTINUOUS
10
172.6780100000000004
20
-105.3074569999999994
11
172.6780100000000004
21
-105.8788849999999968
0
LINE
8
BLACK
6
CONTINUOUS
10
172.6780100000000004
20
-105.8788849999999968
11
172.5827720000000056
21
-106.0693610000000007
0
LINE
8
BLACK
6
CONTINUOUS
10
172.5827720000000056
20
-106.0693610000000007
11
172.4875339999999824
21
-106.164599999999993
0
LINE
8
BLACK
6
CONTINUOUS
10
172.4875339999999824
20
-106.164599999999993
11
172.2970579999999927
21
-106.259838000000002
0
LINE
8
BLACK
6
CONTINUOUS
10
172.2970579999999927
20
-106.259838000000002
11
172.0113429999999823
21
-106.259838000000002
0
LINE
8
BLACK
6
CONTINUOUS
10
173.8208669999999927
20
-106.259838000000002
11
173.630391000000003
21
-106.164599999999993
0
LINE
8
BLACK
6
CONTINUOUS
10
173.630391000000003
20
-106.164599999999993
11
173.5351529999999798
21
-105.9741229999999916
0
LINE
8
BLACK
6
CONTINUOUS
10
173.5351529999999798
20
-105.9741229999999916
11
173.5351529999999798
21
-104.259838000000002
0
LINE
8
BLACK
6
CONTINUOUS
10
175.3446769999999901
20
-106.164599999999993
11
175.1542010000000005
21
-106.259838000000002
0
LINE
8
BLACK
6
CONTINUOUS
10
175.1542010000000005
20
-106.259838000000002
11
174.7732479999999953
21
-106.259838000000002
0
LINE
8
BLACK
6
CONTINUOUS
10
174.7732479999999953
20
-106.259838000000002
11
174.5827720000000056
21
-106.164599999999993
0
LINE
8
BLACK
6
CONTINUOUS
10
174.5827720000000056
20
-106.164599999999993
11
174.4875339999999824
21
-105.9741229999999916
0
LINE
8
BLACK
6
CONTINUOUS
10
174.4875339999999824
20
-105.9741229999999916
11
174.4875339999999824
21
-105.2122189999999904
0
LINE
8
BLACK
6
CONTINUOUS
10
174.4875339999999824
20
-105.2122189999999904
11
174.5827720000000056
21
-105.021741999999989
0
LINE
8
BLACK
6
CONTINUOUS
10
174.5827720000000056
20
-105.021741999999989
11
174.7732479999999953
21
-104.9265039999999942
0
LINE
8
BLACK
6
CONTINUOUS
10
174.7732479999999953
20
-104.9265039999999942
11
175.1542010000000005
21
-104.9265039999999942
0
LINE
8
BLACK
6
CONTINUOUS
10
175.1542010000000005
20
-104.9265039999999942
11
175.3446769999999901
21
-105.021741999999989
0
LINE
8
BLACK
6
CONTINUOUS
10
175.3446769999999901
20
-105.021741999999989
11
175.439914999999985
21
-105.2122189999999904
0
LINE
8
BLACK
6
CONTINUOUS
10
175.439914999999985
20
-105.2122189999999904
11
175.439914999999985
21
-105.4026949999999943
0
LINE
8
BLACK
6
CONTINUOUS
10
175.439914999999985
20
-105.4026949999999943
11
174.4875339999999824
21
-105.5931709999999981
0
LINE
8
BLACK
6
CONTINUOUS
10
176.2018199999999979
20
-106.164599999999993
11
176.3922959999999875
21
-106.259838000000002
0
LINE
8
BLACK
6
CONTINUOUS
10
176.3922959999999875
20
-106.259838000000002
11
176.7732479999999953
21
-106.259838000000002
0
LINE
8
BLACK
6
CONTINUOUS
10
176.7732479999999953
20
-106.259838000000002
11
176.9637249999999824
21
-106.164599999999993
0
LINE
8
BLACK
6
CONTINUOUS
10
176.9637249999999824
20
-106.164599999999993
11
177.0589630000000056
21
-105.9741229999999916
0
LINE
8
BLACK
6
CONTINUOUS
10
177.0589630000000056
20
-105.9741229999999916
11
177.0589630000000056
21
-105.8788849999999968
0
LINE
8
BLACK
6
CONTINUOUS
10
177.0589630000000056
20
-105.8788849999999968
11
176.9637249999999824
21
-105.6884089999999929
0
LINE
8
BLACK
6
CONTINUOUS
10
176.9637249999999824
20
-105.6884089999999929
11
176.7732479999999953
21
-105.5931709999999981
0
LINE
8
BLACK
6
CONTINUOUS
10
176.7732479999999953
20
-105.5931709999999981
11
176.4875339999999824
21
-105.5931709999999981
0
LINE
8
BLACK
6
CONTINUOUS
10
176.4875339999999824
20
-105.5931709999999981
11
176.2970579999999927
21
-105.4979329999999891
0
LINE
8
BLACK
6
CONTINUOUS
10
176.2970579999999927
20
-105.4979329999999891
11
176.2018199999999979
21
-105.3074569999999994
0
LINE
8
BLACK
6
CONTINUOUS
10
176.2018199999999979
20
-105.3074569999999994
11
176.2018199999999979
21
-105.2122189999999904
0
LINE
8
BLACK
6
CONTINUOUS
10
176.2018199999999979
20
-105.2122189999999904
11
176.2970579999999927
21
-105.021741999999989
0
LINE
8
BLACK
6
CONTINUOUS
10
176.2970579999999927
20
-105.021741999999989
11
176.4875339999999824
21
-104.9265039999999942
0
LINE
8
BLACK
6
CONTINUOUS
10
176.4875339999999824
20
-104.9265039999999942
11
176.7732479999999953
21
-104.9265039999999942
0
LINE
8
BLACK
6
CONTINUOUS
10
176.7732479999999953
20
-104.9265039999999942
11
176.9637249999999824
21
-105.021741999999989
0
LINE
8
BLACK
6
CONTINUOUS
10
177.7256299999999953
20
-107.021741999999989
11
177.8208679999999902
21
-106.9265039999999942
0
LINE
8
BLACK
6
CONTINUOUS
10
177.8208679999999902
20
-106.9265039999999942
11
178.0113439999999798
21
-106.6407899999999955
0
LINE
8
BLACK
6
CONTINUOUS
10
178.0113439999999798
20
-106.6407899999999955
11
178.1065820000000031
21
-106.4503139999999917
0
LINE
8
BLACK
6
CONTINUOUS
10
178.1065820000000031
20
-106.4503139999999917
11
178.2018199999999979
21
-106.164599999999993
0
LINE
8
BLACK
6
CONTINUOUS
10
178.2018199999999979
20
-106.164599999999993
11
178.2970579999999927
21
-105.6884089999999929
0
LINE
8
BLACK
6
CONTINUOUS
10
178.2970579999999927
20
-105.6884089999999929
11
178.2970579999999927
21
-105.3074569999999994
0
LINE
8
BLACK
6
CONTINUOUS
10
178.2970579999999927
20
-105.3074569999999994
11
178.2018199999999979
21
-104.8312659999999994
0
LINE
8
BLACK
6
CONTINUOUS
10
178.2018199999999979
20
-104.8312659999999994
11
178.1065820000000031
21
-104.5455520000000007
0
LINE
8
BLACK
6
CONTINUOUS
10
178.1065820000000031
20
-104.5455520000000007
11
178.0113439999999798
21
-104.3550759999999968
0
LINE
8
BLACK
6
CONTINUOUS
10
178.0113439999999798
20
-104.3550759999999968
11
177.8208679999999902
21
-104.0693610000000007
0
LINE
8
BLACK
6
CONTINUOUS
10
177.8208679999999902
20
-104.0693610000000007
11
177.7256299999999953
21
-103.9741229999999916
  0
ENDSEC
  0
EOF
