G04 #@! TF.GenerationSoftware,KiCad,Pcbnew,8.0.5*
G04 #@! TF.CreationDate,2025-02-16T01:19:17+09:00*
G04 #@! TF.ProjectId,usb_serial,7573625f-7365-4726-9961-6c2e6b696361,rev?*
G04 #@! TF.SameCoordinates,Original*
G04 #@! TF.FileFunction,Copper,L2,Bot*
G04 #@! TF.FilePolarity,Positive*
%FSLAX46Y46*%
G04 Gerber Fmt 4.6, Leading zero omitted, Abs format (unit mm)*
G04 Created by KiCad (PCBNEW 8.0.5) date 2025-02-16 01:19:17*
%MOMM*%
%LPD*%
G01*
G04 APERTURE LIST*
G04 #@! TA.AperFunction,ComponentPad*
%ADD10O,1.000000X1.900000*%
G04 #@! TD*
G04 #@! TA.AperFunction,ComponentPad*
%ADD11O,1.050000X1.250000*%
G04 #@! TD*
G04 #@! TA.AperFunction,ComponentPad*
%ADD12R,1.700000X1.700000*%
G04 #@! TD*
G04 #@! TA.AperFunction,ComponentPad*
%ADD13O,1.700000X1.700000*%
G04 #@! TD*
G04 #@! TA.AperFunction,ViaPad*
%ADD14C,0.500000*%
G04 #@! TD*
G04 #@! TA.AperFunction,Conductor*
%ADD15C,0.400000*%
G04 #@! TD*
G04 #@! TA.AperFunction,Conductor*
%ADD16C,0.101600*%
G04 #@! TD*
G04 APERTURE END LIST*
D10*
X143175000Y-61550000D03*
X134825000Y-61550000D03*
D11*
X141225000Y-64550000D03*
X136775000Y-64550000D03*
D12*
X135190000Y-87400000D03*
D13*
X137730000Y-87400000D03*
X140270000Y-87400000D03*
X142810000Y-87400000D03*
D14*
X141390000Y-74820000D03*
X143970000Y-65760000D03*
X136770000Y-74190000D03*
X146840000Y-75660000D03*
X141410000Y-76770000D03*
X146710000Y-65840000D03*
X141425000Y-72225000D03*
X144200000Y-72340000D03*
X144990000Y-80180000D03*
X144290000Y-74240000D03*
X145570000Y-69480000D03*
X140290000Y-81230000D03*
X132860000Y-78190000D03*
D15*
X145130000Y-74240000D02*
X145570000Y-73800000D01*
X145570000Y-73800000D02*
X145570000Y-69480000D01*
X144290000Y-74240000D02*
X145130000Y-74240000D01*
D16*
X140270000Y-81250000D02*
X140270000Y-87400000D01*
X140290000Y-81230000D02*
X140270000Y-81250000D01*
X137730000Y-85630000D02*
X136570000Y-84470000D01*
X136570000Y-84470000D02*
X136570000Y-81900000D01*
X137730000Y-87400000D02*
X137730000Y-85630000D01*
X136570000Y-81900000D02*
X132860000Y-78190000D01*
G04 #@! TA.AperFunction,Conductor*
G36*
X133872388Y-60520185D02*
G01*
X133918143Y-60572989D01*
X133928087Y-60642147D01*
X133919910Y-60671952D01*
X133863430Y-60808306D01*
X133863427Y-60808318D01*
X133825000Y-61001504D01*
X133825000Y-61300000D01*
X134525000Y-61300000D01*
X134525000Y-61800000D01*
X133825000Y-61800000D01*
X133825000Y-62098495D01*
X133863427Y-62291681D01*
X133863430Y-62291693D01*
X133938807Y-62473671D01*
X133938814Y-62473684D01*
X134048248Y-62637462D01*
X134048251Y-62637466D01*
X134187533Y-62776748D01*
X134187537Y-62776751D01*
X134351315Y-62886185D01*
X134351328Y-62886192D01*
X134533308Y-62961569D01*
X134575000Y-62969862D01*
X134575000Y-62066988D01*
X134584940Y-62084205D01*
X134640795Y-62140060D01*
X134709204Y-62179556D01*
X134785504Y-62200000D01*
X134864496Y-62200000D01*
X134940796Y-62179556D01*
X135009205Y-62140060D01*
X135065060Y-62084205D01*
X135075000Y-62066988D01*
X135075000Y-62969862D01*
X135116690Y-62961569D01*
X135116692Y-62961569D01*
X135298671Y-62886192D01*
X135298684Y-62886185D01*
X135462462Y-62776751D01*
X135462466Y-62776748D01*
X135601748Y-62637466D01*
X135601751Y-62637462D01*
X135711185Y-62473684D01*
X135711192Y-62473671D01*
X135786569Y-62291693D01*
X135786572Y-62291681D01*
X135824999Y-62098495D01*
X135825000Y-62098492D01*
X135825000Y-61800000D01*
X135125000Y-61800000D01*
X135125000Y-61300000D01*
X135825000Y-61300000D01*
X135825000Y-61001508D01*
X135824999Y-61001504D01*
X135786572Y-60808318D01*
X135786569Y-60808306D01*
X135730090Y-60671952D01*
X135722621Y-60602483D01*
X135753896Y-60540004D01*
X135813985Y-60504352D01*
X135844651Y-60500500D01*
X142155349Y-60500500D01*
X142222388Y-60520185D01*
X142268143Y-60572989D01*
X142278087Y-60642147D01*
X142269910Y-60671952D01*
X142213430Y-60808306D01*
X142213427Y-60808318D01*
X142175000Y-61001504D01*
X142175000Y-61300000D01*
X142875000Y-61300000D01*
X142875000Y-61800000D01*
X142175000Y-61800000D01*
X142175000Y-62098495D01*
X142213427Y-62291681D01*
X142213430Y-62291693D01*
X142288807Y-62473671D01*
X142288814Y-62473684D01*
X142398248Y-62637462D01*
X142398251Y-62637466D01*
X142537533Y-62776748D01*
X142537537Y-62776751D01*
X142701315Y-62886185D01*
X142701328Y-62886192D01*
X142883308Y-62961569D01*
X142925000Y-62969862D01*
X142925000Y-62066988D01*
X142934940Y-62084205D01*
X142990795Y-62140060D01*
X143059204Y-62179556D01*
X143135504Y-62200000D01*
X143214496Y-62200000D01*
X143290796Y-62179556D01*
X143359205Y-62140060D01*
X143415060Y-62084205D01*
X143425000Y-62066988D01*
X143425000Y-62969862D01*
X143466690Y-62961569D01*
X143466692Y-62961569D01*
X143648671Y-62886192D01*
X143648684Y-62886185D01*
X143812462Y-62776751D01*
X143812466Y-62776748D01*
X143951748Y-62637466D01*
X143951751Y-62637462D01*
X144061185Y-62473684D01*
X144061192Y-62473671D01*
X144136569Y-62291693D01*
X144136572Y-62291681D01*
X144174999Y-62098495D01*
X144175000Y-62098492D01*
X144175000Y-61800000D01*
X143475000Y-61800000D01*
X143475000Y-61300000D01*
X144175000Y-61300000D01*
X144175000Y-61001508D01*
X144174999Y-61001504D01*
X144136572Y-60808318D01*
X144136569Y-60808306D01*
X144080090Y-60671952D01*
X144072621Y-60602483D01*
X144103896Y-60540004D01*
X144163985Y-60504352D01*
X144194651Y-60500500D01*
X147375500Y-60500500D01*
X147442539Y-60520185D01*
X147488294Y-60572989D01*
X147499500Y-60624500D01*
X147499500Y-89375500D01*
X147479815Y-89442539D01*
X147427011Y-89488294D01*
X147375500Y-89499500D01*
X130624500Y-89499500D01*
X130557461Y-89479815D01*
X130511706Y-89427011D01*
X130500500Y-89375500D01*
X130500500Y-86525321D01*
X134089500Y-86525321D01*
X134089500Y-88274678D01*
X134104032Y-88347735D01*
X134104033Y-88347739D01*
X134104034Y-88347740D01*
X134159399Y-88430601D01*
X134242260Y-88485966D01*
X134242264Y-88485967D01*
X134315321Y-88500499D01*
X134315324Y-88500500D01*
X134315326Y-88500500D01*
X136064676Y-88500500D01*
X136064677Y-88500499D01*
X136137740Y-88485966D01*
X136220601Y-88430601D01*
X136275966Y-88347740D01*
X136290500Y-88274674D01*
X136290500Y-86525326D01*
X136290500Y-86525323D01*
X136290499Y-86525321D01*
X136275967Y-86452264D01*
X136275966Y-86452260D01*
X136220601Y-86369399D01*
X136137740Y-86314034D01*
X136137739Y-86314033D01*
X136137735Y-86314032D01*
X136064677Y-86299500D01*
X136064674Y-86299500D01*
X134315326Y-86299500D01*
X134315323Y-86299500D01*
X134242264Y-86314032D01*
X134242260Y-86314033D01*
X134159399Y-86369399D01*
X134104033Y-86452260D01*
X134104032Y-86452264D01*
X134089500Y-86525321D01*
X130500500Y-86525321D01*
X130500500Y-78190000D01*
X132354353Y-78190000D01*
X132374834Y-78332456D01*
X132434622Y-78463371D01*
X132434623Y-78463373D01*
X132528872Y-78572143D01*
X132649947Y-78649953D01*
X132649950Y-78649954D01*
X132649949Y-78649954D01*
X132757107Y-78681417D01*
X132786152Y-78689946D01*
X132788036Y-78690499D01*
X132788038Y-78690500D01*
X132883036Y-78690500D01*
X132950075Y-78710185D01*
X132970717Y-78726819D01*
X136232381Y-81988483D01*
X136265866Y-82049806D01*
X136268700Y-82076164D01*
X136268700Y-84430333D01*
X136268700Y-84509667D01*
X136289233Y-84586298D01*
X136309066Y-84620650D01*
X136328900Y-84655003D01*
X136328902Y-84655005D01*
X136392062Y-84718165D01*
X136392068Y-84718170D01*
X137392381Y-85718483D01*
X137425866Y-85779806D01*
X137428700Y-85806164D01*
X137428700Y-86251585D01*
X137409015Y-86318624D01*
X137356211Y-86364379D01*
X137349494Y-86367211D01*
X137237373Y-86410647D01*
X137237357Y-86410655D01*
X137063960Y-86518017D01*
X137063958Y-86518019D01*
X136913237Y-86655418D01*
X136790327Y-86818178D01*
X136699422Y-87000739D01*
X136699417Y-87000752D01*
X136643602Y-87196917D01*
X136624785Y-87399999D01*
X136624785Y-87400000D01*
X136643602Y-87603082D01*
X136699417Y-87799247D01*
X136699422Y-87799260D01*
X136790327Y-87981821D01*
X136913237Y-88144581D01*
X137063958Y-88281980D01*
X137063960Y-88281982D01*
X137163141Y-88343392D01*
X137237363Y-88389348D01*
X137427544Y-88463024D01*
X137628024Y-88500500D01*
X137628026Y-88500500D01*
X137831974Y-88500500D01*
X137831976Y-88500500D01*
X138032456Y-88463024D01*
X138222637Y-88389348D01*
X138396041Y-88281981D01*
X138546764Y-88144579D01*
X138669673Y-87981821D01*
X138760582Y-87799250D01*
X138816397Y-87603083D01*
X138835215Y-87400000D01*
X138835215Y-87399999D01*
X139164785Y-87399999D01*
X139164785Y-87400000D01*
X139183602Y-87603082D01*
X139239417Y-87799247D01*
X139239422Y-87799260D01*
X139330327Y-87981821D01*
X139453237Y-88144581D01*
X139603958Y-88281980D01*
X139603960Y-88281982D01*
X139703141Y-88343392D01*
X139777363Y-88389348D01*
X139967544Y-88463024D01*
X140168024Y-88500500D01*
X140168026Y-88500500D01*
X140371974Y-88500500D01*
X140371976Y-88500500D01*
X140572456Y-88463024D01*
X140762637Y-88389348D01*
X140936041Y-88281981D01*
X141086764Y-88144579D01*
X141209673Y-87981821D01*
X141296817Y-87806812D01*
X141344319Y-87755575D01*
X141411982Y-87738153D01*
X141478323Y-87760078D01*
X141522278Y-87814389D01*
X141527592Y-87829989D01*
X141536567Y-87863485D01*
X141536570Y-87863492D01*
X141636399Y-88077578D01*
X141771894Y-88271082D01*
X141938917Y-88438105D01*
X142132421Y-88573600D01*
X142346507Y-88673429D01*
X142346516Y-88673433D01*
X142560000Y-88730634D01*
X142560000Y-87833012D01*
X142617007Y-87865925D01*
X142744174Y-87900000D01*
X142875826Y-87900000D01*
X143002993Y-87865925D01*
X143060000Y-87833012D01*
X143060000Y-88730633D01*
X143273483Y-88673433D01*
X143273492Y-88673429D01*
X143487578Y-88573600D01*
X143681082Y-88438105D01*
X143848105Y-88271082D01*
X143983600Y-88077578D01*
X144083429Y-87863492D01*
X144083432Y-87863486D01*
X144140636Y-87650000D01*
X143243012Y-87650000D01*
X143275925Y-87592993D01*
X143310000Y-87465826D01*
X143310000Y-87334174D01*
X143275925Y-87207007D01*
X143243012Y-87150000D01*
X144140636Y-87150000D01*
X144140635Y-87149999D01*
X144083432Y-86936513D01*
X144083429Y-86936507D01*
X143983600Y-86722422D01*
X143983599Y-86722420D01*
X143848113Y-86528926D01*
X143848108Y-86528920D01*
X143681082Y-86361894D01*
X143487578Y-86226399D01*
X143273492Y-86126570D01*
X143273486Y-86126567D01*
X143060000Y-86069364D01*
X143060000Y-86966988D01*
X143002993Y-86934075D01*
X142875826Y-86900000D01*
X142744174Y-86900000D01*
X142617007Y-86934075D01*
X142560000Y-86966988D01*
X142560000Y-86069364D01*
X142559999Y-86069364D01*
X142346513Y-86126567D01*
X142346507Y-86126570D01*
X142132422Y-86226399D01*
X142132420Y-86226400D01*
X141938926Y-86361886D01*
X141938920Y-86361891D01*
X141771891Y-86528920D01*
X141771886Y-86528926D01*
X141636400Y-86722420D01*
X141636399Y-86722422D01*
X141536570Y-86936507D01*
X141536568Y-86936511D01*
X141527592Y-86970011D01*
X141491226Y-87029671D01*
X141428379Y-87060199D01*
X141359003Y-87051904D01*
X141305126Y-87007418D01*
X141296817Y-86993188D01*
X141250415Y-86900000D01*
X141209673Y-86818179D01*
X141086764Y-86655421D01*
X141086762Y-86655418D01*
X140936041Y-86518019D01*
X140936039Y-86518017D01*
X140762642Y-86410655D01*
X140762641Y-86410654D01*
X140762637Y-86410652D01*
X140762632Y-86410650D01*
X140762626Y-86410647D01*
X140650506Y-86367211D01*
X140595104Y-86324638D01*
X140571514Y-86258871D01*
X140571300Y-86251585D01*
X140571300Y-81711874D01*
X140590985Y-81644835D01*
X140616041Y-81619820D01*
X140614423Y-81617953D01*
X140621120Y-81612147D01*
X140621128Y-81612143D01*
X140715377Y-81503373D01*
X140775165Y-81372457D01*
X140795647Y-81230000D01*
X140775165Y-81087543D01*
X140715377Y-80956627D01*
X140621128Y-80847857D01*
X140500053Y-80770047D01*
X140500051Y-80770046D01*
X140500049Y-80770045D01*
X140500050Y-80770045D01*
X140361963Y-80729500D01*
X140361961Y-80729500D01*
X140218039Y-80729500D01*
X140218036Y-80729500D01*
X140079949Y-80770045D01*
X139958873Y-80847856D01*
X139864623Y-80956626D01*
X139864622Y-80956628D01*
X139804834Y-81087543D01*
X139784353Y-81230000D01*
X139804834Y-81372456D01*
X139864622Y-81503371D01*
X139864623Y-81503373D01*
X139938413Y-81588532D01*
X139967438Y-81652087D01*
X139968700Y-81669734D01*
X139968700Y-86251585D01*
X139949015Y-86318624D01*
X139896211Y-86364379D01*
X139889494Y-86367211D01*
X139777373Y-86410647D01*
X139777357Y-86410655D01*
X139603960Y-86518017D01*
X139603958Y-86518019D01*
X139453237Y-86655418D01*
X139330327Y-86818178D01*
X139239422Y-87000739D01*
X139239417Y-87000752D01*
X139183602Y-87196917D01*
X139164785Y-87399999D01*
X138835215Y-87399999D01*
X138829115Y-87334174D01*
X138816397Y-87196917D01*
X138803048Y-87150000D01*
X138760582Y-87000750D01*
X138760159Y-86999901D01*
X138710415Y-86900000D01*
X138669673Y-86818179D01*
X138546764Y-86655421D01*
X138546762Y-86655418D01*
X138396041Y-86518019D01*
X138396039Y-86518017D01*
X138222642Y-86410655D01*
X138222641Y-86410654D01*
X138222637Y-86410652D01*
X138222632Y-86410650D01*
X138222626Y-86410647D01*
X138110506Y-86367211D01*
X138055104Y-86324638D01*
X138031514Y-86258871D01*
X138031300Y-86251585D01*
X138031300Y-85679669D01*
X138031301Y-85679656D01*
X138031301Y-85590335D01*
X138031301Y-85590334D01*
X138010767Y-85513702D01*
X137990933Y-85479350D01*
X137971100Y-85444997D01*
X137971098Y-85444995D01*
X137971097Y-85444993D01*
X137910684Y-85384580D01*
X137910661Y-85384559D01*
X136907619Y-84381517D01*
X136874134Y-84320194D01*
X136871300Y-84293836D01*
X136871300Y-81860335D01*
X136871300Y-81860333D01*
X136850767Y-81783703D01*
X136811100Y-81714997D01*
X136755003Y-81658900D01*
X136755002Y-81658899D01*
X133399537Y-78303435D01*
X133366053Y-78242113D01*
X133364481Y-78198106D01*
X133365647Y-78190000D01*
X133345165Y-78047543D01*
X133285377Y-77916627D01*
X133191128Y-77807857D01*
X133070053Y-77730047D01*
X133070051Y-77730046D01*
X133070049Y-77730045D01*
X133070050Y-77730045D01*
X132931963Y-77689500D01*
X132931961Y-77689500D01*
X132788039Y-77689500D01*
X132788036Y-77689500D01*
X132649949Y-77730045D01*
X132528873Y-77807856D01*
X132434623Y-77916626D01*
X132434622Y-77916628D01*
X132374834Y-78047543D01*
X132354353Y-78190000D01*
X130500500Y-78190000D01*
X130500500Y-74240000D01*
X143784353Y-74240000D01*
X143804834Y-74382456D01*
X143864622Y-74513371D01*
X143864623Y-74513373D01*
X143958872Y-74622143D01*
X144079947Y-74699953D01*
X144079950Y-74699954D01*
X144079949Y-74699954D01*
X144218036Y-74740499D01*
X144218038Y-74740500D01*
X144218039Y-74740500D01*
X144361962Y-74740500D01*
X144361962Y-74740499D01*
X144414797Y-74724985D01*
X144508563Y-74697455D01*
X144508995Y-74698926D01*
X144547727Y-74690500D01*
X145189308Y-74690500D01*
X145189309Y-74690500D01*
X145279673Y-74666286D01*
X145303887Y-74659799D01*
X145406614Y-74600489D01*
X145930489Y-74076614D01*
X145989799Y-73973887D01*
X145996285Y-73949675D01*
X145996286Y-73949675D01*
X145996286Y-73949671D01*
X146020500Y-73859309D01*
X146020500Y-69725335D01*
X146031705Y-69673825D01*
X146055165Y-69622457D01*
X146075647Y-69480000D01*
X146055165Y-69337543D01*
X145995377Y-69206627D01*
X145901128Y-69097857D01*
X145780053Y-69020047D01*
X145780051Y-69020046D01*
X145780049Y-69020045D01*
X145780050Y-69020045D01*
X145641963Y-68979500D01*
X145641961Y-68979500D01*
X145498039Y-68979500D01*
X145498036Y-68979500D01*
X145359949Y-69020045D01*
X145238873Y-69097856D01*
X145144623Y-69206626D01*
X145144622Y-69206628D01*
X145084834Y-69337543D01*
X145064353Y-69480000D01*
X145084834Y-69622453D01*
X145084834Y-69622454D01*
X145084834Y-69622455D01*
X145084835Y-69622457D01*
X145108294Y-69673825D01*
X145119500Y-69725335D01*
X145119500Y-73562035D01*
X145099815Y-73629074D01*
X145083181Y-73649716D01*
X144979716Y-73753181D01*
X144918393Y-73786666D01*
X144892035Y-73789500D01*
X144547727Y-73789500D01*
X144508995Y-73781073D01*
X144508563Y-73782545D01*
X144361963Y-73739500D01*
X144361961Y-73739500D01*
X144218039Y-73739500D01*
X144218036Y-73739500D01*
X144079949Y-73780045D01*
X143958873Y-73857856D01*
X143864623Y-73966626D01*
X143864622Y-73966628D01*
X143804834Y-74097543D01*
X143784353Y-74240000D01*
X130500500Y-74240000D01*
X130500500Y-64300000D01*
X135759756Y-64300000D01*
X136486326Y-64300000D01*
X136472149Y-64324555D01*
X136450000Y-64407213D01*
X136450000Y-64692787D01*
X136472149Y-64775445D01*
X136486326Y-64800000D01*
X135759756Y-64800000D01*
X135789387Y-64948974D01*
X135789390Y-64948983D01*
X135866652Y-65135513D01*
X135866659Y-65135526D01*
X135978829Y-65303399D01*
X135978832Y-65303403D01*
X136121596Y-65446167D01*
X136121600Y-65446170D01*
X136289473Y-65558340D01*
X136289486Y-65558347D01*
X136476016Y-65635609D01*
X136476025Y-65635612D01*
X136525000Y-65645353D01*
X136525000Y-64859618D01*
X136575446Y-64910064D01*
X136649555Y-64952851D01*
X136732213Y-64975000D01*
X136817787Y-64975000D01*
X136900445Y-64952851D01*
X136974554Y-64910064D01*
X137025000Y-64859618D01*
X137025000Y-65645352D01*
X137073974Y-65635612D01*
X137073983Y-65635609D01*
X137260513Y-65558347D01*
X137260526Y-65558340D01*
X137428399Y-65446170D01*
X137428403Y-65446167D01*
X137571167Y-65303403D01*
X137571170Y-65303399D01*
X137683340Y-65135526D01*
X137683347Y-65135513D01*
X137760609Y-64948983D01*
X137760612Y-64948974D01*
X137790244Y-64800000D01*
X137063674Y-64800000D01*
X137077851Y-64775445D01*
X137100000Y-64692787D01*
X137100000Y-64407213D01*
X137077851Y-64324555D01*
X137063674Y-64300000D01*
X137790244Y-64300000D01*
X140209756Y-64300000D01*
X140936326Y-64300000D01*
X140922149Y-64324555D01*
X140900000Y-64407213D01*
X140900000Y-64692787D01*
X140922149Y-64775445D01*
X140936326Y-64800000D01*
X140209756Y-64800000D01*
X140239387Y-64948974D01*
X140239390Y-64948983D01*
X140316652Y-65135513D01*
X140316659Y-65135526D01*
X140428829Y-65303399D01*
X140428832Y-65303403D01*
X140571596Y-65446167D01*
X140571600Y-65446170D01*
X140739473Y-65558340D01*
X140739486Y-65558347D01*
X140926016Y-65635609D01*
X140926025Y-65635612D01*
X140975000Y-65645353D01*
X140975000Y-64859618D01*
X141025446Y-64910064D01*
X141099555Y-64952851D01*
X141182213Y-64975000D01*
X141267787Y-64975000D01*
X141350445Y-64952851D01*
X141424554Y-64910064D01*
X141475000Y-64859618D01*
X141475000Y-65645352D01*
X141523974Y-65635612D01*
X141523983Y-65635609D01*
X141710513Y-65558347D01*
X141710526Y-65558340D01*
X141878399Y-65446170D01*
X141878403Y-65446167D01*
X142021167Y-65303403D01*
X142021170Y-65303399D01*
X142133340Y-65135526D01*
X142133347Y-65135513D01*
X142210609Y-64948983D01*
X142210612Y-64948974D01*
X142240244Y-64800000D01*
X141513674Y-64800000D01*
X141527851Y-64775445D01*
X141550000Y-64692787D01*
X141550000Y-64407213D01*
X141527851Y-64324555D01*
X141513674Y-64300000D01*
X142240244Y-64300000D01*
X142210612Y-64151025D01*
X142210609Y-64151016D01*
X142133347Y-63964486D01*
X142133340Y-63964473D01*
X142021170Y-63796600D01*
X142021167Y-63796596D01*
X141878403Y-63653832D01*
X141878399Y-63653829D01*
X141710526Y-63541659D01*
X141710513Y-63541652D01*
X141523984Y-63464390D01*
X141523977Y-63464388D01*
X141475000Y-63454645D01*
X141475000Y-64240382D01*
X141424554Y-64189936D01*
X141350445Y-64147149D01*
X141267787Y-64125000D01*
X141182213Y-64125000D01*
X141099555Y-64147149D01*
X141025446Y-64189936D01*
X140975000Y-64240382D01*
X140975000Y-63454646D01*
X140974999Y-63454645D01*
X140926022Y-63464388D01*
X140926015Y-63464390D01*
X140739486Y-63541652D01*
X140739473Y-63541659D01*
X140571600Y-63653829D01*
X140571596Y-63653832D01*
X140428832Y-63796596D01*
X140428829Y-63796600D01*
X140316659Y-63964473D01*
X140316652Y-63964486D01*
X140239390Y-64151016D01*
X140239387Y-64151025D01*
X140209756Y-64300000D01*
X137790244Y-64300000D01*
X137760612Y-64151025D01*
X137760609Y-64151016D01*
X137683347Y-63964486D01*
X137683340Y-63964473D01*
X137571170Y-63796600D01*
X137571167Y-63796596D01*
X137428403Y-63653832D01*
X137428399Y-63653829D01*
X137260526Y-63541659D01*
X137260513Y-63541652D01*
X137073984Y-63464390D01*
X137073977Y-63464388D01*
X137025000Y-63454645D01*
X137025000Y-64240382D01*
X136974554Y-64189936D01*
X136900445Y-64147149D01*
X136817787Y-64125000D01*
X136732213Y-64125000D01*
X136649555Y-64147149D01*
X136575446Y-64189936D01*
X136525000Y-64240382D01*
X136525000Y-63454646D01*
X136524999Y-63454645D01*
X136476022Y-63464388D01*
X136476015Y-63464390D01*
X136289486Y-63541652D01*
X136289473Y-63541659D01*
X136121600Y-63653829D01*
X136121596Y-63653832D01*
X135978832Y-63796596D01*
X135978829Y-63796600D01*
X135866659Y-63964473D01*
X135866652Y-63964486D01*
X135789390Y-64151016D01*
X135789387Y-64151025D01*
X135759756Y-64300000D01*
X130500500Y-64300000D01*
X130500500Y-60624500D01*
X130520185Y-60557461D01*
X130572989Y-60511706D01*
X130624500Y-60500500D01*
X133805349Y-60500500D01*
X133872388Y-60520185D01*
G37*
G04 #@! TD.AperFunction*
M02*
