G04 #@! TF.GenerationSoftware,KiCad,Pcbnew,8.0.5*
G04 #@! TF.CreationDate,2025-04-12T21:20:27+09:00*
G04 #@! TF.ProjectId,usb_serial,7573625f-7365-4726-9961-6c2e6b696361,rev?*
G04 #@! TF.SameCoordinates,Original*
G04 #@! TF.FileFunction,Copper,L1,Top*
G04 #@! TF.FilePolarity,Positive*
%FSLAX46Y46*%
G04 Gerber Fmt 4.6, Leading zero omitted, Abs format (unit mm)*
G04 Created by KiCad (PCBNEW 8.0.5) date 2025-04-12 21:20:27*
%MOMM*%
%LPD*%
G01*
G04 APERTURE LIST*
G04 Aperture macros list*
%AMRoundRect*
0 Rectangle with rounded corners*
0 $1 Rounding radius*
0 $2 $3 $4 $5 $6 $7 $8 $9 X,Y pos of 4 corners*
0 Add a 4 corners polygon primitive as box body*
4,1,4,$2,$3,$4,$5,$6,$7,$8,$9,$2,$3,0*
0 Add four circle primitives for the rounded corners*
1,1,$1+$1,$2,$3*
1,1,$1+$1,$4,$5*
1,1,$1+$1,$6,$7*
1,1,$1+$1,$8,$9*
0 Add four rect primitives between the rounded corners*
20,1,$1+$1,$2,$3,$4,$5,0*
20,1,$1+$1,$4,$5,$6,$7,0*
20,1,$1+$1,$6,$7,$8,$9,0*
20,1,$1+$1,$8,$9,$2,$3,0*%
G04 Aperture macros list end*
G04 #@! TA.AperFunction,SMDPad,CuDef*
%ADD10RoundRect,0.100000X0.100000X0.575000X-0.100000X0.575000X-0.100000X-0.575000X0.100000X-0.575000X0*%
G04 #@! TD*
G04 #@! TA.AperFunction,ComponentPad*
%ADD11O,0.890000X1.550000*%
G04 #@! TD*
G04 #@! TA.AperFunction,SMDPad,CuDef*
%ADD12RoundRect,0.250000X0.475000X0.525000X-0.475000X0.525000X-0.475000X-0.525000X0.475000X-0.525000X0*%
G04 #@! TD*
G04 #@! TA.AperFunction,ComponentPad*
%ADD13O,1.250000X0.950000*%
G04 #@! TD*
G04 #@! TA.AperFunction,SMDPad,CuDef*
%ADD14RoundRect,0.250000X0.500000X0.525000X-0.500000X0.525000X-0.500000X-0.525000X0.500000X-0.525000X0*%
G04 #@! TD*
G04 #@! TA.AperFunction,SMDPad,CuDef*
%ADD15R,1.300000X0.380000*%
G04 #@! TD*
G04 #@! TA.AperFunction,SMDPad,CuDef*
%ADD16RoundRect,0.140000X-0.140000X-0.170000X0.140000X-0.170000X0.140000X0.170000X-0.140000X0.170000X0*%
G04 #@! TD*
G04 #@! TA.AperFunction,SMDPad,CuDef*
%ADD17RoundRect,0.243750X0.456250X-0.243750X0.456250X0.243750X-0.456250X0.243750X-0.456250X-0.243750X0*%
G04 #@! TD*
G04 #@! TA.AperFunction,SMDPad,CuDef*
%ADD18RoundRect,0.250000X0.475000X-0.250000X0.475000X0.250000X-0.475000X0.250000X-0.475000X-0.250000X0*%
G04 #@! TD*
G04 #@! TA.AperFunction,SMDPad,CuDef*
%ADD19RoundRect,0.135000X0.135000X0.185000X-0.135000X0.185000X-0.135000X-0.185000X0.135000X-0.185000X0*%
G04 #@! TD*
G04 #@! TA.AperFunction,SMDPad,CuDef*
%ADD20RoundRect,0.243750X-0.456250X0.243750X-0.456250X-0.243750X0.456250X-0.243750X0.456250X0.243750X0*%
G04 #@! TD*
G04 #@! TA.AperFunction,ComponentPad*
%ADD21R,1.700000X1.700000*%
G04 #@! TD*
G04 #@! TA.AperFunction,ComponentPad*
%ADD22O,1.700000X1.700000*%
G04 #@! TD*
G04 #@! TA.AperFunction,SMDPad,CuDef*
%ADD23RoundRect,0.225000X-0.225000X-0.250000X0.225000X-0.250000X0.225000X0.250000X-0.225000X0.250000X0*%
G04 #@! TD*
G04 #@! TA.AperFunction,ViaPad*
%ADD24C,0.500000*%
G04 #@! TD*
G04 #@! TA.AperFunction,Conductor*
%ADD25C,0.400000*%
G04 #@! TD*
G04 #@! TA.AperFunction,Conductor*
%ADD26C,0.101600*%
G04 #@! TD*
G04 #@! TA.AperFunction,Conductor*
%ADD27C,0.200000*%
G04 #@! TD*
G04 APERTURE END LIST*
D10*
X140300000Y-64190000D03*
X139650000Y-64190000D03*
X139000000Y-64190000D03*
X138350000Y-64190000D03*
X137700000Y-64190000D03*
D11*
X142500000Y-61490000D03*
D12*
X142025000Y-61490000D03*
D13*
X141500000Y-64190000D03*
D14*
X140000000Y-61490000D03*
X138000000Y-61490000D03*
D13*
X136500000Y-64190000D03*
D12*
X135975000Y-61490000D03*
D11*
X135500000Y-61490000D03*
D15*
X135300000Y-70275000D03*
X135300000Y-70925000D03*
X135300000Y-71575000D03*
X135300000Y-72225000D03*
X135300000Y-72875000D03*
X135300000Y-73525000D03*
X135300000Y-74175000D03*
X135300000Y-74825000D03*
X135300000Y-75475000D03*
X135300000Y-76125000D03*
X135300000Y-76775000D03*
X135300000Y-77425000D03*
X135300000Y-78075000D03*
X135300000Y-78725000D03*
X142700000Y-78725000D03*
X142700000Y-78075000D03*
X142700000Y-77425000D03*
X142700000Y-76775000D03*
X142700000Y-76125000D03*
X142700000Y-75475000D03*
X142700000Y-74825000D03*
X142700000Y-74175000D03*
X142700000Y-73525000D03*
X142700000Y-72875000D03*
X142700000Y-72225000D03*
X142700000Y-71575000D03*
X142700000Y-70925000D03*
X142700000Y-70275000D03*
D16*
X144980000Y-75640000D03*
X145940000Y-75640000D03*
D17*
X146200000Y-63307500D03*
X146200000Y-61432500D03*
D16*
X144980000Y-78500000D03*
X145940000Y-78500000D03*
D17*
X132000000Y-70047500D03*
X132000000Y-68172500D03*
D18*
X145520000Y-74240000D03*
X145520000Y-72340000D03*
D19*
X132510000Y-71810000D03*
X131490000Y-71810000D03*
X146710000Y-66640000D03*
X145690000Y-66640000D03*
D20*
X132000000Y-78542500D03*
X132000000Y-80417500D03*
D19*
X132510000Y-76780000D03*
X131490000Y-76780000D03*
D21*
X142810000Y-87400000D03*
D22*
X140270000Y-87400000D03*
X137730000Y-87400000D03*
X135190000Y-87400000D03*
D23*
X142715000Y-66650000D03*
X144265000Y-66650000D03*
D24*
X137950000Y-66290000D03*
X141390000Y-74820000D03*
X144280000Y-65790000D03*
X134050000Y-74180000D03*
X146820000Y-75640000D03*
X141370000Y-71340000D03*
X141410000Y-76770000D03*
X146850000Y-78530000D03*
X146710000Y-65840000D03*
X137150000Y-65490000D03*
X137150000Y-66290000D03*
X141425000Y-72225000D03*
X137950000Y-65490000D03*
X144200000Y-72340000D03*
X144290000Y-74240000D03*
X145570000Y-69480000D03*
X133350000Y-76780000D03*
X133410000Y-71780000D03*
D25*
X141415000Y-76775000D02*
X141410000Y-76770000D01*
X135295000Y-74180000D02*
X135300000Y-74175000D01*
X141605000Y-71575000D02*
X141370000Y-71340000D01*
X142075000Y-71575000D02*
X141605000Y-71575000D01*
D26*
X146710000Y-66640000D02*
X146710000Y-65840000D01*
D25*
X146820000Y-75640000D02*
X145940000Y-75640000D01*
X145520000Y-72340000D02*
X144200000Y-72340000D01*
X146850000Y-78530000D02*
X146820000Y-78500000D01*
X134050000Y-74180000D02*
X135295000Y-74180000D01*
X142700000Y-71575000D02*
X142075000Y-71575000D01*
X142700000Y-76775000D02*
X141415000Y-76775000D01*
X144280000Y-65790000D02*
X144280000Y-66635000D01*
X141425000Y-72225000D02*
X142700000Y-72225000D01*
X144280000Y-66635000D02*
X144265000Y-66650000D01*
X142700000Y-74825000D02*
X141395000Y-74825000D01*
X146820000Y-78500000D02*
X145940000Y-78500000D01*
X141395000Y-74825000D02*
X141390000Y-74820000D01*
X144290000Y-74240000D02*
X145520000Y-74240000D01*
X145520000Y-74600000D02*
X144980000Y-75140000D01*
X142700000Y-75475000D02*
X143755000Y-75475000D01*
X145520000Y-74240000D02*
X145520000Y-74600000D01*
X140300000Y-65490000D02*
X140300000Y-64140000D01*
X142715000Y-66650000D02*
X142715000Y-65635000D01*
X142715000Y-66650000D02*
X142715000Y-68025000D01*
X144480000Y-64710000D02*
X144480000Y-61900000D01*
X144947500Y-61432500D02*
X146200000Y-61432500D01*
X142715000Y-66650000D02*
X141460000Y-66650000D01*
X142715000Y-65635000D02*
X143380000Y-64970000D01*
X144220000Y-64970000D02*
X144480000Y-64710000D01*
X143380000Y-64970000D02*
X144220000Y-64970000D01*
X144480000Y-61900000D02*
X144947500Y-61432500D01*
X143755000Y-75475000D02*
X143920000Y-75640000D01*
X144170000Y-69480000D02*
X145570000Y-69480000D01*
X144980000Y-75140000D02*
X144980000Y-75640000D01*
X141460000Y-66650000D02*
X140300000Y-65490000D01*
X143920000Y-75640000D02*
X144980000Y-75640000D01*
X142715000Y-68025000D02*
X144170000Y-69480000D01*
X137015000Y-72225000D02*
X137015000Y-69005000D01*
X137010000Y-80397500D02*
X137015000Y-80402500D01*
X144535000Y-77425000D02*
X142700000Y-77425000D01*
X132000000Y-80417500D02*
X143962500Y-80417500D01*
X143962500Y-80417500D02*
X144980000Y-79400000D01*
X137015000Y-80402500D02*
X137015000Y-72225000D01*
X144980000Y-77870000D02*
X144535000Y-77425000D01*
X136182500Y-68172500D02*
X132000000Y-68172500D01*
X137015000Y-72225000D02*
X135300000Y-72225000D01*
X137015000Y-69005000D02*
X136182500Y-68172500D01*
X144980000Y-79400000D02*
X144980000Y-77870000D01*
D26*
X131490000Y-71230000D02*
X131490000Y-71810000D01*
X132000000Y-70720000D02*
X131490000Y-71230000D01*
X132000000Y-70047500D02*
X132000000Y-70720000D01*
X131490000Y-77300000D02*
X132000000Y-77810000D01*
X132000000Y-77810000D02*
X132000000Y-78542500D01*
X131490000Y-76780000D02*
X131490000Y-77300000D01*
X145690000Y-65200000D02*
X145690000Y-66640000D01*
X146200000Y-64690000D02*
X145690000Y-65200000D01*
X146200000Y-63307500D02*
X146200000Y-64690000D01*
D27*
X139100000Y-65337501D02*
X139100000Y-77648200D01*
X140076800Y-78625000D02*
X141624999Y-78625000D01*
X141724999Y-78725000D02*
X142700000Y-78725000D01*
X141624999Y-78625000D02*
X141724999Y-78725000D01*
X139100000Y-77648200D02*
X140076800Y-78625000D01*
X139000000Y-65237501D02*
X139100000Y-65337501D01*
X139000000Y-64140000D02*
X139000000Y-65237501D01*
X139550000Y-65337501D02*
X139550000Y-77461800D01*
X140263200Y-78175000D02*
X141624999Y-78175000D01*
X139650000Y-65237501D02*
X139550000Y-65337501D01*
X141624999Y-78175000D02*
X141724999Y-78075000D01*
X139550000Y-77461800D02*
X140263200Y-78175000D01*
X139650000Y-64140000D02*
X139650000Y-65237501D01*
X141724999Y-78075000D02*
X142700000Y-78075000D01*
D26*
X133535000Y-73625000D02*
X133350000Y-73810000D01*
X133350000Y-76780000D02*
X132510000Y-76780000D01*
X134285000Y-72875000D02*
X133535000Y-73625000D01*
X133350000Y-73810000D02*
X133350000Y-76780000D01*
X135300000Y-72875000D02*
X134285000Y-72875000D01*
X135300000Y-70275000D02*
X134145000Y-70275000D01*
X134145000Y-70275000D02*
X133400000Y-71020000D01*
X133400000Y-71020000D02*
X133400000Y-71790000D01*
X133380000Y-71810000D02*
X132510000Y-71810000D01*
X133400000Y-71790000D02*
X133380000Y-71810000D01*
G04 #@! TA.AperFunction,Conductor*
G36*
X134639173Y-60520185D02*
G01*
X134684928Y-60572989D01*
X134694872Y-60642147D01*
X134675236Y-60693391D01*
X134662555Y-60712368D01*
X134662550Y-60712377D01*
X134591316Y-60884353D01*
X134591314Y-60884361D01*
X134555000Y-61066921D01*
X134555000Y-61240000D01*
X135250000Y-61240000D01*
X135250000Y-61740000D01*
X134555000Y-61740000D01*
X134555000Y-61913078D01*
X134591314Y-62095638D01*
X134591316Y-62095646D01*
X134662550Y-62267622D01*
X134662555Y-62267631D01*
X134765970Y-62422401D01*
X134765973Y-62422405D01*
X134897594Y-62554026D01*
X134897598Y-62554029D01*
X135052368Y-62657444D01*
X135052381Y-62657451D01*
X135224350Y-62728682D01*
X135224355Y-62728683D01*
X135250000Y-62733784D01*
X135250000Y-61864728D01*
X135288060Y-61956614D01*
X135358386Y-62026940D01*
X135450272Y-62065000D01*
X135549728Y-62065000D01*
X135641614Y-62026940D01*
X135711940Y-61956614D01*
X135750000Y-61864728D01*
X135750000Y-62733783D01*
X135775644Y-62728683D01*
X135775649Y-62728682D01*
X135947618Y-62657451D01*
X135947631Y-62657444D01*
X136102401Y-62554029D01*
X136102405Y-62554026D01*
X136234026Y-62422405D01*
X136234029Y-62422401D01*
X136337444Y-62267631D01*
X136337449Y-62267622D01*
X136408683Y-62095646D01*
X136408685Y-62095638D01*
X136444999Y-61913078D01*
X136445000Y-61913076D01*
X136445000Y-61740000D01*
X135750000Y-61740000D01*
X135750000Y-61240000D01*
X136445000Y-61240000D01*
X136445000Y-61066923D01*
X136444999Y-61066921D01*
X136408685Y-60884361D01*
X136408683Y-60884353D01*
X136337449Y-60712377D01*
X136337444Y-60712368D01*
X136324764Y-60693391D01*
X136303886Y-60626713D01*
X136322371Y-60559333D01*
X136374350Y-60512643D01*
X136427866Y-60500500D01*
X141572134Y-60500500D01*
X141639173Y-60520185D01*
X141684928Y-60572989D01*
X141694872Y-60642147D01*
X141675236Y-60693391D01*
X141662555Y-60712368D01*
X141662550Y-60712377D01*
X141591316Y-60884353D01*
X141591314Y-60884361D01*
X141555000Y-61066921D01*
X141555000Y-61240000D01*
X142250000Y-61240000D01*
X142250000Y-61740000D01*
X141555000Y-61740000D01*
X141555000Y-61913078D01*
X141591314Y-62095638D01*
X141591316Y-62095646D01*
X141662550Y-62267622D01*
X141662555Y-62267631D01*
X141765970Y-62422401D01*
X141765973Y-62422405D01*
X141897594Y-62554026D01*
X141897598Y-62554029D01*
X142052368Y-62657444D01*
X142052381Y-62657451D01*
X142224350Y-62728682D01*
X142224355Y-62728683D01*
X142250000Y-62733784D01*
X142250000Y-61864728D01*
X142288060Y-61956614D01*
X142358386Y-62026940D01*
X142450272Y-62065000D01*
X142549728Y-62065000D01*
X142641614Y-62026940D01*
X142711940Y-61956614D01*
X142750000Y-61864728D01*
X142750000Y-62733783D01*
X142775644Y-62728683D01*
X142775649Y-62728682D01*
X142947618Y-62657451D01*
X142947631Y-62657444D01*
X143102401Y-62554029D01*
X143102405Y-62554026D01*
X143234026Y-62422405D01*
X143234029Y-62422401D01*
X143337444Y-62267631D01*
X143337449Y-62267622D01*
X143408683Y-62095646D01*
X143408685Y-62095638D01*
X143444999Y-61913078D01*
X143445000Y-61913076D01*
X143445000Y-61740000D01*
X142750000Y-61740000D01*
X142750000Y-61240000D01*
X143445000Y-61240000D01*
X143445000Y-61066923D01*
X143444999Y-61066921D01*
X143408685Y-60884361D01*
X143408683Y-60884353D01*
X143337449Y-60712377D01*
X143337444Y-60712368D01*
X143324764Y-60693391D01*
X143303886Y-60626713D01*
X143322371Y-60559333D01*
X143374350Y-60512643D01*
X143427866Y-60500500D01*
X145487429Y-60500500D01*
X145554468Y-60520185D01*
X145600223Y-60572989D01*
X145610167Y-60642147D01*
X145581142Y-60705703D01*
X145530765Y-60740680D01*
X145507560Y-60749335D01*
X145504443Y-60750498D01*
X145390669Y-60835669D01*
X145318324Y-60932311D01*
X145262390Y-60974182D01*
X145219057Y-60982000D01*
X144888191Y-60982000D01*
X144797825Y-61006213D01*
X144797824Y-61006212D01*
X144773615Y-61012700D01*
X144773606Y-61012704D01*
X144670892Y-61072005D01*
X144670884Y-61072011D01*
X144119513Y-61623383D01*
X144119509Y-61623389D01*
X144060201Y-61726112D01*
X144060200Y-61726117D01*
X144029500Y-61840691D01*
X144029500Y-64395500D01*
X144009815Y-64462539D01*
X143957011Y-64508294D01*
X143905500Y-64519500D01*
X143320691Y-64519500D01*
X143230325Y-64543713D01*
X143230324Y-64543712D01*
X143206116Y-64550199D01*
X143206113Y-64550200D01*
X143103386Y-64609511D01*
X143103383Y-64609513D01*
X142354513Y-65358383D01*
X142354509Y-65358389D01*
X142295201Y-65461112D01*
X142295200Y-65461117D01*
X142264500Y-65575691D01*
X142264500Y-65912764D01*
X142244815Y-65979803D01*
X142214811Y-66012031D01*
X142150311Y-66060314D01*
X142083317Y-66149810D01*
X142027384Y-66191682D01*
X141984050Y-66199500D01*
X141697966Y-66199500D01*
X141630927Y-66179815D01*
X141610285Y-66163181D01*
X140786819Y-65339715D01*
X140753334Y-65278392D01*
X140750500Y-65252034D01*
X140750500Y-65182591D01*
X140770185Y-65115552D01*
X140822989Y-65069797D01*
X140892147Y-65059853D01*
X140921953Y-65068030D01*
X141065602Y-65127531D01*
X141065610Y-65127533D01*
X141249999Y-65164210D01*
X141250000Y-65164210D01*
X141250000Y-64446236D01*
X141295299Y-64465000D01*
X141704701Y-64465000D01*
X141750000Y-64446236D01*
X141750000Y-65164210D01*
X141934389Y-65127533D01*
X141934397Y-65127531D01*
X142111833Y-65054035D01*
X142111842Y-65054030D01*
X142271526Y-64947332D01*
X142271530Y-64947329D01*
X142407329Y-64811530D01*
X142407332Y-64811526D01*
X142514030Y-64651842D01*
X142514035Y-64651833D01*
X142587531Y-64474397D01*
X142587533Y-64474389D01*
X142594374Y-64440000D01*
X141765057Y-64440000D01*
X141805775Y-64423134D01*
X141883134Y-64345775D01*
X141925000Y-64244701D01*
X141925000Y-64135299D01*
X141883134Y-64034225D01*
X141805775Y-63956866D01*
X141765057Y-63940000D01*
X142594374Y-63940000D01*
X142587533Y-63905610D01*
X142587531Y-63905602D01*
X142514035Y-63728166D01*
X142514030Y-63728157D01*
X142407332Y-63568473D01*
X142407329Y-63568469D01*
X142271530Y-63432670D01*
X142271526Y-63432667D01*
X142111842Y-63325969D01*
X142111833Y-63325964D01*
X141934397Y-63252468D01*
X141934389Y-63252466D01*
X141750000Y-63215788D01*
X141750000Y-63933763D01*
X141704701Y-63915000D01*
X141295299Y-63915000D01*
X141250000Y-63933763D01*
X141250000Y-63215789D01*
X141249999Y-63215788D01*
X141065610Y-63252466D01*
X141065602Y-63252468D01*
X140888166Y-63325964D01*
X140888159Y-63325968D01*
X140804019Y-63382189D01*
X140737342Y-63403066D01*
X140669962Y-63384581D01*
X140647447Y-63366766D01*
X140606485Y-63325803D01*
X140501391Y-63274426D01*
X140433261Y-63264500D01*
X140433260Y-63264500D01*
X140166740Y-63264500D01*
X140166739Y-63264500D01*
X140098607Y-63274426D01*
X140098606Y-63274426D01*
X140029459Y-63308230D01*
X139960586Y-63319988D01*
X139920541Y-63308230D01*
X139851393Y-63274426D01*
X139783261Y-63264500D01*
X139783260Y-63264500D01*
X139516740Y-63264500D01*
X139516739Y-63264500D01*
X139448607Y-63274426D01*
X139448606Y-63274426D01*
X139379459Y-63308230D01*
X139310586Y-63319988D01*
X139270541Y-63308230D01*
X139201393Y-63274426D01*
X139133261Y-63264500D01*
X139133260Y-63264500D01*
X138866740Y-63264500D01*
X138866739Y-63264500D01*
X138798607Y-63274426D01*
X138798606Y-63274426D01*
X138729459Y-63308230D01*
X138660586Y-63319988D01*
X138620541Y-63308230D01*
X138551393Y-63274426D01*
X138483261Y-63264500D01*
X138483260Y-63264500D01*
X138216740Y-63264500D01*
X138216739Y-63264500D01*
X138148608Y-63274426D01*
X138043514Y-63325803D01*
X137960803Y-63408514D01*
X137909426Y-63513608D01*
X137899500Y-63581739D01*
X137899500Y-64798260D01*
X137909426Y-64866391D01*
X137960803Y-64971485D01*
X138043514Y-65054196D01*
X138043515Y-65054196D01*
X138043517Y-65054198D01*
X138148607Y-65105573D01*
X138182673Y-65110536D01*
X138216739Y-65115500D01*
X138216740Y-65115500D01*
X138483258Y-65115500D01*
X138483260Y-65115500D01*
X138507622Y-65111950D01*
X138576797Y-65121762D01*
X138629688Y-65167416D01*
X138649500Y-65234418D01*
X138649500Y-65283644D01*
X138662051Y-65330488D01*
X138673385Y-65372786D01*
X138673387Y-65372791D01*
X138719528Y-65452711D01*
X138723873Y-65458372D01*
X138749070Y-65523540D01*
X138749500Y-65533862D01*
X138749500Y-77694345D01*
X138769860Y-77770331D01*
X138773385Y-77783486D01*
X138773387Y-77783491D01*
X138819527Y-77863408D01*
X138819529Y-77863411D01*
X138819530Y-77863412D01*
X139861588Y-78905470D01*
X139941512Y-78951614D01*
X140030656Y-78975500D01*
X140122944Y-78975500D01*
X141428639Y-78975500D01*
X141495678Y-78995185D01*
X141504128Y-79001126D01*
X141509783Y-79005465D01*
X141509787Y-79005469D01*
X141509791Y-79005471D01*
X141509792Y-79005472D01*
X141589705Y-79051611D01*
X141589706Y-79051611D01*
X141589711Y-79051614D01*
X141678855Y-79075500D01*
X141801700Y-79075500D01*
X141868739Y-79095185D01*
X141870590Y-79096397D01*
X141952260Y-79150966D01*
X141952263Y-79150966D01*
X141952264Y-79150967D01*
X142025321Y-79165499D01*
X142025324Y-79165500D01*
X142025326Y-79165500D01*
X143374676Y-79165500D01*
X143374677Y-79165499D01*
X143447740Y-79150966D01*
X143530601Y-79095601D01*
X143585966Y-79012740D01*
X143600500Y-78939674D01*
X143600500Y-78510326D01*
X143600500Y-78510323D01*
X143600499Y-78510321D01*
X143583584Y-78425281D01*
X143587720Y-78424458D01*
X143582710Y-78378032D01*
X143583677Y-78374737D01*
X143583584Y-78374719D01*
X143600499Y-78289678D01*
X143600500Y-78289676D01*
X143600500Y-77999500D01*
X143620185Y-77932461D01*
X143672989Y-77886706D01*
X143724500Y-77875500D01*
X144297035Y-77875500D01*
X144364074Y-77895185D01*
X144384716Y-77911819D01*
X144473437Y-78000540D01*
X144506922Y-78061863D01*
X144501938Y-78131555D01*
X144496241Y-78144516D01*
X144463981Y-78207827D01*
X144463981Y-78207828D01*
X144449500Y-78299264D01*
X144449500Y-78700739D01*
X144463981Y-78792170D01*
X144463981Y-78792171D01*
X144463982Y-78792174D01*
X144463983Y-78792175D01*
X144515985Y-78894235D01*
X144529500Y-78950528D01*
X144529500Y-79162035D01*
X144509815Y-79229074D01*
X144493181Y-79249716D01*
X143812216Y-79930681D01*
X143750893Y-79964166D01*
X143724535Y-79967000D01*
X137589500Y-79967000D01*
X137522461Y-79947315D01*
X137476706Y-79894511D01*
X137465500Y-79843000D01*
X137465500Y-68945693D01*
X137465500Y-68945691D01*
X137434799Y-68831114D01*
X137434799Y-68831113D01*
X137434799Y-68831112D01*
X137375492Y-68728389D01*
X137375488Y-68728384D01*
X136459116Y-67812013D01*
X136459114Y-67812011D01*
X136407750Y-67782356D01*
X136356388Y-67752701D01*
X136344280Y-67749457D01*
X136332173Y-67746213D01*
X136332170Y-67746212D01*
X136293978Y-67735978D01*
X136241809Y-67722000D01*
X136241808Y-67722000D01*
X132980943Y-67722000D01*
X132913904Y-67702315D01*
X132881676Y-67672311D01*
X132878840Y-67668523D01*
X132809331Y-67575669D01*
X132740962Y-67524489D01*
X132695556Y-67490498D01*
X132695554Y-67490497D01*
X132562391Y-67440829D01*
X132562389Y-67440828D01*
X132562387Y-67440828D01*
X132503529Y-67434500D01*
X131496482Y-67434500D01*
X131496473Y-67434501D01*
X131437608Y-67440828D01*
X131304445Y-67490497D01*
X131190669Y-67575669D01*
X131105498Y-67689443D01*
X131055828Y-67822612D01*
X131049500Y-67881462D01*
X131049500Y-68463517D01*
X131049501Y-68463526D01*
X131055828Y-68522391D01*
X131093355Y-68623000D01*
X131105497Y-68655554D01*
X131190669Y-68769331D01*
X131304446Y-68854503D01*
X131437609Y-68904171D01*
X131496479Y-68910500D01*
X132503520Y-68910499D01*
X132562391Y-68904171D01*
X132695554Y-68854503D01*
X132809331Y-68769331D01*
X132881676Y-68672689D01*
X132937610Y-68630818D01*
X132980943Y-68623000D01*
X135944535Y-68623000D01*
X136011574Y-68642685D01*
X136032216Y-68659319D01*
X136528181Y-69155284D01*
X136561666Y-69216607D01*
X136564500Y-69242965D01*
X136564500Y-71650500D01*
X136544815Y-71717539D01*
X136492011Y-71763294D01*
X136440500Y-71774500D01*
X136324500Y-71774500D01*
X136257461Y-71754815D01*
X136211706Y-71702011D01*
X136200500Y-71650500D01*
X136200500Y-71360323D01*
X136200499Y-71360321D01*
X136183584Y-71275281D01*
X136187720Y-71274458D01*
X136182710Y-71228032D01*
X136183677Y-71224737D01*
X136183584Y-71224719D01*
X136200499Y-71139678D01*
X136200500Y-71139673D01*
X136200500Y-70710323D01*
X136200499Y-70710321D01*
X136183584Y-70625281D01*
X136187720Y-70624458D01*
X136182710Y-70578032D01*
X136183677Y-70574737D01*
X136183584Y-70574719D01*
X136200499Y-70489678D01*
X136200500Y-70489676D01*
X136200500Y-70060323D01*
X136200499Y-70060321D01*
X136185967Y-69987264D01*
X136185966Y-69987260D01*
X136181449Y-69980500D01*
X136130601Y-69904399D01*
X136047740Y-69849034D01*
X136047739Y-69849033D01*
X136047735Y-69849032D01*
X135974677Y-69834500D01*
X135974674Y-69834500D01*
X134625326Y-69834500D01*
X134625323Y-69834500D01*
X134552264Y-69849032D01*
X134552260Y-69849034D01*
X134469401Y-69904397D01*
X134469397Y-69904401D01*
X134459915Y-69918592D01*
X134406302Y-69963397D01*
X134356814Y-69973700D01*
X134105333Y-69973700D01*
X134028700Y-69994233D01*
X133959997Y-70033900D01*
X133959994Y-70033902D01*
X133504223Y-70489674D01*
X133214999Y-70778898D01*
X133214997Y-70778900D01*
X133158900Y-70834997D01*
X133158149Y-70836298D01*
X133155995Y-70840029D01*
X133119233Y-70903700D01*
X133119233Y-70903702D01*
X133112534Y-70928702D01*
X133098700Y-70980331D01*
X133098700Y-71234159D01*
X133079015Y-71301198D01*
X133026211Y-71346953D01*
X132957053Y-71356897D01*
X132893497Y-71327872D01*
X132887019Y-71321840D01*
X132872102Y-71306923D01*
X132872099Y-71306921D01*
X132756521Y-71250419D01*
X132756519Y-71250418D01*
X132756518Y-71250418D01*
X132681582Y-71239500D01*
X132338418Y-71239500D01*
X132284892Y-71247298D01*
X132263480Y-71250418D01*
X132211486Y-71275837D01*
X132142612Y-71287595D01*
X132078316Y-71260252D01*
X132039009Y-71202487D01*
X132037171Y-71132642D01*
X132069343Y-71076757D01*
X132185000Y-70961101D01*
X132185003Y-70961100D01*
X132241100Y-70905003D01*
X132260933Y-70870650D01*
X132274301Y-70847497D01*
X132324869Y-70799282D01*
X132381687Y-70785499D01*
X132503517Y-70785499D01*
X132503520Y-70785499D01*
X132562391Y-70779171D01*
X132695554Y-70729503D01*
X132809331Y-70644331D01*
X132894503Y-70530554D01*
X132944171Y-70397391D01*
X132946536Y-70375383D01*
X132950499Y-70338537D01*
X132950499Y-70338526D01*
X132950500Y-70338521D01*
X132950499Y-69756480D01*
X132944171Y-69697609D01*
X132894503Y-69564446D01*
X132809331Y-69450669D01*
X132740962Y-69399489D01*
X132695556Y-69365498D01*
X132695554Y-69365497D01*
X132562391Y-69315829D01*
X132562389Y-69315828D01*
X132562387Y-69315828D01*
X132503529Y-69309500D01*
X131496482Y-69309500D01*
X131496473Y-69309501D01*
X131437608Y-69315828D01*
X131304445Y-69365497D01*
X131190669Y-69450669D01*
X131105498Y-69564443D01*
X131055828Y-69697612D01*
X131049500Y-69756462D01*
X131049500Y-70338517D01*
X131049501Y-70338526D01*
X131055828Y-70397391D01*
X131105497Y-70530554D01*
X131190669Y-70644331D01*
X131304446Y-70729503D01*
X131312996Y-70732692D01*
X131368929Y-70774564D01*
X131393345Y-70840029D01*
X131378492Y-70908302D01*
X131357343Y-70936553D01*
X131305000Y-70988897D01*
X131304999Y-70988898D01*
X131248902Y-71044994D01*
X131248900Y-71044997D01*
X131229066Y-71079350D01*
X131229065Y-71079350D01*
X131209232Y-71113703D01*
X131209231Y-71113703D01*
X131202274Y-71139673D01*
X131202274Y-71139674D01*
X131188700Y-71190333D01*
X131188700Y-71199795D01*
X131169015Y-71266834D01*
X131134096Y-71297930D01*
X131136257Y-71300956D01*
X131127895Y-71306926D01*
X131036923Y-71397897D01*
X131036921Y-71397900D01*
X130980419Y-71513478D01*
X130980418Y-71513480D01*
X130980418Y-71513482D01*
X130969500Y-71588418D01*
X130969500Y-72031582D01*
X130980418Y-72106518D01*
X130980418Y-72106519D01*
X130980419Y-72106521D01*
X131036921Y-72222099D01*
X131036923Y-72222102D01*
X131127897Y-72313076D01*
X131127900Y-72313078D01*
X131238656Y-72367222D01*
X131243482Y-72369582D01*
X131318418Y-72380500D01*
X131318423Y-72380500D01*
X131661577Y-72380500D01*
X131661582Y-72380500D01*
X131736518Y-72369582D01*
X131794310Y-72341329D01*
X131852099Y-72313078D01*
X131852102Y-72313076D01*
X131912319Y-72252860D01*
X131973642Y-72219375D01*
X132043334Y-72224359D01*
X132087681Y-72252860D01*
X132147897Y-72313076D01*
X132147900Y-72313078D01*
X132258656Y-72367222D01*
X132263482Y-72369582D01*
X132338418Y-72380500D01*
X132338423Y-72380500D01*
X132681577Y-72380500D01*
X132681582Y-72380500D01*
X132756518Y-72369582D01*
X132814310Y-72341329D01*
X132872099Y-72313078D01*
X132872102Y-72313076D01*
X132970342Y-72214837D01*
X132972206Y-72216701D01*
X133015181Y-72182981D01*
X133084741Y-72176414D01*
X133128181Y-72193832D01*
X133199947Y-72239953D01*
X133199950Y-72239954D01*
X133199949Y-72239954D01*
X133338036Y-72280499D01*
X133338038Y-72280500D01*
X133338039Y-72280500D01*
X133481962Y-72280500D01*
X133481962Y-72280499D01*
X133620053Y-72239953D01*
X133741128Y-72162143D01*
X133835377Y-72053373D01*
X133895165Y-71922457D01*
X133915647Y-71780000D01*
X133895165Y-71637543D01*
X133835377Y-71506627D01*
X133835375Y-71506625D01*
X133835374Y-71506622D01*
X133735321Y-71391154D01*
X133737128Y-71389587D01*
X133706320Y-71341642D01*
X133701300Y-71306716D01*
X133701300Y-71196164D01*
X133720985Y-71129125D01*
X133737619Y-71108483D01*
X133975452Y-70870650D01*
X134187820Y-70658281D01*
X134249142Y-70624798D01*
X134318834Y-70629782D01*
X134374767Y-70671654D01*
X134399184Y-70737118D01*
X134399500Y-70745964D01*
X134399500Y-71139674D01*
X134416416Y-71224717D01*
X134412291Y-71225537D01*
X134417264Y-71272103D01*
X134416335Y-71275266D01*
X134416416Y-71275283D01*
X134399500Y-71360323D01*
X134399500Y-71360326D01*
X134399500Y-71789674D01*
X134399500Y-71789676D01*
X134399499Y-71789676D01*
X134416416Y-71874717D01*
X134412291Y-71875537D01*
X134417264Y-71922103D01*
X134416335Y-71925266D01*
X134416416Y-71925283D01*
X134399500Y-72010323D01*
X134399500Y-72445766D01*
X134397734Y-72445766D01*
X134386265Y-72506205D01*
X134338194Y-72556910D01*
X134275887Y-72573700D01*
X134245333Y-72573700D01*
X134168700Y-72594233D01*
X134099997Y-72633900D01*
X134099994Y-72633902D01*
X133533898Y-73200000D01*
X133349998Y-73383900D01*
X133164999Y-73568898D01*
X133164997Y-73568900D01*
X133136948Y-73596949D01*
X133108899Y-73624997D01*
X133104595Y-73632453D01*
X133069233Y-73693701D01*
X133069232Y-73693706D01*
X133048700Y-73770333D01*
X133048700Y-76164612D01*
X133029015Y-76231651D01*
X132976211Y-76277406D01*
X132907053Y-76287350D01*
X132870240Y-76276013D01*
X132756519Y-76220418D01*
X132744028Y-76218598D01*
X132681582Y-76209500D01*
X132338418Y-76209500D01*
X132263482Y-76220418D01*
X132263480Y-76220418D01*
X132263478Y-76220419D01*
X132147900Y-76276921D01*
X132147897Y-76276923D01*
X132087681Y-76337140D01*
X132026358Y-76370625D01*
X131956666Y-76365641D01*
X131912319Y-76337140D01*
X131852102Y-76276923D01*
X131852099Y-76276921D01*
X131736521Y-76220419D01*
X131736519Y-76220418D01*
X131736518Y-76220418D01*
X131661582Y-76209500D01*
X131318418Y-76209500D01*
X131243482Y-76220418D01*
X131243480Y-76220418D01*
X131243478Y-76220419D01*
X131127900Y-76276921D01*
X131127897Y-76276923D01*
X131036923Y-76367897D01*
X131036921Y-76367900D01*
X130980419Y-76483478D01*
X130980418Y-76483480D01*
X130980418Y-76483482D01*
X130969500Y-76558418D01*
X130969500Y-77001582D01*
X130980418Y-77076518D01*
X130980418Y-77076519D01*
X130980419Y-77076521D01*
X131036921Y-77192099D01*
X131036923Y-77192102D01*
X131127895Y-77283074D01*
X131127896Y-77283074D01*
X131127898Y-77283076D01*
X131129709Y-77283961D01*
X131131754Y-77285830D01*
X131136259Y-77289046D01*
X131135870Y-77289590D01*
X131181291Y-77331089D01*
X131195024Y-77363269D01*
X131209233Y-77416298D01*
X131211073Y-77419485D01*
X131211078Y-77419503D01*
X131211083Y-77419501D01*
X131248899Y-77485001D01*
X131248901Y-77485004D01*
X131312062Y-77548165D01*
X131312068Y-77548170D01*
X131401043Y-77637145D01*
X131434528Y-77698468D01*
X131429544Y-77768160D01*
X131387672Y-77824093D01*
X131356698Y-77841007D01*
X131304444Y-77860497D01*
X131190669Y-77945669D01*
X131105498Y-78059443D01*
X131055828Y-78192612D01*
X131049500Y-78251462D01*
X131049500Y-78833517D01*
X131049501Y-78833526D01*
X131055828Y-78892391D01*
X131105497Y-79025554D01*
X131190669Y-79139331D01*
X131304446Y-79224503D01*
X131437609Y-79274171D01*
X131496479Y-79280500D01*
X132503520Y-79280499D01*
X132562391Y-79274171D01*
X132695554Y-79224503D01*
X132809331Y-79139331D01*
X132894503Y-79025554D01*
X132944171Y-78892391D01*
X132946536Y-78870383D01*
X132950499Y-78833537D01*
X132950499Y-78833526D01*
X132950500Y-78833521D01*
X132950499Y-78251480D01*
X132944171Y-78192609D01*
X132894503Y-78059446D01*
X132809331Y-77945669D01*
X132715596Y-77875500D01*
X132695556Y-77860498D01*
X132695554Y-77860497D01*
X132562391Y-77810829D01*
X132562389Y-77810828D01*
X132562387Y-77810828D01*
X132503537Y-77804500D01*
X132503521Y-77804500D01*
X132405604Y-77804500D01*
X132338565Y-77784815D01*
X132292810Y-77732011D01*
X132285830Y-77712595D01*
X132282888Y-77701617D01*
X132280767Y-77693702D01*
X132260933Y-77659350D01*
X132260931Y-77659347D01*
X132241100Y-77624997D01*
X132241098Y-77624995D01*
X132241097Y-77624993D01*
X132180684Y-77564580D01*
X132180661Y-77564559D01*
X132167458Y-77551356D01*
X132133973Y-77490033D01*
X132138957Y-77420341D01*
X132180829Y-77364408D01*
X132246293Y-77339991D01*
X132273014Y-77340970D01*
X132312864Y-77346776D01*
X132338417Y-77350500D01*
X132338418Y-77350500D01*
X132681577Y-77350500D01*
X132681582Y-77350500D01*
X132756518Y-77339582D01*
X132814310Y-77311329D01*
X132872099Y-77283078D01*
X132872100Y-77283076D01*
X132872102Y-77283076D01*
X132932486Y-77222691D01*
X132993807Y-77189208D01*
X133063499Y-77194192D01*
X133087205Y-77206058D01*
X133139949Y-77239954D01*
X133278036Y-77280499D01*
X133278038Y-77280500D01*
X133278039Y-77280500D01*
X133421962Y-77280500D01*
X133421962Y-77280499D01*
X133560053Y-77239953D01*
X133681128Y-77162143D01*
X133775377Y-77053373D01*
X133835165Y-76922457D01*
X133855647Y-76780000D01*
X133835165Y-76637543D01*
X133775377Y-76506627D01*
X133705113Y-76425537D01*
X133681586Y-76398385D01*
X133652562Y-76334829D01*
X133651300Y-76317183D01*
X133651300Y-75039676D01*
X134399499Y-75039676D01*
X134416416Y-75124717D01*
X134412291Y-75125537D01*
X134417264Y-75172103D01*
X134416335Y-75175266D01*
X134416416Y-75175283D01*
X134399500Y-75260323D01*
X134399500Y-75260326D01*
X134399500Y-75689674D01*
X134399500Y-75689676D01*
X134399499Y-75689676D01*
X134416416Y-75774717D01*
X134412291Y-75775537D01*
X134417264Y-75822103D01*
X134416335Y-75825266D01*
X134416416Y-75825283D01*
X134399500Y-75910323D01*
X134399500Y-75910326D01*
X134399500Y-76339674D01*
X134399500Y-76339676D01*
X134399499Y-76339676D01*
X134416416Y-76424717D01*
X134412291Y-76425537D01*
X134417264Y-76472103D01*
X134416335Y-76475266D01*
X134416416Y-76475283D01*
X134399500Y-76560323D01*
X134399500Y-76560326D01*
X134399500Y-76989674D01*
X134399500Y-76989676D01*
X134399499Y-76989676D01*
X134416416Y-77074717D01*
X134412291Y-77075537D01*
X134417264Y-77122103D01*
X134416335Y-77125266D01*
X134416416Y-77125283D01*
X134399500Y-77210323D01*
X134399500Y-77210326D01*
X134399500Y-77639674D01*
X134399500Y-77639676D01*
X134399499Y-77639676D01*
X134416416Y-77724717D01*
X134412291Y-77725537D01*
X134417264Y-77772103D01*
X134416335Y-77775266D01*
X134416416Y-77775283D01*
X134399500Y-77860323D01*
X134399500Y-77860326D01*
X134399500Y-78289674D01*
X134399500Y-78289676D01*
X134399499Y-78289676D01*
X134416416Y-78374717D01*
X134412291Y-78375537D01*
X134417264Y-78422103D01*
X134416335Y-78425266D01*
X134416416Y-78425283D01*
X134399500Y-78510323D01*
X134399500Y-78939678D01*
X134414032Y-79012735D01*
X134414033Y-79012739D01*
X134414034Y-79012740D01*
X134469399Y-79095601D01*
X134534847Y-79139331D01*
X134552260Y-79150966D01*
X134552264Y-79150967D01*
X134625321Y-79165499D01*
X134625324Y-79165500D01*
X134625326Y-79165500D01*
X135974676Y-79165500D01*
X135974677Y-79165499D01*
X136047740Y-79150966D01*
X136130601Y-79095601D01*
X136185966Y-79012740D01*
X136200500Y-78939674D01*
X136200500Y-78510326D01*
X136200500Y-78510323D01*
X136200499Y-78510321D01*
X136183584Y-78425281D01*
X136187720Y-78424458D01*
X136182710Y-78378032D01*
X136183677Y-78374737D01*
X136183584Y-78374719D01*
X136200499Y-78289678D01*
X136200500Y-78289676D01*
X136200500Y-77860323D01*
X136200499Y-77860321D01*
X136183584Y-77775281D01*
X136187720Y-77774458D01*
X136182710Y-77728032D01*
X136183677Y-77724737D01*
X136183584Y-77724719D01*
X136200499Y-77639678D01*
X136200500Y-77639676D01*
X136200500Y-77210323D01*
X136200499Y-77210321D01*
X136183584Y-77125281D01*
X136187720Y-77124458D01*
X136182710Y-77078032D01*
X136183677Y-77074737D01*
X136183584Y-77074719D01*
X136198131Y-77001582D01*
X136200500Y-76989674D01*
X136200500Y-76560326D01*
X136200500Y-76560323D01*
X136200499Y-76560321D01*
X136183584Y-76475281D01*
X136187720Y-76474458D01*
X136182710Y-76428032D01*
X136183677Y-76424737D01*
X136183584Y-76424719D01*
X136200499Y-76339678D01*
X136200500Y-76339676D01*
X136200500Y-75910323D01*
X136200499Y-75910321D01*
X136183584Y-75825281D01*
X136187720Y-75824458D01*
X136182710Y-75778032D01*
X136183677Y-75774737D01*
X136183584Y-75774719D01*
X136200499Y-75689678D01*
X136200500Y-75689676D01*
X136200500Y-75260323D01*
X136200499Y-75260321D01*
X136183584Y-75175281D01*
X136187720Y-75174458D01*
X136182710Y-75128032D01*
X136183677Y-75124737D01*
X136183584Y-75124719D01*
X136198638Y-75049033D01*
X136200500Y-75039674D01*
X136200500Y-74610326D01*
X136200500Y-74610323D01*
X136200499Y-74610321D01*
X136185967Y-74537264D01*
X136185966Y-74537260D01*
X136170004Y-74513371D01*
X136130601Y-74454399D01*
X136047740Y-74399034D01*
X136047739Y-74399033D01*
X136047735Y-74399032D01*
X135974677Y-74384500D01*
X135974674Y-74384500D01*
X134625326Y-74384500D01*
X134625323Y-74384500D01*
X134552264Y-74399032D01*
X134552260Y-74399033D01*
X134469399Y-74454399D01*
X134414033Y-74537260D01*
X134414032Y-74537264D01*
X134399500Y-74610321D01*
X134399500Y-74610326D01*
X134399500Y-75039674D01*
X134399500Y-75039676D01*
X134399499Y-75039676D01*
X133651300Y-75039676D01*
X133651300Y-73986164D01*
X133670985Y-73919125D01*
X133687614Y-73898487D01*
X133776100Y-73810002D01*
X133776099Y-73810002D01*
X134187819Y-73398282D01*
X134249142Y-73364798D01*
X134318834Y-73369782D01*
X134374767Y-73411654D01*
X134399184Y-73477118D01*
X134399500Y-73485964D01*
X134399500Y-73739678D01*
X134414032Y-73812735D01*
X134414033Y-73812739D01*
X134432405Y-73840235D01*
X134469399Y-73895601D01*
X134552260Y-73950966D01*
X134552264Y-73950967D01*
X134625321Y-73965499D01*
X134625324Y-73965500D01*
X134625326Y-73965500D01*
X135974676Y-73965500D01*
X135974677Y-73965499D01*
X136047740Y-73950966D01*
X136130601Y-73895601D01*
X136185966Y-73812740D01*
X136200500Y-73739674D01*
X136200500Y-73310326D01*
X136200500Y-73310323D01*
X136200499Y-73310321D01*
X136183584Y-73225281D01*
X136187720Y-73224458D01*
X136182710Y-73178032D01*
X136183677Y-73174737D01*
X136183584Y-73174719D01*
X136200499Y-73089678D01*
X136200500Y-73089676D01*
X136200500Y-72799500D01*
X136220185Y-72732461D01*
X136272989Y-72686706D01*
X136324500Y-72675500D01*
X136440500Y-72675500D01*
X136507539Y-72695185D01*
X136553294Y-72747989D01*
X136564500Y-72799500D01*
X136564500Y-79843000D01*
X136544815Y-79910039D01*
X136492011Y-79955794D01*
X136440500Y-79967000D01*
X132980943Y-79967000D01*
X132913904Y-79947315D01*
X132881676Y-79917311D01*
X132864608Y-79894511D01*
X132809331Y-79820669D01*
X132740962Y-79769489D01*
X132695556Y-79735498D01*
X132695554Y-79735497D01*
X132562391Y-79685829D01*
X132562389Y-79685828D01*
X132562387Y-79685828D01*
X132503529Y-79679500D01*
X131496482Y-79679500D01*
X131496473Y-79679501D01*
X131437608Y-79685828D01*
X131304445Y-79735497D01*
X131190669Y-79820669D01*
X131105498Y-79934443D01*
X131055828Y-80067612D01*
X131049500Y-80126462D01*
X131049500Y-80708517D01*
X131049501Y-80708526D01*
X131055828Y-80767391D01*
X131084323Y-80843785D01*
X131105497Y-80900554D01*
X131190669Y-81014331D01*
X131304446Y-81099503D01*
X131437609Y-81149171D01*
X131496479Y-81155500D01*
X132503520Y-81155499D01*
X132562391Y-81149171D01*
X132695554Y-81099503D01*
X132809331Y-81014331D01*
X132881676Y-80917689D01*
X132937610Y-80875818D01*
X132980943Y-80868000D01*
X144021808Y-80868000D01*
X144021809Y-80868000D01*
X144112173Y-80843786D01*
X144136387Y-80837299D01*
X144239114Y-80777989D01*
X145340489Y-79676614D01*
X145399798Y-79573887D01*
X145399799Y-79573886D01*
X145430500Y-79459309D01*
X145430500Y-78950528D01*
X145444014Y-78894235D01*
X145496017Y-78792175D01*
X145496017Y-78792173D01*
X145496018Y-78792172D01*
X145496018Y-78792171D01*
X145499901Y-78767650D01*
X145510500Y-78700735D01*
X145510499Y-78299266D01*
X145510499Y-78299264D01*
X145510499Y-78299260D01*
X145496018Y-78207829D01*
X145496017Y-78207825D01*
X145444015Y-78105765D01*
X145430500Y-78049471D01*
X145430500Y-77810693D01*
X145430500Y-77810691D01*
X145401273Y-77701614D01*
X145401273Y-77701613D01*
X145401273Y-77701612D01*
X145399800Y-77696115D01*
X145399799Y-77696113D01*
X145398407Y-77693702D01*
X145340489Y-77593386D01*
X144811614Y-77064511D01*
X144708887Y-77005201D01*
X144708884Y-77005199D01*
X144684626Y-76998700D01*
X144684625Y-76998699D01*
X144684625Y-76998700D01*
X144615861Y-76980275D01*
X144594309Y-76974500D01*
X142640691Y-76974500D01*
X142619139Y-76980275D01*
X142587046Y-76984500D01*
X142025323Y-76984500D01*
X141952264Y-76999032D01*
X141952260Y-76999033D01*
X141869399Y-77054399D01*
X141814033Y-77137260D01*
X141814032Y-77137264D01*
X141799500Y-77210321D01*
X141799500Y-77600500D01*
X141779815Y-77667539D01*
X141727011Y-77713294D01*
X141686732Y-77722056D01*
X141686915Y-77723439D01*
X141678855Y-77724500D01*
X141589711Y-77748386D01*
X141589710Y-77748386D01*
X141589708Y-77748387D01*
X141589705Y-77748388D01*
X141509792Y-77794527D01*
X141504128Y-77798874D01*
X141438959Y-77824070D01*
X141428639Y-77824500D01*
X140459744Y-77824500D01*
X140392705Y-77804815D01*
X140372063Y-77788181D01*
X139936819Y-77352937D01*
X139903334Y-77291614D01*
X139900500Y-77265256D01*
X139900500Y-73089676D01*
X141799499Y-73089676D01*
X141816416Y-73174717D01*
X141812291Y-73175537D01*
X141817264Y-73222103D01*
X141816335Y-73225266D01*
X141816416Y-73225283D01*
X141799500Y-73310323D01*
X141799500Y-73310326D01*
X141799500Y-73739674D01*
X141799500Y-73739676D01*
X141799499Y-73739676D01*
X141816416Y-73824717D01*
X141812291Y-73825537D01*
X141817264Y-73872103D01*
X141816335Y-73875266D01*
X141816416Y-73875283D01*
X141799500Y-73960323D01*
X141799500Y-74389678D01*
X141814032Y-74462735D01*
X141814033Y-74462739D01*
X141814034Y-74462740D01*
X141869399Y-74545601D01*
X141947047Y-74597483D01*
X141952260Y-74600966D01*
X141952264Y-74600967D01*
X142025321Y-74615499D01*
X142025324Y-74615500D01*
X142025326Y-74615500D01*
X143374676Y-74615500D01*
X143374677Y-74615499D01*
X143447740Y-74600966D01*
X143530601Y-74545601D01*
X143585966Y-74462740D01*
X143588588Y-74449556D01*
X143620972Y-74387645D01*
X143681687Y-74353069D01*
X143751456Y-74356807D01*
X143808129Y-74397672D01*
X143823000Y-74422233D01*
X143864623Y-74513373D01*
X143958872Y-74622143D01*
X144079947Y-74699953D01*
X144079950Y-74699954D01*
X144079949Y-74699954D01*
X144218036Y-74740499D01*
X144218038Y-74740500D01*
X144218039Y-74740500D01*
X144361961Y-74740500D01*
X144460325Y-74711618D01*
X144530194Y-74711618D01*
X144588972Y-74749392D01*
X144617997Y-74812948D01*
X144608053Y-74882106D01*
X144602646Y-74892594D01*
X144560201Y-74966110D01*
X144560200Y-74966117D01*
X144529500Y-75080690D01*
X144529369Y-75081689D01*
X144529024Y-75082468D01*
X144527397Y-75088541D01*
X144526449Y-75088287D01*
X144501100Y-75145585D01*
X144442775Y-75184054D01*
X144406430Y-75189500D01*
X144157965Y-75189500D01*
X144090926Y-75169815D01*
X144070284Y-75153181D01*
X144031616Y-75114513D01*
X144031614Y-75114511D01*
X143973035Y-75080690D01*
X143928888Y-75055201D01*
X143916780Y-75051957D01*
X143904673Y-75048713D01*
X143904670Y-75048712D01*
X143851629Y-75034500D01*
X143814309Y-75024500D01*
X142640691Y-75024500D01*
X142619139Y-75030275D01*
X142587046Y-75034500D01*
X142025323Y-75034500D01*
X141952264Y-75049032D01*
X141952260Y-75049033D01*
X141869399Y-75104399D01*
X141814033Y-75187260D01*
X141814032Y-75187264D01*
X141799500Y-75260321D01*
X141799500Y-75260326D01*
X141799500Y-75689674D01*
X141799500Y-75689676D01*
X141799499Y-75689676D01*
X141816416Y-75774717D01*
X141812291Y-75775537D01*
X141817264Y-75822103D01*
X141816335Y-75825266D01*
X141816416Y-75825283D01*
X141799500Y-75910323D01*
X141799500Y-76339678D01*
X141814032Y-76412735D01*
X141814033Y-76412739D01*
X141824375Y-76428217D01*
X141869399Y-76495601D01*
X141952260Y-76550966D01*
X141952264Y-76550967D01*
X142025321Y-76565499D01*
X142025324Y-76565500D01*
X142025326Y-76565500D01*
X143374676Y-76565500D01*
X143374677Y-76565499D01*
X143447740Y-76550966D01*
X143530601Y-76495601D01*
X143585966Y-76412740D01*
X143600500Y-76339674D01*
X143600500Y-76182381D01*
X143620185Y-76115342D01*
X143672989Y-76069587D01*
X143742147Y-76059643D01*
X143756584Y-76062604D01*
X143770323Y-76066285D01*
X143770325Y-76066286D01*
X143782645Y-76069587D01*
X143860691Y-76090500D01*
X144516887Y-76090500D01*
X144583926Y-76110185D01*
X144604568Y-76126819D01*
X144607603Y-76129854D01*
X144607605Y-76129855D01*
X144607609Y-76129859D01*
X144717825Y-76186017D01*
X144717826Y-76186017D01*
X144717828Y-76186018D01*
X144752947Y-76191579D01*
X144809265Y-76200500D01*
X145150734Y-76200499D01*
X145150739Y-76200499D01*
X145150739Y-76200498D01*
X145196454Y-76193258D01*
X145242170Y-76186018D01*
X145242171Y-76186018D01*
X145242172Y-76186017D01*
X145242175Y-76186017D01*
X145352391Y-76129859D01*
X145439859Y-76042391D01*
X145496017Y-75932175D01*
X145496017Y-75932173D01*
X145496018Y-75932172D01*
X145496018Y-75932171D01*
X145499901Y-75907650D01*
X145510500Y-75840735D01*
X145510499Y-75439266D01*
X145510499Y-75439260D01*
X145494491Y-75338186D01*
X145497742Y-75337670D01*
X145496228Y-75284793D01*
X145528474Y-75228627D01*
X145730284Y-75026818D01*
X145791607Y-74993333D01*
X145817965Y-74990499D01*
X146042871Y-74990499D01*
X146042872Y-74990499D01*
X146102483Y-74984091D01*
X146237331Y-74933796D01*
X146352546Y-74847546D01*
X146438796Y-74732331D01*
X146489091Y-74597483D01*
X146495500Y-74537873D01*
X146495499Y-73942128D01*
X146489091Y-73882517D01*
X146486392Y-73875281D01*
X146438797Y-73747671D01*
X146438793Y-73747664D01*
X146352547Y-73632455D01*
X146352544Y-73632452D01*
X146237335Y-73546206D01*
X146237328Y-73546202D01*
X146102482Y-73495908D01*
X146102483Y-73495908D01*
X146042883Y-73489501D01*
X146042881Y-73489500D01*
X146042873Y-73489500D01*
X146042864Y-73489500D01*
X144997129Y-73489500D01*
X144997123Y-73489501D01*
X144937516Y-73495908D01*
X144802671Y-73546202D01*
X144802664Y-73546206D01*
X144687455Y-73632452D01*
X144614700Y-73729640D01*
X144558766Y-73771510D01*
X144489074Y-73776494D01*
X144480500Y-73774305D01*
X144361963Y-73739500D01*
X144361961Y-73739500D01*
X144218039Y-73739500D01*
X144218036Y-73739500D01*
X144079949Y-73780045D01*
X143958873Y-73857856D01*
X143864623Y-73966626D01*
X143864622Y-73966628D01*
X143837294Y-74026468D01*
X143791539Y-74079272D01*
X143724499Y-74098956D01*
X143657460Y-74079271D01*
X143611705Y-74026467D01*
X143600500Y-73974956D01*
X143600500Y-73960323D01*
X143600499Y-73960321D01*
X143583584Y-73875281D01*
X143587720Y-73874458D01*
X143582710Y-73828032D01*
X143583677Y-73824737D01*
X143583584Y-73824719D01*
X143600499Y-73739678D01*
X143600500Y-73739676D01*
X143600500Y-73310323D01*
X143600499Y-73310321D01*
X143583584Y-73225281D01*
X143587720Y-73224458D01*
X143582710Y-73178032D01*
X143583677Y-73174737D01*
X143583584Y-73174719D01*
X143600499Y-73089678D01*
X143600500Y-73089676D01*
X143600500Y-72660323D01*
X143600499Y-72660321D01*
X143585967Y-72587264D01*
X143585966Y-72587260D01*
X143530601Y-72504399D01*
X143447740Y-72449034D01*
X143447739Y-72449033D01*
X143447735Y-72449032D01*
X143374677Y-72434500D01*
X143374674Y-72434500D01*
X142025326Y-72434500D01*
X142025323Y-72434500D01*
X141952264Y-72449032D01*
X141952260Y-72449033D01*
X141869399Y-72504399D01*
X141814033Y-72587260D01*
X141814032Y-72587264D01*
X141799500Y-72660321D01*
X141799500Y-72660326D01*
X141799500Y-73089674D01*
X141799500Y-73089676D01*
X141799499Y-73089676D01*
X139900500Y-73089676D01*
X139900500Y-70489676D01*
X141799499Y-70489676D01*
X141816416Y-70574717D01*
X141812291Y-70575537D01*
X141817264Y-70622103D01*
X141816335Y-70625266D01*
X141816416Y-70625283D01*
X141799500Y-70710323D01*
X141799500Y-71139678D01*
X141814032Y-71212735D01*
X141814033Y-71212739D01*
X141828345Y-71234159D01*
X141869399Y-71295601D01*
X141946254Y-71346953D01*
X141952260Y-71350966D01*
X141952264Y-71350967D01*
X142025321Y-71365499D01*
X142025324Y-71365500D01*
X142025326Y-71365500D01*
X143374676Y-71365500D01*
X143374677Y-71365499D01*
X143447740Y-71350966D01*
X143530601Y-71295601D01*
X143585966Y-71212740D01*
X143600500Y-71139674D01*
X143600500Y-70710326D01*
X143600500Y-70710323D01*
X143600499Y-70710321D01*
X143583584Y-70625281D01*
X143587720Y-70624458D01*
X143582710Y-70578032D01*
X143583677Y-70574737D01*
X143583584Y-70574719D01*
X143600499Y-70489678D01*
X143600500Y-70489676D01*
X143600500Y-70060323D01*
X143600499Y-70060321D01*
X143585967Y-69987264D01*
X143585966Y-69987260D01*
X143581449Y-69980500D01*
X143530601Y-69904399D01*
X143447740Y-69849034D01*
X143447739Y-69849033D01*
X143447735Y-69849032D01*
X143374677Y-69834500D01*
X143374674Y-69834500D01*
X142025326Y-69834500D01*
X142025323Y-69834500D01*
X141952264Y-69849032D01*
X141952260Y-69849033D01*
X141869399Y-69904399D01*
X141814033Y-69987260D01*
X141814032Y-69987264D01*
X141799500Y-70060321D01*
X141799500Y-70060326D01*
X141799500Y-70489674D01*
X141799500Y-70489676D01*
X141799499Y-70489676D01*
X139900500Y-70489676D01*
X139900500Y-66026965D01*
X139920185Y-65959926D01*
X139972989Y-65914171D01*
X140042147Y-65904227D01*
X140105703Y-65933252D01*
X140112178Y-65939282D01*
X141183386Y-67010490D01*
X141286113Y-67069799D01*
X141310321Y-67076284D01*
X141310324Y-67076286D01*
X141310325Y-67076286D01*
X141340447Y-67084357D01*
X141400691Y-67100500D01*
X141984050Y-67100500D01*
X142051089Y-67120185D01*
X142083316Y-67150189D01*
X142150313Y-67239687D01*
X142214812Y-67287970D01*
X142256681Y-67343901D01*
X142264500Y-67387235D01*
X142264500Y-68084308D01*
X142288712Y-68174672D01*
X142295200Y-68198885D01*
X142295200Y-68198886D01*
X142295201Y-68198887D01*
X142354511Y-68301614D01*
X143893386Y-69840490D01*
X143893388Y-69840491D01*
X143893392Y-69840494D01*
X143996110Y-69899798D01*
X143996113Y-69899799D01*
X144013276Y-69904397D01*
X144013279Y-69904399D01*
X144013280Y-69904399D01*
X144033865Y-69909914D01*
X144110691Y-69930500D01*
X145312273Y-69930500D01*
X145351004Y-69938926D01*
X145351437Y-69937455D01*
X145498036Y-69980499D01*
X145498038Y-69980500D01*
X145498039Y-69980500D01*
X145641962Y-69980500D01*
X145641962Y-69980499D01*
X145780053Y-69939953D01*
X145901128Y-69862143D01*
X145995377Y-69753373D01*
X146055165Y-69622457D01*
X146075647Y-69480000D01*
X146055165Y-69337543D01*
X145995377Y-69206627D01*
X145901128Y-69097857D01*
X145780053Y-69020047D01*
X145780051Y-69020046D01*
X145780049Y-69020045D01*
X145780050Y-69020045D01*
X145641963Y-68979500D01*
X145641961Y-68979500D01*
X145498039Y-68979500D01*
X145498036Y-68979500D01*
X145351437Y-69022545D01*
X145351004Y-69021073D01*
X145312273Y-69029500D01*
X144407966Y-69029500D01*
X144340927Y-69009815D01*
X144320285Y-68993181D01*
X143201819Y-67874715D01*
X143168334Y-67813392D01*
X143165500Y-67787034D01*
X143165500Y-67387235D01*
X143185185Y-67320196D01*
X143215185Y-67287972D01*
X143279687Y-67239687D01*
X143361628Y-67130226D01*
X143409412Y-67002114D01*
X143411687Y-66980944D01*
X143415499Y-66945501D01*
X143415499Y-66945494D01*
X143415500Y-66945485D01*
X143415499Y-66418418D01*
X145169500Y-66418418D01*
X145169500Y-66861582D01*
X145180418Y-66936518D01*
X145180418Y-66936519D01*
X145180419Y-66936521D01*
X145236921Y-67052099D01*
X145236923Y-67052102D01*
X145327897Y-67143076D01*
X145327900Y-67143078D01*
X145438656Y-67197222D01*
X145443482Y-67199582D01*
X145518418Y-67210500D01*
X145518423Y-67210500D01*
X145861577Y-67210500D01*
X145861582Y-67210500D01*
X145936518Y-67199582D01*
X145994310Y-67171329D01*
X146052099Y-67143078D01*
X146052102Y-67143076D01*
X146143076Y-67052102D01*
X146143078Y-67052099D01*
X146195198Y-66945485D01*
X146199582Y-66936518D01*
X146210500Y-66861582D01*
X146210500Y-66418418D01*
X146199582Y-66343482D01*
X146197222Y-66338656D01*
X146143078Y-66227900D01*
X146143076Y-66227897D01*
X146052105Y-66136926D01*
X146043743Y-66130956D01*
X146046060Y-66127709D01*
X146009205Y-66093981D01*
X145991300Y-66029795D01*
X145991300Y-65376163D01*
X146010985Y-65309124D01*
X146027615Y-65288486D01*
X146385000Y-64931101D01*
X146385003Y-64931100D01*
X146441100Y-64875003D01*
X146460933Y-64840650D01*
X146480767Y-64806298D01*
X146501300Y-64729667D01*
X146501300Y-64650333D01*
X146501300Y-64169499D01*
X146520985Y-64102460D01*
X146573789Y-64056705D01*
X146625300Y-64045499D01*
X146703517Y-64045499D01*
X146703520Y-64045499D01*
X146762391Y-64039171D01*
X146895554Y-63989503D01*
X147009331Y-63904331D01*
X147094503Y-63790554D01*
X147144171Y-63657391D01*
X147146536Y-63635383D01*
X147150499Y-63598537D01*
X147150499Y-63598526D01*
X147150500Y-63598521D01*
X147150499Y-63016480D01*
X147144171Y-62957609D01*
X147094503Y-62824446D01*
X147009331Y-62710669D01*
X146938230Y-62657444D01*
X146895556Y-62625498D01*
X146895554Y-62625497D01*
X146762391Y-62575829D01*
X146762389Y-62575828D01*
X146762387Y-62575828D01*
X146703529Y-62569500D01*
X145696482Y-62569500D01*
X145696473Y-62569501D01*
X145637608Y-62575828D01*
X145504445Y-62625497D01*
X145390669Y-62710669D01*
X145305498Y-62824443D01*
X145255828Y-62957612D01*
X145249500Y-63016462D01*
X145249500Y-63598517D01*
X145249501Y-63598526D01*
X145255828Y-63657391D01*
X145282227Y-63728166D01*
X145305497Y-63790554D01*
X145390669Y-63904331D01*
X145504446Y-63989503D01*
X145637609Y-64039171D01*
X145696479Y-64045500D01*
X145774700Y-64045499D01*
X145841738Y-64065183D01*
X145887494Y-64117986D01*
X145898700Y-64169499D01*
X145898700Y-64513835D01*
X145879015Y-64580874D01*
X145862381Y-64601516D01*
X145448901Y-65014995D01*
X145448900Y-65014997D01*
X145444690Y-65022289D01*
X145432871Y-65042760D01*
X145409233Y-65083700D01*
X145393107Y-65143882D01*
X145393107Y-65143886D01*
X145388700Y-65160333D01*
X145388700Y-65160335D01*
X145388700Y-66029795D01*
X145369015Y-66096834D01*
X145334096Y-66127930D01*
X145336257Y-66130956D01*
X145327895Y-66136926D01*
X145236923Y-66227897D01*
X145236921Y-66227900D01*
X145180419Y-66343478D01*
X145180418Y-66343480D01*
X145180418Y-66343482D01*
X145169500Y-66418418D01*
X143415499Y-66418418D01*
X143415499Y-66354516D01*
X143409412Y-66297886D01*
X143361628Y-66169774D01*
X143279687Y-66060313D01*
X143215188Y-66012030D01*
X143173318Y-65956097D01*
X143165500Y-65912764D01*
X143165500Y-65872965D01*
X143185185Y-65805926D01*
X143201819Y-65785284D01*
X143530284Y-65456819D01*
X143591607Y-65423334D01*
X143617965Y-65420500D01*
X144279308Y-65420500D01*
X144279309Y-65420500D01*
X144369673Y-65396286D01*
X144393887Y-65389799D01*
X144496614Y-65330489D01*
X144840490Y-64986613D01*
X144899799Y-64883886D01*
X144904486Y-64866393D01*
X144930500Y-64769309D01*
X144930500Y-62137965D01*
X144950185Y-62070926D01*
X144966814Y-62050289D01*
X145097786Y-61919317D01*
X145159108Y-61885834D01*
X145185466Y-61883000D01*
X145219057Y-61883000D01*
X145286096Y-61902685D01*
X145318324Y-61932689D01*
X145390669Y-62029331D01*
X145504446Y-62114503D01*
X145637609Y-62164171D01*
X145696479Y-62170500D01*
X146703520Y-62170499D01*
X146762391Y-62164171D01*
X146895554Y-62114503D01*
X147009331Y-62029331D01*
X147094503Y-61915554D01*
X147144171Y-61782391D01*
X147146536Y-61760383D01*
X147150499Y-61723537D01*
X147150499Y-61723530D01*
X147150500Y-61723521D01*
X147150499Y-61141480D01*
X147144171Y-61082609D01*
X147138320Y-61066923D01*
X147103729Y-60974182D01*
X147094503Y-60949446D01*
X147009331Y-60835669D01*
X146940962Y-60784489D01*
X146895556Y-60750498D01*
X146895554Y-60750497D01*
X146869234Y-60740680D01*
X146813304Y-60698810D01*
X146788887Y-60633346D01*
X146803739Y-60565073D01*
X146853145Y-60515668D01*
X146912571Y-60500500D01*
X147375500Y-60500500D01*
X147442539Y-60520185D01*
X147488294Y-60572989D01*
X147499500Y-60624500D01*
X147499500Y-90375500D01*
X147479815Y-90442539D01*
X147427011Y-90488294D01*
X147375500Y-90499500D01*
X130624500Y-90499500D01*
X130557461Y-90479815D01*
X130511706Y-90427011D01*
X130500500Y-90375500D01*
X130500500Y-87149999D01*
X133859364Y-87149999D01*
X133859364Y-87150000D01*
X134756988Y-87150000D01*
X134724075Y-87207007D01*
X134690000Y-87334174D01*
X134690000Y-87465826D01*
X134724075Y-87592993D01*
X134756988Y-87650000D01*
X133859364Y-87650000D01*
X133916567Y-87863486D01*
X133916570Y-87863492D01*
X134016399Y-88077578D01*
X134151894Y-88271082D01*
X134318917Y-88438105D01*
X134512421Y-88573600D01*
X134726507Y-88673429D01*
X134726516Y-88673433D01*
X134940000Y-88730634D01*
X134940000Y-87833012D01*
X134997007Y-87865925D01*
X135124174Y-87900000D01*
X135255826Y-87900000D01*
X135382993Y-87865925D01*
X135440000Y-87833012D01*
X135440000Y-88730633D01*
X135653483Y-88673433D01*
X135653492Y-88673429D01*
X135867578Y-88573600D01*
X136061082Y-88438105D01*
X136228105Y-88271082D01*
X136363600Y-88077578D01*
X136463429Y-87863492D01*
X136463431Y-87863489D01*
X136472406Y-87829992D01*
X136508770Y-87770331D01*
X136571616Y-87739800D01*
X136640992Y-87748094D01*
X136694871Y-87792578D01*
X136703182Y-87806811D01*
X136790327Y-87981821D01*
X136913237Y-88144581D01*
X137063958Y-88281980D01*
X137063960Y-88281982D01*
X137163141Y-88343392D01*
X137237363Y-88389348D01*
X137427544Y-88463024D01*
X137628024Y-88500500D01*
X137628026Y-88500500D01*
X137831974Y-88500500D01*
X137831976Y-88500500D01*
X138032456Y-88463024D01*
X138222637Y-88389348D01*
X138396041Y-88281981D01*
X138546764Y-88144579D01*
X138669673Y-87981821D01*
X138760582Y-87799250D01*
X138816397Y-87603083D01*
X138835215Y-87400000D01*
X138835215Y-87399999D01*
X139164785Y-87399999D01*
X139164785Y-87400000D01*
X139183602Y-87603082D01*
X139239417Y-87799247D01*
X139239422Y-87799260D01*
X139330327Y-87981821D01*
X139453237Y-88144581D01*
X139603958Y-88281980D01*
X139603960Y-88281982D01*
X139703141Y-88343392D01*
X139777363Y-88389348D01*
X139967544Y-88463024D01*
X140168024Y-88500500D01*
X140168026Y-88500500D01*
X140371974Y-88500500D01*
X140371976Y-88500500D01*
X140572456Y-88463024D01*
X140762637Y-88389348D01*
X140936041Y-88281981D01*
X141086764Y-88144579D01*
X141209673Y-87981821D01*
X141300582Y-87799250D01*
X141356397Y-87603083D01*
X141375215Y-87400000D01*
X141369115Y-87334174D01*
X141356397Y-87196917D01*
X141343048Y-87150000D01*
X141300582Y-87000750D01*
X141300159Y-86999901D01*
X141250415Y-86900000D01*
X141209673Y-86818179D01*
X141086764Y-86655421D01*
X141086762Y-86655418D01*
X140944051Y-86525321D01*
X141709500Y-86525321D01*
X141709500Y-88274678D01*
X141724032Y-88347735D01*
X141724033Y-88347739D01*
X141724034Y-88347740D01*
X141779399Y-88430601D01*
X141862260Y-88485966D01*
X141862264Y-88485967D01*
X141935321Y-88500499D01*
X141935324Y-88500500D01*
X141935326Y-88500500D01*
X143684676Y-88500500D01*
X143684677Y-88500499D01*
X143757740Y-88485966D01*
X143840601Y-88430601D01*
X143895966Y-88347740D01*
X143910500Y-88274674D01*
X143910500Y-86525326D01*
X143910500Y-86525323D01*
X143910499Y-86525321D01*
X143895967Y-86452264D01*
X143895966Y-86452260D01*
X143840601Y-86369399D01*
X143757740Y-86314034D01*
X143757739Y-86314033D01*
X143757735Y-86314032D01*
X143684677Y-86299500D01*
X143684674Y-86299500D01*
X141935326Y-86299500D01*
X141935323Y-86299500D01*
X141862264Y-86314032D01*
X141862260Y-86314033D01*
X141779399Y-86369399D01*
X141724033Y-86452260D01*
X141724032Y-86452264D01*
X141709500Y-86525321D01*
X140944051Y-86525321D01*
X140936041Y-86518019D01*
X140936039Y-86518017D01*
X140762642Y-86410655D01*
X140762635Y-86410651D01*
X140636769Y-86361891D01*
X140572456Y-86336976D01*
X140371976Y-86299500D01*
X140168024Y-86299500D01*
X139967544Y-86336976D01*
X139967541Y-86336976D01*
X139967541Y-86336977D01*
X139777364Y-86410651D01*
X139777357Y-86410655D01*
X139603960Y-86518017D01*
X139603958Y-86518019D01*
X139453237Y-86655418D01*
X139330327Y-86818178D01*
X139239422Y-87000739D01*
X139239417Y-87000752D01*
X139183602Y-87196917D01*
X139164785Y-87399999D01*
X138835215Y-87399999D01*
X138829115Y-87334174D01*
X138816397Y-87196917D01*
X138803048Y-87150000D01*
X138760582Y-87000750D01*
X138760159Y-86999901D01*
X138710415Y-86900000D01*
X138669673Y-86818179D01*
X138546764Y-86655421D01*
X138546762Y-86655418D01*
X138396041Y-86518019D01*
X138396039Y-86518017D01*
X138222642Y-86410655D01*
X138222635Y-86410651D01*
X138096769Y-86361891D01*
X138032456Y-86336976D01*
X137831976Y-86299500D01*
X137628024Y-86299500D01*
X137427544Y-86336976D01*
X137427541Y-86336976D01*
X137427541Y-86336977D01*
X137237364Y-86410651D01*
X137237357Y-86410655D01*
X137063960Y-86518017D01*
X137063958Y-86518019D01*
X136913237Y-86655418D01*
X136790327Y-86818178D01*
X136703182Y-86993188D01*
X136655679Y-87044425D01*
X136588016Y-87061846D01*
X136521676Y-87039920D01*
X136477721Y-86985609D01*
X136472407Y-86970008D01*
X136463434Y-86936518D01*
X136463429Y-86936507D01*
X136363600Y-86722422D01*
X136363599Y-86722420D01*
X136228113Y-86528926D01*
X136228108Y-86528920D01*
X136061082Y-86361894D01*
X135867578Y-86226399D01*
X135653492Y-86126570D01*
X135653486Y-86126567D01*
X135440000Y-86069364D01*
X135440000Y-86966988D01*
X135382993Y-86934075D01*
X135255826Y-86900000D01*
X135124174Y-86900000D01*
X134997007Y-86934075D01*
X134940000Y-86966988D01*
X134940000Y-86069364D01*
X134939999Y-86069364D01*
X134726513Y-86126567D01*
X134726507Y-86126570D01*
X134512422Y-86226399D01*
X134512420Y-86226400D01*
X134318926Y-86361886D01*
X134318920Y-86361891D01*
X134151891Y-86528920D01*
X134151886Y-86528926D01*
X134016400Y-86722420D01*
X134016399Y-86722422D01*
X133916570Y-86936507D01*
X133916567Y-86936513D01*
X133859364Y-87149999D01*
X130500500Y-87149999D01*
X130500500Y-63940000D01*
X135405626Y-63940000D01*
X136234943Y-63940000D01*
X136194225Y-63956866D01*
X136116866Y-64034225D01*
X136075000Y-64135299D01*
X136075000Y-64244701D01*
X136116866Y-64345775D01*
X136194225Y-64423134D01*
X136234943Y-64440000D01*
X135405626Y-64440000D01*
X135412466Y-64474389D01*
X135412468Y-64474397D01*
X135485964Y-64651833D01*
X135485969Y-64651842D01*
X135592667Y-64811526D01*
X135592670Y-64811530D01*
X135728469Y-64947329D01*
X135728473Y-64947332D01*
X135888157Y-65054030D01*
X135888166Y-65054035D01*
X136065602Y-65127531D01*
X136065610Y-65127533D01*
X136249999Y-65164210D01*
X136250000Y-65164210D01*
X136250000Y-64446236D01*
X136295299Y-64465000D01*
X136704701Y-64465000D01*
X136750000Y-64446236D01*
X136750000Y-65164210D01*
X136934389Y-65127533D01*
X136934397Y-65127531D01*
X137111833Y-65054035D01*
X137111842Y-65054030D01*
X137271526Y-64947332D01*
X137271530Y-64947329D01*
X137407329Y-64811530D01*
X137407332Y-64811526D01*
X137514030Y-64651842D01*
X137514035Y-64651833D01*
X137587531Y-64474397D01*
X137587533Y-64474389D01*
X137594374Y-64440000D01*
X136765057Y-64440000D01*
X136805775Y-64423134D01*
X136883134Y-64345775D01*
X136925000Y-64244701D01*
X136925000Y-64135299D01*
X136883134Y-64034225D01*
X136805775Y-63956866D01*
X136765057Y-63940000D01*
X137594374Y-63940000D01*
X137587533Y-63905610D01*
X137587531Y-63905602D01*
X137514035Y-63728166D01*
X137514030Y-63728157D01*
X137407332Y-63568473D01*
X137407329Y-63568469D01*
X137271530Y-63432670D01*
X137271526Y-63432667D01*
X137111842Y-63325969D01*
X137111833Y-63325964D01*
X136934397Y-63252468D01*
X136934389Y-63252466D01*
X136750000Y-63215788D01*
X136750000Y-63933763D01*
X136704701Y-63915000D01*
X136295299Y-63915000D01*
X136250000Y-63933763D01*
X136250000Y-63215789D01*
X136249999Y-63215788D01*
X136065610Y-63252466D01*
X136065602Y-63252468D01*
X135888166Y-63325964D01*
X135888157Y-63325969D01*
X135728473Y-63432667D01*
X135728469Y-63432670D01*
X135592670Y-63568469D01*
X135592667Y-63568473D01*
X135485969Y-63728157D01*
X135485964Y-63728166D01*
X135412468Y-63905602D01*
X135412466Y-63905610D01*
X135405626Y-63940000D01*
X130500500Y-63940000D01*
X130500500Y-60624500D01*
X130520185Y-60557461D01*
X130572989Y-60511706D01*
X130624500Y-60500500D01*
X134572134Y-60500500D01*
X134639173Y-60520185D01*
G37*
G04 #@! TD.AperFunction*
M02*
