%TF.GenerationSoftware,KiCad,Pcbnew,8.0.5*%
%TF.CreationDate,2025-02-16T04:26:07+09:00*%
%TF.ProjectId,usb_serial,7573625f-7365-4726-9961-6c2e6b696361,rev?*%
%TF.SameCoordinates,Original*%
%TF.FileFunction,Drillmap*%
%TF.FilePolarity,Positive*%
%FSLAX45Y45*%
G04 Gerber Fmt 4.5, Leading zero omitted, Abs format (unit mm)*
G04 Created by KiCad (PCBNEW 8.0.5) date 2025-02-16 04:26:07*
%MOMM*%
%LPD*%
G01*
G04 APERTURE LIST*
%ADD10C,0.050000*%
%ADD11C,0.200000*%
G04 APERTURE END LIST*
D10*
X13000000Y-6000000D02*
X14800000Y-6000000D01*
X14800000Y-9000000D01*
X13000000Y-9000000D01*
X13000000Y-6000000D01*
D11*
X13258277Y-9313984D02*
X13258277Y-9113984D01*
X13258277Y-9113984D02*
X13305896Y-9113984D01*
X13305896Y-9113984D02*
X13334467Y-9123508D01*
X13334467Y-9123508D02*
X13353515Y-9142555D01*
X13353515Y-9142555D02*
X13363039Y-9161603D01*
X13363039Y-9161603D02*
X13372562Y-9199698D01*
X13372562Y-9199698D02*
X13372562Y-9228270D01*
X13372562Y-9228270D02*
X13363039Y-9266365D01*
X13363039Y-9266365D02*
X13353515Y-9285412D01*
X13353515Y-9285412D02*
X13334467Y-9304460D01*
X13334467Y-9304460D02*
X13305896Y-9313984D01*
X13305896Y-9313984D02*
X13258277Y-9313984D01*
X13458277Y-9313984D02*
X13458277Y-9180650D01*
X13458277Y-9218746D02*
X13467801Y-9199698D01*
X13467801Y-9199698D02*
X13477324Y-9190174D01*
X13477324Y-9190174D02*
X13496372Y-9180650D01*
X13496372Y-9180650D02*
X13515420Y-9180650D01*
X13582086Y-9313984D02*
X13582086Y-9180650D01*
X13582086Y-9113984D02*
X13572562Y-9123508D01*
X13572562Y-9123508D02*
X13582086Y-9133031D01*
X13582086Y-9133031D02*
X13591610Y-9123508D01*
X13591610Y-9123508D02*
X13582086Y-9113984D01*
X13582086Y-9113984D02*
X13582086Y-9133031D01*
X13705896Y-9313984D02*
X13686848Y-9304460D01*
X13686848Y-9304460D02*
X13677324Y-9285412D01*
X13677324Y-9285412D02*
X13677324Y-9113984D01*
X13810658Y-9313984D02*
X13791610Y-9304460D01*
X13791610Y-9304460D02*
X13782086Y-9285412D01*
X13782086Y-9285412D02*
X13782086Y-9113984D01*
X14039229Y-9313984D02*
X14039229Y-9113984D01*
X14039229Y-9113984D02*
X14105896Y-9256841D01*
X14105896Y-9256841D02*
X14172562Y-9113984D01*
X14172562Y-9113984D02*
X14172562Y-9313984D01*
X14353515Y-9313984D02*
X14353515Y-9209222D01*
X14353515Y-9209222D02*
X14343991Y-9190174D01*
X14343991Y-9190174D02*
X14324943Y-9180650D01*
X14324943Y-9180650D02*
X14286848Y-9180650D01*
X14286848Y-9180650D02*
X14267801Y-9190174D01*
X14353515Y-9304460D02*
X14334467Y-9313984D01*
X14334467Y-9313984D02*
X14286848Y-9313984D01*
X14286848Y-9313984D02*
X14267801Y-9304460D01*
X14267801Y-9304460D02*
X14258277Y-9285412D01*
X14258277Y-9285412D02*
X14258277Y-9266365D01*
X14258277Y-9266365D02*
X14267801Y-9247317D01*
X14267801Y-9247317D02*
X14286848Y-9237793D01*
X14286848Y-9237793D02*
X14334467Y-9237793D01*
X14334467Y-9237793D02*
X14353515Y-9228270D01*
X14448753Y-9180650D02*
X14448753Y-9380650D01*
X14448753Y-9190174D02*
X14467801Y-9180650D01*
X14467801Y-9180650D02*
X14505896Y-9180650D01*
X14505896Y-9180650D02*
X14524943Y-9190174D01*
X14524943Y-9190174D02*
X14534467Y-9199698D01*
X14534467Y-9199698D02*
X14543991Y-9218746D01*
X14543991Y-9218746D02*
X14543991Y-9275889D01*
X14543991Y-9275889D02*
X14534467Y-9294936D01*
X14534467Y-9294936D02*
X14524943Y-9304460D01*
X14524943Y-9304460D02*
X14505896Y-9313984D01*
X14505896Y-9313984D02*
X14467801Y-9313984D01*
X14467801Y-9313984D02*
X14448753Y-9304460D01*
X14629705Y-9294936D02*
X14639229Y-9304460D01*
X14639229Y-9304460D02*
X14629705Y-9313984D01*
X14629705Y-9313984D02*
X14620182Y-9304460D01*
X14620182Y-9304460D02*
X14629705Y-9294936D01*
X14629705Y-9294936D02*
X14629705Y-9313984D01*
X14629705Y-9190174D02*
X14639229Y-9199698D01*
X14639229Y-9199698D02*
X14629705Y-9209222D01*
X14629705Y-9209222D02*
X14620182Y-9199698D01*
X14620182Y-9199698D02*
X14629705Y-9190174D01*
X14629705Y-9190174D02*
X14629705Y-9209222D01*
M02*
