M48
; DRILL file {KiCad 8.0.5} date 2025-02-16T13:26:04+0900
; FORMAT={-:-/ absolute / metric / decimal}
; #@! TF.CreationDate,2025-02-16T13:26:04+09:00
; #@! TF.GenerationSoftware,Kicad,Pcbnew,8.0.5
; #@! TF.FileFunction,Plated,1,2,PTH
FMAT,2
METRIC
; #@! TA.AperFunction,Plated,PTH,ViaDrill
T1C0.300
; #@! TA.AperFunction,Plated,PTH,ComponentDrill
T2C0.500
; #@! TA.AperFunction,Plated,PTH,ComponentDrill
T3C0.550
; #@! TA.AperFunction,Plated,PTH,ComponentDrill
T4C1.000
%
G90
G05
T1
X133.01Y-72.59
X133.21Y-77.51
X134.05Y-74.18
X141.37Y-71.34
X141.39Y-74.82
X141.41Y-76.77
X141.425Y-72.225
X144.2Y-72.34
X144.29Y-74.24
X144.43Y-68.02
X144.99Y-80.18
X145.57Y-69.48
X146.71Y-65.84
X146.84Y-75.66
T4
X135.19Y-87.4
X137.73Y-87.4
X140.27Y-87.4
X142.81Y-87.4
T2
X135.5Y-61.815G85X135.5Y-61.165
G05
X142.5Y-61.815G85X142.5Y-61.165
G05
T3
X136.65Y-64.19G85X136.35Y-64.19
G05
X141.65Y-64.19G85X141.35Y-64.19
G05
M30
