G04 #@! TF.GenerationSoftware,KiCad,Pcbnew,8.0.5*
G04 #@! TF.CreationDate,2025-04-12T21:20:27+09:00*
G04 #@! TF.ProjectId,usb_serial,7573625f-7365-4726-9961-6c2e6b696361,rev?*
G04 #@! TF.SameCoordinates,Original*
G04 #@! TF.FileFunction,Copper,L2,Bot*
G04 #@! TF.FilePolarity,Positive*
%FSLAX46Y46*%
G04 Gerber Fmt 4.6, Leading zero omitted, Abs format (unit mm)*
G04 Created by KiCad (PCBNEW 8.0.5) date 2025-04-12 21:20:27*
%MOMM*%
%LPD*%
G01*
G04 APERTURE LIST*
G04 #@! TA.AperFunction,ComponentPad*
%ADD10O,0.890000X1.550000*%
G04 #@! TD*
G04 #@! TA.AperFunction,ComponentPad*
%ADD11O,1.250000X0.950000*%
G04 #@! TD*
G04 #@! TA.AperFunction,ComponentPad*
%ADD12R,1.700000X1.700000*%
G04 #@! TD*
G04 #@! TA.AperFunction,ComponentPad*
%ADD13O,1.700000X1.700000*%
G04 #@! TD*
G04 #@! TA.AperFunction,ViaPad*
%ADD14C,0.500000*%
G04 #@! TD*
G04 #@! TA.AperFunction,Conductor*
%ADD15C,0.400000*%
G04 #@! TD*
G04 #@! TA.AperFunction,Conductor*
%ADD16C,0.101600*%
G04 #@! TD*
G04 APERTURE END LIST*
D10*
X142500000Y-61490000D03*
D11*
X141500000Y-64190000D03*
X136500000Y-64190000D03*
D10*
X135500000Y-61490000D03*
D12*
X142810000Y-87400000D03*
D13*
X140270000Y-87400000D03*
X137730000Y-87400000D03*
X135190000Y-87400000D03*
D14*
X137950000Y-66290000D03*
X141390000Y-74820000D03*
X144280000Y-65790000D03*
X134050000Y-74180000D03*
X146820000Y-75640000D03*
X141370000Y-71340000D03*
X141410000Y-76770000D03*
X146850000Y-78530000D03*
X146710000Y-65840000D03*
X137150000Y-65490000D03*
X137150000Y-66290000D03*
X141425000Y-72225000D03*
X137950000Y-65490000D03*
X144200000Y-72340000D03*
X144290000Y-74240000D03*
X145570000Y-69480000D03*
X133350000Y-76780000D03*
X133410000Y-71780000D03*
D15*
X145570000Y-69480000D02*
X145570000Y-77540000D01*
X145570000Y-77540000D02*
X142810000Y-80300000D01*
X144290000Y-74240000D02*
X145570000Y-74240000D01*
X142810000Y-80300000D02*
X142810000Y-87400000D01*
D16*
X132750000Y-88050000D02*
X133660000Y-88960000D01*
X137730000Y-88460000D02*
X137730000Y-87400000D01*
X132750000Y-77380000D02*
X132750000Y-88050000D01*
X133660000Y-88960000D02*
X137230000Y-88960000D01*
X133350000Y-76780000D02*
X132750000Y-77380000D01*
X137230000Y-88960000D02*
X137730000Y-88460000D01*
X133260000Y-89510000D02*
X139610000Y-89510000D01*
X140270000Y-88850000D02*
X140270000Y-87400000D01*
X139610000Y-89510000D02*
X140270000Y-88850000D01*
X133410000Y-71780000D02*
X132080000Y-73110000D01*
X132080000Y-73110000D02*
X132080000Y-88330000D01*
X132080000Y-88330000D02*
X133260000Y-89510000D01*
G04 #@! TA.AperFunction,Conductor*
G36*
X134639173Y-60520185D02*
G01*
X134684928Y-60572989D01*
X134694872Y-60642147D01*
X134675236Y-60693391D01*
X134662555Y-60712368D01*
X134662550Y-60712377D01*
X134591316Y-60884353D01*
X134591314Y-60884361D01*
X134555000Y-61066921D01*
X134555000Y-61240000D01*
X135250000Y-61240000D01*
X135250000Y-61740000D01*
X134555000Y-61740000D01*
X134555000Y-61913078D01*
X134591314Y-62095638D01*
X134591316Y-62095646D01*
X134662550Y-62267622D01*
X134662555Y-62267631D01*
X134765970Y-62422401D01*
X134765973Y-62422405D01*
X134897594Y-62554026D01*
X134897598Y-62554029D01*
X135052368Y-62657444D01*
X135052381Y-62657451D01*
X135224350Y-62728682D01*
X135224355Y-62728683D01*
X135250000Y-62733784D01*
X135250000Y-61864728D01*
X135288060Y-61956614D01*
X135358386Y-62026940D01*
X135450272Y-62065000D01*
X135549728Y-62065000D01*
X135641614Y-62026940D01*
X135711940Y-61956614D01*
X135750000Y-61864728D01*
X135750000Y-62733783D01*
X135775644Y-62728683D01*
X135775649Y-62728682D01*
X135947618Y-62657451D01*
X135947631Y-62657444D01*
X136102401Y-62554029D01*
X136102405Y-62554026D01*
X136234026Y-62422405D01*
X136234029Y-62422401D01*
X136337444Y-62267631D01*
X136337449Y-62267622D01*
X136408683Y-62095646D01*
X136408685Y-62095638D01*
X136444999Y-61913078D01*
X136445000Y-61913076D01*
X136445000Y-61740000D01*
X135750000Y-61740000D01*
X135750000Y-61240000D01*
X136445000Y-61240000D01*
X136445000Y-61066923D01*
X136444999Y-61066921D01*
X136408685Y-60884361D01*
X136408683Y-60884353D01*
X136337449Y-60712377D01*
X136337444Y-60712368D01*
X136324764Y-60693391D01*
X136303886Y-60626713D01*
X136322371Y-60559333D01*
X136374350Y-60512643D01*
X136427866Y-60500500D01*
X141572134Y-60500500D01*
X141639173Y-60520185D01*
X141684928Y-60572989D01*
X141694872Y-60642147D01*
X141675236Y-60693391D01*
X141662555Y-60712368D01*
X141662550Y-60712377D01*
X141591316Y-60884353D01*
X141591314Y-60884361D01*
X141555000Y-61066921D01*
X141555000Y-61240000D01*
X142250000Y-61240000D01*
X142250000Y-61740000D01*
X141555000Y-61740000D01*
X141555000Y-61913078D01*
X141591314Y-62095638D01*
X141591316Y-62095646D01*
X141662550Y-62267622D01*
X141662555Y-62267631D01*
X141765970Y-62422401D01*
X141765973Y-62422405D01*
X141897594Y-62554026D01*
X141897598Y-62554029D01*
X142052368Y-62657444D01*
X142052381Y-62657451D01*
X142224350Y-62728682D01*
X142224355Y-62728683D01*
X142250000Y-62733784D01*
X142250000Y-61864728D01*
X142288060Y-61956614D01*
X142358386Y-62026940D01*
X142450272Y-62065000D01*
X142549728Y-62065000D01*
X142641614Y-62026940D01*
X142711940Y-61956614D01*
X142750000Y-61864728D01*
X142750000Y-62733783D01*
X142775644Y-62728683D01*
X142775649Y-62728682D01*
X142947618Y-62657451D01*
X142947631Y-62657444D01*
X143102401Y-62554029D01*
X143102405Y-62554026D01*
X143234026Y-62422405D01*
X143234029Y-62422401D01*
X143337444Y-62267631D01*
X143337449Y-62267622D01*
X143408683Y-62095646D01*
X143408685Y-62095638D01*
X143444999Y-61913078D01*
X143445000Y-61913076D01*
X143445000Y-61740000D01*
X142750000Y-61740000D01*
X142750000Y-61240000D01*
X143445000Y-61240000D01*
X143445000Y-61066923D01*
X143444999Y-61066921D01*
X143408685Y-60884361D01*
X143408683Y-60884353D01*
X143337449Y-60712377D01*
X143337444Y-60712368D01*
X143324764Y-60693391D01*
X143303886Y-60626713D01*
X143322371Y-60559333D01*
X143374350Y-60512643D01*
X143427866Y-60500500D01*
X147375500Y-60500500D01*
X147442539Y-60520185D01*
X147488294Y-60572989D01*
X147499500Y-60624500D01*
X147499500Y-90375500D01*
X147479815Y-90442539D01*
X147427011Y-90488294D01*
X147375500Y-90499500D01*
X130624500Y-90499500D01*
X130557461Y-90479815D01*
X130511706Y-90427011D01*
X130500500Y-90375500D01*
X130500500Y-73070333D01*
X131778700Y-73070333D01*
X131778700Y-88290333D01*
X131778700Y-88369667D01*
X131799233Y-88446298D01*
X131799233Y-88446299D01*
X131808889Y-88463022D01*
X131808889Y-88463025D01*
X131808891Y-88463025D01*
X131822136Y-88485966D01*
X131838899Y-88515001D01*
X131838901Y-88515004D01*
X131902062Y-88578165D01*
X131902068Y-88578170D01*
X133014559Y-89690661D01*
X133014580Y-89690684D01*
X133074993Y-89751097D01*
X133074995Y-89751098D01*
X133074997Y-89751100D01*
X133109347Y-89770931D01*
X133109349Y-89770933D01*
X133109350Y-89770933D01*
X133143702Y-89790767D01*
X133220333Y-89811300D01*
X133220335Y-89811300D01*
X139649665Y-89811300D01*
X139649667Y-89811300D01*
X139726298Y-89790767D01*
X139760650Y-89770933D01*
X139795003Y-89751100D01*
X139851100Y-89695003D01*
X139851100Y-89695001D01*
X139861308Y-89684794D01*
X139861310Y-89684791D01*
X140444793Y-89101308D01*
X140444798Y-89101304D01*
X140455001Y-89091100D01*
X140455003Y-89091100D01*
X140511100Y-89035003D01*
X140531502Y-88999666D01*
X140550767Y-88966298D01*
X140571300Y-88889667D01*
X140571300Y-88810333D01*
X140571300Y-88548413D01*
X140590985Y-88481374D01*
X140643789Y-88435619D01*
X140650475Y-88432799D01*
X140762637Y-88389348D01*
X140936041Y-88281981D01*
X141086764Y-88144579D01*
X141209673Y-87981821D01*
X141300582Y-87799250D01*
X141356397Y-87603083D01*
X141375215Y-87400000D01*
X141369115Y-87334174D01*
X141356397Y-87196917D01*
X141343048Y-87150000D01*
X141300582Y-87000750D01*
X141300159Y-86999901D01*
X141250415Y-86900000D01*
X141209673Y-86818179D01*
X141086764Y-86655421D01*
X141086762Y-86655418D01*
X140944051Y-86525321D01*
X141709500Y-86525321D01*
X141709500Y-88274678D01*
X141724032Y-88347735D01*
X141724033Y-88347739D01*
X141724034Y-88347740D01*
X141779399Y-88430601D01*
X141862260Y-88485966D01*
X141862264Y-88485967D01*
X141935321Y-88500499D01*
X141935324Y-88500500D01*
X141935326Y-88500500D01*
X143684676Y-88500500D01*
X143684677Y-88500499D01*
X143757740Y-88485966D01*
X143840601Y-88430601D01*
X143895966Y-88347740D01*
X143910500Y-88274674D01*
X143910500Y-86525326D01*
X143910500Y-86525323D01*
X143910499Y-86525321D01*
X143895967Y-86452264D01*
X143895966Y-86452260D01*
X143840601Y-86369399D01*
X143757740Y-86314034D01*
X143757739Y-86314033D01*
X143757735Y-86314032D01*
X143684677Y-86299500D01*
X143684674Y-86299500D01*
X143384500Y-86299500D01*
X143317461Y-86279815D01*
X143271706Y-86227011D01*
X143260500Y-86175500D01*
X143260500Y-80537965D01*
X143280185Y-80470926D01*
X143296819Y-80450284D01*
X143723720Y-80023383D01*
X145930489Y-77816614D01*
X145989798Y-77713887D01*
X145989799Y-77713886D01*
X146020500Y-77599309D01*
X146020500Y-69725335D01*
X146031705Y-69673825D01*
X146055165Y-69622457D01*
X146075647Y-69480000D01*
X146055165Y-69337543D01*
X145995377Y-69206627D01*
X145901128Y-69097857D01*
X145780053Y-69020047D01*
X145780051Y-69020046D01*
X145780049Y-69020045D01*
X145780050Y-69020045D01*
X145641963Y-68979500D01*
X145641961Y-68979500D01*
X145498039Y-68979500D01*
X145498036Y-68979500D01*
X145359949Y-69020045D01*
X145238873Y-69097856D01*
X145144623Y-69206626D01*
X145144622Y-69206628D01*
X145084834Y-69337543D01*
X145064353Y-69480000D01*
X145084834Y-69622453D01*
X145084834Y-69622454D01*
X145084834Y-69622455D01*
X145084835Y-69622457D01*
X145108294Y-69673825D01*
X145119500Y-69725335D01*
X145119500Y-73665500D01*
X145099815Y-73732539D01*
X145047011Y-73778294D01*
X144995500Y-73789500D01*
X144547727Y-73789500D01*
X144508995Y-73781073D01*
X144508563Y-73782545D01*
X144361963Y-73739500D01*
X144361961Y-73739500D01*
X144218039Y-73739500D01*
X144218036Y-73739500D01*
X144079949Y-73780045D01*
X143958873Y-73857856D01*
X143864623Y-73966626D01*
X143864622Y-73966628D01*
X143804834Y-74097543D01*
X143784353Y-74240000D01*
X143804834Y-74382456D01*
X143864622Y-74513371D01*
X143864623Y-74513373D01*
X143958872Y-74622143D01*
X144079947Y-74699953D01*
X144079950Y-74699954D01*
X144079949Y-74699954D01*
X144218036Y-74740499D01*
X144218038Y-74740500D01*
X144218039Y-74740500D01*
X144361962Y-74740500D01*
X144361962Y-74740499D01*
X144414797Y-74724985D01*
X144508563Y-74697455D01*
X144508995Y-74698926D01*
X144547727Y-74690500D01*
X144995500Y-74690500D01*
X145062539Y-74710185D01*
X145108294Y-74762989D01*
X145119500Y-74814500D01*
X145119500Y-77302035D01*
X145099815Y-77369074D01*
X145083181Y-77389716D01*
X142449513Y-80023383D01*
X142449509Y-80023389D01*
X142390201Y-80126112D01*
X142390200Y-80126117D01*
X142359500Y-80240691D01*
X142359500Y-86175500D01*
X142339815Y-86242539D01*
X142287011Y-86288294D01*
X142235500Y-86299500D01*
X141935323Y-86299500D01*
X141862264Y-86314032D01*
X141862260Y-86314033D01*
X141779399Y-86369399D01*
X141724033Y-86452260D01*
X141724032Y-86452264D01*
X141709500Y-86525321D01*
X140944051Y-86525321D01*
X140936041Y-86518019D01*
X140936039Y-86518017D01*
X140762642Y-86410655D01*
X140762635Y-86410651D01*
X140636769Y-86361891D01*
X140572456Y-86336976D01*
X140371976Y-86299500D01*
X140168024Y-86299500D01*
X139967544Y-86336976D01*
X139967541Y-86336976D01*
X139967541Y-86336977D01*
X139777364Y-86410651D01*
X139777357Y-86410655D01*
X139603960Y-86518017D01*
X139603958Y-86518019D01*
X139453237Y-86655418D01*
X139330327Y-86818178D01*
X139239422Y-87000739D01*
X139239417Y-87000752D01*
X139183602Y-87196917D01*
X139164785Y-87399999D01*
X139164785Y-87400000D01*
X139183602Y-87603082D01*
X139239417Y-87799247D01*
X139239422Y-87799260D01*
X139330327Y-87981821D01*
X139453237Y-88144581D01*
X139603958Y-88281980D01*
X139603960Y-88281982D01*
X139618688Y-88291101D01*
X139777363Y-88389348D01*
X139889495Y-88432788D01*
X139944895Y-88475358D01*
X139968486Y-88541125D01*
X139968700Y-88548413D01*
X139968700Y-88673836D01*
X139949015Y-88740875D01*
X139932381Y-88761517D01*
X139521517Y-89172381D01*
X139460194Y-89205866D01*
X139433836Y-89208700D01*
X137706763Y-89208700D01*
X137639724Y-89189015D01*
X137593969Y-89136211D01*
X137584025Y-89067053D01*
X137613050Y-89003497D01*
X137619082Y-88997019D01*
X137726436Y-88889665D01*
X137904793Y-88711308D01*
X137904798Y-88711304D01*
X137915001Y-88701100D01*
X137915003Y-88701100D01*
X137971100Y-88645003D01*
X137991944Y-88608900D01*
X138010767Y-88576298D01*
X138025831Y-88520075D01*
X138062193Y-88460417D01*
X138100807Y-88436544D01*
X138222637Y-88389348D01*
X138396041Y-88281981D01*
X138546764Y-88144579D01*
X138669673Y-87981821D01*
X138760582Y-87799250D01*
X138816397Y-87603083D01*
X138835215Y-87400000D01*
X138829115Y-87334174D01*
X138816397Y-87196917D01*
X138803048Y-87150000D01*
X138760582Y-87000750D01*
X138760159Y-86999901D01*
X138710415Y-86900000D01*
X138669673Y-86818179D01*
X138546764Y-86655421D01*
X138546762Y-86655418D01*
X138396041Y-86518019D01*
X138396039Y-86518017D01*
X138222642Y-86410655D01*
X138222635Y-86410651D01*
X138096769Y-86361891D01*
X138032456Y-86336976D01*
X137831976Y-86299500D01*
X137628024Y-86299500D01*
X137427544Y-86336976D01*
X137427541Y-86336976D01*
X137427541Y-86336977D01*
X137237364Y-86410651D01*
X137237357Y-86410655D01*
X137063960Y-86518017D01*
X137063958Y-86518019D01*
X136913237Y-86655418D01*
X136790327Y-86818178D01*
X136703182Y-86993188D01*
X136655679Y-87044425D01*
X136588016Y-87061846D01*
X136521676Y-87039920D01*
X136477721Y-86985609D01*
X136472407Y-86970008D01*
X136463434Y-86936518D01*
X136463429Y-86936507D01*
X136363600Y-86722422D01*
X136363599Y-86722420D01*
X136228113Y-86528926D01*
X136228108Y-86528920D01*
X136061082Y-86361894D01*
X135867578Y-86226399D01*
X135653492Y-86126570D01*
X135653486Y-86126567D01*
X135440000Y-86069364D01*
X135440000Y-86966988D01*
X135382993Y-86934075D01*
X135255826Y-86900000D01*
X135124174Y-86900000D01*
X134997007Y-86934075D01*
X134940000Y-86966988D01*
X134940000Y-86069364D01*
X134939999Y-86069364D01*
X134726513Y-86126567D01*
X134726507Y-86126570D01*
X134512422Y-86226399D01*
X134512420Y-86226400D01*
X134318926Y-86361886D01*
X134318920Y-86361891D01*
X134151891Y-86528920D01*
X134151886Y-86528926D01*
X134016400Y-86722420D01*
X134016399Y-86722422D01*
X133916570Y-86936507D01*
X133916567Y-86936513D01*
X133859364Y-87149999D01*
X133859364Y-87150000D01*
X134756988Y-87150000D01*
X134724075Y-87207007D01*
X134690000Y-87334174D01*
X134690000Y-87465826D01*
X134724075Y-87592993D01*
X134756988Y-87650000D01*
X133859364Y-87650000D01*
X133916567Y-87863486D01*
X133916570Y-87863492D01*
X134016399Y-88077578D01*
X134151894Y-88271082D01*
X134318918Y-88438106D01*
X134320825Y-88439706D01*
X134321435Y-88440623D01*
X134322750Y-88441938D01*
X134322485Y-88442202D01*
X134359531Y-88497875D01*
X134360643Y-88567736D01*
X134323810Y-88627108D01*
X134260724Y-88657141D01*
X134241125Y-88658700D01*
X133836165Y-88658700D01*
X133769126Y-88639015D01*
X133748484Y-88622381D01*
X133087619Y-87961516D01*
X133054134Y-87900193D01*
X133051300Y-87873835D01*
X133051300Y-77556163D01*
X133070985Y-77489124D01*
X133087615Y-77468486D01*
X133239282Y-77316818D01*
X133300605Y-77283334D01*
X133326963Y-77280500D01*
X133421962Y-77280500D01*
X133421962Y-77280499D01*
X133560053Y-77239953D01*
X133681128Y-77162143D01*
X133775377Y-77053373D01*
X133835165Y-76922457D01*
X133855647Y-76780000D01*
X133835165Y-76637543D01*
X133775377Y-76506627D01*
X133681128Y-76397857D01*
X133560053Y-76320047D01*
X133560051Y-76320046D01*
X133560049Y-76320045D01*
X133560050Y-76320045D01*
X133421963Y-76279500D01*
X133421961Y-76279500D01*
X133278039Y-76279500D01*
X133278036Y-76279500D01*
X133139949Y-76320045D01*
X133018873Y-76397856D01*
X132924623Y-76506626D01*
X132924622Y-76506628D01*
X132864834Y-76637543D01*
X132844353Y-76780000D01*
X132845519Y-76788112D01*
X132835572Y-76857270D01*
X132810461Y-76893435D01*
X132592981Y-77110916D01*
X132531658Y-77144401D01*
X132461967Y-77139417D01*
X132406033Y-77097546D01*
X132381616Y-77032081D01*
X132381300Y-77023235D01*
X132381300Y-73286163D01*
X132400985Y-73219124D01*
X132417615Y-73198486D01*
X133299282Y-72316818D01*
X133360605Y-72283334D01*
X133386963Y-72280500D01*
X133481962Y-72280500D01*
X133481962Y-72280499D01*
X133620053Y-72239953D01*
X133741128Y-72162143D01*
X133835377Y-72053373D01*
X133895165Y-71922457D01*
X133915647Y-71780000D01*
X133895165Y-71637543D01*
X133835377Y-71506627D01*
X133741128Y-71397857D01*
X133620053Y-71320047D01*
X133620051Y-71320046D01*
X133620049Y-71320045D01*
X133620050Y-71320045D01*
X133481963Y-71279500D01*
X133481961Y-71279500D01*
X133338039Y-71279500D01*
X133338036Y-71279500D01*
X133199949Y-71320045D01*
X133078873Y-71397856D01*
X132984623Y-71506626D01*
X132984622Y-71506628D01*
X132924834Y-71637543D01*
X132904353Y-71780000D01*
X132905519Y-71788112D01*
X132895572Y-71857270D01*
X132870461Y-71893435D01*
X131894999Y-72868898D01*
X131838902Y-72924994D01*
X131838900Y-72924997D01*
X131819066Y-72959350D01*
X131819065Y-72959350D01*
X131799232Y-72993701D01*
X131799233Y-72993701D01*
X131799233Y-72993702D01*
X131799233Y-72993703D01*
X131778700Y-73070333D01*
X130500500Y-73070333D01*
X130500500Y-63940000D01*
X135405626Y-63940000D01*
X136234943Y-63940000D01*
X136194225Y-63956866D01*
X136116866Y-64034225D01*
X136075000Y-64135299D01*
X136075000Y-64244701D01*
X136116866Y-64345775D01*
X136194225Y-64423134D01*
X136234943Y-64440000D01*
X135405626Y-64440000D01*
X135412466Y-64474389D01*
X135412468Y-64474397D01*
X135485964Y-64651833D01*
X135485969Y-64651842D01*
X135592667Y-64811526D01*
X135592670Y-64811530D01*
X135728469Y-64947329D01*
X135728473Y-64947332D01*
X135888157Y-65054030D01*
X135888166Y-65054035D01*
X136065602Y-65127531D01*
X136065610Y-65127533D01*
X136249999Y-65164210D01*
X136250000Y-65164210D01*
X136250000Y-64446236D01*
X136295299Y-64465000D01*
X136704701Y-64465000D01*
X136750000Y-64446236D01*
X136750000Y-65164210D01*
X136934389Y-65127533D01*
X136934397Y-65127531D01*
X137111833Y-65054035D01*
X137111842Y-65054030D01*
X137271526Y-64947332D01*
X137271530Y-64947329D01*
X137407329Y-64811530D01*
X137407332Y-64811526D01*
X137514030Y-64651842D01*
X137514035Y-64651833D01*
X137587531Y-64474397D01*
X137587533Y-64474389D01*
X137594374Y-64440000D01*
X136765057Y-64440000D01*
X136805775Y-64423134D01*
X136883134Y-64345775D01*
X136925000Y-64244701D01*
X136925000Y-64135299D01*
X136883134Y-64034225D01*
X136805775Y-63956866D01*
X136765057Y-63940000D01*
X137594374Y-63940000D01*
X140405626Y-63940000D01*
X141234943Y-63940000D01*
X141194225Y-63956866D01*
X141116866Y-64034225D01*
X141075000Y-64135299D01*
X141075000Y-64244701D01*
X141116866Y-64345775D01*
X141194225Y-64423134D01*
X141234943Y-64440000D01*
X140405626Y-64440000D01*
X140412466Y-64474389D01*
X140412468Y-64474397D01*
X140485964Y-64651833D01*
X140485969Y-64651842D01*
X140592667Y-64811526D01*
X140592670Y-64811530D01*
X140728469Y-64947329D01*
X140728473Y-64947332D01*
X140888157Y-65054030D01*
X140888166Y-65054035D01*
X141065602Y-65127531D01*
X141065610Y-65127533D01*
X141249999Y-65164210D01*
X141250000Y-65164210D01*
X141250000Y-64446236D01*
X141295299Y-64465000D01*
X141704701Y-64465000D01*
X141750000Y-64446236D01*
X141750000Y-65164210D01*
X141934389Y-65127533D01*
X141934397Y-65127531D01*
X142111833Y-65054035D01*
X142111842Y-65054030D01*
X142271526Y-64947332D01*
X142271530Y-64947329D01*
X142407329Y-64811530D01*
X142407332Y-64811526D01*
X142514030Y-64651842D01*
X142514035Y-64651833D01*
X142587531Y-64474397D01*
X142587533Y-64474389D01*
X142594374Y-64440000D01*
X141765057Y-64440000D01*
X141805775Y-64423134D01*
X141883134Y-64345775D01*
X141925000Y-64244701D01*
X141925000Y-64135299D01*
X141883134Y-64034225D01*
X141805775Y-63956866D01*
X141765057Y-63940000D01*
X142594374Y-63940000D01*
X142587533Y-63905610D01*
X142587531Y-63905602D01*
X142514035Y-63728166D01*
X142514030Y-63728157D01*
X142407332Y-63568473D01*
X142407329Y-63568469D01*
X142271530Y-63432670D01*
X142271526Y-63432667D01*
X142111842Y-63325969D01*
X142111833Y-63325964D01*
X141934397Y-63252468D01*
X141934389Y-63252466D01*
X141750000Y-63215788D01*
X141750000Y-63933763D01*
X141704701Y-63915000D01*
X141295299Y-63915000D01*
X141250000Y-63933763D01*
X141250000Y-63215789D01*
X141249999Y-63215788D01*
X141065610Y-63252466D01*
X141065602Y-63252468D01*
X140888166Y-63325964D01*
X140888157Y-63325969D01*
X140728473Y-63432667D01*
X140728469Y-63432670D01*
X140592670Y-63568469D01*
X140592667Y-63568473D01*
X140485969Y-63728157D01*
X140485964Y-63728166D01*
X140412468Y-63905602D01*
X140412466Y-63905610D01*
X140405626Y-63940000D01*
X137594374Y-63940000D01*
X137587533Y-63905610D01*
X137587531Y-63905602D01*
X137514035Y-63728166D01*
X137514030Y-63728157D01*
X137407332Y-63568473D01*
X137407329Y-63568469D01*
X137271530Y-63432670D01*
X137271526Y-63432667D01*
X137111842Y-63325969D01*
X137111833Y-63325964D01*
X136934397Y-63252468D01*
X136934389Y-63252466D01*
X136750000Y-63215788D01*
X136750000Y-63933763D01*
X136704701Y-63915000D01*
X136295299Y-63915000D01*
X136250000Y-63933763D01*
X136250000Y-63215789D01*
X136249999Y-63215788D01*
X136065610Y-63252466D01*
X136065602Y-63252468D01*
X135888166Y-63325964D01*
X135888157Y-63325969D01*
X135728473Y-63432667D01*
X135728469Y-63432670D01*
X135592670Y-63568469D01*
X135592667Y-63568473D01*
X135485969Y-63728157D01*
X135485964Y-63728166D01*
X135412468Y-63905602D01*
X135412466Y-63905610D01*
X135405626Y-63940000D01*
X130500500Y-63940000D01*
X130500500Y-60624500D01*
X130520185Y-60557461D01*
X130572989Y-60511706D01*
X130624500Y-60500500D01*
X134572134Y-60500500D01*
X134639173Y-60520185D01*
G37*
G04 #@! TD.AperFunction*
M02*
