G04 #@! TF.GenerationSoftware,KiCad,Pcbnew,8.0.5*
G04 #@! TF.CreationDate,2025-02-16T01:19:17+09:00*
G04 #@! TF.ProjectId,usb_serial,7573625f-7365-4726-9961-6c2e6b696361,rev?*
G04 #@! TF.SameCoordinates,Original*
G04 #@! TF.FileFunction,Paste,Top*
G04 #@! TF.FilePolarity,Positive*
%FSLAX46Y46*%
G04 Gerber Fmt 4.6, Leading zero omitted, Abs format (unit mm)*
G04 Created by KiCad (PCBNEW 8.0.5) date 2025-02-16 01:19:17*
%MOMM*%
%LPD*%
G01*
G04 APERTURE LIST*
G04 Aperture macros list*
%AMRoundRect*
0 Rectangle with rounded corners*
0 $1 Rounding radius*
0 $2 $3 $4 $5 $6 $7 $8 $9 X,Y pos of 4 corners*
0 Add a 4 corners polygon primitive as box body*
4,1,4,$2,$3,$4,$5,$6,$7,$8,$9,$2,$3,0*
0 Add four circle primitives for the rounded corners*
1,1,$1+$1,$2,$3*
1,1,$1+$1,$4,$5*
1,1,$1+$1,$6,$7*
1,1,$1+$1,$8,$9*
0 Add four rect primitives between the rounded corners*
20,1,$1+$1,$2,$3,$4,$5,0*
20,1,$1+$1,$4,$5,$6,$7,0*
20,1,$1+$1,$6,$7,$8,$9,0*
20,1,$1+$1,$8,$9,$2,$3,0*%
G04 Aperture macros list end*
%ADD10R,1.300000X0.380000*%
%ADD11RoundRect,0.140000X-0.140000X-0.170000X0.140000X-0.170000X0.140000X0.170000X-0.140000X0.170000X0*%
%ADD12RoundRect,0.243750X0.456250X-0.243750X0.456250X0.243750X-0.456250X0.243750X-0.456250X-0.243750X0*%
%ADD13RoundRect,0.140000X-0.170000X0.140000X-0.170000X-0.140000X0.170000X-0.140000X0.170000X0.140000X0*%
%ADD14RoundRect,0.243750X-0.456250X0.243750X-0.456250X-0.243750X0.456250X-0.243750X0.456250X0.243750X0*%
%ADD15RoundRect,0.250000X0.475000X-0.250000X0.475000X0.250000X-0.475000X0.250000X-0.475000X-0.250000X0*%
%ADD16RoundRect,0.135000X0.135000X0.185000X-0.135000X0.185000X-0.135000X-0.185000X0.135000X-0.185000X0*%
%ADD17R,0.400000X1.350000*%
%ADD18RoundRect,0.470250X0.565500X0.470250X-0.565500X0.470250X-0.565500X-0.470250X0.565500X-0.470250X0*%
%ADD19R,1.800000X1.900000*%
%ADD20RoundRect,0.478875X0.551500X0.478875X-0.551500X0.478875X-0.551500X-0.478875X0.551500X-0.478875X0*%
G04 APERTURE END LIST*
D10*
X135300000Y-70275000D03*
X135300000Y-70925000D03*
X135300000Y-71575000D03*
X135300000Y-72225000D03*
X135300000Y-72875000D03*
X135300000Y-73525000D03*
X135300000Y-74175000D03*
X135300000Y-74825000D03*
X135300000Y-75475000D03*
X135300000Y-76125000D03*
X135300000Y-76775000D03*
X135300000Y-77425000D03*
X135300000Y-78075000D03*
X135300000Y-78725000D03*
X142700000Y-78725000D03*
X142700000Y-78075000D03*
X142700000Y-77425000D03*
X142700000Y-76775000D03*
X142700000Y-76125000D03*
X142700000Y-75475000D03*
X142700000Y-74825000D03*
X142700000Y-74175000D03*
X142700000Y-73525000D03*
X142700000Y-72875000D03*
X142700000Y-72225000D03*
X142700000Y-71575000D03*
X142700000Y-70925000D03*
X142700000Y-70275000D03*
D11*
X144980000Y-75640000D03*
X145940000Y-75640000D03*
D12*
X146200000Y-63307500D03*
X146200000Y-61432500D03*
D13*
X144990000Y-78380000D03*
X144990000Y-79340000D03*
D14*
X131840000Y-79112500D03*
X131840000Y-80987500D03*
D15*
X145520000Y-74240000D03*
X145520000Y-72340000D03*
D16*
X132350000Y-77350000D03*
X131330000Y-77350000D03*
X146710000Y-66640000D03*
X145690000Y-66640000D03*
D14*
X131840000Y-68122500D03*
X131840000Y-69997500D03*
D17*
X140300000Y-64225000D03*
X139650000Y-64225000D03*
X139000000Y-64225000D03*
X138350000Y-64225000D03*
X137700000Y-64225000D03*
D18*
X142635750Y-61540500D03*
D19*
X140150000Y-61550000D03*
X137850000Y-61550000D03*
D20*
X135369625Y-61542250D03*
D16*
X132350000Y-66360000D03*
X131330000Y-66360000D03*
D11*
X143010000Y-66650000D03*
X143970000Y-66650000D03*
M02*
